<?xml version="1.0" encoding="UTF-8" standalone="no"?>
<!-- Created with Inkscape (http://www.inkscape.org/) -->

<svg
   xmlns:dc="http://purl.org/dc/elements/1.1/"
   xmlns:cc="http://creativecommons.org/ns#"
   xmlns:rdf="http://www.w3.org/1999/02/22-rdf-syntax-ns#"
   xmlns:svg="http://www.w3.org/2000/svg"
   xmlns="http://www.w3.org/2000/svg"
   xmlns:sodipodi="http://sodipodi.sourceforge.net/DTD/sodipodi-0.dtd"
   xmlns:inkscape="http://www.inkscape.org/namespaces/inkscape"
   width="134.67924mm"
   height="82.328285mm"
   viewBox="0 0 134.67924 82.328285"
   version="1.1"
   id="svg8"
   inkscape:version="0.92.3 (2405546, 2018-03-11)"
   sodipodi:docname="group.svg">
  <defs
     id="defs2" />
  <sodipodi:namedview
     id="base"
     pagecolor="#ffffff"
     bordercolor="#666666"
     borderopacity="1.0"
     inkscape:pageopacity="0.0"
     inkscape:pageshadow="2"
     inkscape:zoom="0.35"
     inkscape:cx="568.2564"
     inkscape:cy="-392.3982"
     inkscape:document-units="mm"
     inkscape:current-layer="layer1"
     showgrid="false"
     inkscape:window-width="1600"
     inkscape:window-height="1163"
     inkscape:window-x="1600"
     inkscape:window-y="0"
     inkscape:window-maximized="1"
     fit-margin-top="0"
     fit-margin-left="0"
     fit-margin-right="0"
     fit-margin-bottom="0" />
  <metadata
     id="metadata5">
    <rdf:RDF>
      <cc:Work
         rdf:about="">
        <dc:format>image/svg+xml</dc:format>
        <dc:type
           rdf:resource="http://purl.org/dc/dcmitype/StillImage" />
        <dc:title></dc:title>
      </cc:Work>
    </rdf:RDF>
  </metadata>
  <g
     inkscape:label="Calque 1"
     inkscape:groupmode="layer"
     id="layer1"
     transform="translate(228.59224,35.805067)">
    <g
       style="clip-rule:evenodd;fill-rule:evenodd;stroke-linejoin:round;stroke-miterlimit:1.41420996"
       id="g10"
       transform="matrix(0.26458333,0,0,0.26458333,-406.33017,-402.54565)">
      <g
         id="g4"
         transform="matrix(0.581928,0,0,0.489013,18.8771,698.385)">
        <path
           inkscape:connector-curvature="0"
           id="path2"
           d="m 1363.27,1839.93 12.01,-2.05 c 52.55,0 74.6,42.67 74.6,95.23 0,2.07 -0.07,4.13 -0.2,6.18 v 36.21 c 0,36.01 -29.19,65.25 -65.33,65.33 h -197.08 c -36.06,0 -65.33,-29.27 -65.33,-65.33 v -44.25 c 0,-4.86 0.53,-9.6 1.54,-14.16 7.62,-44.94 22.72,-79.21 69.82,-79.21 l 14.44,2.05 c 15.35,17.04 58.64,45.49 79.48,45.49 20.85,0 60.7,-28.45 76.05,-45.49 z" />
      </g>
      <g
         id="g8"
         transform="translate(-276.993,-632.931)">
        <path
           inkscape:connector-curvature="0"
           id="path6"
           d="m 1034.18,2115.4 -4.76,-6.24 23.97,-0.26 41.4,33.07 -0.97,21.23 c 0.87,4.65 1.32,9.48 1.32,14.45 0,35.08 -22.73,63.55 -50.73,63.55 -27.99,0 -50.726,-28.47 -50.726,-63.55 0,-4.61 0.394,-9.11 1.141,-13.44 l -2.67,-41.29 14.265,7.24 -2.78,-13.73 21.83,2.26 c 2.79,-1.41 5.7,-2.51 8.71,-3.29 z m 28.39,39.32 -29.32,5.77 13.87,-16.03 0.18,-5.65 -16.93,14.38 -2.05,0.94 c -5.01,10.11 -8.96,23.12 -11.24,34.26 l -8.75,-13.74 c -0.05,0.99 -0.08,1.99 -0.08,3 0,25.01 16.2,45.31 36.16,45.31 19.96,0 36.17,-20.3 36.17,-45.31 0,-0.29 0,-0.58 -0.01,-0.88 l -7.11,11.15 c -2.26,-10.76 -6.08,-23.29 -10.89,-33.2 z m -52.08,7.51 -0.1,0.05 c -0.1,0.34 -0.2,0.7 -0.29,1.05 0.13,-0.37 0.26,-0.73 0.39,-1.1 z" />
      </g>
    </g>
    <g
       style="clip-rule:evenodd;fill-rule:evenodd;stroke-linejoin:round;stroke-miterlimit:1.41420996"
       id="g20"
       transform="matrix(0.26458333,0,0,0.26458333,-360.7724,-426.32186)">
      <g
         id="g14"
         transform="matrix(0.581928,0,0,0.489013,18.8771,698.385)">
        <path
           inkscape:connector-curvature="0"
           id="path12"
           d="m 1363.27,1839.93 12.01,-2.05 c 52.55,0 74.6,42.67 74.6,95.23 0,2.07 -0.07,4.13 -0.2,6.18 v 36.21 c 0,36.01 -29.19,65.25 -65.33,65.33 h -197.08 c -36.06,0 -65.33,-29.27 -65.33,-65.33 v -44.25 c 0,-4.86 0.53,-9.6 1.54,-14.16 7.62,-44.94 22.72,-79.21 69.82,-79.21 l 14.44,2.05 c 15.35,17.04 58.64,45.49 79.48,45.49 20.85,0 60.7,-28.45 76.05,-45.49 z" />
      </g>
      <g
         id="g18"
         transform="translate(-276.993,-632.931)">
        <path
           inkscape:connector-curvature="0"
           id="path16"
           d="m 1034.18,2115.4 -4.76,-6.24 23.97,-0.26 41.4,33.07 -0.97,21.23 c 0.87,4.65 1.32,9.48 1.32,14.45 0,35.08 -22.73,63.55 -50.73,63.55 -27.99,0 -50.726,-28.47 -50.726,-63.55 0,-4.61 0.394,-9.11 1.141,-13.44 l -2.67,-41.29 14.265,7.24 -2.78,-13.73 21.83,2.26 c 2.79,-1.41 5.7,-2.51 8.71,-3.29 z m 28.39,39.32 -29.32,5.77 13.87,-16.03 0.18,-5.65 -16.93,14.38 -2.05,0.94 c -5.01,10.11 -8.96,23.12 -11.24,34.26 l -8.75,-13.74 c -0.05,0.99 -0.08,1.99 -0.08,3 0,25.01 16.2,45.31 36.16,45.31 19.96,0 36.17,-20.3 36.17,-45.31 0,-0.29 0,-0.58 -0.01,-0.88 l -7.11,11.15 c -2.26,-10.76 -6.08,-23.29 -10.89,-33.2 z m -52.08,7.51 -0.1,0.05 c -0.1,0.34 -0.2,0.7 -0.29,1.05 0.13,-0.37 0.26,-0.73 0.39,-1.1 z" />
      </g>
    </g>
    <g
       style="clip-rule:evenodd;fill-rule:evenodd;stroke-linejoin:round;stroke-miterlimit:1.41420996"
       id="g294"
       transform="matrix(0.26458333,0,0,0.26458333,-954.81609,-211.72599)">
      <g
         id="g24"
         transform="translate(299.467,-1242.22)">
        <path
           inkscape:connector-curvature="0"
           id="path22"
           d="m 2806.62,2218.28 c -20.98,0 -38.02,-14.32 -38.02,-31.95 0,0 12.52,-49.58 36.13,-67.17 l 14.32,-0.2 c 0.4,4.54 26.56,21.29 29.49,19.79 0,0 7.24,13.87 12.93,17.01 5.69,-3.14 12.93,-17.01 12.93,-17.01 2.93,1.5 29.09,-15.25 29.48,-19.79 l 14.32,0.2 c 23.61,17.59 36.14,67.17 36.14,67.17 0,17.63 -17.04,31.95 -38.02,31.95 z" />
      </g>
      <g
         id="g28"
         transform="translate(208.151,-634.008)">
        <path
           inkscape:connector-curvature="0"
           id="path26"
           d="m 2899.54,1469.66 c -4.23,-11.17 -6.3,-21.02 -3.95,-24.84 -4.9,-24.49 12.54,-53.8 37.3,-59.37 13.26,-2.99 25.77,0.93 38.39,5.02 12.77,4.14 24.73,7.73 32.32,19.37 12.08,18.54 4.45,44.83 -2.53,63.61 -1.52,5.28 -4.2,17.17 -5.91,22.1 -1.76,5.05 -2.96,9.22 -5.57,12.76 -4.48,6.07 -9.12,10.03 -10.94,9.59 l -2.12,-5.78 c 2.4,-0.94 7.24,-7.7 5.68,-8.48 -0.15,-0.08 -0.96,-0.37 -1.78,0.16 -1.51,0.96 -3.39,3.12 -3.51,3.4 -0.12,0.26 -3.06,3.11 -4.75,3.99 -9.92,5.27 -22.82,7.31 -33.69,3.75 -0.06,0.3 -0.35,4.85 -1.16,6.64 -0.31,0.68 -2.87,-1.38 -2.91,-1.27 0.52,-6.87 -0.59,-18.02 -7.78,-20 -0.1,-0.02 -3.32,1.34 -2.87,1.95 2.65,3.62 8.52,12.75 6.88,13.54 l -1.04,2.52 c 0,0 -11.6,-9.96 -16.88,-18.22 -6.86,-7.87 -10.55,-19.12 -13.18,-30.44 m 77.76,-46.48 c -0.2,-0.06 -0.39,-0.04 -0.57,0.08 l -0.03,0.02 c -0.02,0.02 -0.04,0.03 -0.06,0.05 l -0.03,0.03 -0.02,0.02 -0.02,0.02 -0.01,0.01 c -1.03,1.1 -2.04,2.25 -3.29,3.1 l -0.07,0.05 c -0.76,0.51 -1.63,1.05 -2.59,1.6 -2.41,1.39 -5.41,2.87 -8.76,4.34 -2.05,0.91 -4.23,1.83 -6.48,2.71 l -0.75,0.3 -0.07,0.03 c -10.03,3.9 -21.31,7.28 -28.91,8.14 -0.2,0.02 -0.4,0.04 -0.59,0.06 -2.41,0.24 -4.42,0.2 -5.85,-0.18 l -0.12,0.18 -0.14,5.2 -0.15,5.63 0.03,2.47 0.04,2.27 0.17,2.55 0.14,2.15 0.33,2.67 0.26,2.09 0.56,2.93 0.38,2.03 0.89,3.52 0.45,1.79 c 0.61,1.94 17.87,29.1 20.04,27.95 l -0.15,0.09 c 6.92,2.2 14.39,1.73 21,-1.16 0,0 8.49,-11.18 11.13,-13.38 0.62,-0.5 1.23,-1.02 1.83,-1.55 l 0.06,-0.06 0.19,-0.17 c 0.84,-0.76 1.66,-1.56 2.47,-2.39 0.25,-0.26 0.49,-0.52 0.74,-0.78 2.05,-2.2 3.99,-4.64 5.81,-7.3 0.05,-0.21 0.09,-0.42 0.13,-0.63 0.25,-1.27 0.46,-2.56 0.63,-3.87 1.17,-8.93 0.66,-18.75 -0.62,-27.47 -1.5,-10.35 -4.08,-19.1 -6.21,-23.01 -0.65,-1.22 -1.26,-1.97 -1.79,-2.13" />
      </g>
      <g
         id="g32"
         transform="translate(-8.2633,-767.777)">
        <path
           inkscape:connector-curvature="0"
           id="path30"
           d="m 3180.22,1639.3 -0.12,0.06 0.12,-0.06 0.2,-0.09 z" />
      </g>
      <g
         id="g36"
         transform="translate(-8.2633,-767.777)">
        <path
           inkscape:connector-curvature="0"
           id="path34"
           d="m 3153.37,1638.94 c 0.09,0.04 0.18,0.08 0.27,0.12 l -0.07,-0.03 z" />
      </g>
      <g
         id="g40"
         transform="translate(-8.2633,-767.777)">
        <path
           inkscape:connector-curvature="0"
           id="path38"
           d="m 3181.31,1638.77 -0.13,0.07 0.13,-0.07 0.06,-0.03 z" />
      </g>
      <g
         id="g44"
         transform="translate(-8.2633,-767.777)">
        <path
           inkscape:connector-curvature="0"
           id="path42"
           d="m 3181.74,1638.55 -0.15,0.08 0.15,-0.08 0.05,-0.03 z" />
      </g>
      <g
         id="g48"
         transform="translate(-8.2633,-767.777)">
        <path
           inkscape:connector-curvature="0"
           id="path46"
           d="m 3182.89,1637.91 c 0.12,-0.06 0.23,-0.12 0.34,-0.19 l -0.21,0.12 z" />
      </g>
      <g
         id="g52"
         transform="translate(-8.2633,-767.777)">
        <path
           inkscape:connector-curvature="0"
           id="path50"
           d="m 3183.65,1637.47 h -0.01 0.01 l 0.19,-0.12 z" />
      </g>
      <g
         id="g56"
         transform="translate(-8.2633,-767.777)">
        <path
           inkscape:connector-curvature="0"
           id="path54"
           d="m 3185.67,1636.13 -0.01,0.01 -0.16,0.11 -0.01,0.01 -0.16,0.11 v 0 l -0.67,0.45 0.02,-0.01 c 0.22,-0.14 0.43,-0.29 0.65,-0.44 v 0 0 l 0.08,-0.05 0.08,-0.06 0.01,-0.01 v 0 l 0.05,-0.03 0.11,-0.08 z" />
      </g>
      <g
         id="g60"
         transform="translate(-8.2633,-767.777)">
        <path
           inkscape:connector-curvature="0"
           id="path58"
           d="m 3186.7,1635.38 c -0.07,0.05 -0.13,0.1 -0.2,0.15 l 0.2,-0.15 c 0.07,-0.05 0.13,-0.11 0.2,-0.16 z" />
      </g>
      <g
         id="g64"
         transform="translate(-8.2633,-767.777)">
        <path
           inkscape:connector-curvature="0"
           id="path62"
           d="m 3146.46,1634.82 0.03,0.02 -0.03,-0.02 -0.06,-0.05 z" />
      </g>
      <g
         id="g68"
         transform="translate(-8.2633,-767.777)">
        <path
           inkscape:connector-curvature="0"
           id="path66"
           d="m 3189.22,1633.27 v 0.01 l -0.1,0.08 -0.01,0.02 -0.09,0.08 -0.02,0.02 -0.09,0.07 -0.02,0.02 -0.08,0.07 -0.03,0.03 -0.08,0.07 -0.04,0.04 -0.07,0.05 h 0.01 l 0.06,-0.05 0.04,-0.04 v 0 l 0.02,-0.02 0.06,-0.05 0.02,-0.02 0.01,-0.01 0.03,-0.02 0.05,-0.05 0.02,-0.01 v -0.01 l 0.04,-0.03 0.05,-0.04 0.01,-0.01 0.01,-0.01 0.05,-0.05 0.04,-0.03 v -0.01 l 0.01,-0.01 0.06,-0.05 0.04,-0.03 v 0 z" />
      </g>
      <g
         id="g72"
         transform="translate(-8.2633,-767.777)">
        <path
           inkscape:connector-curvature="0"
           id="path70"
           d="m 3141.43,1630.51 c 0.12,0.12 0.25,0.25 0.37,0.37 -0.18,-0.18 -0.36,-0.36 -0.54,-0.54 z" />
      </g>
      <g
         id="g76"
         transform="translate(-8.2633,-767.777)">
        <path
           inkscape:connector-curvature="0"
           id="path74"
           d="m 3192.13,1630.35 -0.1,0.12 -0.03,0.03 -0.09,0.1 0.04,-0.04 0.05,-0.06 0.01,-0.02 0.02,-0.01 0.07,-0.08 z" />
      </g>
      <g
         id="g80"
         transform="translate(-8.2633,-767.777)">
        <path
           inkscape:connector-curvature="0"
           id="path78"
           d="m 3138.5,1627.32 c 0.11,0.13 0.21,0.25 0.32,0.37 -0.16,-0.18 -0.32,-0.37 -0.47,-0.55 z" />
      </g>
      <g
         id="g84"
         transform="translate(-8.2633,-767.777)">
        <path
           inkscape:connector-curvature="0"
           id="path82"
           d="m 3137.59,1626.19 0.09,0.12 -0.09,-0.12 -0.11,-0.14 z" />
      </g>
      <g
         id="g88"
         transform="translate(-8.2633,-767.777)">
        <path
           inkscape:connector-curvature="0"
           id="path86"
           d="m 3136.04,1624.08 c -0.06,-0.08 -0.12,-0.16 -0.17,-0.24 l 0.14,0.2 z" />
      </g>
      <g
         id="g92"
         transform="translate(-8.2633,-767.777)">
        <path
           inkscape:connector-curvature="0"
           id="path90"
           d="m 3132.77,1618.55 c 0.5,1.01 1.04,2 1.61,2.96 -0.53,-0.89 -1.03,-1.8 -1.5,-2.74 z" />
      </g>
      <g
         id="g96"
         transform="translate(-8.2633,-767.777)">
        <path
           inkscape:connector-curvature="0"
           id="path94"
           d="m 3132.13,1617.22 c 0.07,0.15 0.14,0.3 0.21,0.44 l -0.11,-0.22 z" />
      </g>
      <g
         id="g100"
         transform="translate(-8.2633,-767.777)">
        <path
           inkscape:connector-curvature="0"
           id="path98"
           d="m 3131.93,1616.77 c -0.14,-0.31 -0.27,-0.61 -0.39,-0.91 l -0.1,-0.23 c 0.19,0.46 0.39,0.91 0.59,1.36 z" />
      </g>
      <g
         id="g104"
         transform="translate(-8.2633,-767.777)">
        <path
           inkscape:connector-curvature="0"
           id="path102"
           d="m 3130.82,1614 c 0.11,0.3 0.22,0.6 0.34,0.9 -0.09,-0.22 -0.17,-0.44 -0.25,-0.66 z" />
      </g>
      <g
         id="g108"
         transform="translate(-8.2633,-767.777)">
        <path
           inkscape:connector-curvature="0"
           id="path106"
           d="m 3130.59,1613.34 c 0.05,0.14 0.09,0.29 0.15,0.43 l -0.09,-0.23 z" />
      </g>
      <g
         id="g112"
         transform="translate(-8.2633,-767.777)">
        <path
           inkscape:connector-curvature="0"
           id="path110"
           d="m 3202.29,1612.5 v -0.02 l 0.01,-0.02 z" />
      </g>
      <g
         id="g116"
         transform="translate(-8.2633,-767.777)">
        <path
           inkscape:connector-curvature="0"
           id="path114"
           d="m 3129.97,1611.39 c 0.03,0.09 0.05,0.17 0.07,0.24 l -0.07,-0.24 c -0.02,-0.07 -0.04,-0.16 -0.06,-0.24 z" />
      </g>
      <g
         id="g120"
         transform="translate(-8.2633,-767.777)">
        <path
           inkscape:connector-curvature="0"
           id="path118"
           d="m 3129.45,1609.37 c -0.04,-0.14 -0.07,-0.27 -0.1,-0.41 l 0.06,0.25 z" />
      </g>
      <g
         id="g124"
         transform="translate(-8.2633,-767.777)">
        <path
           inkscape:connector-curvature="0"
           id="path122"
           d="m 3129.2,1608.22 c 0.02,0.11 0.04,0.21 0.06,0.31 l -0.01,-0.06 z" />
      </g>
      <g
         id="g128"
         transform="translate(-8.2633,-767.777)">
        <path
           inkscape:connector-curvature="0"
           id="path126"
           d="m 3128.84,1606.23 c 0.03,0.17 0.05,0.34 0.08,0.5 l -0.04,-0.25 z" />
      </g>
      <g
         id="g132"
         transform="translate(-8.2633,-767.777)">
        <path
           inkscape:connector-curvature="0"
           id="path130"
           d="m 3203.17,1605.25 v 0.11 -0.11 l 0.03,-0.49 z" />
      </g>
      <g
         id="g136"
         transform="translate(-8.2633,-767.777)">
        <path
           inkscape:connector-curvature="0"
           id="path134"
           d="m 3128.76,1595.07 -0.02,0.13 0.02,-0.13 v -0.04 z" />
      </g>
      <g
         id="g140"
         transform="translate(-8.2633,-767.777)">
        <path
           inkscape:connector-curvature="0"
           id="path138"
           d="m 3129.11,1592.92 c -0.01,0.05 -0.02,0.1 -0.03,0.14 l 0.03,-0.13 z" />
      </g>
      <g
         id="g144"
         transform="translate(-8.2633,-767.777)">
        <path
           inkscape:connector-curvature="0"
           id="path142"
           d="m 3204.84,1591.75 -0.01,0.01 c -0.01,0.04 -0.02,0.07 -0.03,0.11 h -0.01 v 0.01 l -0.02,0.08 -0.02,0.05 v 0.01 l -0.01,0.01 0.01,-0.02 0.04,-0.13 0.01,-0.01 z" />
      </g>
      <g
         id="g148"
         transform="translate(-8.2633,-767.777)">
        <path
           inkscape:connector-curvature="0"
           id="path146"
           d="m 3205.52,1589.61 -0.03,0.09 -0.06,0.21 -0.03,0.09 0.01,-0.03 0.02,-0.06 0.03,-0.1 0.03,-0.11 0.02,-0.05 z" />
      </g>
      <g
         id="g152"
         transform="translate(-8.2633,-767.777)">
        <path
           inkscape:connector-curvature="0"
           id="path150"
           d="m 3206.79,1584.92 c 0.03,-0.16 0.07,-0.32 0.11,-0.48 l 0.01,-0.08 z" />
      </g>
      <g
         id="g156"
         transform="translate(-8.2633,-767.777)">
        <path
           inkscape:connector-curvature="0"
           id="path154"
           d="m 3132.83,1582.08 -0.01,0.01 z" />
      </g>
      <g
         id="g160"
         transform="translate(-8.2633,-767.777)">
        <path
           inkscape:connector-curvature="0"
           id="path158"
           d="m 3207.75,1579.76 -0.02,0.12 -0.01,0.06 -0.01,0.14 -0.01,0.05 -0.02,0.14 -0.01,0.04 -0.02,0.16 v 0 l -0.03,0.18 -0.02,0.13 -0.01,0.05 -0.01,0.09 -0.02,0.11 v -0.02 l 0.02,-0.09 0.01,-0.07 v -0.02 0 l 0.01,-0.05 0.02,-0.14 0.03,-0.17 v 0 0 l 0.01,-0.05 0.01,-0.11 0.01,-0.02 v -0.02 l 0.01,-0.06 0.01,-0.08 v -0.02 l 0.01,-0.03 0.01,-0.08 v -0.06 l 0.01,-0.01 v -0.05 l 0.02,-0.09 z" />
      </g>
      <g
         id="g164"
         transform="translate(-8.2633,-767.777)">
        <path
           inkscape:connector-curvature="0"
           id="path162"
           d="m 3207.98,1577.78 -0.01,0.14 0.01,-0.14 0.02,-0.19 z" />
      </g>
      <g
         id="g168"
         transform="translate(-8.2633,-767.777)">
        <path
           inkscape:connector-curvature="0"
           id="path166"
           d="m 3137.66,1574.45 0.17,-0.21 -0.15,0.19 -0.02,0.02 -0.02,0.03 -0.07,0.09 -0.07,0.1 -0.02,0.02 -0.02,0.03 -0.07,0.09 -0.07,0.09 -0.02,0.03 -0.02,0.02 -0.07,0.1 -0.07,0.09 -0.01,0.03 -0.02,0.02 -0.14,0.19 0.16,-0.21 0.08,-0.12 0.09,-0.12 0.09,-0.12 0.09,-0.12 0.09,-0.12 z" />
      </g>
      <g
         id="g172"
         transform="translate(-8.2633,-767.777)">
        <path
           inkscape:connector-curvature="0"
           id="path170"
           d="m 3208.16,1574.97 -0.01,0.07 v 0.16 l -0.01,0.07 0.01,-0.03 v -0.04 -0.08 -0.08 -0.04 z" />
      </g>
      <g
         id="g176"
         transform="translate(-8.2633,-767.777)">
        <path
           inkscape:connector-curvature="0"
           id="path174"
           d="m 3207.54,1567.62 0.02,0.08 0.02,0.12 0.02,0.07 0.02,0.12 0.02,0.07 0.02,0.13 0.01,0.06 0.03,0.14 0.03,0.2 0.04,0.2 0.03,0.21 0.03,0.2 0.03,0.21 0.03,0.21 0.03,0.2 0.02,0.21 0.03,0.21 0.02,0.22 0.02,0.21 0.02,0.21 0.02,0.22 0.02,0.22 0.02,0.22 0.01,0.21 0.01,0.23 0.02,0.22 0.01,0.22 v 0.22 l 0.01,0.06 v 0.17 0.06 l 0.01,0.17 v 0.07 0.15 0.09 l 0.01,0.14 v 0.09 0.14 0.1 0.14 0.11 0.12 0 -0.12 -0.11 0 -0.01 -0.13 -0.09 -0.01 0 -0.14 -0.08 -0.01 0 l -0.01,-0.14 v -0.08 -0.01 0 -0.15 -0.07 0 -0.01 l -0.01,-0.16 v -0.06 0 -0.01 -0.16 l -0.01,-0.05 v -0.01 0 -0.17 -0.05 0 -0.01 l -0.01,-0.17 v -0.04 0 l -0.01,-0.01 v -0.17 l -0.01,-0.04 v 0 -0.01 l -0.01,-0.18 v -0.03 -0.01 0 l -0.01,-0.18 v -0.03 0 -0.01 l -0.02,-0.19 v -0.02 0 -0.01 l -0.02,-0.19 v -0.02 0 -0.01 l -0.02,-0.19 v -0.02 0 0 l -0.02,-0.19 v -0.02 0 -0.01 l -0.02,-0.18 v -0.02 0 -0.01 l -0.02,-0.19 v -0.01 -0.01 0 l -0.02,-0.19 -0.01,-0.02 v 0 0 l -0.02,-0.19 v -0.01 -0.01 0 l -0.03,-0.18 v -0.02 0 -0.01 l -0.02,-0.18 -0.01,-0.02 v 0 -0.01 l -0.02,-0.17 -0.01,-0.03 v 0 0 l -0.02,-0.17 -0.01,-0.03 v 0 -0.01 l -0.03,-0.16 v -0.03 -0.01 0 l -0.03,-0.16 -0.01,-0.04 v 0 0 l -0.02,-0.15 -0.01,-0.05 v 0 0 l -0.03,-0.14 -0.01,-0.06 v 0 0 l -0.02,-0.13 -0.02,-0.06 v -0.01 0 l -0.02,-0.12 -0.02,-0.07 v 0 -0.01 l -0.02,-0.11 z" />
      </g>
      <g
         id="g180"
         transform="translate(-8.2633,-767.777)">
        <path
           inkscape:connector-curvature="0"
           id="path178"
           d="m 3142.63,1568.83 -0.06,0.05 -0.07,0.07 v 0.01 0 -0.01 z" />
      </g>
      <g
         id="g184"
         transform="translate(-8.2633,-767.777)">
        <path
           inkscape:connector-curvature="0"
           id="path182"
           d="m 3207.22,1566.27 0.03,0.13 0.02,0.05 c 0.03,0.13 0.06,0.25 0.09,0.38 l -0.05,-0.2 c -0.01,-0.06 -0.03,-0.12 -0.04,-0.18 l -0.01,-0.02 -0.01,-0.03 -0.01,-0.06 -0.02,-0.07 -0.01,-0.03 -0.01,-0.02 z" />
      </g>
      <g
         id="g188"
         transform="translate(-8.2633,-767.777)">
        <path
           inkscape:connector-curvature="0"
           id="path186"
           d="m 3207.05,1565.67 c -0.02,-0.06 -0.04,-0.12 -0.06,-0.19 0.04,0.13 0.07,0.25 0.11,0.38 z" />
      </g>
      <g
         id="g192"
         transform="translate(-8.2633,-767.777)">
        <path
           inkscape:connector-curvature="0"
           id="path190"
           d="m 3206.55,1564.21 0.03,0.08 0.01,0.02 0.03,0.09 0.04,0.09 v 0.02 l 0.04,0.1 0.04,0.1 0.02,0.07 -0.01,-0.04 -0.01,-0.03 v 0 l -0.01,-0.01 -0.04,-0.12 -0.03,-0.07 v -0.01 -0.01 l -0.03,-0.08 -0.04,-0.1 -0.01,-0.02 v 0 l -0.01,-0.04 z" />
      </g>
      <g
         id="g196"
         transform="translate(-8.2633,-767.777)">
        <path
           inkscape:connector-curvature="0"
           id="path194"
           d="m 3182.76,1550.81 c -11.37,0.27 -24.55,5.23 -35.08,13.55 10.53,-8.32 23.71,-13.28 35.08,-13.55 z" />
      </g>
      <g
         id="g200"
         transform="translate(-8.2633,-767.777)">
        <path
           inkscape:connector-curvature="0"
           id="path198"
           d="m 3205.39,1561.65 -0.08,-0.14 v -0.01 z" />
      </g>
      <g
         id="g204"
         transform="translate(-8.2633,-767.777)">
        <path
           inkscape:connector-curvature="0"
           id="path202"
           d="m 3202.87,1558.06 0.02,0.03 0.09,0.09 0.03,0.04 0.08,0.09 0.03,0.04 0.07,0.08 0.04,0.04 0.07,0.09 0.04,0.04 0.07,0.09 0.03,0.04 -0.01,-0.01 -0.02,-0.03 -0.06,-0.07 -0.01,-0.02 -0.02,-0.01 -0.02,-0.03 -0.04,-0.06 -0.03,-0.03 -0.02,-0.02 -0.02,-0.02 -0.03,-0.04 -0.04,-0.04 -0.02,-0.03 -0.01,-0.01 -0.03,-0.03 -0.05,-0.06 -0.02,-0.03 -0.01,-0.01 -0.02,-0.02 -0.07,-0.07 -0.01,-0.02 -0.01,-0.01 c -0.04,-0.04 -0.07,-0.08 -0.11,-0.12 l -0.12,-0.13 z" />
      </g>
      <g
         id="g208"
         transform="translate(-8.2633,-767.777)">
        <path
           inkscape:connector-curvature="0"
           id="path206"
           d="m 3199.65,1555.19 0.01,0.02 -0.01,-0.02 v 0 0 l -0.11,-0.07 z" />
      </g>
      <g
         id="g212"
         transform="translate(-8.2633,-767.777)">
        <path
           inkscape:connector-curvature="0"
           id="path210"
           d="m 3199.35,1554.99 -0.09,-0.06 -0.02,-0.01 z" />
      </g>
      <g
         id="g216"
         transform="translate(-8.2633,-767.777)">
        <path
           inkscape:connector-curvature="0"
           id="path214"
           d="m 3198.38,1554.37 0.06,0.04 -0.06,-0.04 -0.09,-0.05 z" />
      </g>
      <g
         id="g220"
         transform="translate(-8.2633,-767.777)">
        <path
           inkscape:connector-curvature="0"
           id="path218"
           d="m 3197.48,1553.86 0.04,0.02 -0.04,-0.02 -0.12,-0.06 z" />
      </g>
      <g
         id="g224"
         transform="translate(-8.2633,-767.777)">
        <path
           inkscape:connector-curvature="0"
           id="path222"
           d="m 3195.93,1553.11 0.11,0.05 0.04,0.02 c 0.1,0.04 0.2,0.09 0.3,0.14 l -0.16,-0.08 c -0.04,-0.02 -0.09,-0.04 -0.14,-0.06 l -0.02,-0.01 -0.02,-0.01 -0.06,-0.03 -0.05,-0.02 -0.03,-0.01 -0.01,-0.01 z" />
      </g>
      <g
         id="g228"
         transform="translate(-8.2633,-767.777)">
        <path
           inkscape:connector-curvature="0"
           id="path226"
           d="m 3194.05,1552.38 c -0.1,-0.03 -0.21,-0.07 -0.31,-0.1 l -0.18,-0.06 c 0.17,0.05 0.33,0.11 0.49,0.16 l 0.16,0.06 c -0.05,-0.02 -0.1,-0.04 -0.16,-0.06 z" />
      </g>
      <g
         id="g232"
         transform="translate(-8.2633,-767.777)">
        <path
           inkscape:connector-curvature="0"
           id="path230"
           d="m 3187.93,1551.03 c 1.83,0.21 3.58,0.57 5.24,1.07 -1.66,-0.5 -3.41,-0.86 -5.24,-1.07 z" />
      </g>
      <g
         id="g236"
         transform="translate(-8.2633,-767.777)">
        <path
           inkscape:connector-curvature="0"
           id="path234"
           d="m 3183.7,1550.8 h 0.08 0.07 0.08 0.06 0.1 0.05 l 0.14,0.01 h 0.15 0.05 0.09 0.06 0.08 l 0.07,0.01 h 0.08 0.06 0.08 0.06 l 0.08,0.01 h 0.07 0.08 l 0.06,0.01 h 0.08 0.06 l 0.09,0.01 h 0.06 0.09 l 0.05,0.01 h 0.14 l 0.14,0.01 h 0.05 l 0.09,0.01 h 0.06 l 0.08,0.01 h 0.06 l 0.09,0.01 h 0.06 l 0.08,0.01 h 0.06 l 0.08,0.01 0.06,0.01 h 0.08 l 0.06,0.01 h 0.08 l 0.06,0.01 0.08,0.01 h 0.06 l 0.09,0.01 0.05,0.01 h -0.01 l -0.04,-0.01 -0.08,-0.01 h -0.01 -0.01 -0.05 l -0.06,-0.01 h -0.02 -0.02 l -0.04,-0.01 h -0.06 -0.02 -0.02 l -0.04,-0.01 h -0.05 -0.03 l -0.03,-0.01 h -0.03 -0.04 l -0.04,-0.01 h -0.03 -0.03 -0.04 l -0.04,-0.01 h -0.04 -0.02 -0.03 l -0.06,-0.01 h -0.04 -0.02 -0.01 l -0.07,-0.01 h -0.04 -0.02 -0.01 l -0.08,-0.01 h -0.04 -0.01 v 0 l -0.13,-0.01 h -0.01 v 0 h -0.14 v 0 h -0.01 l -0.04,-0.01 h -0.08 -0.01 -0.02 -0.04 l -0.07,-0.01 h -0.02 -0.01 -0.05 -0.05 -0.03 l -0.02,-0.01 h -0.04 -0.05 -0.03 -0.03 -0.04 -0.04 l -0.04,-0.01 h -0.03 -0.03 -0.03 -0.05 -0.04 -0.02 -0.03 -0.05 l -0.05,-0.01 h -0.02 -0.02 -0.06 -0.05 -0.01 -0.01 -0.08 -0.05 v 0 h -0.01 -0.13 -0.01 -0.01 l -0.13,-0.01 v 0 h -0.01 -0.04 -0.08 -0.02 -0.01 -0.05 -0.06 -0.02 -0.02 -0.05 -0.05 z" />
      </g>
      <g
         id="g240"
         transform="translate(-8.2633,-767.777)">
        <path
           inkscape:connector-curvature="0"
           id="path238"
           d="m 3183.64,1550.8 h -0.05 -0.03 -0.03 -0.04 -0.04 -0.04 -0.04 -0.03 -0.03 l -0.05,0.01 h -0.04 -0.02 -0.03 -0.01 0.04 0.06 l 0.08,-0.01 h 0.07 0.08 0.07 0.08 0.06 -0.02 z" />
      </g>
      <g
         id="g244"
         transform="translate(-8.2633,-767.777)">
        <path
           inkscape:connector-curvature="0"
           id="path242"
           d="m 3189.74,1632.8 v 0 l 0.02,-0.02 0.06,-0.06 0.02,-0.02 0.01,-0.01 0.03,-0.02 0.04,-0.04 0.02,-0.02 0.02,-0.02 0.03,-0.03 0.03,-0.03 0.02,-0.02 0.03,-0.03 0.03,-0.03 0.02,-0.02 0.02,-0.02 0.02,-0.02 -0.04,0.04 -0.05,0.05 -0.05,0.05 -0.06,0.06 -0.04,0.04 -0.07,0.06 -0.03,0.03 -0.08,0.08 -0.01,0.01 z" />
      </g>
      <g
         id="g248"
         transform="translate(-8.2633,-767.777)">
        <path
           inkscape:connector-curvature="0"
           id="path246"
           d="m 3202.33,1612.3 0.01,-0.03 0.01,-0.02 v -0.05 l 0.02,-0.08 0.01,-0.05 0.01,-0.03 0.01,-0.03 0.01,-0.08 0.02,-0.06 v -0.03 l 0.01,-0.03 0.01,-0.06 0.02,-0.08 v -0.03 l 0.01,-0.02 0.01,-0.05 0.01,-0.1 0.01,-0.04 v -0.01 l 0.01,-0.03 0.02,-0.13 0.01,-0.04 v 0 l -0.01,0.04 -0.03,0.16 -0.01,0.05 -0.02,0.15 -0.01,0.05 -0.03,0.14 -0.01,0.06 -0.03,0.14 -0.02,0.06 -0.03,0.13 -0.01,0.07 -0.01,0.05 z" />
      </g>
      <g
         id="g252"
         transform="translate(-8.2633,-767.777)">
        <path
           inkscape:connector-curvature="0"
           id="path250"
           d="m 3190.48,1626.31 c -3.37,2.8 -7.01,5.05 -10.92,6.77 l -0.2,5.98 0.2,-5.98 c 3.91,-1.72 7.55,-3.97 10.92,-6.77 z" />
      </g>
      <g
         id="g256"
         transform="translate(-8.2633,-767.777)">
        <path
           inkscape:connector-curvature="0"
           id="path254"
           d="m 3142.84,1621.51 c 2.06,2.25 4.34,4.33 6.86,6.21 -2.55,-1.9 -4.84,-3.97 -6.86,-6.21 z" />
      </g>
      <g
         id="g260"
         transform="translate(-8.2633,-767.777)">
        <path
           inkscape:connector-curvature="0"
           id="path258"
           d="m 3138,1611.01 0.46,1.8 -0.02,-0.04 z" />
      </g>
      <g
         id="g264"
         transform="translate(-8.2633,-767.777)">
        <path
           inkscape:connector-curvature="0"
           id="path262"
           d="m 3136.73,1605.47 0.38,2.03 -0.02,-0.09 z" />
      </g>
      <g
         id="g268"
         transform="translate(-8.2633,-767.777)">
        <path
           inkscape:connector-curvature="0"
           id="path266"
           d="m 3135.91,1600.45 0.27,2.08 -0.02,-0.11 z" />
      </g>
      <g
         id="g272"
         transform="translate(-8.2633,-767.777)">
        <path
           inkscape:connector-curvature="0"
           id="path270"
           d="m 3135.44,1595.63 0.14,2.15 -0.01,-0.14 z" />
      </g>
      <g
         id="g276"
         transform="translate(-8.2633,-767.777)">
        <path
           inkscape:connector-curvature="0"
           id="path274"
           d="m 3135.24,1590.81 0.04,2.27 -0.01,-0.17 z" />
      </g>
      <g
         id="g280"
         transform="translate(-8.2633,-767.777)">
        <path
           inkscape:connector-curvature="0"
           id="path278"
           d="m 3135.35,1582.71 -0.15,5.63 v -0.26 z" />
      </g>
      <g
         id="g284"
         transform="translate(-8.2633,-767.777)">
        <path
           inkscape:connector-curvature="0"
           id="path282"
           d="m 3199.35,1570 c 0.91,3.59 1.74,7.71 2.36,12.08 -0.87,-6.01 -2.1,-11.5 -3.39,-15.81 z" />
      </g>
      <g
         id="g288"
         transform="translate(-8.2633,-767.777)">
        <path
           inkscape:connector-curvature="0"
           id="path286"
           d="m 3187.03,1561.93 c -2.41,1.39 -5.42,2.87 -8.77,4.34 3.35,-1.48 6.36,-2.96 8.77,-4.34 z" />
      </g>
      <g
         id="g292"
         transform="translate(-8.2633,-767.777)">
        <path
           inkscape:connector-curvature="0"
           id="path290"
           d="m 3191.64,1558.77 c 0.52,-0.48 0.91,-0.92 1.14,-1.33 z" />
      </g>
    </g>
  </g>
</svg>
