<svg xmlns="http://www.w3.org/2000/svg">
  <title>Activity of Web-based%20Signage%20Business%20Group</title>

<g transform="translate(0 0)">
  <title>Activity in 2012</title>
  <text x="2" y="20">2012</text><rect x="170" y="6" width="15" height="15" fill="#b9bdc6"><title>25 emails, 0 repo event, 0 wiki edits in Jul 2012</title></rect><rect x="190" y="6" width="15" height="15" fill="#b9bdc6"><title>4 emails, 0 repo event, 0 wiki edits in Aug 2012</title></rect><rect x="210" y="6" width="15" height="15" fill="#b9bdc6"><title>4 emails, 0 repo event, 0 wiki edits in Sep 2012</title></rect><rect x="230" y="6" width="15" height="15" fill="#a5aec0"><title>33 emails, 0 repo event, 0 wiki edits in Oct 2012</title></rect><rect x="250" y="6" width="15" height="15" fill="#b9bdc6"><title>19 emails, 0 repo event, 0 wiki edits in Nov 2012</title></rect><rect x="270" y="6" width="15" height="15" fill="#b9bdc6"><title>24 emails, 0 repo event, 0 wiki edits in Dec 2012</title></rect></g>
<g transform="translate(0 20)">
  <title>Activity in 2013</title>
  <text x="2" y="20">2013</text><rect x="50" y="6" width="15" height="15" fill="#b9bdc6"><title>14 emails, 0 repo event, 0 wiki edits in Jan 2013</title></rect><rect x="70" y="6" width="15" height="15" fill="#b9bdc6"><title>2 emails, 0 repo event, 0 wiki edits in Feb 2013</title></rect><rect x="90" y="6" width="15" height="15" fill="#cccccc"><title>0 emails, 0 repo event, 0 wiki edits in Mar 2013</title></rect><rect x="110" y="6" width="15" height="15" fill="#b9bdc6"><title>11 emails, 0 repo event, 0 wiki edits in Apr 2013</title></rect><rect x="130" y="6" width="15" height="15" fill="#a5aec0"><title>40 emails, 0 repo event, 0 wiki edits in May 2013</title></rect><rect x="150" y="6" width="15" height="15" fill="#b9bdc6"><title>1 emails, 0 repo event, 0 wiki edits in Jun 2013</title></rect><rect x="170" y="6" width="15" height="15" fill="#cccccc"><title>0 emails, 0 repo event, 0 wiki edits in Jul 2013</title></rect><rect x="190" y="6" width="15" height="15" fill="#b9bdc6"><title>2 emails, 0 repo event, 0 wiki edits in Aug 2013</title></rect><rect x="210" y="6" width="15" height="15" fill="#cccccc"><title>0 emails, 0 repo event, 0 wiki edits in Sep 2013</title></rect><rect x="230" y="6" width="15" height="15" fill="#b9bdc6"><title>3 emails, 0 repo event, 0 wiki edits in Oct 2013</title></rect><rect x="250" y="6" width="15" height="15" fill="#cccccc"><title>0 emails, 0 repo event, 0 wiki edits in Nov 2013</title></rect><rect x="270" y="6" width="15" height="15" fill="#b9bdc6"><title>2 emails, 0 repo event, 0 wiki edits in Dec 2013</title></rect></g>
<g transform="translate(0 40)">
  <title>Activity in 2014</title>
  <text x="2" y="20">2014</text><rect x="50" y="6" width="15" height="15" fill="#b9bdc6"><title>10 emails, 0 repo event, 0 wiki edits in Jan 2014</title></rect><rect x="70" y="6" width="15" height="15" fill="#cccccc"><title>0 emails, 0 repo event, 0 wiki edits in Feb 2014</title></rect><rect x="90" y="6" width="15" height="15" fill="#cccccc"><title>0 emails, 0 repo event, 0 wiki edits in Mar 2014</title></rect><rect x="110" y="6" width="15" height="15" fill="#cccccc"><title>0 emails, 0 repo event, 0 wiki edits in Apr 2014</title></rect><rect x="130" y="6" width="15" height="15" fill="#b9bdc6"><title>4 emails, 0 repo event, 0 wiki edits in May 2014</title></rect><rect x="150" y="6" width="15" height="15" fill="#b9bdc6"><title>15 emails, 0 repo event, 0 wiki edits in Jun 2014</title></rect><rect x="170" y="6" width="15" height="15" fill="#b9bdc6"><title>2 emails, 0 repo event, 0 wiki edits in Jul 2014</title></rect><rect x="190" y="6" width="15" height="15" fill="#cccccc"><title>0 emails, 0 repo event, 0 wiki edits in Aug 2014</title></rect><rect x="210" y="6" width="15" height="15" fill="#cccccc"><title>0 emails, 0 repo event, 0 wiki edits in Sep 2014</title></rect><rect x="230" y="6" width="15" height="15" fill="#b9bdc6"><title>2 emails, 0 repo event, 0 wiki edits in Oct 2014</title></rect><rect x="250" y="6" width="15" height="15" fill="#cccccc"><title>0 emails, 0 repo event, 0 wiki edits in Nov 2014</title></rect><rect x="270" y="6" width="15" height="15" fill="#b9bdc6"><title>1 emails, 0 repo event, 0 wiki edits in Dec 2014</title></rect></g>
<g transform="translate(0 60)">
  <title>Activity in 2015</title>
  <text x="2" y="20">2015</text><rect x="50" y="6" width="15" height="15" fill="#cccccc"><title>0 emails, 0 repo event, 0 wiki edits in Jan 2015</title></rect><rect x="70" y="6" width="15" height="15" fill="#cccccc"><title>0 emails, 0 repo event, 0 wiki edits in Feb 2015</title></rect><rect x="90" y="6" width="15" height="15" fill="#cccccc"><title>0 emails, 0 repo event, 0 wiki edits in Mar 2015</title></rect><rect x="110" y="6" width="15" height="15" fill="#cccccc"><title>0 emails, 0 repo event, 0 wiki edits in Apr 2015</title></rect><rect x="130" y="6" width="15" height="15" fill="#cccccc"><title>0 emails, 0 repo event, 0 wiki edits in May 2015</title></rect><rect x="150" y="6" width="15" height="15" fill="#cccccc"><title>0 emails, 0 repo event, 0 wiki edits in Jun 2015</title></rect><rect x="170" y="6" width="15" height="15" fill="#cccccc"><title>0 emails, 0 repo event, 0 wiki edits in Jul 2015</title></rect><rect x="190" y="6" width="15" height="15" fill="#b9bdc6"><title>1 emails, 0 repo event, 0 wiki edits in Aug 2015</title></rect><rect x="210" y="6" width="15" height="15" fill="#b9bdc6"><title>3 emails, 0 repo event, 0 wiki edits in Sep 2015</title></rect><rect x="230" y="6" width="15" height="15" fill="#b9bdc6"><title>20 emails, 0 repo event, 0 wiki edits in Oct 2015</title></rect><rect x="250" y="6" width="15" height="15" fill="#b9bdc6"><title>7 emails, 0 repo event, 0 wiki edits in Nov 2015</title></rect><rect x="270" y="6" width="15" height="15" fill="#b9bdc6"><title>4 emails, 0 repo event, 0 wiki edits in Dec 2015</title></rect></g>
<g transform="translate(0 80)">
  <title>Activity in 2016</title>
  <text x="2" y="20">2016</text><rect x="50" y="6" width="15" height="15" fill="#b9bdc6"><title>2 emails, 0 repo event, 0 wiki edits in Jan 2016</title></rect><rect x="70" y="6" width="15" height="15" fill="#b9bdc6"><title>18 emails, 0 repo event, 0 wiki edits in Feb 2016</title></rect><rect x="90" y="6" width="15" height="15" fill="#b9bdc6"><title>11 emails, 0 repo event, 0 wiki edits in Mar 2016</title></rect><rect x="110" y="6" width="15" height="15" fill="#cccccc"><title>0 emails, 0 repo event, 0 wiki edits in Apr 2016</title></rect><rect x="130" y="6" width="15" height="15" fill="#cccccc"><title>0 emails, 0 repo event, 0 wiki edits in May 2016</title></rect><rect x="150" y="6" width="15" height="15" fill="#cccccc"><title>0 emails, 0 repo event, 0 wiki edits in Jun 2016</title></rect><rect x="170" y="6" width="15" height="15" fill="#b9bdc6"><title>2 emails, 0 repo event, 0 wiki edits in Jul 2016</title></rect><rect x="190" y="6" width="15" height="15" fill="#b9bdc6"><title>12 emails, 0 repo event, 0 wiki edits in Aug 2016</title></rect><rect x="210" y="6" width="15" height="15" fill="#b9bdc6"><title>5 emails, 0 repo event, 0 wiki edits in Sep 2016</title></rect><rect x="230" y="6" width="15" height="15" fill="#b9bdc6"><title>6 emails, 0 repo event, 0 wiki edits in Oct 2016</title></rect><rect x="250" y="6" width="15" height="15" fill="#b9bdc6"><title>10 emails, 0 repo event, 0 wiki edits in Nov 2016</title></rect><rect x="270" y="6" width="15" height="15" fill="#b9bdc6"><title>9 emails, 0 repo event, 0 wiki edits in Dec 2016</title></rect></g>
<g transform="translate(0 100)">
  <title>Activity in 2017</title>
  <text x="2" y="20">2017</text><rect x="50" y="6" width="15" height="15" fill="#b9bdc6"><title>3 emails, 0 repo event, 0 wiki edits in Jan 2017</title></rect><rect x="70" y="6" width="15" height="15" fill="#cccccc"><title>0 emails, 0 repo event, 0 wiki edits in Feb 2017</title></rect><rect x="90" y="6" width="15" height="15" fill="#b9bdc6"><title>7 emails, 8 repo event, 0 wiki edits in Mar 2017</title></rect><rect x="110" y="6" width="15" height="15" fill="#b9bdc6"><title>4 emails, 0 repo event, 0 wiki edits in Apr 2017</title></rect><rect x="130" y="6" width="15" height="15" fill="#b9bdc6"><title>5 emails, 0 repo event, 0 wiki edits in May 2017</title></rect><rect x="150" y="6" width="15" height="15" fill="#b9bdc6"><title>8 emails, 0 repo event, 0 wiki edits in Jun 2017</title></rect><rect x="170" y="6" width="15" height="15" fill="#b9bdc6"><title>1 emails, 0 repo event, 0 wiki edits in Jul 2017</title></rect><rect x="190" y="6" width="15" height="15" fill="#cccccc"><title>0 emails, 0 repo event, 0 wiki edits in Aug 2017</title></rect><rect x="210" y="6" width="15" height="15" fill="#b9bdc6"><title>1 emails, 0 repo event, 0 wiki edits in Sep 2017</title></rect><rect x="230" y="6" width="15" height="15" fill="#b9bdc6"><title>4 emails, 0 repo event, 0 wiki edits in Oct 2017</title></rect><rect x="250" y="6" width="15" height="15" fill="#b9bdc6"><title>6 emails, 0 repo event, 0 wiki edits in Nov 2017</title></rect><rect x="270" y="6" width="15" height="15" fill="#b9bdc6"><title>7 emails, 0 repo event, 0 wiki edits in Dec 2017</title></rect></g>
<g transform="translate(0 120)">
  <title>Activity in 2018</title>
  <text x="2" y="20">2018</text><rect x="50" y="6" width="15" height="15" fill="#b9bdc6"><title>2 emails, 0 repo event, 0 wiki edits in Jan 2018</title></rect><rect x="70" y="6" width="15" height="15" fill="#b9bdc6"><title>1 emails, 0 repo event, 0 wiki edits in Feb 2018</title></rect><rect x="90" y="6" width="15" height="15" fill="#b9bdc6"><title>1 emails, 0 repo event, 0 wiki edits in Mar 2018</title></rect><rect x="110" y="6" width="15" height="15" fill="#cccccc"><title>0 emails, 0 repo event, 0 wiki edits in Apr 2018</title></rect><rect x="130" y="6" width="15" height="15" fill="#b9bdc6"><title>1 emails, 0 repo event, 0 wiki edits in May 2018</title></rect><rect x="150" y="6" width="15" height="15" fill="#cccccc"><title>0 emails, 0 repo event, 0 wiki edits in Jun 2018</title></rect><rect x="170" y="6" width="15" height="15" fill="#b9bdc6"><title>2 emails, 0 repo event, 0 wiki edits in Jul 2018</title></rect><rect x="190" y="6" width="15" height="15" fill="#cccccc"><title>0 emails, 0 repo event, 0 wiki edits in Aug 2018</title></rect><rect x="210" y="6" width="15" height="15" fill="#b9bdc6"><title>1 emails, 0 repo event, 0 wiki edits in Sep 2018</title></rect><rect x="230" y="6" width="15" height="15" fill="#b9bdc6"><title>5 emails, 0 repo event, 1 wiki edits in Oct 2018</title></rect><rect x="250" y="6" width="15" height="15" fill="#cccccc"><title>0 emails, 0 repo event, 0 wiki edits in Nov 2018</title></rect><rect x="270" y="6" width="15" height="15" fill="#cccccc"><title>0 emails, 0 repo event, 0 wiki edits in Dec 2018</title></rect></g>
<g transform="translate(0 140)">
  <title>Activity in 2019</title>
  <text x="2" y="20">2019</text><rect x="50" y="6" width="15" height="15" fill="#cccccc"><title>0 emails, 0 repo event, 0 wiki edits in Jan 2019</title></rect><rect x="70" y="6" width="15" height="15" fill="#cccccc"><title>0 emails, 0 repo event, 0 wiki edits in Feb 2019</title></rect><rect x="90" y="6" width="15" height="15" fill="#cccccc"><title>0 emails, 0 repo event, 0 wiki edits in Mar 2019</title></rect><rect x="110" y="6" width="15" height="15" fill="#b9bdc6"><title>1 emails, 0 repo event, 0 wiki edits in Apr 2019</title></rect><rect x="130" y="6" width="15" height="15" fill="#b9bdc6"><title>1 emails, 0 repo event, 0 wiki edits in May 2019</title></rect><rect x="150" y="6" width="15" height="15" fill="#b9bdc6"><title>1 emails, 0 repo event, 0 wiki edits in Jun 2019</title></rect><rect x="170" y="6" width="15" height="15" fill="#b9bdc6"><title>1 emails, 0 repo event, 0 wiki edits in Jul 2019</title></rect><rect x="190" y="6" width="15" height="15" fill="#cccccc"><title>0 emails, 0 repo event, 0 wiki edits in Aug 2019</title></rect><rect x="210" y="6" width="15" height="15" fill="#b9bdc6"><title>2 emails, 0 repo event, 13 wiki edits in Sep 2019</title></rect><rect x="230" y="6" width="15" height="15" fill="#cccccc"><title>0 emails, 0 repo event, 0 wiki edits in Oct 2019</title></rect><rect x="250" y="6" width="15" height="15" fill="#cccccc"><title>0 emails, 0 repo event, 0 wiki edits in Nov 2019</title></rect><rect x="270" y="6" width="15" height="15" fill="#b9bdc6"><title>0 emails, 0 repo event, 1 wiki edits in Dec 2019</title></rect></g>
<g transform="translate(0 160)">
  <title>Activity in 2020</title>
  <text x="2" y="20">2020</text><rect x="50" y="6" width="15" height="15" fill="#cccccc"><title>0 emails, 0 repo event, 0 wiki edits in Jan 2020</title></rect><rect x="70" y="6" width="15" height="15" fill="#cccccc"><title>0 emails, 0 repo event, 0 wiki edits in Feb 2020</title></rect><rect x="90" y="6" width="15" height="15" fill="#cccccc"><title>0 emails, 0 repo event, 0 wiki edits in Mar 2020</title></rect><rect x="110" y="6" width="15" height="15" fill="#cccccc"><title>0 emails, 0 repo event, 0 wiki edits in Apr 2020</title></rect><rect x="130" y="6" width="15" height="15" fill="#cccccc"><title>0 emails, 0 repo event, 0 wiki edits in May 2020</title></rect><rect x="150" y="6" width="15" height="15" fill="#cccccc"><title>0 emails, 0 repo event, 0 wiki edits in Jun 2020</title></rect><rect x="170" y="6" width="15" height="15" fill="#cccccc"><title>0 emails, 0 repo event, 0 wiki edits in Jul 2020</title></rect><rect x="190" y="6" width="15" height="15" fill="#cccccc"><title>0 emails, 0 repo event, 0 wiki edits in Aug 2020</title></rect><rect x="210" y="6" width="15" height="15" fill="#cccccc"><title>0 emails, 0 repo event, 0 wiki edits in Sep 2020</title></rect><rect x="230" y="6" width="15" height="15" fill="#b9bdc6"><title>0 emails, 0 repo event, 1 wiki edits in Oct 2020</title></rect></g><text style="font-size: 10px; text-align: center" x="53" y="190">J</text><text style="font-size: 10px; text-align: center" x="73" y="190">F</text><text style="font-size: 10px; text-align: center" x="93" y="190">M</text><text style="font-size: 10px; text-align: center" x="113" y="190">A</text><text style="font-size: 10px; text-align: center" x="133" y="190">M</text><text style="font-size: 10px; text-align: center" x="153" y="190">J</text><text style="font-size: 10px; text-align: center" x="173" y="190">J</text><text style="font-size: 10px; text-align: center" x="193" y="190">A</text><text style="font-size: 10px; text-align: center" x="213" y="190">S</text><text style="font-size: 10px; text-align: center" x="233" y="190">O</text><text style="font-size: 10px; text-align: center" x="253" y="190">N</text><text style="font-size: 10px; text-align: center" x="273" y="190">D</text><text style="font-size: 10px;" x="150" y="210">Less</text><rect fill="#b9bdc6" width="10" height="10" x="180" y="200"></rect><rect fill="#919fba" width="10" height="10" x="195" y="200"></rect><rect fill="#6882ae" width="10" height="10" x="210" y="200"></rect><rect fill="#005a9c" width="10" height="10" x="225" y="200"></rect><text x="240" y="210" style="font-size: 10px;">More</text></svg>