<svg xmlns="http://www.w3.org/2000/svg">
  <title>Activity of Accessible%20Platform%20Architectures%20Working%20Group</title>
  <style type="text/css">.none { fill: #aaa;}
  .low { fill: #8ac;}
  .medium { fill: #49a;}
  .high { fill: #159;}
  </style>

<g transform="translate(0 0)">
  <title>Activity in 2015</title>
  <text x="2" y="20">2015</text><rect x="230" y="6" width="15" height="15" class="none"><title>0 emails, 0 repo event, 0 wiki edits in Oct 2015</title></rect><rect x="250" y="6" width="15" height="15" class="none"><title>0 emails, 0 repo event, 0 wiki edits in Nov 2015</title></rect><rect x="270" y="6" width="15" height="15" class="none"><title>0 emails, 0 repo event, 0 wiki edits in Dec 2015</title></rect></g>
<g transform="translate(0 20)">
  <title>Activity in 2016</title>
  <text x="2" y="20">2016</text><rect x="50" y="6" width="15" height="15" class="medium"><title>72 emails, 0 repo event, 0 wiki edits in Jan 2016</title></rect><rect x="70" y="6" width="15" height="15" class="medium"><title>58 emails, 0 repo event, 0 wiki edits in Feb 2016</title></rect><rect x="90" y="6" width="15" height="15" class="medium"><title>46 emails, 2 repo event, 0 wiki edits in Mar 2016</title></rect><rect x="110" y="6" width="15" height="15" class="high"><title>68 emails, 22 repo event, 0 wiki edits in Apr 2016</title></rect><rect x="130" y="6" width="15" height="15" class="medium"><title>63 emails, 14 repo event, 0 wiki edits in May 2016</title></rect><rect x="150" y="6" width="15" height="15" class="high"><title>79 emails, 4 repo event, 0 wiki edits in Jun 2016</title></rect><rect x="170" y="6" width="15" height="15" class="medium"><title>59 emails, 4 repo event, 0 wiki edits in Jul 2016</title></rect><rect x="190" y="6" width="15" height="15" class="high"><title>119 emails, 8 repo event, 0 wiki edits in Aug 2016</title></rect><rect x="210" y="6" width="15" height="15" class="high"><title>62 emails, 30 repo event, 0 wiki edits in Sep 2016</title></rect><rect x="230" y="6" width="15" height="15" class="medium"><title>46 emails, 14 repo event, 0 wiki edits in Oct 2016</title></rect><rect x="250" y="6" width="15" height="15" class="medium"><title>32 emails, 10 repo event, 0 wiki edits in Nov 2016</title></rect><rect x="270" y="6" width="15" height="15" class="low"><title>12 emails, 2 repo event, 0 wiki edits in Dec 2016</title></rect></g>
<g transform="translate(0 40)">
  <title>Activity in 2017</title>
  <text x="2" y="20">2017</text><rect x="50" y="6" width="15" height="15" class="medium"><title>46 emails, 2 repo event, 0 wiki edits in Jan 2017</title></rect><rect x="70" y="6" width="15" height="15" class="medium"><title>56 emails, 2 repo event, 0 wiki edits in Feb 2017</title></rect><rect x="90" y="6" width="15" height="15" class="medium"><title>46 emails, 0 repo event, 0 wiki edits in Mar 2017</title></rect><rect x="110" y="6" width="15" height="15" class="medium"><title>36 emails, 13 repo event, 0 wiki edits in Apr 2017</title></rect><rect x="130" y="6" width="15" height="15" class="medium"><title>72 emails, 6 repo event, 0 wiki edits in May 2017</title></rect><rect x="150" y="6" width="15" height="15" class="medium"><title>25 emails, 2 repo event, 0 wiki edits in Jun 2017</title></rect><rect x="170" y="6" width="15" height="15" class="medium"><title>26 emails, 5 repo event, 0 wiki edits in Jul 2017</title></rect><rect x="190" y="6" width="15" height="15" class="medium"><title>31 emails, 4 repo event, 0 wiki edits in Aug 2017</title></rect><rect x="210" y="6" width="15" height="15" class="medium"><title>41 emails, 3 repo event, 0 wiki edits in Sep 2017</title></rect><rect x="230" y="6" width="15" height="15" class="medium"><title>54 emails, 3 repo event, 0 wiki edits in Oct 2017</title></rect><rect x="250" y="6" width="15" height="15" class="medium"><title>13 emails, 14 repo event, 0 wiki edits in Nov 2017</title></rect><rect x="270" y="6" width="15" height="15" class="medium"><title>26 emails, 20 repo event, 0 wiki edits in Dec 2017</title></rect></g>
<g transform="translate(0 60)">
  <title>Activity in 2018</title>
  <text x="2" y="20">2018</text><rect x="50" y="6" width="15" height="15" class="medium"><title>58 emails, 18 repo event, 0 wiki edits in Jan 2018</title></rect><rect x="70" y="6" width="15" height="15" class="medium"><title>55 emails, 22 repo event, 0 wiki edits in Feb 2018</title></rect><rect x="90" y="6" width="15" height="15" class="medium"><title>12 emails, 31 repo event, 0 wiki edits in Mar 2018</title></rect><rect x="110" y="6" width="15" height="15" class="medium"><title>25 emails, 12 repo event, 0 wiki edits in Apr 2018</title></rect><rect x="130" y="6" width="15" height="15" class="medium"><title>56 emails, 18 repo event, 0 wiki edits in May 2018</title></rect><rect x="150" y="6" width="15" height="15" class="medium"><title>38 emails, 7 repo event, 0 wiki edits in Jun 2018</title></rect><rect x="170" y="6" width="15" height="15" class="medium"><title>30 emails, 7 repo event, 0 wiki edits in Jul 2018</title></rect><rect x="190" y="6" width="15" height="15" class="medium"><title>48 emails, 13 repo event, 0 wiki edits in Aug 2018</title></rect><rect x="210" y="6" width="15" height="15" class="medium"><title>31 emails, 12 repo event, 0 wiki edits in Sep 2018</title></rect><rect x="230" y="6" width="15" height="15" class="high"><title>48 emails, 33 repo event, 0 wiki edits in Oct 2018</title></rect><rect x="250" y="6" width="15" height="15" class="medium"><title>27 emails, 3 repo event, 0 wiki edits in Nov 2018</title></rect><rect x="270" y="6" width="15" height="15" class="medium"><title>30 emails, 2 repo event, 0 wiki edits in Dec 2018</title></rect></g>
<g transform="translate(0 80)">
  <title>Activity in 2019</title>
  <text x="2" y="20">2019</text><rect x="50" y="6" width="15" height="15" class="medium"><title>30 emails, 14 repo event, 0 wiki edits in Jan 2019</title></rect><rect x="70" y="6" width="15" height="15" class="medium"><title>60 emails, 5 repo event, 0 wiki edits in Feb 2019</title></rect><rect x="90" y="6" width="15" height="15" class="medium"><title>22 emails, 34 repo event, 0 wiki edits in Mar 2019</title></rect><rect x="110" y="6" width="15" height="15" class="medium"><title>54 emails, 7 repo event, 0 wiki edits in Apr 2019</title></rect><rect x="130" y="6" width="15" height="15" class="high"><title>71 emails, 21 repo event, 0 wiki edits in May 2019</title></rect><rect x="150" y="6" width="15" height="15" class="high"><title>76 emails, 30 repo event, 0 wiki edits in Jun 2019</title></rect><rect x="170" y="6" width="15" height="15" class="high"><title>67 emails, 19 repo event, 0 wiki edits in Jul 2019</title></rect><rect x="190" y="6" width="15" height="15" class="high"><title>107 emails, 12 repo event, 0 wiki edits in Aug 2019</title></rect><rect x="210" y="6" width="15" height="15" class="medium"><title>66 emails, 2 repo event, 0 wiki edits in Sep 2019</title></rect><rect x="230" y="6" width="15" height="15" class="high"><title>78 emails, 2 repo event, 0 wiki edits in Oct 2019</title></rect><rect x="250" y="6" width="15" height="15" class="medium"><title>33 emails, 18 repo event, 0 wiki edits in Nov 2019</title></rect><rect x="270" y="6" width="15" height="15" class="medium"><title>16 emails, 4 repo event, 0 wiki edits in Dec 2019</title></rect></g>
<g transform="translate(0 100)">
  <title>Activity in 2020</title>
  <text x="2" y="20">2020</text><rect x="50" y="6" width="15" height="15" class="high"><title>73 emails, 21 repo event, 0 wiki edits in Jan 2020</title></rect><rect x="70" y="6" width="15" height="15" class="high"><title>59 emails, 44 repo event, 0 wiki edits in Feb 2020</title></rect><rect x="90" y="6" width="15" height="15" class="high"><title>40 emails, 40 repo event, 0 wiki edits in Mar 2020</title></rect><rect x="110" y="6" width="15" height="15" class="high"><title>45 emails, 45 repo event, 0 wiki edits in Apr 2020</title></rect><rect x="130" y="6" width="15" height="15" class="medium"><title>39 emails, 19 repo event, 0 wiki edits in May 2020</title></rect><rect x="150" y="6" width="15" height="15" class="medium"><title>35 emails, 33 repo event, 0 wiki edits in Jun 2020</title></rect><rect x="170" y="6" width="15" height="15" class="medium"><title>39 emails, 20 repo event, 0 wiki edits in Jul 2020</title></rect><rect x="190" y="6" width="15" height="15" class="medium"><title>31 emails, 48 repo event, 0 wiki edits in Aug 2020</title></rect><rect x="210" y="6" width="15" height="15" class="medium"><title>23 emails, 43 repo event, 0 wiki edits in Sep 2020</title></rect><rect x="230" y="6" width="15" height="15" class="high"><title>34 emails, 38 repo event, 17 wiki edits in Oct 2020</title></rect></g><text style="font-size: 10px; text-align: center" x="53" y="130">J</text><text style="font-size: 10px; text-align: center" x="73" y="130">F</text><text style="font-size: 10px; text-align: center" x="93" y="130">M</text><text style="font-size: 10px; text-align: center" x="113" y="130">A</text><text style="font-size: 10px; text-align: center" x="133" y="130">M</text><text style="font-size: 10px; text-align: center" x="153" y="130">J</text><text style="font-size: 10px; text-align: center" x="173" y="130">J</text><text style="font-size: 10px; text-align: center" x="193" y="130">A</text><text style="font-size: 10px; text-align: center" x="213" y="130">S</text><text style="font-size: 10px; text-align: center" x="233" y="130">O</text><text style="font-size: 10px; text-align: center" x="253" y="130">N</text><text style="font-size: 10px; text-align: center" x="273" y="130">D</text><text style="font-size: 10px;" x="150" y="150">Less</text><rect class="none" width="10" height="10" x="180" y="140"></rect><rect class="low" width="10" height="10" x="195" y="140"></rect><rect class="medium" width="10" height="10" x="210" y="140"></rect><rect class="high" width="10" height="10" x="225" y="140"></rect><text x="240" y="150" style="font-size: 10px;">More</text></svg>