<svg xmlns="http://www.w3.org/2000/svg">
  <title>Activity of Accessible%20Rich%20Internet%20Applications%20Working%20Group</title>

<g transform="translate(0 0)">
  <title>Activity in 2015</title>
  <text x="2" y="20">2015</text><rect x="230" y="6" width="15" height="15" fill="#b9bdc6"><title>0 emails, 12 repo event, 0 wiki edits in Oct 2015</title></rect><rect x="250" y="6" width="15" height="15" fill="#919fba"><title>39 emails, 15 repo event, 0 wiki edits in Nov 2015</title></rect><rect x="270" y="6" width="15" height="15" fill="#3667a2"><title>125 emails, 26 repo event, 0 wiki edits in Dec 2015</title></rect></g>
<g transform="translate(0 20)">
  <title>Activity in 2016</title>
  <text x="2" y="20">2016</text><rect x="50" y="6" width="15" height="15" fill="#005a9c"><title>202 emails, 112 repo event, 0 wiki edits in Jan 2016</title></rect><rect x="70" y="6" width="15" height="15" fill="#005a9c"><title>499 emails, 50 repo event, 0 wiki edits in Feb 2016</title></rect><rect x="90" y="6" width="15" height="15" fill="#005a9c"><title>308 emails, 60 repo event, 0 wiki edits in Mar 2016</title></rect><rect x="110" y="6" width="15" height="15" fill="#005a9c"><title>295 emails, 86 repo event, 0 wiki edits in Apr 2016</title></rect><rect x="130" y="6" width="15" height="15" fill="#005a9c"><title>270 emails, 76 repo event, 0 wiki edits in May 2016</title></rect><rect x="150" y="6" width="15" height="15" fill="#005a9c"><title>405 emails, 28 repo event, 0 wiki edits in Jun 2016</title></rect><rect x="170" y="6" width="15" height="15" fill="#005a9c"><title>301 emails, 26 repo event, 0 wiki edits in Jul 2016</title></rect><rect x="190" y="6" width="15" height="15" fill="#005a9c"><title>304 emails, 61 repo event, 0 wiki edits in Aug 2016</title></rect><rect x="210" y="6" width="15" height="15" fill="#5174a8"><title>114 emails, 33 repo event, 0 wiki edits in Sep 2016</title></rect><rect x="230" y="6" width="15" height="15" fill="#005a9c"><title>138 emails, 117 repo event, 0 wiki edits in Oct 2016</title></rect><rect x="250" y="6" width="15" height="15" fill="#5174a8"><title>76 emails, 74 repo event, 0 wiki edits in Nov 2016</title></rect><rect x="270" y="6" width="15" height="15" fill="#6882ae"><title>0 emails, 122 repo event, 0 wiki edits in Dec 2016</title></rect></g>
<g transform="translate(0 40)">
  <title>Activity in 2017</title>
  <text x="2" y="20">2017</text><rect x="50" y="6" width="15" height="15" fill="#919fba"><title>0 emails, 59 repo event, 0 wiki edits in Jan 2017</title></rect><rect x="70" y="6" width="15" height="15" fill="#5174a8"><title>64 emails, 74 repo event, 0 wiki edits in Feb 2017</title></rect><rect x="90" y="6" width="15" height="15" fill="#7d90b5"><title>0 emails, 91 repo event, 0 wiki edits in Mar 2017</title></rect><rect x="110" y="6" width="15" height="15" fill="#005a9c"><title>79 emails, 117 repo event, 0 wiki edits in Apr 2017</title></rect><rect x="130" y="6" width="15" height="15" fill="#5174a8"><title>110 emails, 27 repo event, 0 wiki edits in May 2017</title></rect><rect x="150" y="6" width="15" height="15" fill="#a5aec0"><title>0 emails, 44 repo event, 0 wiki edits in Jun 2017</title></rect><rect x="170" y="6" width="15" height="15" fill="#005a9c"><title>112 emails, 71 repo event, 0 wiki edits in Jul 2017</title></rect><rect x="190" y="6" width="15" height="15" fill="#5174a8"><title>69 emails, 70 repo event, 0 wiki edits in Aug 2017</title></rect><rect x="210" y="6" width="15" height="15" fill="#6882ae"><title>87 emails, 29 repo event, 0 wiki edits in Sep 2017</title></rect><rect x="230" y="6" width="15" height="15" fill="#6882ae"><title>50 emails, 73 repo event, 0 wiki edits in Oct 2017</title></rect><rect x="250" y="6" width="15" height="15" fill="#7d90b5"><title>0 emails, 92 repo event, 0 wiki edits in Nov 2017</title></rect><rect x="270" y="6" width="15" height="15" fill="#919fba"><title>15 emails, 36 repo event, 0 wiki edits in Dec 2017</title></rect></g>
<g transform="translate(0 60)">
  <title>Activity in 2018</title>
  <text x="2" y="20">2018</text><rect x="50" y="6" width="15" height="15" fill="#7d90b5"><title>32 emails, 50 repo event, 0 wiki edits in Jan 2018</title></rect><rect x="70" y="6" width="15" height="15" fill="#6882ae"><title>62 emails, 48 repo event, 0 wiki edits in Feb 2018</title></rect><rect x="90" y="6" width="15" height="15" fill="#6882ae"><title>82 emails, 43 repo event, 0 wiki edits in Mar 2018</title></rect><rect x="110" y="6" width="15" height="15" fill="#7d90b5"><title>0 emails, 91 repo event, 0 wiki edits in Apr 2018</title></rect><rect x="130" y="6" width="15" height="15" fill="#005a9c"><title>87 emails, 134 repo event, 0 wiki edits in May 2018</title></rect><rect x="150" y="6" width="15" height="15" fill="#6882ae"><title>15 emails, 89 repo event, 0 wiki edits in Jun 2018</title></rect><rect x="170" y="6" width="15" height="15" fill="#5174a8"><title>26 emails, 111 repo event, 0 wiki edits in Jul 2018</title></rect><rect x="190" y="6" width="15" height="15" fill="#5174a8"><title>0 emails, 140 repo event, 0 wiki edits in Aug 2018</title></rect><rect x="210" y="6" width="15" height="15" fill="#3667a2"><title>78 emails, 85 repo event, 0 wiki edits in Sep 2018</title></rect><rect x="230" y="6" width="15" height="15" fill="#5174a8"><title>46 emails, 91 repo event, 0 wiki edits in Oct 2018</title></rect><rect x="250" y="6" width="15" height="15" fill="#7d90b5"><title>25 emails, 58 repo event, 0 wiki edits in Nov 2018</title></rect><rect x="270" y="6" width="15" height="15" fill="#919fba"><title>0 emails, 62 repo event, 0 wiki edits in Dec 2018</title></rect></g>
<g transform="translate(0 80)">
  <title>Activity in 2019</title>
  <text x="2" y="20">2019</text><rect x="50" y="6" width="15" height="15" fill="#6882ae"><title>43 emails, 78 repo event, 0 wiki edits in Jan 2019</title></rect><rect x="70" y="6" width="15" height="15" fill="#919fba"><title>0 emails, 59 repo event, 0 wiki edits in Feb 2019</title></rect><rect x="90" y="6" width="15" height="15" fill="#a5aec0"><title>0 emails, 45 repo event, 0 wiki edits in Mar 2019</title></rect><rect x="110" y="6" width="15" height="15" fill="#7d90b5"><title>0 emails, 93 repo event, 0 wiki edits in Apr 2019</title></rect><rect x="130" y="6" width="15" height="15" fill="#7d90b5"><title>0 emails, 90 repo event, 0 wiki edits in May 2019</title></rect><rect x="150" y="6" width="15" height="15" fill="#3667a2"><title>63 emails, 88 repo event, 0 wiki edits in Jun 2019</title></rect><rect x="170" y="6" width="15" height="15" fill="#005a9c"><title>40 emails, 140 repo event, 0 wiki edits in Jul 2019</title></rect><rect x="190" y="6" width="15" height="15" fill="#7d90b5"><title>0 emails, 91 repo event, 0 wiki edits in Aug 2019</title></rect><rect x="210" y="6" width="15" height="15" fill="#6882ae"><title>0 emails, 118 repo event, 0 wiki edits in Sep 2019</title></rect><rect x="230" y="6" width="15" height="15" fill="#5174a8"><title>0 emails, 134 repo event, 0 wiki edits in Oct 2019</title></rect><rect x="250" y="6" width="15" height="15" fill="#7d90b5"><title>0 emails, 77 repo event, 0 wiki edits in Nov 2019</title></rect><rect x="270" y="6" width="15" height="15" fill="#919fba"><title>0 emails, 63 repo event, 0 wiki edits in Dec 2019</title></rect></g>
<g transform="translate(0 100)">
  <title>Activity in 2020</title>
  <text x="2" y="20">2020</text><rect x="50" y="6" width="15" height="15" fill="#6882ae"><title>0 emails, 117 repo event, 0 wiki edits in Jan 2020</title></rect><rect x="70" y="6" width="15" height="15" fill="#6882ae"><title>0 emails, 104 repo event, 0 wiki edits in Feb 2020</title></rect><rect x="90" y="6" width="15" height="15" fill="#919fba"><title>0 emails, 63 repo event, 0 wiki edits in Mar 2020</title></rect><rect x="110" y="6" width="15" height="15" fill="#7d90b5"><title>0 emails, 97 repo event, 0 wiki edits in Apr 2020</title></rect><rect x="130" y="6" width="15" height="15" fill="#7d90b5"><title>0 emails, 89 repo event, 0 wiki edits in May 2020</title></rect><rect x="150" y="6" width="15" height="15" fill="#a5aec0"><title>0 emails, 44 repo event, 0 wiki edits in Jun 2020</title></rect><rect x="170" y="6" width="15" height="15" fill="#7d90b5"><title>0 emails, 95 repo event, 0 wiki edits in Jul 2020</title></rect><rect x="190" y="6" width="15" height="15" fill="#7d90b5"><title>0 emails, 76 repo event, 0 wiki edits in Aug 2020</title></rect><rect x="210" y="6" width="15" height="15" fill="#7d90b5"><title>0 emails, 90 repo event, 0 wiki edits in Sep 2020</title></rect><rect x="230" y="6" width="15" height="15" fill="#005a9c"><title>56 emails, 120 repo event, 0 wiki edits in Oct 2020</title></rect></g><text style="font-size: 10px; text-align: center" x="53" y="130">J</text><text style="font-size: 10px; text-align: center" x="73" y="130">F</text><text style="font-size: 10px; text-align: center" x="93" y="130">M</text><text style="font-size: 10px; text-align: center" x="113" y="130">A</text><text style="font-size: 10px; text-align: center" x="133" y="130">M</text><text style="font-size: 10px; text-align: center" x="153" y="130">J</text><text style="font-size: 10px; text-align: center" x="173" y="130">J</text><text style="font-size: 10px; text-align: center" x="193" y="130">A</text><text style="font-size: 10px; text-align: center" x="213" y="130">S</text><text style="font-size: 10px; text-align: center" x="233" y="130">O</text><text style="font-size: 10px; text-align: center" x="253" y="130">N</text><text style="font-size: 10px; text-align: center" x="273" y="130">D</text><text style="font-size: 10px;" x="150" y="150">Less</text><rect fill="#b9bdc6" width="10" height="10" x="180" y="140"></rect><rect fill="#919fba" width="10" height="10" x="195" y="140"></rect><rect fill="#6882ae" width="10" height="10" x="210" y="140"></rect><rect fill="#005a9c" width="10" height="10" x="225" y="140"></rect><text x="240" y="150" style="font-size: 10px;">More</text></svg>