<svg xmlns="http://www.w3.org/2000/svg" width="360" height="540">
  <title>Activity of Cascading%20Style%20Sheets%20%28CSS%29%20Working%20Group</title>

<g transform="translate(0 0)">
  <title>Activity in 1997</title>
  <text x="2" y="20">1997</text><rect x="70" y="6" width="15" height="15" fill="#5174a8"><title>137 emails, 0 repository events, 0 wiki edits in Feb 1997</title></rect><rect x="90" y="6" width="15" height="15" fill="#919fba"><title>65 emails, 0 repository events, 0 wiki edits in Mar 1997</title></rect><rect x="110" y="6" width="15" height="15" fill="#005a9c"><title>300 emails, 0 repository events, 0 wiki edits in Apr 1997</title></rect><rect x="130" y="6" width="15" height="15" fill="#7d90b5"><title>95 emails, 0 repository events, 0 wiki edits in May 1997</title></rect><rect x="150" y="6" width="15" height="15" fill="#7d90b5"><title>99 emails, 0 repository events, 0 wiki edits in Jun 1997</title></rect><rect x="170" y="6" width="15" height="15" fill="#005a9c"><title>261 emails, 0 repository events, 0 wiki edits in Jul 1997</title></rect><rect x="190" y="6" width="15" height="15" fill="#3667a2"><title>164 emails, 0 repository events, 0 wiki edits in Aug 1997</title></rect><rect x="210" y="6" width="15" height="15" fill="#7d90b5"><title>84 emails, 0 repository events, 0 wiki edits in Sep 1997</title></rect><rect x="230" y="6" width="15" height="15" fill="#7d90b5"><title>96 emails, 0 repository events, 0 wiki edits in Oct 1997</title></rect><rect x="250" y="6" width="15" height="15" fill="#005a9c"><title>212 emails, 0 repository events, 0 wiki edits in Nov 1997</title></rect><rect x="270" y="6" width="15" height="15" fill="#005a9c"><title>276 emails, 0 repository events, 0 wiki edits in Dec 1997</title></rect></g>
<g transform="translate(0 20)">
  <title>Activity in 1998</title>
  <text x="2" y="20">1998</text><rect x="50" y="6" width="15" height="15" fill="#919fba"><title>70 emails, 0 repository events, 0 wiki edits in Jan 1998</title></rect><rect x="70" y="6" width="15" height="15" fill="#6882ae"><title>104 emails, 0 repository events, 0 wiki edits in Feb 1998</title></rect><rect x="90" y="6" width="15" height="15" fill="#3667a2"><title>168 emails, 0 repository events, 0 wiki edits in Mar 1998</title></rect><rect x="110" y="6" width="15" height="15" fill="#5174a8"><title>127 emails, 0 repository events, 0 wiki edits in Apr 1998</title></rect><rect x="130" y="6" width="15" height="15" fill="#5174a8"><title>135 emails, 0 repository events, 0 wiki edits in May 1998</title></rect><rect x="150" y="6" width="15" height="15" fill="#919fba"><title>51 emails, 0 repository events, 0 wiki edits in Jun 1998</title></rect><rect x="170" y="6" width="15" height="15" fill="#a5aec0"><title>47 emails, 0 repository events, 0 wiki edits in Jul 1998</title></rect><rect x="190" y="6" width="15" height="15" fill="#6882ae"><title>115 emails, 0 repository events, 0 wiki edits in Aug 1998</title></rect><rect x="210" y="6" width="15" height="15" fill="#919fba"><title>69 emails, 0 repository events, 0 wiki edits in Sep 1998</title></rect><rect x="230" y="6" width="15" height="15" fill="#7d90b5"><title>81 emails, 0 repository events, 0 wiki edits in Oct 1998</title></rect><rect x="250" y="6" width="15" height="15" fill="#7d90b5"><title>76 emails, 0 repository events, 0 wiki edits in Nov 1998</title></rect><rect x="270" y="6" width="15" height="15" fill="#7d90b5"><title>94 emails, 0 repository events, 0 wiki edits in Dec 1998</title></rect></g>
<g transform="translate(0 40)">
  <title>Activity in 1999</title>
  <text x="2" y="20">1999</text><rect x="50" y="6" width="15" height="15" fill="#7d90b5"><title>89 emails, 0 repository events, 0 wiki edits in Jan 1999</title></rect><rect x="70" y="6" width="15" height="15" fill="#919fba"><title>70 emails, 0 repository events, 0 wiki edits in Feb 1999</title></rect><rect x="90" y="6" width="15" height="15" fill="#5174a8"><title>133 emails, 0 repository events, 0 wiki edits in Mar 1999</title></rect><rect x="110" y="6" width="15" height="15" fill="#a5aec0"><title>26 emails, 0 repository events, 0 wiki edits in Apr 1999</title></rect><rect x="130" y="6" width="15" height="15" fill="#7d90b5"><title>84 emails, 0 repository events, 0 wiki edits in May 1999</title></rect><rect x="150" y="6" width="15" height="15" fill="#919fba"><title>72 emails, 0 repository events, 0 wiki edits in Jun 1999</title></rect><rect x="170" y="6" width="15" height="15" fill="#6882ae"><title>111 emails, 0 repository events, 0 wiki edits in Jul 1999</title></rect><rect x="190" y="6" width="15" height="15" fill="#5174a8"><title>142 emails, 0 repository events, 0 wiki edits in Aug 1999</title></rect><rect x="210" y="6" width="15" height="15" fill="#3667a2"><title>161 emails, 0 repository events, 0 wiki edits in Sep 1999</title></rect><rect x="230" y="6" width="15" height="15" fill="#6882ae"><title>123 emails, 0 repository events, 0 wiki edits in Oct 1999</title></rect><rect x="250" y="6" width="15" height="15" fill="#005a9c"><title>243 emails, 0 repository events, 0 wiki edits in Nov 1999</title></rect><rect x="270" y="6" width="15" height="15" fill="#7d90b5"><title>82 emails, 0 repository events, 0 wiki edits in Dec 1999</title></rect></g>
<g transform="translate(0 60)">
  <title>Activity in 2000</title>
  <text x="2" y="20">2000</text><rect x="50" y="6" width="15" height="15" fill="#005a9c"><title>256 emails, 0 repository events, 0 wiki edits in Jan 2000</title></rect><rect x="70" y="6" width="15" height="15" fill="#005a9c"><title>260 emails, 0 repository events, 0 wiki edits in Feb 2000</title></rect><rect x="90" y="6" width="15" height="15" fill="#6882ae"><title>117 emails, 0 repository events, 0 wiki edits in Mar 2000</title></rect><rect x="110" y="6" width="15" height="15" fill="#6882ae"><title>108 emails, 0 repository events, 0 wiki edits in Apr 2000</title></rect><rect x="130" y="6" width="15" height="15" fill="#a5aec0"><title>34 emails, 0 repository events, 0 wiki edits in May 2000</title></rect><rect x="150" y="6" width="15" height="15" fill="#a5aec0"><title>49 emails, 0 repository events, 0 wiki edits in Jun 2000</title></rect><rect x="170" y="6" width="15" height="15" fill="#7d90b5"><title>97 emails, 0 repository events, 0 wiki edits in Jul 2000</title></rect><rect x="190" y="6" width="15" height="15" fill="#3667a2"><title>156 emails, 0 repository events, 0 wiki edits in Aug 2000</title></rect><rect x="210" y="6" width="15" height="15" fill="#a5aec0"><title>33 emails, 0 repository events, 0 wiki edits in Sep 2000</title></rect><rect x="230" y="6" width="15" height="15" fill="#005a9c"><title>254 emails, 0 repository events, 0 wiki edits in Oct 2000</title></rect><rect x="250" y="6" width="15" height="15" fill="#7d90b5"><title>89 emails, 0 repository events, 0 wiki edits in Nov 2000</title></rect><rect x="270" y="6" width="15" height="15" fill="#6882ae"><title>106 emails, 0 repository events, 0 wiki edits in Dec 2000</title></rect></g>
<g transform="translate(0 80)">
  <title>Activity in 2001</title>
  <text x="2" y="20">2001</text><rect x="50" y="6" width="15" height="15" fill="#6882ae"><title>111 emails, 0 repository events, 0 wiki edits in Jan 2001</title></rect><rect x="70" y="6" width="15" height="15" fill="#6882ae"><title>125 emails, 0 repository events, 0 wiki edits in Feb 2001</title></rect><rect x="90" y="6" width="15" height="15" fill="#005a9c"><title>198 emails, 0 repository events, 0 wiki edits in Mar 2001</title></rect><rect x="110" y="6" width="15" height="15" fill="#5174a8"><title>133 emails, 0 repository events, 0 wiki edits in Apr 2001</title></rect><rect x="130" y="6" width="15" height="15" fill="#6882ae"><title>113 emails, 0 repository events, 0 wiki edits in May 2001</title></rect><rect x="150" y="6" width="15" height="15" fill="#6882ae"><title>116 emails, 0 repository events, 0 wiki edits in Jun 2001</title></rect><rect x="170" y="6" width="15" height="15" fill="#005a9c"><title>230 emails, 0 repository events, 0 wiki edits in Jul 2001</title></rect><rect x="190" y="6" width="15" height="15" fill="#7d90b5"><title>94 emails, 0 repository events, 0 wiki edits in Aug 2001</title></rect><rect x="210" y="6" width="15" height="15" fill="#7d90b5"><title>99 emails, 0 repository events, 0 wiki edits in Sep 2001</title></rect><rect x="230" y="6" width="15" height="15" fill="#005a9c"><title>266 emails, 0 repository events, 0 wiki edits in Oct 2001</title></rect><rect x="250" y="6" width="15" height="15" fill="#7d90b5"><title>97 emails, 0 repository events, 0 wiki edits in Nov 2001</title></rect><rect x="270" y="6" width="15" height="15" fill="#a5aec0"><title>32 emails, 0 repository events, 0 wiki edits in Dec 2001</title></rect></g>
<g transform="translate(0 100)">
  <title>Activity in 2002</title>
  <text x="2" y="20">2002</text><rect x="50" y="6" width="15" height="15" fill="#5174a8"><title>130 emails, 0 repository events, 0 wiki edits in Jan 2002</title></rect><rect x="70" y="6" width="15" height="15" fill="#3667a2"><title>164 emails, 0 repository events, 0 wiki edits in Feb 2002</title></rect><rect x="90" y="6" width="15" height="15" fill="#6882ae"><title>102 emails, 0 repository events, 0 wiki edits in Mar 2002</title></rect><rect x="110" y="6" width="15" height="15" fill="#7d90b5"><title>92 emails, 0 repository events, 0 wiki edits in Apr 2002</title></rect><rect x="130" y="6" width="15" height="15" fill="#005a9c"><title>231 emails, 0 repository events, 0 wiki edits in May 2002</title></rect><rect x="150" y="6" width="15" height="15" fill="#7d90b5"><title>95 emails, 0 repository events, 0 wiki edits in Jun 2002</title></rect><rect x="170" y="6" width="15" height="15" fill="#3667a2"><title>154 emails, 0 repository events, 0 wiki edits in Jul 2002</title></rect><rect x="190" y="6" width="15" height="15" fill="#005a9c"><title>401 emails, 0 repository events, 0 wiki edits in Aug 2002</title></rect><rect x="210" y="6" width="15" height="15" fill="#005a9c"><title>191 emails, 0 repository events, 0 wiki edits in Sep 2002</title></rect><rect x="230" y="6" width="15" height="15" fill="#6882ae"><title>119 emails, 0 repository events, 0 wiki edits in Oct 2002</title></rect><rect x="250" y="6" width="15" height="15" fill="#3667a2"><title>160 emails, 0 repository events, 0 wiki edits in Nov 2002</title></rect><rect x="270" y="6" width="15" height="15" fill="#005a9c"><title>241 emails, 0 repository events, 0 wiki edits in Dec 2002</title></rect></g>
<g transform="translate(0 120)">
  <title>Activity in 2003</title>
  <text x="2" y="20">2003</text><rect x="50" y="6" width="15" height="15" fill="#005a9c"><title>303 emails, 0 repository events, 0 wiki edits in Jan 2003</title></rect><rect x="70" y="6" width="15" height="15" fill="#005a9c"><title>290 emails, 0 repository events, 0 wiki edits in Feb 2003</title></rect><rect x="90" y="6" width="15" height="15" fill="#005a9c"><title>210 emails, 0 repository events, 0 wiki edits in Mar 2003</title></rect><rect x="110" y="6" width="15" height="15" fill="#005a9c"><title>204 emails, 0 repository events, 0 wiki edits in Apr 2003</title></rect><rect x="130" y="6" width="15" height="15" fill="#6882ae"><title>101 emails, 0 repository events, 0 wiki edits in May 2003</title></rect><rect x="150" y="6" width="15" height="15" fill="#005a9c"><title>198 emails, 0 repository events, 0 wiki edits in Jun 2003</title></rect><rect x="170" y="6" width="15" height="15" fill="#005a9c"><title>306 emails, 0 repository events, 0 wiki edits in Jul 2003</title></rect><rect x="190" y="6" width="15" height="15" fill="#7d90b5"><title>84 emails, 0 repository events, 0 wiki edits in Aug 2003</title></rect><rect x="210" y="6" width="15" height="15" fill="#3667a2"><title>164 emails, 0 repository events, 0 wiki edits in Sep 2003</title></rect><rect x="230" y="6" width="15" height="15" fill="#005a9c"><title>374 emails, 0 repository events, 0 wiki edits in Oct 2003</title></rect><rect x="250" y="6" width="15" height="15" fill="#5174a8"><title>134 emails, 0 repository events, 0 wiki edits in Nov 2003</title></rect><rect x="270" y="6" width="15" height="15" fill="#3667a2"><title>174 emails, 0 repository events, 0 wiki edits in Dec 2003</title></rect></g>
<g transform="translate(0 140)">
  <title>Activity in 2004</title>
  <text x="2" y="20">2004</text><rect x="50" y="6" width="15" height="15" fill="#005a9c"><title>259 emails, 0 repository events, 0 wiki edits in Jan 2004</title></rect><rect x="70" y="6" width="15" height="15" fill="#005a9c"><title>535 emails, 0 repository events, 0 wiki edits in Feb 2004</title></rect><rect x="90" y="6" width="15" height="15" fill="#005a9c"><title>346 emails, 0 repository events, 0 wiki edits in Mar 2004</title></rect><rect x="110" y="6" width="15" height="15" fill="#005a9c"><title>295 emails, 0 repository events, 0 wiki edits in Apr 2004</title></rect><rect x="130" y="6" width="15" height="15" fill="#005a9c"><title>514 emails, 0 repository events, 0 wiki edits in May 2004</title></rect><rect x="150" y="6" width="15" height="15" fill="#6882ae"><title>102 emails, 0 repository events, 0 wiki edits in Jun 2004</title></rect><rect x="170" y="6" width="15" height="15" fill="#005a9c"><title>300 emails, 0 repository events, 0 wiki edits in Jul 2004</title></rect><rect x="190" y="6" width="15" height="15" fill="#005a9c"><title>218 emails, 0 repository events, 0 wiki edits in Aug 2004</title></rect><rect x="210" y="6" width="15" height="15" fill="#5174a8"><title>130 emails, 0 repository events, 0 wiki edits in Sep 2004</title></rect><rect x="230" y="6" width="15" height="15" fill="#3667a2"><title>155 emails, 0 repository events, 0 wiki edits in Oct 2004</title></rect><rect x="250" y="6" width="15" height="15" fill="#6882ae"><title>123 emails, 0 repository events, 0 wiki edits in Nov 2004</title></rect><rect x="270" y="6" width="15" height="15" fill="#6882ae"><title>106 emails, 0 repository events, 0 wiki edits in Dec 2004</title></rect></g>
<g transform="translate(0 160)">
  <title>Activity in 2005</title>
  <text x="2" y="20">2005</text><rect x="50" y="6" width="15" height="15" fill="#6882ae"><title>105 emails, 0 repository events, 0 wiki edits in Jan 2005</title></rect><rect x="70" y="6" width="15" height="15" fill="#005a9c"><title>190 emails, 0 repository events, 0 wiki edits in Feb 2005</title></rect><rect x="90" y="6" width="15" height="15" fill="#3667a2"><title>164 emails, 0 repository events, 0 wiki edits in Mar 2005</title></rect><rect x="110" y="6" width="15" height="15" fill="#005a9c"><title>333 emails, 0 repository events, 0 wiki edits in Apr 2005</title></rect><rect x="130" y="6" width="15" height="15" fill="#5174a8"><title>129 emails, 0 repository events, 0 wiki edits in May 2005</title></rect><rect x="150" y="6" width="15" height="15" fill="#005a9c"><title>300 emails, 0 repository events, 0 wiki edits in Jun 2005</title></rect><rect x="170" y="6" width="15" height="15" fill="#005a9c"><title>468 emails, 0 repository events, 0 wiki edits in Jul 2005</title></rect><rect x="190" y="6" width="15" height="15" fill="#005a9c"><title>439 emails, 0 repository events, 0 wiki edits in Aug 2005</title></rect><rect x="210" y="6" width="15" height="15" fill="#005a9c"><title>264 emails, 0 repository events, 0 wiki edits in Sep 2005</title></rect><rect x="230" y="6" width="15" height="15" fill="#005a9c"><title>229 emails, 0 repository events, 0 wiki edits in Oct 2005</title></rect><rect x="250" y="6" width="15" height="15" fill="#005a9c"><title>200 emails, 0 repository events, 0 wiki edits in Nov 2005</title></rect><rect x="270" y="6" width="15" height="15" fill="#005a9c"><title>179 emails, 0 repository events, 0 wiki edits in Dec 2005</title></rect></g>
<g transform="translate(0 180)">
  <title>Activity in 2006</title>
  <text x="2" y="20">2006</text><rect x="50" y="6" width="15" height="15" fill="#005a9c"><title>211 emails, 0 repository events, 0 wiki edits in Jan 2006</title></rect><rect x="70" y="6" width="15" height="15" fill="#5174a8"><title>145 emails, 0 repository events, 0 wiki edits in Feb 2006</title></rect><rect x="90" y="6" width="15" height="15" fill="#6882ae"><title>116 emails, 0 repository events, 0 wiki edits in Mar 2006</title></rect><rect x="110" y="6" width="15" height="15" fill="#3667a2"><title>154 emails, 0 repository events, 0 wiki edits in Apr 2006</title></rect><rect x="130" y="6" width="15" height="15" fill="#3667a2"><title>153 emails, 0 repository events, 0 wiki edits in May 2006</title></rect><rect x="150" y="6" width="15" height="15" fill="#7d90b5"><title>91 emails, 0 repository events, 0 wiki edits in Jun 2006</title></rect><rect x="170" y="6" width="15" height="15" fill="#7d90b5"><title>96 emails, 0 repository events, 0 wiki edits in Jul 2006</title></rect><rect x="190" y="6" width="15" height="15" fill="#005a9c"><title>295 emails, 0 repository events, 0 wiki edits in Aug 2006</title></rect><rect x="210" y="6" width="15" height="15" fill="#005a9c"><title>292 emails, 0 repository events, 0 wiki edits in Sep 2006</title></rect><rect x="230" y="6" width="15" height="15" fill="#3667a2"><title>157 emails, 0 repository events, 0 wiki edits in Oct 2006</title></rect><rect x="250" y="6" width="15" height="15" fill="#919fba"><title>54 emails, 0 repository events, 0 wiki edits in Nov 2006</title></rect><rect x="270" y="6" width="15" height="15" fill="#7d90b5"><title>88 emails, 0 repository events, 0 wiki edits in Dec 2006</title></rect></g>
<g transform="translate(0 200)">
  <title>Activity in 2007</title>
  <text x="2" y="20">2007</text><rect x="50" y="6" width="15" height="15" fill="#6882ae"><title>122 emails, 0 repository events, 0 wiki edits in Jan 2007</title></rect><rect x="70" y="6" width="15" height="15" fill="#3667a2"><title>170 emails, 0 repository events, 0 wiki edits in Feb 2007</title></rect><rect x="90" y="6" width="15" height="15" fill="#6882ae"><title>111 emails, 0 repository events, 0 wiki edits in Mar 2007</title></rect><rect x="110" y="6" width="15" height="15" fill="#005a9c"><title>231 emails, 0 repository events, 0 wiki edits in Apr 2007</title></rect><rect x="130" y="6" width="15" height="15" fill="#7d90b5"><title>85 emails, 0 repository events, 0 wiki edits in May 2007</title></rect><rect x="150" y="6" width="15" height="15" fill="#005a9c"><title>230 emails, 0 repository events, 0 wiki edits in Jun 2007</title></rect><rect x="170" y="6" width="15" height="15" fill="#005a9c"><title>196 emails, 0 repository events, 0 wiki edits in Jul 2007</title></rect><rect x="190" y="6" width="15" height="15" fill="#005a9c"><title>223 emails, 0 repository events, 0 wiki edits in Aug 2007</title></rect><rect x="210" y="6" width="15" height="15" fill="#005a9c"><title>200 emails, 0 repository events, 0 wiki edits in Sep 2007</title></rect><rect x="230" y="6" width="15" height="15" fill="#005a9c"><title>210 emails, 0 repository events, 0 wiki edits in Oct 2007</title></rect><rect x="250" y="6" width="15" height="15" fill="#005a9c"><title>351 emails, 0 repository events, 0 wiki edits in Nov 2007</title></rect><rect x="270" y="6" width="15" height="15" fill="#005a9c"><title>273 emails, 0 repository events, 0 wiki edits in Dec 2007</title></rect></g>
<g transform="translate(0 220)">
  <title>Activity in 2008</title>
  <text x="2" y="20">2008</text><rect x="50" y="6" width="15" height="15" fill="#005a9c"><title>613 emails, 0 repository events, 0 wiki edits in Jan 2008</title></rect><rect x="70" y="6" width="15" height="15" fill="#005a9c"><title>341 emails, 0 repository events, 0 wiki edits in Feb 2008</title></rect><rect x="90" y="6" width="15" height="15" fill="#005a9c"><title>445 emails, 0 repository events, 0 wiki edits in Mar 2008</title></rect><rect x="110" y="6" width="15" height="15" fill="#005a9c"><title>527 emails, 0 repository events, 0 wiki edits in Apr 2008</title></rect><rect x="130" y="6" width="15" height="15" fill="#005a9c"><title>270 emails, 0 repository events, 0 wiki edits in May 2008</title></rect><rect x="150" y="6" width="15" height="15" fill="#005a9c"><title>396 emails, 0 repository events, 0 wiki edits in Jun 2008</title></rect><rect x="170" y="6" width="15" height="15" fill="#005a9c"><title>630 emails, 0 repository events, 0 wiki edits in Jul 2008</title></rect><rect x="190" y="6" width="15" height="15" fill="#005a9c"><title>272 emails, 0 repository events, 0 wiki edits in Aug 2008</title></rect><rect x="210" y="6" width="15" height="15" fill="#005a9c"><title>245 emails, 0 repository events, 0 wiki edits in Sep 2008</title></rect><rect x="230" y="6" width="15" height="15" fill="#005a9c"><title>359 emails, 0 repository events, 0 wiki edits in Oct 2008</title></rect><rect x="250" y="6" width="15" height="15" fill="#005a9c"><title>558 emails, 0 repository events, 0 wiki edits in Nov 2008</title></rect><rect x="270" y="6" width="15" height="15" fill="#005a9c"><title>237 emails, 0 repository events, 0 wiki edits in Dec 2008</title></rect></g>
<g transform="translate(0 240)">
  <title>Activity in 2009</title>
  <text x="2" y="20">2009</text><rect x="50" y="6" width="15" height="15" fill="#005a9c"><title>499 emails, 0 repository events, 0 wiki edits in Jan 2009</title></rect><rect x="70" y="6" width="15" height="15" fill="#005a9c"><title>718 emails, 0 repository events, 0 wiki edits in Feb 2009</title></rect><rect x="90" y="6" width="15" height="15" fill="#005a9c"><title>453 emails, 0 repository events, 0 wiki edits in Mar 2009</title></rect><rect x="110" y="6" width="15" height="15" fill="#005a9c"><title>521 emails, 0 repository events, 0 wiki edits in Apr 2009</title></rect><rect x="130" y="6" width="15" height="15" fill="#005a9c"><title>223 emails, 0 repository events, 0 wiki edits in May 2009</title></rect><rect x="150" y="6" width="15" height="15" fill="#005a9c"><title>538 emails, 0 repository events, 0 wiki edits in Jun 2009</title></rect><rect x="170" y="6" width="15" height="15" fill="#005a9c"><title>208 emails, 0 repository events, 0 wiki edits in Jul 2009</title></rect><rect x="190" y="6" width="15" height="15" fill="#005a9c"><title>656 emails, 0 repository events, 0 wiki edits in Aug 2009</title></rect><rect x="210" y="6" width="15" height="15" fill="#005a9c"><title>331 emails, 0 repository events, 0 wiki edits in Sep 2009</title></rect><rect x="230" y="6" width="15" height="15" fill="#005a9c"><title>361 emails, 0 repository events, 0 wiki edits in Oct 2009</title></rect><rect x="250" y="6" width="15" height="15" fill="#005a9c"><title>352 emails, 0 repository events, 0 wiki edits in Nov 2009</title></rect><rect x="270" y="6" width="15" height="15" fill="#005a9c"><title>342 emails, 0 repository events, 0 wiki edits in Dec 2009</title></rect></g>
<g transform="translate(0 260)">
  <title>Activity in 2010</title>
  <text x="2" y="20">2010</text><rect x="50" y="6" width="15" height="15" fill="#005a9c"><title>616 emails, 0 repository events, 0 wiki edits in Jan 2010</title></rect><rect x="70" y="6" width="15" height="15" fill="#005a9c"><title>297 emails, 0 repository events, 0 wiki edits in Feb 2010</title></rect><rect x="90" y="6" width="15" height="15" fill="#005a9c"><title>560 emails, 0 repository events, 0 wiki edits in Mar 2010</title></rect><rect x="110" y="6" width="15" height="15" fill="#005a9c"><title>690 emails, 0 repository events, 0 wiki edits in Apr 2010</title></rect><rect x="130" y="6" width="15" height="15" fill="#005a9c"><title>706 emails, 0 repository events, 0 wiki edits in May 2010</title></rect><rect x="150" y="6" width="15" height="15" fill="#005a9c"><title>695 emails, 0 repository events, 0 wiki edits in Jun 2010</title></rect><rect x="170" y="6" width="15" height="15" fill="#005a9c"><title>538 emails, 0 repository events, 0 wiki edits in Jul 2010</title></rect><rect x="190" y="6" width="15" height="15" fill="#005a9c"><title>646 emails, 0 repository events, 0 wiki edits in Aug 2010</title></rect><rect x="210" y="6" width="15" height="15" fill="#005a9c"><title>873 emails, 0 repository events, 0 wiki edits in Sep 2010</title></rect><rect x="230" y="6" width="15" height="15" fill="#005a9c"><title>953 emails, 0 repository events, 0 wiki edits in Oct 2010</title></rect><rect x="250" y="6" width="15" height="15" fill="#005a9c"><title>512 emails, 0 repository events, 0 wiki edits in Nov 2010</title></rect><rect x="270" y="6" width="15" height="15" fill="#005a9c"><title>490 emails, 0 repository events, 0 wiki edits in Dec 2010</title></rect></g>
<g transform="translate(0 280)">
  <title>Activity in 2011</title>
  <text x="2" y="20">2011</text><rect x="50" y="6" width="15" height="15" fill="#005a9c"><title>721 emails, 0 repository events, 0 wiki edits in Jan 2011</title></rect><rect x="70" y="6" width="15" height="15" fill="#005a9c"><title>822 emails, 0 repository events, 0 wiki edits in Feb 2011</title></rect><rect x="90" y="6" width="15" height="15" fill="#005a9c"><title>763 emails, 0 repository events, 0 wiki edits in Mar 2011</title></rect><rect x="110" y="6" width="15" height="15" fill="#005a9c"><title>839 emails, 0 repository events, 0 wiki edits in Apr 2011</title></rect><rect x="130" y="6" width="15" height="15" fill="#005a9c"><title>728 emails, 0 repository events, 0 wiki edits in May 2011</title></rect><rect x="150" y="6" width="15" height="15" fill="#005a9c"><title>826 emails, 0 repository events, 0 wiki edits in Jun 2011</title></rect><rect x="170" y="6" width="15" height="15" fill="#005a9c"><title>558 emails, 0 repository events, 0 wiki edits in Jul 2011</title></rect><rect x="190" y="6" width="15" height="15" fill="#005a9c"><title>681 emails, 0 repository events, 0 wiki edits in Aug 2011</title></rect><rect x="210" y="6" width="15" height="15" fill="#005a9c"><title>563 emails, 0 repository events, 0 wiki edits in Sep 2011</title></rect><rect x="230" y="6" width="15" height="15" fill="#005a9c"><title>896 emails, 0 repository events, 0 wiki edits in Oct 2011</title></rect><rect x="250" y="6" width="15" height="15" fill="#005a9c"><title>815 emails, 0 repository events, 0 wiki edits in Nov 2011</title></rect><rect x="270" y="6" width="15" height="15" fill="#005a9c"><title>555 emails, 0 repository events, 0 wiki edits in Dec 2011</title></rect></g>
<g transform="translate(0 300)">
  <title>Activity in 2012</title>
  <text x="2" y="20">2012</text><rect x="50" y="6" width="15" height="15" fill="#005a9c"><title>1346 emails, 0 repository events, 0 wiki edits in Jan 2012</title></rect><rect x="70" y="6" width="15" height="15" fill="#005a9c"><title>1434 emails, 0 repository events, 0 wiki edits in Feb 2012</title></rect><rect x="90" y="6" width="15" height="15" fill="#005a9c"><title>731 emails, 0 repository events, 0 wiki edits in Mar 2012</title></rect><rect x="110" y="6" width="15" height="15" fill="#005a9c"><title>834 emails, 0 repository events, 0 wiki edits in Apr 2012</title></rect><rect x="130" y="6" width="15" height="15" fill="#005a9c"><title>1248 emails, 0 repository events, 0 wiki edits in May 2012</title></rect><rect x="150" y="6" width="15" height="15" fill="#005a9c"><title>738 emails, 0 repository events, 0 wiki edits in Jun 2012</title></rect><rect x="170" y="6" width="15" height="15" fill="#005a9c"><title>727 emails, 0 repository events, 0 wiki edits in Jul 2012</title></rect><rect x="190" y="6" width="15" height="15" fill="#005a9c"><title>963 emails, 0 repository events, 0 wiki edits in Aug 2012</title></rect><rect x="210" y="6" width="15" height="15" fill="#005a9c"><title>584 emails, 0 repository events, 0 wiki edits in Sep 2012</title></rect><rect x="230" y="6" width="15" height="15" fill="#005a9c"><title>878 emails, 0 repository events, 0 wiki edits in Oct 2012</title></rect><rect x="250" y="6" width="15" height="15" fill="#005a9c"><title>548 emails, 0 repository events, 0 wiki edits in Nov 2012</title></rect><rect x="270" y="6" width="15" height="15" fill="#005a9c"><title>351 emails, 0 repository events, 0 wiki edits in Dec 2012</title></rect></g>
<g transform="translate(0 320)">
  <title>Activity in 2013</title>
  <text x="2" y="20">2013</text><rect x="50" y="6" width="15" height="15" fill="#005a9c"><title>651 emails, 0 repository events, 0 wiki edits in Jan 2013</title></rect><rect x="70" y="6" width="15" height="15" fill="#005a9c"><title>750 emails, 0 repository events, 0 wiki edits in Feb 2013</title></rect><rect x="90" y="6" width="15" height="15" fill="#005a9c"><title>764 emails, 0 repository events, 0 wiki edits in Mar 2013</title></rect><rect x="110" y="6" width="15" height="15" fill="#005a9c"><title>714 emails, 0 repository events, 0 wiki edits in Apr 2013</title></rect><rect x="130" y="6" width="15" height="15" fill="#005a9c"><title>828 emails, 0 repository events, 0 wiki edits in May 2013</title></rect><rect x="150" y="6" width="15" height="15" fill="#005a9c"><title>715 emails, 0 repository events, 0 wiki edits in Jun 2013</title></rect><rect x="170" y="6" width="15" height="15" fill="#005a9c"><title>724 emails, 0 repository events, 0 wiki edits in Jul 2013</title></rect><rect x="190" y="6" width="15" height="15" fill="#005a9c"><title>685 emails, 0 repository events, 0 wiki edits in Aug 2013</title></rect><rect x="210" y="6" width="15" height="15" fill="#005a9c"><title>887 emails, 0 repository events, 0 wiki edits in Sep 2013</title></rect><rect x="230" y="6" width="15" height="15" fill="#005a9c"><title>756 emails, 0 repository events, 0 wiki edits in Oct 2013</title></rect><rect x="250" y="6" width="15" height="15" fill="#005a9c"><title>456 emails, 0 repository events, 0 wiki edits in Nov 2013</title></rect><rect x="270" y="6" width="15" height="15" fill="#005a9c"><title>473 emails, 0 repository events, 0 wiki edits in Dec 2013</title></rect></g>
<g transform="translate(0 340)">
  <title>Activity in 2014</title>
  <text x="2" y="20">2014</text><rect x="50" y="6" width="15" height="15" fill="#005a9c"><title>638 emails, 0 repository events, 0 wiki edits in Jan 2014</title></rect><rect x="70" y="6" width="15" height="15" fill="#005a9c"><title>834 emails, 0 repository events, 0 wiki edits in Feb 2014</title></rect><rect x="90" y="6" width="15" height="15" fill="#005a9c"><title>620 emails, 0 repository events, 0 wiki edits in Mar 2014</title></rect><rect x="110" y="6" width="15" height="15" fill="#005a9c"><title>485 emails, 0 repository events, 0 wiki edits in Apr 2014</title></rect><rect x="130" y="6" width="15" height="15" fill="#005a9c"><title>463 emails, 0 repository events, 0 wiki edits in May 2014</title></rect><rect x="150" y="6" width="15" height="15" fill="#005a9c"><title>506 emails, 0 repository events, 0 wiki edits in Jun 2014</title></rect><rect x="170" y="6" width="15" height="15" fill="#005a9c"><title>623 emails, 0 repository events, 0 wiki edits in Jul 2014</title></rect><rect x="190" y="6" width="15" height="15" fill="#005a9c"><title>433 emails, 0 repository events, 0 wiki edits in Aug 2014</title></rect><rect x="210" y="6" width="15" height="15" fill="#005a9c"><title>432 emails, 0 repository events, 0 wiki edits in Sep 2014</title></rect><rect x="230" y="6" width="15" height="15" fill="#005a9c"><title>537 emails, 0 repository events, 0 wiki edits in Oct 2014</title></rect><rect x="250" y="6" width="15" height="15" fill="#005a9c"><title>597 emails, 0 repository events, 0 wiki edits in Nov 2014</title></rect><rect x="270" y="6" width="15" height="15" fill="#005a9c"><title>391 emails, 0 repository events, 0 wiki edits in Dec 2014</title></rect></g>
<g transform="translate(0 360)">
  <title>Activity in 2015</title>
  <text x="2" y="20">2015</text><rect x="50" y="6" width="15" height="15" fill="#005a9c"><title>635 emails, 0 repository events, 0 wiki edits in Jan 2015</title></rect><rect x="70" y="6" width="15" height="15" fill="#005a9c"><title>569 emails, 0 repository events, 0 wiki edits in Feb 2015</title></rect><rect x="90" y="6" width="15" height="15" fill="#005a9c"><title>558 emails, 0 repository events, 0 wiki edits in Mar 2015</title></rect><rect x="110" y="6" width="15" height="15" fill="#005a9c"><title>407 emails, 0 repository events, 0 wiki edits in Apr 2015</title></rect><rect x="130" y="6" width="15" height="15" fill="#005a9c"><title>320 emails, 0 repository events, 0 wiki edits in May 2015</title></rect><rect x="150" y="6" width="15" height="15" fill="#005a9c"><title>383 emails, 0 repository events, 0 wiki edits in Jun 2015</title></rect><rect x="170" y="6" width="15" height="15" fill="#005a9c"><title>480 emails, 0 repository events, 0 wiki edits in Jul 2015</title></rect><rect x="190" y="6" width="15" height="15" fill="#005a9c"><title>349 emails, 0 repository events, 0 wiki edits in Aug 2015</title></rect><rect x="210" y="6" width="15" height="15" fill="#005a9c"><title>332 emails, 0 repository events, 0 wiki edits in Sep 2015</title></rect><rect x="230" y="6" width="15" height="15" fill="#005a9c"><title>237 emails, 1 repository events, 0 wiki edits in Oct 2015</title></rect><rect x="250" y="6" width="15" height="15" fill="#005a9c"><title>364 emails, 0 repository events, 0 wiki edits in Nov 2015</title></rect><rect x="270" y="6" width="15" height="15" fill="#005a9c"><title>308 emails, 0 repository events, 0 wiki edits in Dec 2015</title></rect></g>
<g transform="translate(0 380)">
  <title>Activity in 2016</title>
  <text x="2" y="20">2016</text><rect x="50" y="6" width="15" height="15" fill="#005a9c"><title>303 emails, 7 repository events, 0 wiki edits in Jan 2016</title></rect><rect x="70" y="6" width="15" height="15" fill="#005a9c"><title>359 emails, 1 repository events, 0 wiki edits in Feb 2016</title></rect><rect x="90" y="6" width="15" height="15" fill="#005a9c"><title>441 emails, 1 repository events, 0 wiki edits in Mar 2016</title></rect><rect x="110" y="6" width="15" height="15" fill="#005a9c"><title>463 emails, 7 repository events, 0 wiki edits in Apr 2016</title></rect><rect x="130" y="6" width="15" height="15" fill="#005a9c"><title>260 emails, 1 repository events, 0 wiki edits in May 2016</title></rect><rect x="150" y="6" width="15" height="15" fill="#005a9c"><title>187 emails, 8 repository events, 0 wiki edits in Jun 2016</title></rect><rect x="170" y="6" width="15" height="15" fill="#7d90b5"><title>74 emails, 5 repository events, 0 wiki edits in Jul 2016</title></rect><rect x="190" y="6" width="15" height="15" fill="#7d90b5"><title>96 emails, 3 repository events, 0 wiki edits in Aug 2016</title></rect><rect x="210" y="6" width="15" height="15" fill="#3667a2"><title>143 emails, 11 repository events, 0 wiki edits in Sep 2016</title></rect><rect x="230" y="6" width="15" height="15" fill="#5174a8"><title>136 emails, 1 repository events, 0 wiki edits in Oct 2016</title></rect><rect x="250" y="6" width="15" height="15" fill="#6882ae"><title>125 emails, 0 repository events, 0 wiki edits in Nov 2016</title></rect><rect x="270" y="6" width="15" height="15" fill="#6882ae"><title>125 emails, 0 repository events, 0 wiki edits in Dec 2016</title></rect></g>
<g transform="translate(0 400)">
  <title>Activity in 2017</title>
  <text x="2" y="20">2017</text><rect x="50" y="6" width="15" height="15" fill="#7d90b5"><title>76 emails, 5 repository events, 0 wiki edits in Jan 2017</title></rect><rect x="70" y="6" width="15" height="15" fill="#7d90b5"><title>96 emails, 2 repository events, 0 wiki edits in Feb 2017</title></rect><rect x="90" y="6" width="15" height="15" fill="#7d90b5"><title>89 emails, 0 repository events, 0 wiki edits in Mar 2017</title></rect><rect x="110" y="6" width="15" height="15" fill="#7d90b5"><title>71 emails, 21 repository events, 0 wiki edits in Apr 2017</title></rect><rect x="130" y="6" width="15" height="15" fill="#919fba"><title>62 emails, 6 repository events, 0 wiki edits in May 2017</title></rect><rect x="150" y="6" width="15" height="15" fill="#a5aec0"><title>44 emails, 5 repository events, 0 wiki edits in Jun 2017</title></rect><rect x="170" y="6" width="15" height="15" fill="#a5aec0"><title>41 emails, 8 repository events, 0 wiki edits in Jul 2017</title></rect><rect x="190" y="6" width="15" height="15" fill="#919fba"><title>49 emails, 26 repository events, 0 wiki edits in Aug 2017</title></rect><rect x="210" y="6" width="15" height="15" fill="#919fba"><title>59 emails, 1 repository events, 0 wiki edits in Sep 2017</title></rect><rect x="230" y="6" width="15" height="15" fill="#919fba"><title>53 emails, 12 repository events, 0 wiki edits in Oct 2017</title></rect><rect x="250" y="6" width="15" height="15" fill="#a5aec0"><title>27 emails, 2 repository events, 0 wiki edits in Nov 2017</title></rect><rect x="270" y="6" width="15" height="15" fill="#7d90b5"><title>60 emails, 19 repository events, 0 wiki edits in Dec 2017</title></rect></g>
<g transform="translate(0 420)">
  <title>Activity in 2018</title>
  <text x="2" y="20">2018</text><rect x="50" y="6" width="15" height="15" fill="#005a9c"><title>103 emails, 83 repository events, 0 wiki edits in Jan 2018</title></rect><rect x="70" y="6" width="15" height="15" fill="#005a9c"><title>72 emails, 123 repository events, 0 wiki edits in Feb 2018</title></rect><rect x="90" y="6" width="15" height="15" fill="#919fba"><title>46 emails, 26 repository events, 0 wiki edits in Mar 2018</title></rect><rect x="110" y="6" width="15" height="15" fill="#919fba"><title>40 emails, 15 repository events, 0 wiki edits in Apr 2018</title></rect><rect x="130" y="6" width="15" height="15" fill="#919fba"><title>52 emails, 11 repository events, 0 wiki edits in May 2018</title></rect><rect x="150" y="6" width="15" height="15" fill="#919fba"><title>35 emails, 20 repository events, 0 wiki edits in Jun 2018</title></rect><rect x="170" y="6" width="15" height="15" fill="#919fba"><title>42 emails, 17 repository events, 0 wiki edits in Jul 2018</title></rect><rect x="190" y="6" width="15" height="15" fill="#919fba"><title>32 emails, 42 repository events, 0 wiki edits in Aug 2018</title></rect><rect x="210" y="6" width="15" height="15" fill="#a5aec0"><title>22 emails, 9 repository events, 0 wiki edits in Sep 2018</title></rect><rect x="230" y="6" width="15" height="15" fill="#a5aec0"><title>15 emails, 13 repository events, 0 wiki edits in Oct 2018</title></rect><rect x="250" y="6" width="15" height="15" fill="#a5aec0"><title>33 emails, 14 repository events, 0 wiki edits in Nov 2018</title></rect><rect x="270" y="6" width="15" height="15" fill="#a5aec0"><title>35 emails, 8 repository events, 0 wiki edits in Dec 2018</title></rect></g>
<g transform="translate(0 440)">
  <title>Activity in 2019</title>
  <text x="2" y="20">2019</text><rect x="50" y="6" width="15" height="15" fill="#a5aec0"><title>20 emails, 14 repository events, 0 wiki edits in Jan 2019</title></rect><rect x="70" y="6" width="15" height="15" fill="#b9bdc6"><title>11 emails, 11 repository events, 0 wiki edits in Feb 2019</title></rect><rect x="90" y="6" width="15" height="15" fill="#a5aec0"><title>19 emails, 19 repository events, 0 wiki edits in Mar 2019</title></rect><rect x="110" y="6" width="15" height="15" fill="#a5aec0"><title>27 emails, 12 repository events, 0 wiki edits in Apr 2019</title></rect><rect x="130" y="6" width="15" height="15" fill="#a5aec0"><title>24 emails, 26 repository events, 0 wiki edits in May 2019</title></rect><rect x="150" y="6" width="15" height="15" fill="#a5aec0"><title>11 emails, 16 repository events, 0 wiki edits in Jun 2019</title></rect><rect x="170" y="6" width="15" height="15" fill="#919fba"><title>34 emails, 18 repository events, 0 wiki edits in Jul 2019</title></rect><rect x="190" y="6" width="15" height="15" fill="#a5aec0"><title>14 emails, 23 repository events, 0 wiki edits in Aug 2019</title></rect><rect x="210" y="6" width="15" height="15" fill="#919fba"><title>16 emails, 38 repository events, 0 wiki edits in Sep 2019</title></rect><rect x="230" y="6" width="15" height="15" fill="#a5aec0"><title>30 emails, 7 repository events, 0 wiki edits in Oct 2019</title></rect><rect x="250" y="6" width="15" height="15" fill="#b9bdc6"><title>11 emails, 1 repository events, 0 wiki edits in Nov 2019</title></rect><rect x="270" y="6" width="15" height="15" fill="#b9bdc6"><title>16 emails, 4 repository events, 0 wiki edits in Dec 2019</title></rect></g>
<g transform="translate(0 460)">
  <title>Activity in 2020</title>
  <text x="2" y="20">2020</text><rect x="50" y="6" width="15" height="15" fill="#b9bdc6"><title>13 emails, 3 repository events, 0 wiki edits in Jan 2020</title></rect><rect x="70" y="6" width="15" height="15" fill="#a5aec0"><title>24 emails, 12 repository events, 0 wiki edits in Feb 2020</title></rect><rect x="90" y="6" width="15" height="15" fill="#a5aec0"><title>17 emails, 31 repository events, 0 wiki edits in Mar 2020</title></rect><rect x="110" y="6" width="15" height="15" fill="#a5aec0"><title>27 emails, 20 repository events, 0 wiki edits in Apr 2020</title></rect><rect x="130" y="6" width="15" height="15" fill="#919fba"><title>30 emails, 25 repository events, 0 wiki edits in May 2020</title></rect><rect x="150" y="6" width="15" height="15" fill="#a5aec0"><title>23 emails, 24 repository events, 0 wiki edits in Jun 2020</title></rect><rect x="170" y="6" width="15" height="15" fill="#a5aec0"><title>18 emails, 28 repository events, 0 wiki edits in Jul 2020</title></rect><rect x="190" y="6" width="15" height="15" fill="#919fba"><title>30 emails, 43 repository events, 0 wiki edits in Aug 2020</title></rect><rect x="210" y="6" width="15" height="15" fill="#a5aec0"><title>32 emails, 14 repository events, 0 wiki edits in Sep 2020</title></rect><rect x="230" y="6" width="15" height="15" fill="#a5aec0"><title>24 emails, 24 repository events, 0 wiki edits in Oct 2020</title></rect><rect x="250" y="6" width="15" height="15" fill="#a5aec0"><title>16 emails, 20 repository events, 0 wiki edits in Nov 2020</title></rect><rect x="270" y="6" width="15" height="15" fill="#919fba"><title>41 emails, 20 repository events, 0 wiki edits in Dec 2020</title></rect></g>
<g transform="translate(0 480)">
  <title>Activity in 2021</title>
  <text x="2" y="20">2021</text><rect x="50" y="6" width="15" height="15" fill="#a5aec0"><title>15 emails, 12 repository events, 0 wiki edits in Jan 2021</title></rect><rect x="70" y="6" width="15" height="15" fill="#919fba"><title>20 emails, 53 repository events, 0 wiki edits in Feb 2021</title></rect><rect x="90" y="6" width="15" height="15" fill="#919fba"><title>31 emails, 23 repository events, 0 wiki edits in Mar 2021</title></rect><rect x="110" y="6" width="15" height="15" fill="#a5aec0"><title>10 emails, 23 repository events, 0 wiki edits in Apr 2021</title></rect><rect x="130" y="6" width="15" height="15" fill="#919fba"><title>19 emails, 37 repository events, 0 wiki edits in May 2021</title></rect><rect x="150" y="6" width="15" height="15" fill="#a5aec0"><title>24 emails, 11 repository events, 0 wiki edits in Jun 2021</title></rect><rect x="170" y="6" width="15" height="15" fill="#a5aec0"><title>14 emails, 15 repository events, 0 wiki edits in Jul 2021</title></rect><rect x="190" y="6" width="15" height="15" fill="#a5aec0"><title>26 emails, 23 repository events, 0 wiki edits in Aug 2021</title></rect><rect x="210" y="6" width="15" height="15" fill="#919fba"><title>17 emails, 41 repository events, 0 wiki edits in Sep 2021</title></rect><rect x="230" y="6" width="15" height="15" fill="#a5aec0"><title>17 emails, 21 repository events, 0 wiki edits in Oct 2021</title></rect><rect x="250" y="6" width="15" height="15" fill="#b9bdc6"><title>11 emails, 5 repository events, 0 wiki edits in Nov 2021</title></rect><rect x="270" y="6" width="15" height="15" fill="#919fba"><title>14 emails, 57 repository events, 0 wiki edits in Dec 2021</title></rect></g>
<g transform="translate(0 500)">
  <title>Activity in 2022</title>
  <text x="2" y="20">2022</text><rect x="50" y="6" width="15" height="15" fill="#6882ae"><title>17 emails, 102 repository events, 0 wiki edits in Jan 2022</title></rect><rect x="70" y="6" width="15" height="15" fill="#6882ae"><title>12 emails, 104 repository events, 0 wiki edits in Feb 2022</title></rect><rect x="90" y="6" width="15" height="15" fill="#6882ae"><title>12 emails, 112 repository events, 0 wiki edits in Mar 2022</title></rect><rect x="110" y="6" width="15" height="15" fill="#919fba"><title>14 emails, 61 repository events, 0 wiki edits in Apr 2022</title></rect><rect x="130" y="6" width="15" height="15" fill="#6882ae"><title>10 emails, 104 repository events, 0 wiki edits in May 2022</title></rect><rect x="150" y="6" width="15" height="15" fill="#7d90b5"><title>13 emails, 63 repository events, 0 wiki edits in Jun 2022</title></rect></g><text style="font-size: 10px; text-align: center" x="53" y="530">J</text><text style="font-size: 10px; text-align: center" x="73" y="530">F</text><text style="font-size: 10px; text-align: center" x="93" y="530">M</text><text style="font-size: 10px; text-align: center" x="113" y="530">A</text><text style="font-size: 10px; text-align: center" x="133" y="530">M</text><text style="font-size: 10px; text-align: center" x="153" y="530">J</text><text style="font-size: 10px; text-align: center" x="173" y="530">J</text><text style="font-size: 10px; text-align: center" x="193" y="530">A</text><text style="font-size: 10px; text-align: center" x="213" y="530">S</text><text style="font-size: 10px; text-align: center" x="233" y="530">O</text><text style="font-size: 10px; text-align: center" x="253" y="530">N</text><text style="font-size: 10px; text-align: center" x="273" y="530">D</text><text style="font-size: 10px;" x="155" y="549">Less</text><rect fill="#b9bdc6" width="10" height="10" x="180" y="540"><title>No activity in the period</title></rect><rect fill="#919fba" width="10" height="10" x="195" y="540"><title>Low activity in the period</title></rect><rect fill="#6882ae" width="10" height="10" x="210" y="540"><title>Medium activity in the period</title></rect><rect fill="#005a9c" width="10" height="10" x="225" y="540"><title>High activity in period</title></rect><text x="240" y="549" style="font-size: 10px;">More</text></svg>