<svg xmlns="http://www.w3.org/2000/svg">
  <title>Activity of Cascading%20Style%20Sheets%20%28CSS%29%20Working%20Group</title>
  <style type="text/css">.none { fill: #aaa;}
  .low { fill: #8ac;}
  .medium { fill: #49a;}
  .high { fill: #159;}
  </style>

<g transform="translate(0 0)">
  <title>Activity in 1997</title>
  <text x="2" y="20">1997</text><rect x="70" y="6" width="15" height="15" class="high"><title>137 emails, 0 repo event, 0 wiki edits in Feb 1997</title></rect><rect x="90" y="6" width="15" height="15" class="medium"><title>65 emails, 0 repo event, 0 wiki edits in Mar 1997</title></rect><rect x="110" y="6" width="15" height="15" class="high"><title>300 emails, 0 repo event, 0 wiki edits in Apr 1997</title></rect><rect x="130" y="6" width="15" height="15" class="high"><title>95 emails, 0 repo event, 0 wiki edits in May 1997</title></rect><rect x="150" y="6" width="15" height="15" class="high"><title>99 emails, 0 repo event, 0 wiki edits in Jun 1997</title></rect><rect x="170" y="6" width="15" height="15" class="high"><title>261 emails, 0 repo event, 0 wiki edits in Jul 1997</title></rect><rect x="190" y="6" width="15" height="15" class="high"><title>164 emails, 0 repo event, 0 wiki edits in Aug 1997</title></rect><rect x="210" y="6" width="15" height="15" class="high"><title>84 emails, 0 repo event, 0 wiki edits in Sep 1997</title></rect><rect x="230" y="6" width="15" height="15" class="high"><title>96 emails, 0 repo event, 0 wiki edits in Oct 1997</title></rect><rect x="250" y="6" width="15" height="15" class="high"><title>212 emails, 0 repo event, 0 wiki edits in Nov 1997</title></rect><rect x="270" y="6" width="15" height="15" class="high"><title>276 emails, 0 repo event, 0 wiki edits in Dec 1997</title></rect></g>
<g transform="translate(0 20)">
  <title>Activity in 1998</title>
  <text x="2" y="20">1998</text><rect x="50" y="6" width="15" height="15" class="medium"><title>70 emails, 0 repo event, 0 wiki edits in Jan 1998</title></rect><rect x="70" y="6" width="15" height="15" class="high"><title>104 emails, 0 repo event, 0 wiki edits in Feb 1998</title></rect><rect x="90" y="6" width="15" height="15" class="high"><title>168 emails, 0 repo event, 0 wiki edits in Mar 1998</title></rect><rect x="110" y="6" width="15" height="15" class="high"><title>127 emails, 0 repo event, 0 wiki edits in Apr 1998</title></rect><rect x="130" y="6" width="15" height="15" class="high"><title>135 emails, 0 repo event, 0 wiki edits in May 1998</title></rect><rect x="150" y="6" width="15" height="15" class="medium"><title>51 emails, 0 repo event, 0 wiki edits in Jun 1998</title></rect><rect x="170" y="6" width="15" height="15" class="medium"><title>47 emails, 0 repo event, 0 wiki edits in Jul 1998</title></rect><rect x="190" y="6" width="15" height="15" class="high"><title>115 emails, 0 repo event, 0 wiki edits in Aug 1998</title></rect><rect x="210" y="6" width="15" height="15" class="medium"><title>69 emails, 0 repo event, 0 wiki edits in Sep 1998</title></rect><rect x="230" y="6" width="15" height="15" class="high"><title>81 emails, 0 repo event, 0 wiki edits in Oct 1998</title></rect><rect x="250" y="6" width="15" height="15" class="medium"><title>76 emails, 0 repo event, 0 wiki edits in Nov 1998</title></rect><rect x="270" y="6" width="15" height="15" class="high"><title>94 emails, 0 repo event, 0 wiki edits in Dec 1998</title></rect></g>
<g transform="translate(0 40)">
  <title>Activity in 1999</title>
  <text x="2" y="20">1999</text><rect x="50" y="6" width="15" height="15" class="high"><title>89 emails, 0 repo event, 0 wiki edits in Jan 1999</title></rect><rect x="70" y="6" width="15" height="15" class="medium"><title>70 emails, 0 repo event, 0 wiki edits in Feb 1999</title></rect><rect x="90" y="6" width="15" height="15" class="high"><title>133 emails, 0 repo event, 0 wiki edits in Mar 1999</title></rect><rect x="110" y="6" width="15" height="15" class="medium"><title>26 emails, 0 repo event, 0 wiki edits in Apr 1999</title></rect><rect x="130" y="6" width="15" height="15" class="high"><title>84 emails, 0 repo event, 0 wiki edits in May 1999</title></rect><rect x="150" y="6" width="15" height="15" class="medium"><title>72 emails, 0 repo event, 0 wiki edits in Jun 1999</title></rect><rect x="170" y="6" width="15" height="15" class="high"><title>111 emails, 0 repo event, 0 wiki edits in Jul 1999</title></rect><rect x="190" y="6" width="15" height="15" class="high"><title>142 emails, 0 repo event, 0 wiki edits in Aug 1999</title></rect><rect x="210" y="6" width="15" height="15" class="high"><title>161 emails, 0 repo event, 0 wiki edits in Sep 1999</title></rect><rect x="230" y="6" width="15" height="15" class="high"><title>123 emails, 0 repo event, 0 wiki edits in Oct 1999</title></rect><rect x="250" y="6" width="15" height="15" class="high"><title>243 emails, 0 repo event, 0 wiki edits in Nov 1999</title></rect><rect x="270" y="6" width="15" height="15" class="high"><title>82 emails, 0 repo event, 0 wiki edits in Dec 1999</title></rect></g>
<g transform="translate(0 60)">
  <title>Activity in 2000</title>
  <text x="2" y="20">2000</text><rect x="50" y="6" width="15" height="15" class="high"><title>256 emails, 0 repo event, 0 wiki edits in Jan 2000</title></rect><rect x="70" y="6" width="15" height="15" class="high"><title>260 emails, 0 repo event, 0 wiki edits in Feb 2000</title></rect><rect x="90" y="6" width="15" height="15" class="high"><title>117 emails, 0 repo event, 0 wiki edits in Mar 2000</title></rect><rect x="110" y="6" width="15" height="15" class="high"><title>108 emails, 0 repo event, 0 wiki edits in Apr 2000</title></rect><rect x="130" y="6" width="15" height="15" class="medium"><title>34 emails, 0 repo event, 0 wiki edits in May 2000</title></rect><rect x="150" y="6" width="15" height="15" class="medium"><title>49 emails, 0 repo event, 0 wiki edits in Jun 2000</title></rect><rect x="170" y="6" width="15" height="15" class="high"><title>97 emails, 0 repo event, 0 wiki edits in Jul 2000</title></rect><rect x="190" y="6" width="15" height="15" class="high"><title>156 emails, 0 repo event, 0 wiki edits in Aug 2000</title></rect><rect x="210" y="6" width="15" height="15" class="medium"><title>33 emails, 0 repo event, 0 wiki edits in Sep 2000</title></rect><rect x="230" y="6" width="15" height="15" class="high"><title>254 emails, 0 repo event, 0 wiki edits in Oct 2000</title></rect><rect x="250" y="6" width="15" height="15" class="high"><title>89 emails, 0 repo event, 0 wiki edits in Nov 2000</title></rect><rect x="270" y="6" width="15" height="15" class="high"><title>106 emails, 0 repo event, 0 wiki edits in Dec 2000</title></rect></g>
<g transform="translate(0 80)">
  <title>Activity in 2001</title>
  <text x="2" y="20">2001</text><rect x="50" y="6" width="15" height="15" class="high"><title>111 emails, 0 repo event, 0 wiki edits in Jan 2001</title></rect><rect x="70" y="6" width="15" height="15" class="high"><title>125 emails, 0 repo event, 0 wiki edits in Feb 2001</title></rect><rect x="90" y="6" width="15" height="15" class="high"><title>198 emails, 0 repo event, 0 wiki edits in Mar 2001</title></rect><rect x="110" y="6" width="15" height="15" class="high"><title>133 emails, 0 repo event, 0 wiki edits in Apr 2001</title></rect><rect x="130" y="6" width="15" height="15" class="high"><title>113 emails, 0 repo event, 0 wiki edits in May 2001</title></rect><rect x="150" y="6" width="15" height="15" class="high"><title>116 emails, 0 repo event, 0 wiki edits in Jun 2001</title></rect><rect x="170" y="6" width="15" height="15" class="high"><title>230 emails, 0 repo event, 0 wiki edits in Jul 2001</title></rect><rect x="190" y="6" width="15" height="15" class="high"><title>94 emails, 0 repo event, 0 wiki edits in Aug 2001</title></rect><rect x="210" y="6" width="15" height="15" class="high"><title>99 emails, 0 repo event, 0 wiki edits in Sep 2001</title></rect><rect x="230" y="6" width="15" height="15" class="high"><title>266 emails, 0 repo event, 0 wiki edits in Oct 2001</title></rect><rect x="250" y="6" width="15" height="15" class="high"><title>97 emails, 0 repo event, 0 wiki edits in Nov 2001</title></rect><rect x="270" y="6" width="15" height="15" class="medium"><title>32 emails, 0 repo event, 0 wiki edits in Dec 2001</title></rect></g>
<g transform="translate(0 100)">
  <title>Activity in 2002</title>
  <text x="2" y="20">2002</text><rect x="50" y="6" width="15" height="15" class="high"><title>130 emails, 0 repo event, 0 wiki edits in Jan 2002</title></rect><rect x="70" y="6" width="15" height="15" class="high"><title>164 emails, 0 repo event, 0 wiki edits in Feb 2002</title></rect><rect x="90" y="6" width="15" height="15" class="high"><title>102 emails, 0 repo event, 0 wiki edits in Mar 2002</title></rect><rect x="110" y="6" width="15" height="15" class="high"><title>92 emails, 0 repo event, 0 wiki edits in Apr 2002</title></rect><rect x="130" y="6" width="15" height="15" class="high"><title>231 emails, 0 repo event, 0 wiki edits in May 2002</title></rect><rect x="150" y="6" width="15" height="15" class="high"><title>95 emails, 0 repo event, 0 wiki edits in Jun 2002</title></rect><rect x="170" y="6" width="15" height="15" class="high"><title>154 emails, 0 repo event, 0 wiki edits in Jul 2002</title></rect><rect x="190" y="6" width="15" height="15" class="high"><title>401 emails, 0 repo event, 0 wiki edits in Aug 2002</title></rect><rect x="210" y="6" width="15" height="15" class="high"><title>191 emails, 0 repo event, 0 wiki edits in Sep 2002</title></rect><rect x="230" y="6" width="15" height="15" class="high"><title>119 emails, 0 repo event, 0 wiki edits in Oct 2002</title></rect><rect x="250" y="6" width="15" height="15" class="high"><title>160 emails, 0 repo event, 0 wiki edits in Nov 2002</title></rect><rect x="270" y="6" width="15" height="15" class="high"><title>241 emails, 0 repo event, 0 wiki edits in Dec 2002</title></rect></g>
<g transform="translate(0 120)">
  <title>Activity in 2003</title>
  <text x="2" y="20">2003</text><rect x="50" y="6" width="15" height="15" class="high"><title>303 emails, 0 repo event, 0 wiki edits in Jan 2003</title></rect><rect x="70" y="6" width="15" height="15" class="high"><title>290 emails, 0 repo event, 0 wiki edits in Feb 2003</title></rect><rect x="90" y="6" width="15" height="15" class="high"><title>210 emails, 0 repo event, 0 wiki edits in Mar 2003</title></rect><rect x="110" y="6" width="15" height="15" class="high"><title>204 emails, 0 repo event, 0 wiki edits in Apr 2003</title></rect><rect x="130" y="6" width="15" height="15" class="high"><title>101 emails, 0 repo event, 0 wiki edits in May 2003</title></rect><rect x="150" y="6" width="15" height="15" class="high"><title>198 emails, 0 repo event, 0 wiki edits in Jun 2003</title></rect><rect x="170" y="6" width="15" height="15" class="high"><title>306 emails, 0 repo event, 0 wiki edits in Jul 2003</title></rect><rect x="190" y="6" width="15" height="15" class="high"><title>84 emails, 0 repo event, 0 wiki edits in Aug 2003</title></rect><rect x="210" y="6" width="15" height="15" class="high"><title>164 emails, 0 repo event, 0 wiki edits in Sep 2003</title></rect><rect x="230" y="6" width="15" height="15" class="high"><title>374 emails, 0 repo event, 0 wiki edits in Oct 2003</title></rect><rect x="250" y="6" width="15" height="15" class="high"><title>134 emails, 0 repo event, 0 wiki edits in Nov 2003</title></rect><rect x="270" y="6" width="15" height="15" class="high"><title>174 emails, 0 repo event, 0 wiki edits in Dec 2003</title></rect></g>
<g transform="translate(0 140)">
  <title>Activity in 2004</title>
  <text x="2" y="20">2004</text><rect x="50" y="6" width="15" height="15" class="high"><title>259 emails, 0 repo event, 0 wiki edits in Jan 2004</title></rect><rect x="70" y="6" width="15" height="15" class="high"><title>535 emails, 0 repo event, 0 wiki edits in Feb 2004</title></rect><rect x="90" y="6" width="15" height="15" class="high"><title>346 emails, 0 repo event, 0 wiki edits in Mar 2004</title></rect><rect x="110" y="6" width="15" height="15" class="high"><title>295 emails, 0 repo event, 0 wiki edits in Apr 2004</title></rect><rect x="130" y="6" width="15" height="15" class="high"><title>514 emails, 0 repo event, 0 wiki edits in May 2004</title></rect><rect x="150" y="6" width="15" height="15" class="high"><title>102 emails, 0 repo event, 0 wiki edits in Jun 2004</title></rect><rect x="170" y="6" width="15" height="15" class="high"><title>300 emails, 0 repo event, 0 wiki edits in Jul 2004</title></rect><rect x="190" y="6" width="15" height="15" class="high"><title>218 emails, 0 repo event, 0 wiki edits in Aug 2004</title></rect><rect x="210" y="6" width="15" height="15" class="high"><title>130 emails, 0 repo event, 0 wiki edits in Sep 2004</title></rect><rect x="230" y="6" width="15" height="15" class="high"><title>155 emails, 0 repo event, 0 wiki edits in Oct 2004</title></rect><rect x="250" y="6" width="15" height="15" class="high"><title>123 emails, 0 repo event, 0 wiki edits in Nov 2004</title></rect><rect x="270" y="6" width="15" height="15" class="high"><title>106 emails, 0 repo event, 0 wiki edits in Dec 2004</title></rect></g>
<g transform="translate(0 160)">
  <title>Activity in 2005</title>
  <text x="2" y="20">2005</text><rect x="50" y="6" width="15" height="15" class="high"><title>105 emails, 0 repo event, 0 wiki edits in Jan 2005</title></rect><rect x="70" y="6" width="15" height="15" class="high"><title>190 emails, 0 repo event, 0 wiki edits in Feb 2005</title></rect><rect x="90" y="6" width="15" height="15" class="high"><title>164 emails, 0 repo event, 0 wiki edits in Mar 2005</title></rect><rect x="110" y="6" width="15" height="15" class="high"><title>333 emails, 0 repo event, 0 wiki edits in Apr 2005</title></rect><rect x="130" y="6" width="15" height="15" class="high"><title>129 emails, 0 repo event, 0 wiki edits in May 2005</title></rect><rect x="150" y="6" width="15" height="15" class="high"><title>300 emails, 0 repo event, 0 wiki edits in Jun 2005</title></rect><rect x="170" y="6" width="15" height="15" class="high"><title>468 emails, 0 repo event, 0 wiki edits in Jul 2005</title></rect><rect x="190" y="6" width="15" height="15" class="high"><title>439 emails, 0 repo event, 0 wiki edits in Aug 2005</title></rect><rect x="210" y="6" width="15" height="15" class="high"><title>264 emails, 0 repo event, 0 wiki edits in Sep 2005</title></rect><rect x="230" y="6" width="15" height="15" class="high"><title>229 emails, 0 repo event, 0 wiki edits in Oct 2005</title></rect><rect x="250" y="6" width="15" height="15" class="high"><title>200 emails, 0 repo event, 0 wiki edits in Nov 2005</title></rect><rect x="270" y="6" width="15" height="15" class="high"><title>179 emails, 0 repo event, 0 wiki edits in Dec 2005</title></rect></g>
<g transform="translate(0 180)">
  <title>Activity in 2006</title>
  <text x="2" y="20">2006</text><rect x="50" y="6" width="15" height="15" class="high"><title>211 emails, 0 repo event, 0 wiki edits in Jan 2006</title></rect><rect x="70" y="6" width="15" height="15" class="high"><title>145 emails, 0 repo event, 0 wiki edits in Feb 2006</title></rect><rect x="90" y="6" width="15" height="15" class="high"><title>116 emails, 0 repo event, 0 wiki edits in Mar 2006</title></rect><rect x="110" y="6" width="15" height="15" class="high"><title>154 emails, 0 repo event, 0 wiki edits in Apr 2006</title></rect><rect x="130" y="6" width="15" height="15" class="high"><title>153 emails, 0 repo event, 0 wiki edits in May 2006</title></rect><rect x="150" y="6" width="15" height="15" class="high"><title>91 emails, 0 repo event, 0 wiki edits in Jun 2006</title></rect><rect x="170" y="6" width="15" height="15" class="high"><title>96 emails, 0 repo event, 0 wiki edits in Jul 2006</title></rect><rect x="190" y="6" width="15" height="15" class="high"><title>295 emails, 0 repo event, 0 wiki edits in Aug 2006</title></rect><rect x="210" y="6" width="15" height="15" class="high"><title>292 emails, 0 repo event, 0 wiki edits in Sep 2006</title></rect><rect x="230" y="6" width="15" height="15" class="high"><title>157 emails, 0 repo event, 0 wiki edits in Oct 2006</title></rect><rect x="250" y="6" width="15" height="15" class="medium"><title>54 emails, 0 repo event, 0 wiki edits in Nov 2006</title></rect><rect x="270" y="6" width="15" height="15" class="high"><title>88 emails, 0 repo event, 0 wiki edits in Dec 2006</title></rect></g>
<g transform="translate(0 200)">
  <title>Activity in 2007</title>
  <text x="2" y="20">2007</text><rect x="50" y="6" width="15" height="15" class="high"><title>122 emails, 0 repo event, 0 wiki edits in Jan 2007</title></rect><rect x="70" y="6" width="15" height="15" class="high"><title>170 emails, 0 repo event, 0 wiki edits in Feb 2007</title></rect><rect x="90" y="6" width="15" height="15" class="high"><title>111 emails, 0 repo event, 0 wiki edits in Mar 2007</title></rect><rect x="110" y="6" width="15" height="15" class="high"><title>231 emails, 0 repo event, 0 wiki edits in Apr 2007</title></rect><rect x="130" y="6" width="15" height="15" class="high"><title>85 emails, 0 repo event, 0 wiki edits in May 2007</title></rect><rect x="150" y="6" width="15" height="15" class="high"><title>230 emails, 0 repo event, 0 wiki edits in Jun 2007</title></rect><rect x="170" y="6" width="15" height="15" class="high"><title>196 emails, 0 repo event, 0 wiki edits in Jul 2007</title></rect><rect x="190" y="6" width="15" height="15" class="high"><title>223 emails, 0 repo event, 0 wiki edits in Aug 2007</title></rect><rect x="210" y="6" width="15" height="15" class="high"><title>200 emails, 0 repo event, 0 wiki edits in Sep 2007</title></rect><rect x="230" y="6" width="15" height="15" class="high"><title>210 emails, 0 repo event, 0 wiki edits in Oct 2007</title></rect><rect x="250" y="6" width="15" height="15" class="high"><title>351 emails, 0 repo event, 0 wiki edits in Nov 2007</title></rect><rect x="270" y="6" width="15" height="15" class="high"><title>273 emails, 0 repo event, 0 wiki edits in Dec 2007</title></rect></g>
<g transform="translate(0 220)">
  <title>Activity in 2008</title>
  <text x="2" y="20">2008</text><rect x="50" y="6" width="15" height="15" class="high"><title>613 emails, 0 repo event, 0 wiki edits in Jan 2008</title></rect><rect x="70" y="6" width="15" height="15" class="high"><title>341 emails, 0 repo event, 0 wiki edits in Feb 2008</title></rect><rect x="90" y="6" width="15" height="15" class="high"><title>445 emails, 0 repo event, 0 wiki edits in Mar 2008</title></rect><rect x="110" y="6" width="15" height="15" class="high"><title>527 emails, 0 repo event, 0 wiki edits in Apr 2008</title></rect><rect x="130" y="6" width="15" height="15" class="high"><title>270 emails, 0 repo event, 0 wiki edits in May 2008</title></rect><rect x="150" y="6" width="15" height="15" class="high"><title>396 emails, 0 repo event, 0 wiki edits in Jun 2008</title></rect><rect x="170" y="6" width="15" height="15" class="high"><title>630 emails, 0 repo event, 0 wiki edits in Jul 2008</title></rect><rect x="190" y="6" width="15" height="15" class="high"><title>272 emails, 0 repo event, 0 wiki edits in Aug 2008</title></rect><rect x="210" y="6" width="15" height="15" class="high"><title>245 emails, 0 repo event, 0 wiki edits in Sep 2008</title></rect><rect x="230" y="6" width="15" height="15" class="high"><title>359 emails, 0 repo event, 0 wiki edits in Oct 2008</title></rect><rect x="250" y="6" width="15" height="15" class="high"><title>558 emails, 0 repo event, 0 wiki edits in Nov 2008</title></rect><rect x="270" y="6" width="15" height="15" class="high"><title>237 emails, 0 repo event, 0 wiki edits in Dec 2008</title></rect></g>
<g transform="translate(0 240)">
  <title>Activity in 2009</title>
  <text x="2" y="20">2009</text><rect x="50" y="6" width="15" height="15" class="high"><title>499 emails, 0 repo event, 0 wiki edits in Jan 2009</title></rect><rect x="70" y="6" width="15" height="15" class="high"><title>718 emails, 0 repo event, 0 wiki edits in Feb 2009</title></rect><rect x="90" y="6" width="15" height="15" class="high"><title>453 emails, 0 repo event, 0 wiki edits in Mar 2009</title></rect><rect x="110" y="6" width="15" height="15" class="high"><title>521 emails, 0 repo event, 0 wiki edits in Apr 2009</title></rect><rect x="130" y="6" width="15" height="15" class="high"><title>223 emails, 0 repo event, 0 wiki edits in May 2009</title></rect><rect x="150" y="6" width="15" height="15" class="high"><title>538 emails, 0 repo event, 0 wiki edits in Jun 2009</title></rect><rect x="170" y="6" width="15" height="15" class="high"><title>208 emails, 0 repo event, 0 wiki edits in Jul 2009</title></rect><rect x="190" y="6" width="15" height="15" class="high"><title>656 emails, 0 repo event, 0 wiki edits in Aug 2009</title></rect><rect x="210" y="6" width="15" height="15" class="high"><title>331 emails, 0 repo event, 0 wiki edits in Sep 2009</title></rect><rect x="230" y="6" width="15" height="15" class="high"><title>361 emails, 0 repo event, 0 wiki edits in Oct 2009</title></rect><rect x="250" y="6" width="15" height="15" class="high"><title>352 emails, 0 repo event, 0 wiki edits in Nov 2009</title></rect><rect x="270" y="6" width="15" height="15" class="high"><title>342 emails, 0 repo event, 0 wiki edits in Dec 2009</title></rect></g>
<g transform="translate(0 260)">
  <title>Activity in 2010</title>
  <text x="2" y="20">2010</text><rect x="50" y="6" width="15" height="15" class="high"><title>616 emails, 0 repo event, 0 wiki edits in Jan 2010</title></rect><rect x="70" y="6" width="15" height="15" class="high"><title>297 emails, 0 repo event, 0 wiki edits in Feb 2010</title></rect><rect x="90" y="6" width="15" height="15" class="high"><title>560 emails, 0 repo event, 0 wiki edits in Mar 2010</title></rect><rect x="110" y="6" width="15" height="15" class="high"><title>690 emails, 0 repo event, 0 wiki edits in Apr 2010</title></rect><rect x="130" y="6" width="15" height="15" class="high"><title>706 emails, 0 repo event, 0 wiki edits in May 2010</title></rect><rect x="150" y="6" width="15" height="15" class="high"><title>695 emails, 0 repo event, 0 wiki edits in Jun 2010</title></rect><rect x="170" y="6" width="15" height="15" class="high"><title>538 emails, 0 repo event, 0 wiki edits in Jul 2010</title></rect><rect x="190" y="6" width="15" height="15" class="high"><title>646 emails, 0 repo event, 0 wiki edits in Aug 2010</title></rect><rect x="210" y="6" width="15" height="15" class="high"><title>873 emails, 0 repo event, 0 wiki edits in Sep 2010</title></rect><rect x="230" y="6" width="15" height="15" class="high"><title>953 emails, 0 repo event, 0 wiki edits in Oct 2010</title></rect><rect x="250" y="6" width="15" height="15" class="high"><title>512 emails, 0 repo event, 0 wiki edits in Nov 2010</title></rect><rect x="270" y="6" width="15" height="15" class="high"><title>490 emails, 0 repo event, 0 wiki edits in Dec 2010</title></rect></g>
<g transform="translate(0 280)">
  <title>Activity in 2011</title>
  <text x="2" y="20">2011</text><rect x="50" y="6" width="15" height="15" class="high"><title>721 emails, 0 repo event, 0 wiki edits in Jan 2011</title></rect><rect x="70" y="6" width="15" height="15" class="high"><title>822 emails, 0 repo event, 0 wiki edits in Feb 2011</title></rect><rect x="90" y="6" width="15" height="15" class="high"><title>763 emails, 0 repo event, 0 wiki edits in Mar 2011</title></rect><rect x="110" y="6" width="15" height="15" class="high"><title>839 emails, 0 repo event, 0 wiki edits in Apr 2011</title></rect><rect x="130" y="6" width="15" height="15" class="high"><title>728 emails, 0 repo event, 0 wiki edits in May 2011</title></rect><rect x="150" y="6" width="15" height="15" class="high"><title>826 emails, 0 repo event, 0 wiki edits in Jun 2011</title></rect><rect x="170" y="6" width="15" height="15" class="high"><title>558 emails, 0 repo event, 0 wiki edits in Jul 2011</title></rect><rect x="190" y="6" width="15" height="15" class="high"><title>681 emails, 0 repo event, 0 wiki edits in Aug 2011</title></rect><rect x="210" y="6" width="15" height="15" class="high"><title>563 emails, 0 repo event, 0 wiki edits in Sep 2011</title></rect><rect x="230" y="6" width="15" height="15" class="high"><title>896 emails, 0 repo event, 0 wiki edits in Oct 2011</title></rect><rect x="250" y="6" width="15" height="15" class="high"><title>815 emails, 0 repo event, 0 wiki edits in Nov 2011</title></rect><rect x="270" y="6" width="15" height="15" class="high"><title>555 emails, 0 repo event, 0 wiki edits in Dec 2011</title></rect></g>
<g transform="translate(0 300)">
  <title>Activity in 2012</title>
  <text x="2" y="20">2012</text><rect x="50" y="6" width="15" height="15" class="high"><title>1346 emails, 0 repo event, 0 wiki edits in Jan 2012</title></rect><rect x="70" y="6" width="15" height="15" class="high"><title>1434 emails, 0 repo event, 0 wiki edits in Feb 2012</title></rect><rect x="90" y="6" width="15" height="15" class="high"><title>731 emails, 0 repo event, 0 wiki edits in Mar 2012</title></rect><rect x="110" y="6" width="15" height="15" class="high"><title>834 emails, 0 repo event, 0 wiki edits in Apr 2012</title></rect><rect x="130" y="6" width="15" height="15" class="high"><title>1248 emails, 0 repo event, 0 wiki edits in May 2012</title></rect><rect x="150" y="6" width="15" height="15" class="high"><title>738 emails, 0 repo event, 0 wiki edits in Jun 2012</title></rect><rect x="170" y="6" width="15" height="15" class="high"><title>727 emails, 0 repo event, 0 wiki edits in Jul 2012</title></rect><rect x="190" y="6" width="15" height="15" class="high"><title>963 emails, 0 repo event, 0 wiki edits in Aug 2012</title></rect><rect x="210" y="6" width="15" height="15" class="high"><title>584 emails, 0 repo event, 0 wiki edits in Sep 2012</title></rect><rect x="230" y="6" width="15" height="15" class="high"><title>878 emails, 0 repo event, 0 wiki edits in Oct 2012</title></rect><rect x="250" y="6" width="15" height="15" class="high"><title>548 emails, 0 repo event, 0 wiki edits in Nov 2012</title></rect><rect x="270" y="6" width="15" height="15" class="high"><title>351 emails, 0 repo event, 0 wiki edits in Dec 2012</title></rect></g>
<g transform="translate(0 320)">
  <title>Activity in 2013</title>
  <text x="2" y="20">2013</text><rect x="50" y="6" width="15" height="15" class="high"><title>651 emails, 0 repo event, 0 wiki edits in Jan 2013</title></rect><rect x="70" y="6" width="15" height="15" class="high"><title>750 emails, 0 repo event, 0 wiki edits in Feb 2013</title></rect><rect x="90" y="6" width="15" height="15" class="high"><title>764 emails, 0 repo event, 0 wiki edits in Mar 2013</title></rect><rect x="110" y="6" width="15" height="15" class="high"><title>714 emails, 0 repo event, 0 wiki edits in Apr 2013</title></rect><rect x="130" y="6" width="15" height="15" class="high"><title>828 emails, 0 repo event, 0 wiki edits in May 2013</title></rect><rect x="150" y="6" width="15" height="15" class="high"><title>715 emails, 0 repo event, 0 wiki edits in Jun 2013</title></rect><rect x="170" y="6" width="15" height="15" class="high"><title>724 emails, 0 repo event, 0 wiki edits in Jul 2013</title></rect><rect x="190" y="6" width="15" height="15" class="high"><title>685 emails, 0 repo event, 0 wiki edits in Aug 2013</title></rect><rect x="210" y="6" width="15" height="15" class="high"><title>887 emails, 0 repo event, 0 wiki edits in Sep 2013</title></rect><rect x="230" y="6" width="15" height="15" class="high"><title>756 emails, 0 repo event, 0 wiki edits in Oct 2013</title></rect><rect x="250" y="6" width="15" height="15" class="high"><title>456 emails, 0 repo event, 0 wiki edits in Nov 2013</title></rect><rect x="270" y="6" width="15" height="15" class="high"><title>473 emails, 0 repo event, 0 wiki edits in Dec 2013</title></rect></g>
<g transform="translate(0 340)">
  <title>Activity in 2014</title>
  <text x="2" y="20">2014</text><rect x="50" y="6" width="15" height="15" class="high"><title>638 emails, 0 repo event, 0 wiki edits in Jan 2014</title></rect><rect x="70" y="6" width="15" height="15" class="high"><title>834 emails, 0 repo event, 0 wiki edits in Feb 2014</title></rect><rect x="90" y="6" width="15" height="15" class="high"><title>620 emails, 2 repo event, 0 wiki edits in Mar 2014</title></rect><rect x="110" y="6" width="15" height="15" class="high"><title>485 emails, 0 repo event, 0 wiki edits in Apr 2014</title></rect><rect x="130" y="6" width="15" height="15" class="high"><title>463 emails, 0 repo event, 0 wiki edits in May 2014</title></rect><rect x="150" y="6" width="15" height="15" class="high"><title>506 emails, 0 repo event, 0 wiki edits in Jun 2014</title></rect><rect x="170" y="6" width="15" height="15" class="high"><title>623 emails, 0 repo event, 0 wiki edits in Jul 2014</title></rect><rect x="190" y="6" width="15" height="15" class="high"><title>433 emails, 2 repo event, 0 wiki edits in Aug 2014</title></rect><rect x="210" y="6" width="15" height="15" class="high"><title>432 emails, 0 repo event, 0 wiki edits in Sep 2014</title></rect><rect x="230" y="6" width="15" height="15" class="high"><title>537 emails, 0 repo event, 0 wiki edits in Oct 2014</title></rect><rect x="250" y="6" width="15" height="15" class="high"><title>597 emails, 0 repo event, 0 wiki edits in Nov 2014</title></rect><rect x="270" y="6" width="15" height="15" class="high"><title>391 emails, 6 repo event, 0 wiki edits in Dec 2014</title></rect></g>
<g transform="translate(0 360)">
  <title>Activity in 2015</title>
  <text x="2" y="20">2015</text><rect x="50" y="6" width="15" height="15" class="high"><title>635 emails, 4 repo event, 0 wiki edits in Jan 2015</title></rect><rect x="70" y="6" width="15" height="15" class="high"><title>569 emails, 10 repo event, 0 wiki edits in Feb 2015</title></rect><rect x="90" y="6" width="15" height="15" class="high"><title>558 emails, 4 repo event, 0 wiki edits in Mar 2015</title></rect><rect x="110" y="6" width="15" height="15" class="high"><title>407 emails, 14 repo event, 0 wiki edits in Apr 2015</title></rect><rect x="130" y="6" width="15" height="15" class="high"><title>320 emails, 8 repo event, 0 wiki edits in May 2015</title></rect><rect x="150" y="6" width="15" height="15" class="high"><title>383 emails, 20 repo event, 0 wiki edits in Jun 2015</title></rect><rect x="170" y="6" width="15" height="15" class="high"><title>480 emails, 24 repo event, 0 wiki edits in Jul 2015</title></rect><rect x="190" y="6" width="15" height="15" class="high"><title>349 emails, 37 repo event, 0 wiki edits in Aug 2015</title></rect><rect x="210" y="6" width="15" height="15" class="high"><title>332 emails, 26 repo event, 0 wiki edits in Sep 2015</title></rect><rect x="230" y="6" width="15" height="15" class="high"><title>237 emails, 64 repo event, 0 wiki edits in Oct 2015</title></rect><rect x="250" y="6" width="15" height="15" class="high"><title>364 emails, 8 repo event, 0 wiki edits in Nov 2015</title></rect><rect x="270" y="6" width="15" height="15" class="high"><title>308 emails, 21 repo event, 0 wiki edits in Dec 2015</title></rect></g>
<g transform="translate(0 380)">
  <title>Activity in 2016</title>
  <text x="2" y="20">2016</text><rect x="50" y="6" width="15" height="15" class="high"><title>303 emails, 52 repo event, 0 wiki edits in Jan 2016</title></rect><rect x="70" y="6" width="15" height="15" class="high"><title>359 emails, 11 repo event, 0 wiki edits in Feb 2016</title></rect><rect x="90" y="6" width="15" height="15" class="high"><title>441 emails, 21 repo event, 0 wiki edits in Mar 2016</title></rect><rect x="110" y="6" width="15" height="15" class="high"><title>463 emails, 65 repo event, 0 wiki edits in Apr 2016</title></rect><rect x="130" y="6" width="15" height="15" class="high"><title>260 emails, 88 repo event, 0 wiki edits in May 2016</title></rect><rect x="150" y="6" width="15" height="15" class="high"><title>187 emails, 174 repo event, 0 wiki edits in Jun 2016</title></rect><rect x="170" y="6" width="15" height="15" class="high"><title>74 emails, 154 repo event, 0 wiki edits in Jul 2016</title></rect><rect x="190" y="6" width="15" height="15" class="high"><title>96 emails, 112 repo event, 0 wiki edits in Aug 2016</title></rect><rect x="210" y="6" width="15" height="15" class="high"><title>143 emails, 205 repo event, 0 wiki edits in Sep 2016</title></rect><rect x="230" y="6" width="15" height="15" class="high"><title>136 emails, 137 repo event, 0 wiki edits in Oct 2016</title></rect><rect x="250" y="6" width="15" height="15" class="high"><title>125 emails, 184 repo event, 0 wiki edits in Nov 2016</title></rect><rect x="270" y="6" width="15" height="15" class="high"><title>125 emails, 85 repo event, 0 wiki edits in Dec 2016</title></rect></g>
<g transform="translate(0 400)">
  <title>Activity in 2017</title>
  <text x="2" y="20">2017</text><rect x="50" y="6" width="15" height="15" class="high"><title>76 emails, 192 repo event, 0 wiki edits in Jan 2017</title></rect><rect x="70" y="6" width="15" height="15" class="high"><title>96 emails, 103 repo event, 0 wiki edits in Feb 2017</title></rect><rect x="90" y="6" width="15" height="15" class="high"><title>89 emails, 114 repo event, 0 wiki edits in Mar 2017</title></rect><rect x="110" y="6" width="15" height="15" class="high"><title>71 emails, 247 repo event, 0 wiki edits in Apr 2017</title></rect><rect x="130" y="6" width="15" height="15" class="high"><title>62 emails, 272 repo event, 0 wiki edits in May 2017</title></rect><rect x="150" y="6" width="15" height="15" class="high"><title>44 emails, 158 repo event, 0 wiki edits in Jun 2017</title></rect><rect x="170" y="6" width="15" height="15" class="high"><title>41 emails, 119 repo event, 0 wiki edits in Jul 2017</title></rect><rect x="190" y="6" width="15" height="15" class="high"><title>49 emails, 186 repo event, 0 wiki edits in Aug 2017</title></rect><rect x="210" y="6" width="15" height="15" class="high"><title>59 emails, 98 repo event, 0 wiki edits in Sep 2017</title></rect><rect x="230" y="6" width="15" height="15" class="high"><title>53 emails, 145 repo event, 0 wiki edits in Oct 2017</title></rect><rect x="250" y="6" width="15" height="15" class="high"><title>27 emails, 128 repo event, 0 wiki edits in Nov 2017</title></rect><rect x="270" y="6" width="15" height="15" class="high"><title>60 emails, 202 repo event, 0 wiki edits in Dec 2017</title></rect></g>
<g transform="translate(0 420)">
  <title>Activity in 2018</title>
  <text x="2" y="20">2018</text><rect x="50" y="6" width="15" height="15" class="high"><title>103 emails, 221 repo event, 0 wiki edits in Jan 2018</title></rect><rect x="70" y="6" width="15" height="15" class="high"><title>72 emails, 277 repo event, 0 wiki edits in Feb 2018</title></rect><rect x="90" y="6" width="15" height="15" class="high"><title>46 emails, 176 repo event, 0 wiki edits in Mar 2018</title></rect><rect x="110" y="6" width="15" height="15" class="high"><title>40 emails, 205 repo event, 0 wiki edits in Apr 2018</title></rect><rect x="130" y="6" width="15" height="15" class="high"><title>52 emails, 139 repo event, 0 wiki edits in May 2018</title></rect><rect x="150" y="6" width="15" height="15" class="high"><title>35 emails, 169 repo event, 0 wiki edits in Jun 2018</title></rect><rect x="170" y="6" width="15" height="15" class="high"><title>42 emails, 176 repo event, 0 wiki edits in Jul 2018</title></rect><rect x="190" y="6" width="15" height="15" class="high"><title>32 emails, 157 repo event, 0 wiki edits in Aug 2018</title></rect><rect x="210" y="6" width="15" height="15" class="high"><title>22 emails, 142 repo event, 0 wiki edits in Sep 2018</title></rect><rect x="230" y="6" width="15" height="15" class="high"><title>15 emails, 121 repo event, 0 wiki edits in Oct 2018</title></rect><rect x="250" y="6" width="15" height="15" class="high"><title>33 emails, 139 repo event, 0 wiki edits in Nov 2018</title></rect><rect x="270" y="6" width="15" height="15" class="high"><title>35 emails, 143 repo event, 0 wiki edits in Dec 2018</title></rect></g>
<g transform="translate(0 440)">
  <title>Activity in 2019</title>
  <text x="2" y="20">2019</text><rect x="50" y="6" width="15" height="15" class="high"><title>20 emails, 142 repo event, 0 wiki edits in Jan 2019</title></rect><rect x="70" y="6" width="15" height="15" class="high"><title>11 emails, 133 repo event, 0 wiki edits in Feb 2019</title></rect><rect x="90" y="6" width="15" height="15" class="high"><title>19 emails, 139 repo event, 0 wiki edits in Mar 2019</title></rect><rect x="110" y="6" width="15" height="15" class="high"><title>27 emails, 133 repo event, 0 wiki edits in Apr 2019</title></rect><rect x="130" y="6" width="15" height="15" class="high"><title>24 emails, 186 repo event, 0 wiki edits in May 2019</title></rect><rect x="150" y="6" width="15" height="15" class="high"><title>11 emails, 133 repo event, 0 wiki edits in Jun 2019</title></rect><rect x="170" y="6" width="15" height="15" class="high"><title>34 emails, 144 repo event, 0 wiki edits in Jul 2019</title></rect><rect x="190" y="6" width="15" height="15" class="high"><title>14 emails, 147 repo event, 0 wiki edits in Aug 2019</title></rect><rect x="210" y="6" width="15" height="15" class="high"><title>16 emails, 208 repo event, 0 wiki edits in Sep 2019</title></rect><rect x="230" y="6" width="15" height="15" class="high"><title>30 emails, 117 repo event, 0 wiki edits in Oct 2019</title></rect><rect x="250" y="6" width="15" height="15" class="high"><title>11 emails, 87 repo event, 0 wiki edits in Nov 2019</title></rect><rect x="270" y="6" width="15" height="15" class="high"><title>16 emails, 109 repo event, 0 wiki edits in Dec 2019</title></rect></g>
<g transform="translate(0 460)">
  <title>Activity in 2020</title>
  <text x="2" y="20">2020</text><rect x="50" y="6" width="15" height="15" class="high"><title>13 emails, 97 repo event, 0 wiki edits in Jan 2020</title></rect><rect x="70" y="6" width="15" height="15" class="high"><title>24 emails, 123 repo event, 0 wiki edits in Feb 2020</title></rect><rect x="90" y="6" width="15" height="15" class="high"><title>17 emails, 128 repo event, 0 wiki edits in Mar 2020</title></rect><rect x="110" y="6" width="15" height="15" class="high"><title>27 emails, 141 repo event, 0 wiki edits in Apr 2020</title></rect><rect x="130" y="6" width="15" height="15" class="high"><title>30 emails, 132 repo event, 0 wiki edits in May 2020</title></rect><rect x="150" y="6" width="15" height="15" class="high"><title>23 emails, 156 repo event, 0 wiki edits in Jun 2020</title></rect><rect x="170" y="6" width="15" height="15" class="high"><title>18 emails, 135 repo event, 0 wiki edits in Jul 2020</title></rect><rect x="190" y="6" width="15" height="15" class="high"><title>30 emails, 151 repo event, 0 wiki edits in Aug 2020</title></rect><rect x="210" y="6" width="15" height="15" class="high"><title>32 emails, 92 repo event, 0 wiki edits in Sep 2020</title></rect><rect x="230" y="6" width="15" height="15" class="high"><title>24 emails, 156 repo event, 0 wiki edits in Oct 2020</title></rect></g></svg>