<svg xmlns="http://www.w3.org/2000/svg">
  <title>Activity of Devices%20and%20Sensors%20Working%20Group</title>
  <style type="text/css">.none { fill: #aaa;}
  .low { fill: #8ac;}
  .medium { fill: #49a;}
  .high { fill: #159;}
  </style>

<g transform="translate(0 0)">
  <title>Activity in 2009</title>
  <text x="2" y="20">2009</text><rect x="170" y="6" width="15" height="15" class="medium"><title>29 emails, 0 repo event, 0 wiki edits in Jul 2009</title></rect><rect x="190" y="6" width="15" height="15" class="high"><title>125 emails, 0 repo event, 0 wiki edits in Aug 2009</title></rect><rect x="210" y="6" width="15" height="15" class="high"><title>149 emails, 0 repo event, 0 wiki edits in Sep 2009</title></rect><rect x="230" y="6" width="15" height="15" class="high"><title>265 emails, 0 repo event, 0 wiki edits in Oct 2009</title></rect><rect x="250" y="6" width="15" height="15" class="high"><title>254 emails, 0 repo event, 0 wiki edits in Nov 2009</title></rect><rect x="270" y="6" width="15" height="15" class="high"><title>299 emails, 0 repo event, 0 wiki edits in Dec 2009</title></rect></g>
<g transform="translate(0 20)">
  <title>Activity in 2010</title>
  <text x="2" y="20">2010</text><rect x="50" y="6" width="15" height="15" class="high"><title>240 emails, 0 repo event, 0 wiki edits in Jan 2010</title></rect><rect x="70" y="6" width="15" height="15" class="high"><title>177 emails, 0 repo event, 0 wiki edits in Feb 2010</title></rect><rect x="90" y="6" width="15" height="15" class="high"><title>245 emails, 0 repo event, 0 wiki edits in Mar 2010</title></rect><rect x="110" y="6" width="15" height="15" class="high"><title>137 emails, 0 repo event, 0 wiki edits in Apr 2010</title></rect><rect x="130" y="6" width="15" height="15" class="high"><title>152 emails, 0 repo event, 0 wiki edits in May 2010</title></rect><rect x="150" y="6" width="15" height="15" class="high"><title>344 emails, 0 repo event, 0 wiki edits in Jun 2010</title></rect><rect x="170" y="6" width="15" height="15" class="high"><title>144 emails, 0 repo event, 0 wiki edits in Jul 2010</title></rect><rect x="190" y="6" width="15" height="15" class="high"><title>112 emails, 0 repo event, 0 wiki edits in Aug 2010</title></rect><rect x="210" y="6" width="15" height="15" class="high"><title>165 emails, 0 repo event, 0 wiki edits in Sep 2010</title></rect><rect x="230" y="6" width="15" height="15" class="high"><title>80 emails, 0 repo event, 0 wiki edits in Oct 2010</title></rect><rect x="250" y="6" width="15" height="15" class="medium"><title>71 emails, 0 repo event, 0 wiki edits in Nov 2010</title></rect><rect x="270" y="6" width="15" height="15" class="medium"><title>55 emails, 0 repo event, 0 wiki edits in Dec 2010</title></rect></g>
<g transform="translate(0 40)">
  <title>Activity in 2011</title>
  <text x="2" y="20">2011</text><rect x="50" y="6" width="15" height="15" class="high"><title>107 emails, 0 repo event, 0 wiki edits in Jan 2011</title></rect><rect x="70" y="6" width="15" height="15" class="high"><title>113 emails, 0 repo event, 0 wiki edits in Feb 2011</title></rect><rect x="90" y="6" width="15" height="15" class="high"><title>153 emails, 0 repo event, 0 wiki edits in Mar 2011</title></rect><rect x="110" y="6" width="15" height="15" class="high"><title>125 emails, 0 repo event, 0 wiki edits in Apr 2011</title></rect><rect x="130" y="6" width="15" height="15" class="medium"><title>71 emails, 0 repo event, 0 wiki edits in May 2011</title></rect><rect x="150" y="6" width="15" height="15" class="high"><title>128 emails, 0 repo event, 0 wiki edits in Jun 2011</title></rect><rect x="170" y="6" width="15" height="15" class="high"><title>116 emails, 0 repo event, 0 wiki edits in Jul 2011</title></rect><rect x="190" y="6" width="15" height="15" class="high"><title>108 emails, 0 repo event, 0 wiki edits in Aug 2011</title></rect><rect x="210" y="6" width="15" height="15" class="high"><title>150 emails, 0 repo event, 0 wiki edits in Sep 2011</title></rect><rect x="230" y="6" width="15" height="15" class="high"><title>92 emails, 0 repo event, 0 wiki edits in Oct 2011</title></rect><rect x="250" y="6" width="15" height="15" class="high"><title>265 emails, 0 repo event, 0 wiki edits in Nov 2011</title></rect><rect x="270" y="6" width="15" height="15" class="medium"><title>49 emails, 0 repo event, 0 wiki edits in Dec 2011</title></rect></g>
<g transform="translate(0 60)">
  <title>Activity in 2012</title>
  <text x="2" y="20">2012</text><rect x="50" y="6" width="15" height="15" class="medium"><title>37 emails, 0 repo event, 0 wiki edits in Jan 2012</title></rect><rect x="70" y="6" width="15" height="15" class="medium"><title>78 emails, 0 repo event, 0 wiki edits in Feb 2012</title></rect><rect x="90" y="6" width="15" height="15" class="high"><title>226 emails, 0 repo event, 0 wiki edits in Mar 2012</title></rect><rect x="110" y="6" width="15" height="15" class="medium"><title>56 emails, 0 repo event, 0 wiki edits in Apr 2012</title></rect><rect x="130" y="6" width="15" height="15" class="high"><title>303 emails, 0 repo event, 0 wiki edits in May 2012</title></rect><rect x="150" y="6" width="15" height="15" class="high"><title>111 emails, 0 repo event, 0 wiki edits in Jun 2012</title></rect><rect x="170" y="6" width="15" height="15" class="medium"><title>72 emails, 0 repo event, 0 wiki edits in Jul 2012</title></rect><rect x="190" y="6" width="15" height="15" class="high"><title>116 emails, 0 repo event, 0 wiki edits in Aug 2012</title></rect><rect x="210" y="6" width="15" height="15" class="high"><title>143 emails, 0 repo event, 0 wiki edits in Sep 2012</title></rect><rect x="230" y="6" width="15" height="15" class="medium"><title>52 emails, 0 repo event, 0 wiki edits in Oct 2012</title></rect><rect x="250" y="6" width="15" height="15" class="high"><title>106 emails, 0 repo event, 0 wiki edits in Nov 2012</title></rect><rect x="270" y="6" width="15" height="15" class="high"><title>81 emails, 0 repo event, 0 wiki edits in Dec 2012</title></rect></g>
<g transform="translate(0 80)">
  <title>Activity in 2013</title>
  <text x="2" y="20">2013</text><rect x="50" y="6" width="15" height="15" class="high"><title>96 emails, 0 repo event, 0 wiki edits in Jan 2013</title></rect><rect x="70" y="6" width="15" height="15" class="high"><title>99 emails, 0 repo event, 0 wiki edits in Feb 2013</title></rect><rect x="90" y="6" width="15" height="15" class="medium"><title>37 emails, 0 repo event, 0 wiki edits in Mar 2013</title></rect><rect x="110" y="6" width="15" height="15" class="medium"><title>68 emails, 0 repo event, 0 wiki edits in Apr 2013</title></rect><rect x="130" y="6" width="15" height="15" class="high"><title>84 emails, 0 repo event, 0 wiki edits in May 2013</title></rect><rect x="150" y="6" width="15" height="15" class="low"><title>19 emails, 0 repo event, 0 wiki edits in Jun 2013</title></rect><rect x="170" y="6" width="15" height="15" class="medium"><title>56 emails, 0 repo event, 0 wiki edits in Jul 2013</title></rect><rect x="190" y="6" width="15" height="15" class="high"><title>80 emails, 0 repo event, 0 wiki edits in Aug 2013</title></rect><rect x="210" y="6" width="15" height="15" class="medium"><title>66 emails, 0 repo event, 0 wiki edits in Sep 2013</title></rect><rect x="230" y="6" width="15" height="15" class="high"><title>179 emails, 0 repo event, 0 wiki edits in Oct 2013</title></rect><rect x="250" y="6" width="15" height="15" class="medium"><title>32 emails, 0 repo event, 0 wiki edits in Nov 2013</title></rect><rect x="270" y="6" width="15" height="15" class="medium"><title>41 emails, 0 repo event, 0 wiki edits in Dec 2013</title></rect></g>
<g transform="translate(0 100)">
  <title>Activity in 2014</title>
  <text x="2" y="20">2014</text><rect x="50" y="6" width="15" height="15" class="medium"><title>60 emails, 0 repo event, 0 wiki edits in Jan 2014</title></rect><rect x="70" y="6" width="15" height="15" class="medium"><title>63 emails, 6 repo event, 0 wiki edits in Feb 2014</title></rect><rect x="90" y="6" width="15" height="15" class="medium"><title>36 emails, 4 repo event, 0 wiki edits in Mar 2014</title></rect><rect x="110" y="6" width="15" height="15" class="medium"><title>40 emails, 4 repo event, 0 wiki edits in Apr 2014</title></rect><rect x="130" y="6" width="15" height="15" class="high"><title>85 emails, 3 repo event, 0 wiki edits in May 2014</title></rect><rect x="150" y="6" width="15" height="15" class="high"><title>120 emails, 6 repo event, 0 wiki edits in Jun 2014</title></rect><rect x="170" y="6" width="15" height="15" class="medium"><title>60 emails, 10 repo event, 0 wiki edits in Jul 2014</title></rect><rect x="190" y="6" width="15" height="15" class="high"><title>72 emails, 43 repo event, 0 wiki edits in Aug 2014</title></rect><rect x="210" y="6" width="15" height="15" class="high"><title>96 emails, 4 repo event, 0 wiki edits in Sep 2014</title></rect><rect x="230" y="6" width="15" height="15" class="medium"><title>34 emails, 5 repo event, 0 wiki edits in Oct 2014</title></rect><rect x="250" y="6" width="15" height="15" class="medium"><title>44 emails, 14 repo event, 0 wiki edits in Nov 2014</title></rect><rect x="270" y="6" width="15" height="15" class="medium"><title>20 emails, 1 repo event, 0 wiki edits in Dec 2014</title></rect></g>
<g transform="translate(0 120)">
  <title>Activity in 2015</title>
  <text x="2" y="20">2015</text><rect x="50" y="6" width="15" height="15" class="medium"><title>47 emails, 0 repo event, 0 wiki edits in Jan 2015</title></rect><rect x="70" y="6" width="15" height="15" class="medium"><title>47 emails, 10 repo event, 0 wiki edits in Feb 2015</title></rect><rect x="90" y="6" width="15" height="15" class="medium"><title>15 emails, 12 repo event, 0 wiki edits in Mar 2015</title></rect><rect x="110" y="6" width="15" height="15" class="medium"><title>40 emails, 1 repo event, 0 wiki edits in Apr 2015</title></rect><rect x="130" y="6" width="15" height="15" class="high"><title>107 emails, 15 repo event, 0 wiki edits in May 2015</title></rect><rect x="150" y="6" width="15" height="15" class="high"><title>176 emails, 53 repo event, 0 wiki edits in Jun 2015</title></rect><rect x="170" y="6" width="15" height="15" class="medium"><title>25 emails, 19 repo event, 0 wiki edits in Jul 2015</title></rect><rect x="190" y="6" width="15" height="15" class="medium"><title>22 emails, 17 repo event, 0 wiki edits in Aug 2015</title></rect><rect x="210" y="6" width="15" height="15" class="medium"><title>33 emails, 14 repo event, 0 wiki edits in Sep 2015</title></rect><rect x="230" y="6" width="15" height="15" class="high"><title>88 emails, 12 repo event, 0 wiki edits in Oct 2015</title></rect><rect x="250" y="6" width="15" height="15" class="medium"><title>25 emails, 14 repo event, 0 wiki edits in Nov 2015</title></rect><rect x="270" y="6" width="15" height="15" class="low"><title>8 emails, 3 repo event, 0 wiki edits in Dec 2015</title></rect></g>
<g transform="translate(0 140)">
  <title>Activity in 2016</title>
  <text x="2" y="20">2016</text><rect x="50" y="6" width="15" height="15" class="high"><title>85 emails, 29 repo event, 0 wiki edits in Jan 2016</title></rect><rect x="70" y="6" width="15" height="15" class="high"><title>91 emails, 16 repo event, 0 wiki edits in Feb 2016</title></rect><rect x="90" y="6" width="15" height="15" class="high"><title>114 emails, 22 repo event, 0 wiki edits in Mar 2016</title></rect><rect x="110" y="6" width="15" height="15" class="medium"><title>49 emails, 19 repo event, 0 wiki edits in Apr 2016</title></rect><rect x="130" y="6" width="15" height="15" class="high"><title>89 emails, 16 repo event, 0 wiki edits in May 2016</title></rect><rect x="150" y="6" width="15" height="15" class="high"><title>74 emails, 23 repo event, 0 wiki edits in Jun 2016</title></rect><rect x="170" y="6" width="15" height="15" class="high"><title>52 emails, 69 repo event, 0 wiki edits in Jul 2016</title></rect><rect x="190" y="6" width="15" height="15" class="medium"><title>35 emails, 26 repo event, 0 wiki edits in Aug 2016</title></rect><rect x="210" y="6" width="15" height="15" class="medium"><title>26 emails, 25 repo event, 0 wiki edits in Sep 2016</title></rect><rect x="230" y="6" width="15" height="15" class="medium"><title>13 emails, 30 repo event, 0 wiki edits in Oct 2016</title></rect><rect x="250" y="6" width="15" height="15" class="medium"><title>41 emails, 11 repo event, 0 wiki edits in Nov 2016</title></rect><rect x="270" y="6" width="15" height="15" class="medium"><title>9 emails, 12 repo event, 0 wiki edits in Dec 2016</title></rect></g>
<g transform="translate(0 160)">
  <title>Activity in 2017</title>
  <text x="2" y="20">2017</text><rect x="50" y="6" width="15" height="15" class="medium"><title>14 emails, 30 repo event, 0 wiki edits in Jan 2017</title></rect><rect x="70" y="6" width="15" height="15" class="medium"><title>12 emails, 29 repo event, 0 wiki edits in Feb 2017</title></rect><rect x="90" y="6" width="15" height="15" class="high"><title>26 emails, 121 repo event, 0 wiki edits in Mar 2017</title></rect><rect x="110" y="6" width="15" height="15" class="medium"><title>30 emails, 47 repo event, 0 wiki edits in Apr 2017</title></rect><rect x="130" y="6" width="15" height="15" class="high"><title>32 emails, 89 repo event, 0 wiki edits in May 2017</title></rect><rect x="150" y="6" width="15" height="15" class="medium"><title>21 emails, 49 repo event, 0 wiki edits in Jun 2017</title></rect><rect x="170" y="6" width="15" height="15" class="medium"><title>5 emails, 16 repo event, 0 wiki edits in Jul 2017</title></rect><rect x="190" y="6" width="15" height="15" class="high"><title>21 emails, 85 repo event, 0 wiki edits in Aug 2017</title></rect><rect x="210" y="6" width="15" height="15" class="high"><title>32 emails, 144 repo event, 0 wiki edits in Sep 2017</title></rect><rect x="230" y="6" width="15" height="15" class="high"><title>34 emails, 138 repo event, 0 wiki edits in Oct 2017</title></rect><rect x="250" y="6" width="15" height="15" class="medium"><title>13 emails, 48 repo event, 0 wiki edits in Nov 2017</title></rect><rect x="270" y="6" width="15" height="15" class="medium"><title>10 emails, 26 repo event, 0 wiki edits in Dec 2017</title></rect></g>
<g transform="translate(0 180)">
  <title>Activity in 2018</title>
  <text x="2" y="20">2018</text><rect x="50" y="6" width="15" height="15" class="medium"><title>8 emails, 15 repo event, 0 wiki edits in Jan 2018</title></rect><rect x="70" y="6" width="15" height="15" class="high"><title>16 emails, 69 repo event, 0 wiki edits in Feb 2018</title></rect><rect x="90" y="6" width="15" height="15" class="high"><title>14 emails, 89 repo event, 0 wiki edits in Mar 2018</title></rect><rect x="110" y="6" width="15" height="15" class="medium"><title>10 emails, 20 repo event, 0 wiki edits in Apr 2018</title></rect><rect x="130" y="6" width="15" height="15" class="medium"><title>15 emails, 13 repo event, 0 wiki edits in May 2018</title></rect><rect x="150" y="6" width="15" height="15" class="medium"><title>9 emails, 37 repo event, 0 wiki edits in Jun 2018</title></rect><rect x="170" y="6" width="15" height="15" class="low"><title>8 emails, 6 repo event, 0 wiki edits in Jul 2018</title></rect><rect x="190" y="6" width="15" height="15" class="medium"><title>18 emails, 28 repo event, 0 wiki edits in Aug 2018</title></rect><rect x="210" y="6" width="15" height="15" class="medium"><title>14 emails, 12 repo event, 0 wiki edits in Sep 2018</title></rect><rect x="230" y="6" width="15" height="15" class="medium"><title>12 emails, 9 repo event, 0 wiki edits in Oct 2018</title></rect><rect x="250" y="6" width="15" height="15" class="low"><title>13 emails, 4 repo event, 0 wiki edits in Nov 2018</title></rect><rect x="270" y="6" width="15" height="15" class="medium"><title>7 emails, 18 repo event, 0 wiki edits in Dec 2018</title></rect></g>
<g transform="translate(0 200)">
  <title>Activity in 2019</title>
  <text x="2" y="20">2019</text><rect x="50" y="6" width="15" height="15" class="medium"><title>8 emails, 54 repo event, 0 wiki edits in Jan 2019</title></rect><rect x="70" y="6" width="15" height="15" class="medium"><title>13 emails, 50 repo event, 0 wiki edits in Feb 2019</title></rect><rect x="90" y="6" width="15" height="15" class="medium"><title>9 emails, 50 repo event, 0 wiki edits in Mar 2019</title></rect><rect x="110" y="6" width="15" height="15" class="medium"><title>15 emails, 61 repo event, 0 wiki edits in Apr 2019</title></rect><rect x="130" y="6" width="15" height="15" class="medium"><title>4 emails, 36 repo event, 0 wiki edits in May 2019</title></rect><rect x="150" y="6" width="15" height="15" class="medium"><title>7 emails, 15 repo event, 0 wiki edits in Jun 2019</title></rect><rect x="170" y="6" width="15" height="15" class="low"><title>4 emails, 9 repo event, 0 wiki edits in Jul 2019</title></rect><rect x="190" y="6" width="15" height="15" class="medium"><title>25 emails, 54 repo event, 0 wiki edits in Aug 2019</title></rect><rect x="210" y="6" width="15" height="15" class="medium"><title>4 emails, 24 repo event, 0 wiki edits in Sep 2019</title></rect><rect x="230" y="6" width="15" height="15" class="medium"><title>13 emails, 35 repo event, 0 wiki edits in Oct 2019</title></rect><rect x="250" y="6" width="15" height="15" class="low"><title>3 emails, 7 repo event, 0 wiki edits in Nov 2019</title></rect><rect x="270" y="6" width="15" height="15" class="low"><title>7 emails, 10 repo event, 0 wiki edits in Dec 2019</title></rect></g>
<g transform="translate(0 220)">
  <title>Activity in 2020</title>
  <text x="2" y="20">2020</text><rect x="50" y="6" width="15" height="15" class="low"><title>6 emails, 3 repo event, 0 wiki edits in Jan 2020</title></rect><rect x="70" y="6" width="15" height="15" class="medium"><title>12 emails, 12 repo event, 0 wiki edits in Feb 2020</title></rect><rect x="90" y="6" width="15" height="15" class="medium"><title>7 emails, 31 repo event, 0 wiki edits in Mar 2020</title></rect><rect x="110" y="6" width="15" height="15" class="medium"><title>7 emails, 27 repo event, 0 wiki edits in Apr 2020</title></rect><rect x="130" y="6" width="15" height="15" class="medium"><title>6 emails, 16 repo event, 0 wiki edits in May 2020</title></rect><rect x="150" y="6" width="15" height="15" class="medium"><title>12 emails, 52 repo event, 0 wiki edits in Jun 2020</title></rect><rect x="170" y="6" width="15" height="15" class="medium"><title>5 emails, 38 repo event, 0 wiki edits in Jul 2020</title></rect><rect x="190" y="6" width="15" height="15" class="medium"><title>8 emails, 34 repo event, 0 wiki edits in Aug 2020</title></rect><rect x="210" y="6" width="15" height="15" class="medium"><title>11 emails, 29 repo event, 0 wiki edits in Sep 2020</title></rect><rect x="230" y="6" width="15" height="15" class="medium"><title>17 emails, 13 repo event, 0 wiki edits in Oct 2020</title></rect><rect x="250" y="6" width="15" height="15" class="low"><title>2 emails, 6 repo event, 0 wiki edits in Nov 2020</title></rect></g></svg>