<svg xmlns="http://www.w3.org/2000/svg" width="360" height="260">
  <title>Activity of Devices%20and%20Sensors%20Working%20Group</title>

<g transform="translate(0 0)">
  <title>Activity in 2009</title>
  <text x="2" y="20">2009</text><rect x="170" y="6" width="15" height="15" fill="#a5aec0"><title>29 emails, 0 repository events, 0 wiki edits in Jul 2009</title></rect><rect x="190" y="6" width="15" height="15" fill="#6882ae"><title>125 emails, 0 repository events, 0 wiki edits in Aug 2009</title></rect><rect x="210" y="6" width="15" height="15" fill="#5174a8"><title>149 emails, 0 repository events, 0 wiki edits in Sep 2009</title></rect><rect x="230" y="6" width="15" height="15" fill="#005a9c"><title>265 emails, 0 repository events, 0 wiki edits in Oct 2009</title></rect><rect x="250" y="6" width="15" height="15" fill="#005a9c"><title>254 emails, 0 repository events, 0 wiki edits in Nov 2009</title></rect><rect x="270" y="6" width="15" height="15" fill="#005a9c"><title>299 emails, 0 repository events, 0 wiki edits in Dec 2009</title></rect></g>
<g transform="translate(0 20)">
  <title>Activity in 2010</title>
  <text x="2" y="20">2010</text><rect x="50" y="6" width="15" height="15" fill="#005a9c"><title>240 emails, 0 repository events, 0 wiki edits in Jan 2010</title></rect><rect x="70" y="6" width="15" height="15" fill="#005a9c"><title>177 emails, 0 repository events, 0 wiki edits in Feb 2010</title></rect><rect x="90" y="6" width="15" height="15" fill="#005a9c"><title>245 emails, 0 repository events, 0 wiki edits in Mar 2010</title></rect><rect x="110" y="6" width="15" height="15" fill="#5174a8"><title>137 emails, 0 repository events, 0 wiki edits in Apr 2010</title></rect><rect x="130" y="6" width="15" height="15" fill="#3667a2"><title>152 emails, 0 repository events, 0 wiki edits in May 2010</title></rect><rect x="150" y="6" width="15" height="15" fill="#005a9c"><title>344 emails, 0 repository events, 0 wiki edits in Jun 2010</title></rect><rect x="170" y="6" width="15" height="15" fill="#5174a8"><title>144 emails, 0 repository events, 0 wiki edits in Jul 2010</title></rect><rect x="190" y="6" width="15" height="15" fill="#6882ae"><title>112 emails, 0 repository events, 0 wiki edits in Aug 2010</title></rect><rect x="210" y="6" width="15" height="15" fill="#3667a2"><title>165 emails, 0 repository events, 0 wiki edits in Sep 2010</title></rect><rect x="230" y="6" width="15" height="15" fill="#7d90b5"><title>80 emails, 0 repository events, 0 wiki edits in Oct 2010</title></rect><rect x="250" y="6" width="15" height="15" fill="#919fba"><title>71 emails, 0 repository events, 0 wiki edits in Nov 2010</title></rect><rect x="270" y="6" width="15" height="15" fill="#919fba"><title>55 emails, 0 repository events, 0 wiki edits in Dec 2010</title></rect></g>
<g transform="translate(0 40)">
  <title>Activity in 2011</title>
  <text x="2" y="20">2011</text><rect x="50" y="6" width="15" height="15" fill="#6882ae"><title>107 emails, 0 repository events, 0 wiki edits in Jan 2011</title></rect><rect x="70" y="6" width="15" height="15" fill="#6882ae"><title>113 emails, 0 repository events, 0 wiki edits in Feb 2011</title></rect><rect x="90" y="6" width="15" height="15" fill="#3667a2"><title>153 emails, 0 repository events, 0 wiki edits in Mar 2011</title></rect><rect x="110" y="6" width="15" height="15" fill="#6882ae"><title>125 emails, 0 repository events, 0 wiki edits in Apr 2011</title></rect><rect x="130" y="6" width="15" height="15" fill="#919fba"><title>71 emails, 0 repository events, 0 wiki edits in May 2011</title></rect><rect x="150" y="6" width="15" height="15" fill="#5174a8"><title>128 emails, 0 repository events, 0 wiki edits in Jun 2011</title></rect><rect x="170" y="6" width="15" height="15" fill="#6882ae"><title>116 emails, 0 repository events, 0 wiki edits in Jul 2011</title></rect><rect x="190" y="6" width="15" height="15" fill="#6882ae"><title>108 emails, 0 repository events, 0 wiki edits in Aug 2011</title></rect><rect x="210" y="6" width="15" height="15" fill="#5174a8"><title>150 emails, 0 repository events, 0 wiki edits in Sep 2011</title></rect><rect x="230" y="6" width="15" height="15" fill="#7d90b5"><title>92 emails, 0 repository events, 0 wiki edits in Oct 2011</title></rect><rect x="250" y="6" width="15" height="15" fill="#005a9c"><title>265 emails, 0 repository events, 0 wiki edits in Nov 2011</title></rect><rect x="270" y="6" width="15" height="15" fill="#a5aec0"><title>49 emails, 0 repository events, 0 wiki edits in Dec 2011</title></rect></g>
<g transform="translate(0 60)">
  <title>Activity in 2012</title>
  <text x="2" y="20">2012</text><rect x="50" y="6" width="15" height="15" fill="#a5aec0"><title>37 emails, 0 repository events, 0 wiki edits in Jan 2012</title></rect><rect x="70" y="6" width="15" height="15" fill="#7d90b5"><title>78 emails, 0 repository events, 0 wiki edits in Feb 2012</title></rect><rect x="90" y="6" width="15" height="15" fill="#005a9c"><title>226 emails, 0 repository events, 0 wiki edits in Mar 2012</title></rect><rect x="110" y="6" width="15" height="15" fill="#919fba"><title>56 emails, 0 repository events, 0 wiki edits in Apr 2012</title></rect><rect x="130" y="6" width="15" height="15" fill="#005a9c"><title>303 emails, 0 repository events, 0 wiki edits in May 2012</title></rect><rect x="150" y="6" width="15" height="15" fill="#6882ae"><title>111 emails, 0 repository events, 0 wiki edits in Jun 2012</title></rect><rect x="170" y="6" width="15" height="15" fill="#919fba"><title>72 emails, 0 repository events, 0 wiki edits in Jul 2012</title></rect><rect x="190" y="6" width="15" height="15" fill="#6882ae"><title>116 emails, 0 repository events, 0 wiki edits in Aug 2012</title></rect><rect x="210" y="6" width="15" height="15" fill="#5174a8"><title>143 emails, 0 repository events, 0 wiki edits in Sep 2012</title></rect><rect x="230" y="6" width="15" height="15" fill="#919fba"><title>52 emails, 0 repository events, 0 wiki edits in Oct 2012</title></rect><rect x="250" y="6" width="15" height="15" fill="#6882ae"><title>106 emails, 0 repository events, 0 wiki edits in Nov 2012</title></rect><rect x="270" y="6" width="15" height="15" fill="#7d90b5"><title>81 emails, 0 repository events, 0 wiki edits in Dec 2012</title></rect></g>
<g transform="translate(0 80)">
  <title>Activity in 2013</title>
  <text x="2" y="20">2013</text><rect x="50" y="6" width="15" height="15" fill="#7d90b5"><title>96 emails, 0 repository events, 0 wiki edits in Jan 2013</title></rect><rect x="70" y="6" width="15" height="15" fill="#7d90b5"><title>99 emails, 0 repository events, 0 wiki edits in Feb 2013</title></rect><rect x="90" y="6" width="15" height="15" fill="#a5aec0"><title>37 emails, 0 repository events, 0 wiki edits in Mar 2013</title></rect><rect x="110" y="6" width="15" height="15" fill="#919fba"><title>68 emails, 0 repository events, 0 wiki edits in Apr 2013</title></rect><rect x="130" y="6" width="15" height="15" fill="#7d90b5"><title>84 emails, 0 repository events, 0 wiki edits in May 2013</title></rect><rect x="150" y="6" width="15" height="15" fill="#b9bdc6"><title>19 emails, 0 repository events, 0 wiki edits in Jun 2013</title></rect><rect x="170" y="6" width="15" height="15" fill="#919fba"><title>56 emails, 0 repository events, 0 wiki edits in Jul 2013</title></rect><rect x="190" y="6" width="15" height="15" fill="#7d90b5"><title>80 emails, 0 repository events, 0 wiki edits in Aug 2013</title></rect><rect x="210" y="6" width="15" height="15" fill="#919fba"><title>66 emails, 0 repository events, 0 wiki edits in Sep 2013</title></rect><rect x="230" y="6" width="15" height="15" fill="#005a9c"><title>179 emails, 0 repository events, 0 wiki edits in Oct 2013</title></rect><rect x="250" y="6" width="15" height="15" fill="#a5aec0"><title>32 emails, 0 repository events, 0 wiki edits in Nov 2013</title></rect><rect x="270" y="6" width="15" height="15" fill="#a5aec0"><title>41 emails, 0 repository events, 0 wiki edits in Dec 2013</title></rect></g>
<g transform="translate(0 100)">
  <title>Activity in 2014</title>
  <text x="2" y="20">2014</text><rect x="50" y="6" width="15" height="15" fill="#919fba"><title>60 emails, 0 repository events, 0 wiki edits in Jan 2014</title></rect><rect x="70" y="6" width="15" height="15" fill="#919fba"><title>63 emails, 6 repository events, 0 wiki edits in Feb 2014</title></rect><rect x="90" y="6" width="15" height="15" fill="#a5aec0"><title>36 emails, 4 repository events, 0 wiki edits in Mar 2014</title></rect><rect x="110" y="6" width="15" height="15" fill="#a5aec0"><title>40 emails, 4 repository events, 0 wiki edits in Apr 2014</title></rect><rect x="130" y="6" width="15" height="15" fill="#7d90b5"><title>85 emails, 3 repository events, 0 wiki edits in May 2014</title></rect><rect x="150" y="6" width="15" height="15" fill="#5174a8"><title>120 emails, 6 repository events, 0 wiki edits in Jun 2014</title></rect><rect x="170" y="6" width="15" height="15" fill="#919fba"><title>60 emails, 10 repository events, 0 wiki edits in Jul 2014</title></rect><rect x="190" y="6" width="15" height="15" fill="#6882ae"><title>72 emails, 43 repository events, 0 wiki edits in Aug 2014</title></rect><rect x="210" y="6" width="15" height="15" fill="#7d90b5"><title>96 emails, 4 repository events, 0 wiki edits in Sep 2014</title></rect><rect x="230" y="6" width="15" height="15" fill="#a5aec0"><title>34 emails, 5 repository events, 0 wiki edits in Oct 2014</title></rect><rect x="250" y="6" width="15" height="15" fill="#919fba"><title>44 emails, 14 repository events, 0 wiki edits in Nov 2014</title></rect><rect x="270" y="6" width="15" height="15" fill="#b9bdc6"><title>20 emails, 1 repository events, 0 wiki edits in Dec 2014</title></rect></g>
<g transform="translate(0 120)">
  <title>Activity in 2015</title>
  <text x="2" y="20">2015</text><rect x="50" y="6" width="15" height="15" fill="#a5aec0"><title>47 emails, 0 repository events, 0 wiki edits in Jan 2015</title></rect><rect x="70" y="6" width="15" height="15" fill="#919fba"><title>47 emails, 10 repository events, 0 wiki edits in Feb 2015</title></rect><rect x="90" y="6" width="15" height="15" fill="#a5aec0"><title>15 emails, 12 repository events, 0 wiki edits in Mar 2015</title></rect><rect x="110" y="6" width="15" height="15" fill="#a5aec0"><title>40 emails, 1 repository events, 0 wiki edits in Apr 2015</title></rect><rect x="130" y="6" width="15" height="15" fill="#6882ae"><title>107 emails, 15 repository events, 0 wiki edits in May 2015</title></rect><rect x="150" y="6" width="15" height="15" fill="#005a9c"><title>176 emails, 53 repository events, 0 wiki edits in Jun 2015</title></rect><rect x="170" y="6" width="15" height="15" fill="#a5aec0"><title>25 emails, 19 repository events, 0 wiki edits in Jul 2015</title></rect><rect x="190" y="6" width="15" height="15" fill="#a5aec0"><title>22 emails, 17 repository events, 0 wiki edits in Aug 2015</title></rect><rect x="210" y="6" width="15" height="15" fill="#a5aec0"><title>33 emails, 14 repository events, 0 wiki edits in Sep 2015</title></rect><rect x="230" y="6" width="15" height="15" fill="#7d90b5"><title>88 emails, 12 repository events, 0 wiki edits in Oct 2015</title></rect><rect x="250" y="6" width="15" height="15" fill="#a5aec0"><title>25 emails, 14 repository events, 0 wiki edits in Nov 2015</title></rect><rect x="270" y="6" width="15" height="15" fill="#b9bdc6"><title>8 emails, 3 repository events, 0 wiki edits in Dec 2015</title></rect></g>
<g transform="translate(0 140)">
  <title>Activity in 2016</title>
  <text x="2" y="20">2016</text><rect x="50" y="6" width="15" height="15" fill="#6882ae"><title>85 emails, 29 repository events, 0 wiki edits in Jan 2016</title></rect><rect x="70" y="6" width="15" height="15" fill="#6882ae"><title>91 emails, 16 repository events, 0 wiki edits in Feb 2016</title></rect><rect x="90" y="6" width="15" height="15" fill="#5174a8"><title>114 emails, 22 repository events, 0 wiki edits in Mar 2016</title></rect><rect x="110" y="6" width="15" height="15" fill="#919fba"><title>49 emails, 19 repository events, 0 wiki edits in Apr 2016</title></rect><rect x="130" y="6" width="15" height="15" fill="#6882ae"><title>89 emails, 16 repository events, 0 wiki edits in May 2016</title></rect><rect x="150" y="6" width="15" height="15" fill="#7d90b5"><title>74 emails, 23 repository events, 0 wiki edits in Jun 2016</title></rect><rect x="170" y="6" width="15" height="15" fill="#6882ae"><title>52 emails, 69 repository events, 0 wiki edits in Jul 2016</title></rect><rect x="190" y="6" width="15" height="15" fill="#919fba"><title>35 emails, 26 repository events, 0 wiki edits in Aug 2016</title></rect><rect x="210" y="6" width="15" height="15" fill="#919fba"><title>26 emails, 25 repository events, 0 wiki edits in Sep 2016</title></rect><rect x="230" y="6" width="15" height="15" fill="#a5aec0"><title>13 emails, 30 repository events, 0 wiki edits in Oct 2016</title></rect><rect x="250" y="6" width="15" height="15" fill="#919fba"><title>41 emails, 11 repository events, 0 wiki edits in Nov 2016</title></rect><rect x="270" y="6" width="15" height="15" fill="#b9bdc6"><title>9 emails, 12 repository events, 0 wiki edits in Dec 2016</title></rect></g>
<g transform="translate(0 160)">
  <title>Activity in 2017</title>
  <text x="2" y="20">2017</text><rect x="50" y="6" width="15" height="15" fill="#a5aec0"><title>14 emails, 30 repository events, 0 wiki edits in Jan 2017</title></rect><rect x="70" y="6" width="15" height="15" fill="#a5aec0"><title>12 emails, 29 repository events, 0 wiki edits in Feb 2017</title></rect><rect x="90" y="6" width="15" height="15" fill="#5174a8"><title>26 emails, 121 repository events, 0 wiki edits in Mar 2017</title></rect><rect x="110" y="6" width="15" height="15" fill="#7d90b5"><title>30 emails, 47 repository events, 0 wiki edits in Apr 2017</title></rect><rect x="130" y="6" width="15" height="15" fill="#6882ae"><title>32 emails, 89 repository events, 0 wiki edits in May 2017</title></rect><rect x="150" y="6" width="15" height="15" fill="#919fba"><title>21 emails, 49 repository events, 0 wiki edits in Jun 2017</title></rect><rect x="170" y="6" width="15" height="15" fill="#b9bdc6"><title>5 emails, 16 repository events, 0 wiki edits in Jul 2017</title></rect><rect x="190" y="6" width="15" height="15" fill="#6882ae"><title>21 emails, 85 repository events, 0 wiki edits in Aug 2017</title></rect><rect x="210" y="6" width="15" height="15" fill="#005a9c"><title>32 emails, 144 repository events, 0 wiki edits in Sep 2017</title></rect><rect x="230" y="6" width="15" height="15" fill="#3667a2"><title>34 emails, 138 repository events, 0 wiki edits in Oct 2017</title></rect><rect x="250" y="6" width="15" height="15" fill="#919fba"><title>13 emails, 48 repository events, 0 wiki edits in Nov 2017</title></rect><rect x="270" y="6" width="15" height="15" fill="#a5aec0"><title>10 emails, 26 repository events, 0 wiki edits in Dec 2017</title></rect></g>
<g transform="translate(0 180)">
  <title>Activity in 2018</title>
  <text x="2" y="20">2018</text><rect x="50" y="6" width="15" height="15" fill="#b9bdc6"><title>8 emails, 15 repository events, 0 wiki edits in Jan 2018</title></rect><rect x="70" y="6" width="15" height="15" fill="#7d90b5"><title>16 emails, 69 repository events, 0 wiki edits in Feb 2018</title></rect><rect x="90" y="6" width="15" height="15" fill="#6882ae"><title>14 emails, 89 repository events, 0 wiki edits in Mar 2018</title></rect><rect x="110" y="6" width="15" height="15" fill="#a5aec0"><title>10 emails, 20 repository events, 0 wiki edits in Apr 2018</title></rect><rect x="130" y="6" width="15" height="15" fill="#a5aec0"><title>15 emails, 13 repository events, 0 wiki edits in May 2018</title></rect><rect x="150" y="6" width="15" height="15" fill="#a5aec0"><title>9 emails, 37 repository events, 0 wiki edits in Jun 2018</title></rect><rect x="170" y="6" width="15" height="15" fill="#b9bdc6"><title>8 emails, 6 repository events, 0 wiki edits in Jul 2018</title></rect><rect x="190" y="6" width="15" height="15" fill="#a5aec0"><title>18 emails, 28 repository events, 0 wiki edits in Aug 2018</title></rect><rect x="210" y="6" width="15" height="15" fill="#a5aec0"><title>14 emails, 12 repository events, 0 wiki edits in Sep 2018</title></rect><rect x="230" y="6" width="15" height="15" fill="#b9bdc6"><title>12 emails, 9 repository events, 0 wiki edits in Oct 2018</title></rect><rect x="250" y="6" width="15" height="15" fill="#b9bdc6"><title>13 emails, 4 repository events, 0 wiki edits in Nov 2018</title></rect><rect x="270" y="6" width="15" height="15" fill="#b9bdc6"><title>7 emails, 18 repository events, 0 wiki edits in Dec 2018</title></rect></g>
<g transform="translate(0 200)">
  <title>Activity in 2019</title>
  <text x="2" y="20">2019</text><rect x="50" y="6" width="15" height="15" fill="#919fba"><title>8 emails, 54 repository events, 0 wiki edits in Jan 2019</title></rect><rect x="70" y="6" width="15" height="15" fill="#919fba"><title>13 emails, 50 repository events, 0 wiki edits in Feb 2019</title></rect><rect x="90" y="6" width="15" height="15" fill="#919fba"><title>9 emails, 50 repository events, 0 wiki edits in Mar 2019</title></rect><rect x="110" y="6" width="15" height="15" fill="#7d90b5"><title>15 emails, 61 repository events, 0 wiki edits in Apr 2019</title></rect><rect x="130" y="6" width="15" height="15" fill="#a5aec0"><title>4 emails, 36 repository events, 0 wiki edits in May 2019</title></rect><rect x="150" y="6" width="15" height="15" fill="#b9bdc6"><title>7 emails, 15 repository events, 0 wiki edits in Jun 2019</title></rect><rect x="170" y="6" width="15" height="15" fill="#b9bdc6"><title>4 emails, 9 repository events, 0 wiki edits in Jul 2019</title></rect><rect x="190" y="6" width="15" height="15" fill="#7d90b5"><title>25 emails, 54 repository events, 0 wiki edits in Aug 2019</title></rect><rect x="210" y="6" width="15" height="15" fill="#a5aec0"><title>4 emails, 24 repository events, 0 wiki edits in Sep 2019</title></rect><rect x="230" y="6" width="15" height="15" fill="#a5aec0"><title>13 emails, 35 repository events, 0 wiki edits in Oct 2019</title></rect><rect x="250" y="6" width="15" height="15" fill="#b9bdc6"><title>3 emails, 7 repository events, 0 wiki edits in Nov 2019</title></rect><rect x="270" y="6" width="15" height="15" fill="#b9bdc6"><title>7 emails, 10 repository events, 0 wiki edits in Dec 2019</title></rect></g>
<g transform="translate(0 220)">
  <title>Activity in 2020</title>
  <text x="2" y="20">2020</text><rect x="50" y="6" width="15" height="15" fill="#b9bdc6"><title>6 emails, 3 repository events, 0 wiki edits in Jan 2020</title></rect><rect x="70" y="6" width="15" height="15" fill="#b9bdc6"><title>12 emails, 12 repository events, 0 wiki edits in Feb 2020</title></rect><rect x="90" y="6" width="15" height="15" fill="#a5aec0"><title>7 emails, 31 repository events, 0 wiki edits in Mar 2020</title></rect><rect x="110" y="6" width="15" height="15" fill="#a5aec0"><title>7 emails, 27 repository events, 0 wiki edits in Apr 2020</title></rect><rect x="130" y="6" width="15" height="15" fill="#b9bdc6"><title>6 emails, 16 repository events, 0 wiki edits in May 2020</title></rect><rect x="150" y="6" width="15" height="15" fill="#919fba"><title>12 emails, 52 repository events, 0 wiki edits in Jun 2020</title></rect><rect x="170" y="6" width="15" height="15" fill="#a5aec0"><title>5 emails, 38 repository events, 0 wiki edits in Jul 2020</title></rect><rect x="190" y="6" width="15" height="15" fill="#a5aec0"><title>8 emails, 34 repository events, 0 wiki edits in Aug 2020</title></rect><rect x="210" y="6" width="15" height="15" fill="#a5aec0"><title>11 emails, 29 repository events, 0 wiki edits in Sep 2020</title></rect><rect x="230" y="6" width="15" height="15" fill="#a5aec0"><title>17 emails, 13 repository events, 0 wiki edits in Oct 2020</title></rect><rect x="250" y="6" width="15" height="15" fill="#b9bdc6"><title>5 emails, 16 repository events, 0 wiki edits in Nov 2020</title></rect><rect x="270" y="6" width="15" height="15" fill="#b9bdc6"><title>5 emails, 18 repository events, 0 wiki edits in Dec 2020</title></rect></g><text style="font-size: 10px; text-align: center" x="53" y="250">J</text><text style="font-size: 10px; text-align: center" x="73" y="250">F</text><text style="font-size: 10px; text-align: center" x="93" y="250">M</text><text style="font-size: 10px; text-align: center" x="113" y="250">A</text><text style="font-size: 10px; text-align: center" x="133" y="250">M</text><text style="font-size: 10px; text-align: center" x="153" y="250">J</text><text style="font-size: 10px; text-align: center" x="173" y="250">J</text><text style="font-size: 10px; text-align: center" x="193" y="250">A</text><text style="font-size: 10px; text-align: center" x="213" y="250">S</text><text style="font-size: 10px; text-align: center" x="233" y="250">O</text><text style="font-size: 10px; text-align: center" x="253" y="250">N</text><text style="font-size: 10px; text-align: center" x="273" y="250">D</text><text style="font-size: 10px;" x="155" y="269">Less</text><rect fill="#b9bdc6" width="10" height="10" x="180" y="260"><title>No activity in the period</title></rect><rect fill="#919fba" width="10" height="10" x="195" y="260"><title>Low activity in the period</title></rect><rect fill="#6882ae" width="10" height="10" x="210" y="260"><title>Medium activity in the period</title></rect><rect fill="#005a9c" width="10" height="10" x="225" y="260"><title>High activity in period</title></rect><text x="240" y="269" style="font-size: 10px;">More</text></svg>