<svg xmlns="http://www.w3.org/2000/svg">
  <title>Activity of Decentralized%20Identifier%20Working%20Group</title>
  <style type="text/css">.none { fill: #aaa;}
  .low { fill: #8ac;}
  .medium { fill: #49a;}
  .high { fill: #159;}
  </style>

<g transform="translate(0 0)">
  <title>Activity in 2019</title>
  <text x="2" y="20">2019</text><rect x="210" y="6" width="15" height="15" class="high"><title>20 emails, 83 repo event, 0 wiki edits in Sep 2019</title></rect><rect x="230" y="6" width="15" height="15" class="high"><title>23 emails, 85 repo event, 0 wiki edits in Oct 2019</title></rect><rect x="250" y="6" width="15" height="15" class="high"><title>47 emails, 126 repo event, 0 wiki edits in Nov 2019</title></rect><rect x="270" y="6" width="15" height="15" class="medium"><title>22 emails, 34 repo event, 0 wiki edits in Dec 2019</title></rect></g>
<g transform="translate(0 20)">
  <title>Activity in 2020</title>
  <text x="2" y="20">2020</text><rect x="50" y="6" width="15" height="15" class="high"><title>37 emails, 50 repo event, 0 wiki edits in Jan 2020</title></rect><rect x="70" y="6" width="15" height="15" class="high"><title>46 emails, 85 repo event, 0 wiki edits in Feb 2020</title></rect><rect x="90" y="6" width="15" height="15" class="high"><title>28 emails, 95 repo event, 0 wiki edits in Mar 2020</title></rect><rect x="110" y="6" width="15" height="15" class="high"><title>44 emails, 75 repo event, 0 wiki edits in Apr 2020</title></rect><rect x="130" y="6" width="15" height="15" class="high"><title>41 emails, 73 repo event, 0 wiki edits in May 2020</title></rect><rect x="150" y="6" width="15" height="15" class="high"><title>78 emails, 113 repo event, 0 wiki edits in Jun 2020</title></rect><rect x="170" y="6" width="15" height="15" class="high"><title>27 emails, 87 repo event, 0 wiki edits in Jul 2020</title></rect><rect x="190" y="6" width="15" height="15" class="high"><title>41 emails, 82 repo event, 0 wiki edits in Aug 2020</title></rect><rect x="210" y="6" width="15" height="15" class="high"><title>29 emails, 103 repo event, 0 wiki edits in Sep 2020</title></rect><rect x="230" y="6" width="15" height="15" class="high"><title>22 emails, 76 repo event, 0 wiki edits in Oct 2020</title></rect><rect x="250" y="6" width="15" height="15" class="medium"><title>16 emails, 39 repo event, 0 wiki edits in Nov 2020</title></rect></g></svg>