<svg xmlns="http://www.w3.org/2000/svg" width="360" height="180">
  <title>Activity of Dataset%20Exchange%20Working%20Group</title>

<g transform="translate(0 0)">
  <title>Activity in 2017</title>
  <text x="2" y="20">2017</text><rect x="130" y="6" width="15" height="15" fill="#a5aec0"><title>49 emails, 0 repository events, 0 wiki edits in May 2017</title></rect><rect x="150" y="6" width="15" height="15" fill="#3667a2"><title>144 emails, 7 repository events, 0 wiki edits in Jun 2017</title></rect><rect x="170" y="6" width="15" height="15" fill="#6882ae"><title>101 emails, 12 repository events, 0 wiki edits in Jul 2017</title></rect><rect x="190" y="6" width="15" height="15" fill="#7d90b5"><title>73 emails, 18 repository events, 0 wiki edits in Aug 2017</title></rect><rect x="210" y="6" width="15" height="15" fill="#6882ae"><title>80 emails, 23 repository events, 0 wiki edits in Sep 2017</title></rect><rect x="230" y="6" width="15" height="15" fill="#919fba"><title>62 emails, 3 repository events, 0 wiki edits in Oct 2017</title></rect><rect x="250" y="6" width="15" height="15" fill="#5174a8"><title>136 emails, 11 repository events, 0 wiki edits in Nov 2017</title></rect><rect x="270" y="6" width="15" height="15" fill="#5174a8"><title>128 emails, 11 repository events, 0 wiki edits in Dec 2017</title></rect></g>
<g transform="translate(0 20)">
  <title>Activity in 2018</title>
  <text x="2" y="20">2018</text><rect x="50" y="6" width="15" height="15" fill="#5174a8"><title>100 emails, 50 repository events, 0 wiki edits in Jan 2018</title></rect><rect x="70" y="6" width="15" height="15" fill="#005a9c"><title>297 emails, 57 repository events, 0 wiki edits in Feb 2018</title></rect><rect x="90" y="6" width="15" height="15" fill="#005a9c"><title>465 emails, 68 repository events, 0 wiki edits in Mar 2018</title></rect><rect x="110" y="6" width="15" height="15" fill="#005a9c"><title>273 emails, 47 repository events, 0 wiki edits in Apr 2018</title></rect><rect x="130" y="6" width="15" height="15" fill="#005a9c"><title>452 emails, 35 repository events, 0 wiki edits in May 2018</title></rect><rect x="150" y="6" width="15" height="15" fill="#005a9c"><title>420 emails, 48 repository events, 0 wiki edits in Jun 2018</title></rect><rect x="170" y="6" width="15" height="15" fill="#005a9c"><title>275 emails, 31 repository events, 0 wiki edits in Jul 2018</title></rect><rect x="190" y="6" width="15" height="15" fill="#005a9c"><title>336 emails, 27 repository events, 0 wiki edits in Aug 2018</title></rect><rect x="210" y="6" width="15" height="15" fill="#005a9c"><title>463 emails, 140 repository events, 0 wiki edits in Sep 2018</title></rect><rect x="230" y="6" width="15" height="15" fill="#005a9c"><title>734 emails, 148 repository events, 0 wiki edits in Oct 2018</title></rect><rect x="250" y="6" width="15" height="15" fill="#005a9c"><title>853 emails, 134 repository events, 0 wiki edits in Nov 2018</title></rect><rect x="270" y="6" width="15" height="15" fill="#005a9c"><title>220 emails, 47 repository events, 0 wiki edits in Dec 2018</title></rect></g>
<g transform="translate(0 40)">
  <title>Activity in 2019</title>
  <text x="2" y="20">2019</text><rect x="50" y="6" width="15" height="15" fill="#005a9c"><title>657 emails, 121 repository events, 0 wiki edits in Jan 2019</title></rect><rect x="70" y="6" width="15" height="15" fill="#005a9c"><title>752 emails, 86 repository events, 0 wiki edits in Feb 2019</title></rect><rect x="90" y="6" width="15" height="15" fill="#005a9c"><title>792 emails, 137 repository events, 0 wiki edits in Mar 2019</title></rect><rect x="110" y="6" width="15" height="15" fill="#005a9c"><title>327 emails, 78 repository events, 0 wiki edits in Apr 2019</title></rect><rect x="130" y="6" width="15" height="15" fill="#005a9c"><title>286 emails, 47 repository events, 0 wiki edits in May 2019</title></rect><rect x="150" y="6" width="15" height="15" fill="#005a9c"><title>151 emails, 31 repository events, 0 wiki edits in Jun 2019</title></rect><rect x="170" y="6" width="15" height="15" fill="#005a9c"><title>598 emails, 94 repository events, 0 wiki edits in Jul 2019</title></rect><rect x="190" y="6" width="15" height="15" fill="#005a9c"><title>477 emails, 43 repository events, 0 wiki edits in Aug 2019</title></rect><rect x="210" y="6" width="15" height="15" fill="#005a9c"><title>1020 emails, 89 repository events, 0 wiki edits in Sep 2019</title></rect><rect x="230" y="6" width="15" height="15" fill="#005a9c"><title>312 emails, 72 repository events, 0 wiki edits in Oct 2019</title></rect><rect x="250" y="6" width="15" height="15" fill="#005a9c"><title>335 emails, 54 repository events, 0 wiki edits in Nov 2019</title></rect><rect x="270" y="6" width="15" height="15" fill="#5174a8"><title>126 emails, 23 repository events, 0 wiki edits in Dec 2019</title></rect></g>
<g transform="translate(0 60)">
  <title>Activity in 2020</title>
  <text x="2" y="20">2020</text><rect x="50" y="6" width="15" height="15" fill="#005a9c"><title>150 emails, 26 repository events, 0 wiki edits in Jan 2020</title></rect><rect x="70" y="6" width="15" height="15" fill="#7d90b5"><title>84 emails, 4 repository events, 0 wiki edits in Feb 2020</title></rect><rect x="90" y="6" width="15" height="15" fill="#5174a8"><title>113 emails, 25 repository events, 0 wiki edits in Mar 2020</title></rect><rect x="110" y="6" width="15" height="15" fill="#6882ae"><title>100 emails, 19 repository events, 0 wiki edits in Apr 2020</title></rect><rect x="130" y="6" width="15" height="15" fill="#919fba"><title>51 emails, 6 repository events, 0 wiki edits in May 2020</title></rect><rect x="150" y="6" width="15" height="15" fill="#a5aec0"><title>42 emails, 5 repository events, 0 wiki edits in Jun 2020</title></rect><rect x="170" y="6" width="15" height="15" fill="#919fba"><title>70 emails, 3 repository events, 0 wiki edits in Jul 2020</title></rect><rect x="190" y="6" width="15" height="15" fill="#b9bdc6"><title>7 emails, 7 repository events, 0 wiki edits in Aug 2020</title></rect><rect x="210" y="6" width="15" height="15" fill="#7d90b5"><title>75 emails, 18 repository events, 0 wiki edits in Sep 2020</title></rect><rect x="230" y="6" width="15" height="15" fill="#6882ae"><title>93 emails, 12 repository events, 0 wiki edits in Oct 2020</title></rect><rect x="250" y="6" width="15" height="15" fill="#3667a2"><title>148 emails, 27 repository events, 0 wiki edits in Nov 2020</title></rect><rect x="270" y="6" width="15" height="15" fill="#b9bdc6"><title>17 emails, 5 repository events, 0 wiki edits in Dec 2020</title></rect></g>
<g transform="translate(0 80)">
  <title>Activity in 2021</title>
  <text x="2" y="20">2021</text><rect x="50" y="6" width="15" height="15" fill="#a5aec0"><title>28 emails, 6 repository events, 0 wiki edits in Jan 2021</title></rect><rect x="70" y="6" width="15" height="15" fill="#005a9c"><title>163 emails, 31 repository events, 0 wiki edits in Feb 2021</title></rect><rect x="90" y="6" width="15" height="15" fill="#005a9c"><title>491 emails, 52 repository events, 0 wiki edits in Mar 2021</title></rect><rect x="110" y="6" width="15" height="15" fill="#3667a2"><title>140 emails, 24 repository events, 0 wiki edits in Apr 2021</title></rect><rect x="130" y="6" width="15" height="15" fill="#3667a2"><title>151 emails, 24 repository events, 0 wiki edits in May 2021</title></rect><rect x="150" y="6" width="15" height="15" fill="#6882ae"><title>90 emails, 24 repository events, 0 wiki edits in Jun 2021</title></rect><rect x="170" y="6" width="15" height="15" fill="#b9bdc6"><title>19 emails, 4 repository events, 0 wiki edits in Jul 2021</title></rect><rect x="190" y="6" width="15" height="15" fill="#a5aec0"><title>35 emails, 7 repository events, 0 wiki edits in Aug 2021</title></rect><rect x="210" y="6" width="15" height="15" fill="#6882ae"><title>82 emails, 19 repository events, 0 wiki edits in Sep 2021</title></rect><rect x="230" y="6" width="15" height="15" fill="#919fba"><title>51 emails, 15 repository events, 0 wiki edits in Oct 2021</title></rect><rect x="250" y="6" width="15" height="15" fill="#5174a8"><title>112 emails, 19 repository events, 0 wiki edits in Nov 2021</title></rect><rect x="270" y="6" width="15" height="15" fill="#7d90b5"><title>79 emails, 18 repository events, 0 wiki edits in Dec 2021</title></rect></g>
<g transform="translate(0 100)">
  <title>Activity in 2022</title>
  <text x="2" y="20">2022</text><rect x="50" y="6" width="15" height="15" fill="#a5aec0"><title>37 emails, 7 repository events, 0 wiki edits in Jan 2022</title></rect><rect x="70" y="6" width="15" height="15" fill="#5174a8"><title>114 emails, 35 repository events, 0 wiki edits in Feb 2022</title></rect><rect x="90" y="6" width="15" height="15" fill="#005a9c"><title>162 emails, 44 repository events, 0 wiki edits in Mar 2022</title></rect><rect x="110" y="6" width="15" height="15" fill="#a5aec0"><title>30 emails, 7 repository events, 0 wiki edits in Apr 2022</title></rect><rect x="130" y="6" width="15" height="15" fill="#7d90b5"><title>68 emails, 19 repository events, 0 wiki edits in May 2022</title></rect><rect x="150" y="6" width="15" height="15" fill="#919fba"><title>48 emails, 11 repository events, 0 wiki edits in Jun 2022</title></rect><rect x="170" y="6" width="15" height="15" fill="#b9bdc6"><title>19 emails, 3 repository events, 0 wiki edits in Jul 2022</title></rect><rect x="190" y="6" width="15" height="15" fill="#b9bdc6"><title>16 emails, 5 repository events, 0 wiki edits in Aug 2022</title></rect><rect x="210" y="6" width="15" height="15" fill="#a5aec0"><title>30 emails, 7 repository events, 0 wiki edits in Sep 2022</title></rect><rect x="230" y="6" width="15" height="15" fill="#919fba"><title>54 emails, 5 repository events, 0 wiki edits in Oct 2022</title></rect><rect x="250" y="6" width="15" height="15" fill="#7d90b5"><title>75 emails, 17 repository events, 0 wiki edits in Nov 2022</title></rect><rect x="270" y="6" width="15" height="15" fill="#b9bdc6"><title>16 emails, 1 repository events, 0 wiki edits in Dec 2022</title></rect></g>
<g transform="translate(0 120)">
  <title>Activity in 2023</title>
  <text x="2" y="20">2023</text><rect x="50" y="6" width="15" height="15" fill="#a5aec0"><title>35 emails, 4 repository events, 0 wiki edits in Jan 2023</title></rect><rect x="70" y="6" width="15" height="15" fill="#6882ae"><title>87 emails, 17 repository events, 0 wiki edits in Feb 2023</title></rect><rect x="90" y="6" width="15" height="15" fill="#a5aec0"><title>22 emails, 7 repository events, 0 wiki edits in Mar 2023</title></rect><rect x="110" y="6" width="15" height="15" fill="#a5aec0"><title>24 emails, 2 repository events, 0 wiki edits in Apr 2023</title></rect><rect x="130" y="6" width="15" height="15" fill="#a5aec0"><title>36 emails, 11 repository events, 0 wiki edits in May 2023</title></rect><rect x="150" y="6" width="15" height="15" fill="#a5aec0"><title>20 emails, 8 repository events, 0 wiki edits in Jun 2023</title></rect><rect x="170" y="6" width="15" height="15" fill="#a5aec0"><title>37 emails, 4 repository events, 0 wiki edits in Jul 2023</title></rect><rect x="190" y="6" width="15" height="15" fill="#a5aec0"><title>21 emails, 11 repository events, 3 wiki edits in Aug 2023</title></rect><rect x="210" y="6" width="15" height="15" fill="#a5aec0"><title>15 emails, 15 repository events, 5 wiki edits in Sep 2023</title></rect><rect x="230" y="6" width="15" height="15" fill="#a5aec0"><title>22 emails, 6 repository events, 9 wiki edits in Oct 2023</title></rect><rect x="250" y="6" width="15" height="15" fill="#b9bdc6"><title>12 emails, 5 repository events, 8 wiki edits in Nov 2023</title></rect><rect x="270" y="6" width="15" height="15" fill="#b9bdc6"><title>11 emails, 6 repository events, 0 wiki edits in Dec 2023</title></rect></g>
<g transform="translate(0 140)">
  <title>Activity in 2024</title>
  <text x="2" y="20">2024</text><rect x="50" y="6" width="15" height="15" fill="#b9bdc6"><title>3 emails, 8 repository events, 11 wiki edits in Jan 2024</title></rect><rect x="70" y="6" width="15" height="15" fill="#a5aec0"><title>12 emails, 11 repository events, 6 wiki edits in Feb 2024</title></rect><rect x="90" y="6" width="15" height="15" fill="#b9bdc6"><title>16 emails, 5 repository events, 1 wiki edits in Mar 2024</title></rect><rect x="110" y="6" width="15" height="15" fill="#a5aec0"><title>29 emails, 9 repository events, 0 wiki edits in Apr 2024</title></rect><rect x="130" y="6" width="15" height="15" fill="#a5aec0"><title>28 emails, 11 repository events, 1 wiki edits in May 2024</title></rect><rect x="150" y="6" width="15" height="15" fill="#b9bdc6"><title>10 emails, 5 repository events, 1 wiki edits in Jun 2024</title></rect><rect x="170" y="6" width="15" height="15" fill="#b9bdc6"><title>2 emails, 0 repository events, 0 wiki edits in Jul 2024</title></rect><rect x="190" y="6" width="15" height="15" fill="#b9bdc6"><title>2 emails, 3 repository events, 0 wiki edits in Aug 2024</title></rect><rect x="210" y="6" width="15" height="15" fill="#b9bdc6"><title>13 emails, 10 repository events, 1 wiki edits in Sep 2024</title></rect><rect x="230" y="6" width="15" height="15" fill="#b9bdc6"><title>17 emails, 3 repository events, 0 wiki edits in Oct 2024</title></rect><rect x="250" y="6" width="15" height="15" fill="#b9bdc6"><title>0 emails, 1 repository events, 0 wiki edits in Nov 2024</title></rect><rect x="270" y="6" width="15" height="15" fill="#b9bdc6"><title>3 emails, 5 repository events, 0 wiki edits in Dec 2024</title></rect></g><text style="font-size: 10px; text-align: center" x="53" y="170">J</text><text style="font-size: 10px; text-align: center" x="73" y="170">F</text><text style="font-size: 10px; text-align: center" x="93" y="170">M</text><text style="font-size: 10px; text-align: center" x="113" y="170">A</text><text style="font-size: 10px; text-align: center" x="133" y="170">M</text><text style="font-size: 10px; text-align: center" x="153" y="170">J</text><text style="font-size: 10px; text-align: center" x="173" y="170">J</text><text style="font-size: 10px; text-align: center" x="193" y="170">A</text><text style="font-size: 10px; text-align: center" x="213" y="170">S</text><text style="font-size: 10px; text-align: center" x="233" y="170">O</text><text style="font-size: 10px; text-align: center" x="253" y="170">N</text><text style="font-size: 10px; text-align: center" x="273" y="170">D</text><text style="font-size: 10px;" x="155" y="189">Less</text><rect fill="#b9bdc6" width="10" height="10" x="180" y="180"><title>No activity in the period</title></rect><rect fill="#919fba" width="10" height="10" x="195" y="180"><title>Low activity in the period</title></rect><rect fill="#6882ae" width="10" height="10" x="210" y="180"><title>Medium activity in the period</title></rect><rect fill="#005a9c" width="10" height="10" x="225" y="180"><title>High activity in period</title></rect><text x="240" y="189" style="font-size: 10px;">More</text></svg>