<svg xmlns="http://www.w3.org/2000/svg" width="360" height="140">
  <title>Activity of Dataset%20Exchange%20Working%20Group</title>

<g transform="translate(0 0)">
  <title>Activity in 2017</title>
  <text x="2" y="20">2017</text><rect x="130" y="6" width="15" height="15" fill="#a5aec0"><title>49 emails, 0 repository events, 0 wiki edits in May 2017</title></rect><rect x="150" y="6" width="15" height="15" fill="#5174a8"><title>144 emails, 0 repository events, 0 wiki edits in Jun 2017</title></rect><rect x="170" y="6" width="15" height="15" fill="#6882ae"><title>101 emails, 0 repository events, 0 wiki edits in Jul 2017</title></rect><rect x="190" y="6" width="15" height="15" fill="#919fba"><title>73 emails, 0 repository events, 0 wiki edits in Aug 2017</title></rect><rect x="210" y="6" width="15" height="15" fill="#7d90b5"><title>80 emails, 0 repository events, 0 wiki edits in Sep 2017</title></rect><rect x="230" y="6" width="15" height="15" fill="#919fba"><title>62 emails, 0 repository events, 0 wiki edits in Oct 2017</title></rect><rect x="250" y="6" width="15" height="15" fill="#5174a8"><title>136 emails, 0 repository events, 0 wiki edits in Nov 2017</title></rect><rect x="270" y="6" width="15" height="15" fill="#5174a8"><title>128 emails, 0 repository events, 0 wiki edits in Dec 2017</title></rect></g>
<g transform="translate(0 20)">
  <title>Activity in 2018</title>
  <text x="2" y="20">2018</text><rect x="50" y="6" width="15" height="15" fill="#7d90b5"><title>100 emails, 0 repository events, 0 wiki edits in Jan 2018</title></rect><rect x="70" y="6" width="15" height="15" fill="#005a9c"><title>297 emails, 0 repository events, 0 wiki edits in Feb 2018</title></rect><rect x="90" y="6" width="15" height="15" fill="#005a9c"><title>465 emails, 0 repository events, 0 wiki edits in Mar 2018</title></rect><rect x="110" y="6" width="15" height="15" fill="#005a9c"><title>273 emails, 0 repository events, 0 wiki edits in Apr 2018</title></rect><rect x="130" y="6" width="15" height="15" fill="#005a9c"><title>452 emails, 1 repository events, 0 wiki edits in May 2018</title></rect><rect x="150" y="6" width="15" height="15" fill="#005a9c"><title>420 emails, 1 repository events, 0 wiki edits in Jun 2018</title></rect><rect x="170" y="6" width="15" height="15" fill="#005a9c"><title>275 emails, 0 repository events, 0 wiki edits in Jul 2018</title></rect><rect x="190" y="6" width="15" height="15" fill="#005a9c"><title>336 emails, 0 repository events, 0 wiki edits in Aug 2018</title></rect><rect x="210" y="6" width="15" height="15" fill="#005a9c"><title>463 emails, 2 repository events, 0 wiki edits in Sep 2018</title></rect><rect x="230" y="6" width="15" height="15" fill="#005a9c"><title>734 emails, 3 repository events, 0 wiki edits in Oct 2018</title></rect><rect x="250" y="6" width="15" height="15" fill="#005a9c"><title>854 emails, 7 repository events, 0 wiki edits in Nov 2018</title></rect><rect x="270" y="6" width="15" height="15" fill="#005a9c"><title>220 emails, 0 repository events, 0 wiki edits in Dec 2018</title></rect></g>
<g transform="translate(0 40)">
  <title>Activity in 2019</title>
  <text x="2" y="20">2019</text><rect x="50" y="6" width="15" height="15" fill="#005a9c"><title>662 emails, 4 repository events, 0 wiki edits in Jan 2019</title></rect><rect x="70" y="6" width="15" height="15" fill="#005a9c"><title>752 emails, 2 repository events, 0 wiki edits in Feb 2019</title></rect><rect x="90" y="6" width="15" height="15" fill="#005a9c"><title>797 emails, 6 repository events, 0 wiki edits in Mar 2019</title></rect><rect x="110" y="6" width="15" height="15" fill="#005a9c"><title>328 emails, 1 repository events, 0 wiki edits in Apr 2019</title></rect><rect x="130" y="6" width="15" height="15" fill="#005a9c"><title>286 emails, 0 repository events, 0 wiki edits in May 2019</title></rect><rect x="150" y="6" width="15" height="15" fill="#3667a2"><title>151 emails, 0 repository events, 0 wiki edits in Jun 2019</title></rect><rect x="170" y="6" width="15" height="15" fill="#005a9c"><title>598 emails, 3 repository events, 0 wiki edits in Jul 2019</title></rect><rect x="190" y="6" width="15" height="15" fill="#005a9c"><title>477 emails, 3 repository events, 0 wiki edits in Aug 2019</title></rect><rect x="210" y="6" width="15" height="15" fill="#005a9c"><title>1020 emails, 9 repository events, 0 wiki edits in Sep 2019</title></rect><rect x="230" y="6" width="15" height="15" fill="#005a9c"><title>313 emails, 1 repository events, 0 wiki edits in Oct 2019</title></rect><rect x="250" y="6" width="15" height="15" fill="#005a9c"><title>335 emails, 3 repository events, 0 wiki edits in Nov 2019</title></rect><rect x="270" y="6" width="15" height="15" fill="#5174a8"><title>126 emails, 3 repository events, 0 wiki edits in Dec 2019</title></rect></g>
<g transform="translate(0 60)">
  <title>Activity in 2020</title>
  <text x="2" y="20">2020</text><rect x="50" y="6" width="15" height="15" fill="#5174a8"><title>150 emails, 0 repository events, 0 wiki edits in Jan 2020</title></rect><rect x="70" y="6" width="15" height="15" fill="#7d90b5"><title>84 emails, 3 repository events, 0 wiki edits in Feb 2020</title></rect><rect x="90" y="6" width="15" height="15" fill="#6882ae"><title>113 emails, 11 repository events, 0 wiki edits in Mar 2020</title></rect><rect x="110" y="6" width="15" height="15" fill="#6882ae"><title>100 emails, 8 repository events, 0 wiki edits in Apr 2020</title></rect><rect x="130" y="6" width="15" height="15" fill="#919fba"><title>51 emails, 0 repository events, 0 wiki edits in May 2020</title></rect><rect x="150" y="6" width="15" height="15" fill="#a5aec0"><title>42 emails, 0 repository events, 0 wiki edits in Jun 2020</title></rect><rect x="170" y="6" width="15" height="15" fill="#919fba"><title>70 emails, 1 repository events, 0 wiki edits in Jul 2020</title></rect><rect x="190" y="6" width="15" height="15" fill="#b9bdc6"><title>7 emails, 4 repository events, 0 wiki edits in Aug 2020</title></rect><rect x="210" y="6" width="15" height="15" fill="#919fba"><title>75 emails, 0 repository events, 0 wiki edits in Sep 2020</title></rect><rect x="230" y="6" width="15" height="15" fill="#7d90b5"><title>93 emails, 0 repository events, 0 wiki edits in Oct 2020</title></rect><rect x="250" y="6" width="15" height="15" fill="#5174a8"><title>148 emails, 0 repository events, 0 wiki edits in Nov 2020</title></rect><rect x="270" y="6" width="15" height="15" fill="#b9bdc6"><title>17 emails, 2 repository events, 0 wiki edits in Dec 2020</title></rect></g>
<g transform="translate(0 80)">
  <title>Activity in 2021</title>
  <text x="2" y="20">2021</text><rect x="50" y="6" width="15" height="15" fill="#a5aec0"><title>28 emails, 2 repository events, 0 wiki edits in Jan 2021</title></rect><rect x="70" y="6" width="15" height="15" fill="#005a9c"><title>163 emails, 15 repository events, 0 wiki edits in Feb 2021</title></rect><rect x="90" y="6" width="15" height="15" fill="#005a9c"><title>491 emails, 8 repository events, 0 wiki edits in Mar 2021</title></rect><rect x="110" y="6" width="15" height="15" fill="#5174a8"><title>140 emails, 7 repository events, 0 wiki edits in Apr 2021</title></rect><rect x="130" y="6" width="15" height="15" fill="#3667a2"><title>151 emails, 9 repository events, 0 wiki edits in May 2021</title></rect><rect x="150" y="6" width="15" height="15" fill="#7d90b5"><title>90 emails, 10 repository events, 0 wiki edits in Jun 2021</title></rect><rect x="170" y="6" width="15" height="15" fill="#b9bdc6"><title>19 emails, 2 repository events, 0 wiki edits in Jul 2021</title></rect><rect x="190" y="6" width="15" height="15" fill="#a5aec0"><title>35 emails, 2 repository events, 0 wiki edits in Aug 2021</title></rect><rect x="210" y="6" width="15" height="15" fill="#7d90b5"><title>82 emails, 6 repository events, 0 wiki edits in Sep 2021</title></rect><rect x="230" y="6" width="15" height="15" fill="#919fba"><title>51 emails, 5 repository events, 0 wiki edits in Oct 2021</title></rect><rect x="250" y="6" width="15" height="15" fill="#6882ae"><title>112 emails, 6 repository events, 0 wiki edits in Nov 2021</title></rect><rect x="270" y="6" width="15" height="15" fill="#7d90b5"><title>79 emails, 14 repository events, 0 wiki edits in Dec 2021</title></rect></g>
<g transform="translate(0 100)">
  <title>Activity in 2022</title>
  <text x="2" y="20">2022</text><rect x="50" y="6" width="15" height="15" fill="#a5aec0"><title>37 emails, 7 repository events, 0 wiki edits in Jan 2022</title></rect><rect x="70" y="6" width="15" height="15" fill="#5174a8"><title>114 emails, 35 repository events, 0 wiki edits in Feb 2022</title></rect><rect x="90" y="6" width="15" height="15" fill="#005a9c"><title>162 emails, 42 repository events, 0 wiki edits in Mar 2022</title></rect><rect x="110" y="6" width="15" height="15" fill="#a5aec0"><title>30 emails, 7 repository events, 0 wiki edits in Apr 2022</title></rect><rect x="130" y="6" width="15" height="15" fill="#7d90b5"><title>68 emails, 19 repository events, 13 wiki edits in May 2022</title></rect><rect x="150" y="6" width="15" height="15" fill="#919fba"><title>48 emails, 11 repository events, 7 wiki edits in Jun 2022</title></rect><rect x="170" y="6" width="15" height="15" fill="#b9bdc6"><title>19 emails, 3 repository events, 1 wiki edits in Jul 2022</title></rect><rect x="190" y="6" width="15" height="15" fill="#b9bdc6"><title>16 emails, 5 repository events, 0 wiki edits in Aug 2022</title></rect><rect x="210" y="6" width="15" height="15" fill="#a5aec0"><title>30 emails, 7 repository events, 8 wiki edits in Sep 2022</title></rect><rect x="230" y="6" width="15" height="15" fill="#a5aec0"><title>28 emails, 1 repository events, 10 wiki edits in Oct 2022</title></rect></g><text style="font-size: 10px; text-align: center" x="53" y="130">J</text><text style="font-size: 10px; text-align: center" x="73" y="130">F</text><text style="font-size: 10px; text-align: center" x="93" y="130">M</text><text style="font-size: 10px; text-align: center" x="113" y="130">A</text><text style="font-size: 10px; text-align: center" x="133" y="130">M</text><text style="font-size: 10px; text-align: center" x="153" y="130">J</text><text style="font-size: 10px; text-align: center" x="173" y="130">J</text><text style="font-size: 10px; text-align: center" x="193" y="130">A</text><text style="font-size: 10px; text-align: center" x="213" y="130">S</text><text style="font-size: 10px; text-align: center" x="233" y="130">O</text><text style="font-size: 10px; text-align: center" x="253" y="130">N</text><text style="font-size: 10px; text-align: center" x="273" y="130">D</text><text style="font-size: 10px;" x="155" y="149">Less</text><rect fill="#b9bdc6" width="10" height="10" x="180" y="140"><title>No activity in the period</title></rect><rect fill="#919fba" width="10" height="10" x="195" y="140"><title>Low activity in the period</title></rect><rect fill="#6882ae" width="10" height="10" x="210" y="140"><title>Medium activity in the period</title></rect><rect fill="#005a9c" width="10" height="10" x="225" y="140"><title>High activity in period</title></rect><text x="240" y="149" style="font-size: 10px;">More</text></svg>