<svg xmlns="http://www.w3.org/2000/svg" width="360">
  <title>Activity of Dataset%20Exchange%20Working%20Group</title>

<g transform="translate(0 0)">
  <title>Activity in 2017</title>
  <text x="2" y="20">2017</text><rect x="130" y="6" width="15" height="15" fill="#a5aec0"><title>49 emails, 0 repository events, 0 wiki edits in May 2017</title></rect><rect x="150" y="6" width="15" height="15" fill="#3667a2"><title>144 emails, 7 repository events, 0 wiki edits in Jun 2017</title></rect><rect x="170" y="6" width="15" height="15" fill="#6882ae"><title>101 emails, 12 repository events, 0 wiki edits in Jul 2017</title></rect><rect x="190" y="6" width="15" height="15" fill="#7d90b5"><title>73 emails, 18 repository events, 0 wiki edits in Aug 2017</title></rect><rect x="210" y="6" width="15" height="15" fill="#6882ae"><title>80 emails, 23 repository events, 0 wiki edits in Sep 2017</title></rect><rect x="230" y="6" width="15" height="15" fill="#919fba"><title>62 emails, 3 repository events, 0 wiki edits in Oct 2017</title></rect><rect x="250" y="6" width="15" height="15" fill="#5174a8"><title>136 emails, 11 repository events, 0 wiki edits in Nov 2017</title></rect><rect x="270" y="6" width="15" height="15" fill="#5174a8"><title>128 emails, 11 repository events, 0 wiki edits in Dec 2017</title></rect></g>
<g transform="translate(0 20)">
  <title>Activity in 2018</title>
  <text x="2" y="20">2018</text><rect x="50" y="6" width="15" height="15" fill="#5174a8"><title>100 emails, 50 repository events, 0 wiki edits in Jan 2018</title></rect><rect x="70" y="6" width="15" height="15" fill="#005a9c"><title>297 emails, 57 repository events, 0 wiki edits in Feb 2018</title></rect><rect x="90" y="6" width="15" height="15" fill="#005a9c"><title>465 emails, 68 repository events, 0 wiki edits in Mar 2018</title></rect><rect x="110" y="6" width="15" height="15" fill="#005a9c"><title>273 emails, 47 repository events, 0 wiki edits in Apr 2018</title></rect><rect x="130" y="6" width="15" height="15" fill="#005a9c"><title>452 emails, 35 repository events, 0 wiki edits in May 2018</title></rect><rect x="150" y="6" width="15" height="15" fill="#005a9c"><title>420 emails, 48 repository events, 0 wiki edits in Jun 2018</title></rect><rect x="170" y="6" width="15" height="15" fill="#005a9c"><title>275 emails, 31 repository events, 0 wiki edits in Jul 2018</title></rect><rect x="190" y="6" width="15" height="15" fill="#005a9c"><title>336 emails, 27 repository events, 0 wiki edits in Aug 2018</title></rect><rect x="210" y="6" width="15" height="15" fill="#005a9c"><title>463 emails, 140 repository events, 0 wiki edits in Sep 2018</title></rect><rect x="230" y="6" width="15" height="15" fill="#005a9c"><title>734 emails, 148 repository events, 0 wiki edits in Oct 2018</title></rect><rect x="250" y="6" width="15" height="15" fill="#005a9c"><title>854 emails, 134 repository events, 0 wiki edits in Nov 2018</title></rect><rect x="270" y="6" width="15" height="15" fill="#005a9c"><title>220 emails, 47 repository events, 0 wiki edits in Dec 2018</title></rect></g>
<g transform="translate(0 40)">
  <title>Activity in 2019</title>
  <text x="2" y="20">2019</text><rect x="50" y="6" width="15" height="15" fill="#005a9c"><title>662 emails, 121 repository events, 0 wiki edits in Jan 2019</title></rect><rect x="70" y="6" width="15" height="15" fill="#005a9c"><title>752 emails, 86 repository events, 0 wiki edits in Feb 2019</title></rect><rect x="90" y="6" width="15" height="15" fill="#005a9c"><title>797 emails, 137 repository events, 0 wiki edits in Mar 2019</title></rect><rect x="110" y="6" width="15" height="15" fill="#005a9c"><title>328 emails, 78 repository events, 0 wiki edits in Apr 2019</title></rect><rect x="130" y="6" width="15" height="15" fill="#005a9c"><title>286 emails, 47 repository events, 0 wiki edits in May 2019</title></rect><rect x="150" y="6" width="15" height="15" fill="#005a9c"><title>151 emails, 31 repository events, 0 wiki edits in Jun 2019</title></rect><rect x="170" y="6" width="15" height="15" fill="#005a9c"><title>598 emails, 94 repository events, 0 wiki edits in Jul 2019</title></rect><rect x="190" y="6" width="15" height="15" fill="#005a9c"><title>477 emails, 43 repository events, 0 wiki edits in Aug 2019</title></rect><rect x="210" y="6" width="15" height="15" fill="#005a9c"><title>1020 emails, 89 repository events, 0 wiki edits in Sep 2019</title></rect><rect x="230" y="6" width="15" height="15" fill="#005a9c"><title>313 emails, 72 repository events, 0 wiki edits in Oct 2019</title></rect><rect x="250" y="6" width="15" height="15" fill="#005a9c"><title>335 emails, 54 repository events, 0 wiki edits in Nov 2019</title></rect><rect x="270" y="6" width="15" height="15" fill="#5174a8"><title>126 emails, 23 repository events, 0 wiki edits in Dec 2019</title></rect></g>
<g transform="translate(0 60)">
  <title>Activity in 2020</title>
  <text x="2" y="20">2020</text><rect x="50" y="6" width="15" height="15" fill="#005a9c"><title>150 emails, 26 repository events, 0 wiki edits in Jan 2020</title></rect><rect x="70" y="6" width="15" height="15" fill="#7d90b5"><title>84 emails, 4 repository events, 0 wiki edits in Feb 2020</title></rect><rect x="90" y="6" width="15" height="15" fill="#5174a8"><title>113 emails, 25 repository events, 0 wiki edits in Mar 2020</title></rect><rect x="110" y="6" width="15" height="15" fill="#6882ae"><title>100 emails, 19 repository events, 0 wiki edits in Apr 2020</title></rect><rect x="130" y="6" width="15" height="15" fill="#919fba"><title>51 emails, 6 repository events, 0 wiki edits in May 2020</title></rect><rect x="150" y="6" width="15" height="15" fill="#a5aec0"><title>42 emails, 5 repository events, 0 wiki edits in Jun 2020</title></rect><rect x="170" y="6" width="15" height="15" fill="#919fba"><title>70 emails, 3 repository events, 0 wiki edits in Jul 2020</title></rect><rect x="190" y="6" width="15" height="15" fill="#b9bdc6"><title>7 emails, 7 repository events, 0 wiki edits in Aug 2020</title></rect><rect x="210" y="6" width="15" height="15" fill="#7d90b5"><title>75 emails, 18 repository events, 5 wiki edits in Sep 2020</title></rect><rect x="230" y="6" width="15" height="15" fill="#6882ae"><title>93 emails, 12 repository events, 14 wiki edits in Oct 2020</title></rect><rect x="250" y="6" width="15" height="15" fill="#3667a2"><title>123 emails, 23 repository events, 11 wiki edits in Nov 2020</title></rect></g><text style="font-size: 10px; text-align: center" x="53" y="90">J</text><text style="font-size: 10px; text-align: center" x="73" y="90">F</text><text style="font-size: 10px; text-align: center" x="93" y="90">M</text><text style="font-size: 10px; text-align: center" x="113" y="90">A</text><text style="font-size: 10px; text-align: center" x="133" y="90">M</text><text style="font-size: 10px; text-align: center" x="153" y="90">J</text><text style="font-size: 10px; text-align: center" x="173" y="90">J</text><text style="font-size: 10px; text-align: center" x="193" y="90">A</text><text style="font-size: 10px; text-align: center" x="213" y="90">S</text><text style="font-size: 10px; text-align: center" x="233" y="90">O</text><text style="font-size: 10px; text-align: center" x="253" y="90">N</text><text style="font-size: 10px; text-align: center" x="273" y="90">D</text><text style="font-size: 10px;" x="155" y="109">Less</text><rect fill="#b9bdc6" width="10" height="10" x="180" y="100"><title>No activity in the period</title></rect><rect fill="#919fba" width="10" height="10" x="195" y="100"><title>Low activity in the period</title></rect><rect fill="#6882ae" width="10" height="10" x="210" y="100"><title>Medium activity in the period</title></rect><rect fill="#005a9c" width="10" height="10" x="225" y="100"><title>High activity in period</title></rect><text x="240" y="109" style="font-size: 10px;">More</text></svg>