<svg xmlns="http://www.w3.org/2000/svg" width="360" height="40">
  <title>Activity of Federated%20Identity%20Working%20Group</title>

<g transform="translate(0 0)">
  <title>Activity in 2024</title>
  <text x="2" y="20">2024</text><rect x="90" y="6" width="15" height="15" fill="#b9bdc6"><title>1 emails, 8 repository events, 0 wiki edits in Mar 2024</title></rect><rect x="110" y="6" width="15" height="15" fill="#a5aec0"><title>1 emails, 25 repository events, 0 wiki edits in Apr 2024</title></rect><rect x="130" y="6" width="15" height="15" fill="#7d90b5"><title>3 emails, 88 repository events, 0 wiki edits in May 2024</title></rect><rect x="150" y="6" width="15" height="15" fill="#b9bdc6"><title>6 emails, 13 repository events, 0 wiki edits in Jun 2024</title></rect><rect x="170" y="6" width="15" height="15" fill="#b9bdc6"><title>10 emails, 9 repository events, 0 wiki edits in Jul 2024</title></rect><rect x="190" y="6" width="15" height="15" fill="#919fba"><title>9 emails, 52 repository events, 0 wiki edits in Aug 2024</title></rect><rect x="210" y="6" width="15" height="15" fill="#3667a2"><title>10 emails, 153 repository events, 0 wiki edits in Sep 2024</title></rect><rect x="230" y="6" width="15" height="15" fill="#919fba"><title>15 emails, 49 repository events, 0 wiki edits in Oct 2024</title></rect><rect x="250" y="6" width="15" height="15" fill="#a5aec0"><title>10 emails, 38 repository events, 0 wiki edits in Nov 2024</title></rect></g><text style="font-size: 10px; text-align: center" x="53" y="30">J</text><text style="font-size: 10px; text-align: center" x="73" y="30">F</text><text style="font-size: 10px; text-align: center" x="93" y="30">M</text><text style="font-size: 10px; text-align: center" x="113" y="30">A</text><text style="font-size: 10px; text-align: center" x="133" y="30">M</text><text style="font-size: 10px; text-align: center" x="153" y="30">J</text><text style="font-size: 10px; text-align: center" x="173" y="30">J</text><text style="font-size: 10px; text-align: center" x="193" y="30">A</text><text style="font-size: 10px; text-align: center" x="213" y="30">S</text><text style="font-size: 10px; text-align: center" x="233" y="30">O</text><text style="font-size: 10px; text-align: center" x="253" y="30">N</text><text style="font-size: 10px; text-align: center" x="273" y="30">D</text><text style="font-size: 10px;" x="155" y="49">Less</text><rect fill="#b9bdc6" width="10" height="10" x="180" y="40"><title>No activity in the period</title></rect><rect fill="#919fba" width="10" height="10" x="195" y="40"><title>Low activity in the period</title></rect><rect fill="#6882ae" width="10" height="10" x="210" y="40"><title>Medium activity in the period</title></rect><rect fill="#005a9c" width="10" height="10" x="225" y="40"><title>High activity in period</title></rect><text x="240" y="49" style="font-size: 10px;">More</text></svg>