<svg xmlns="http://www.w3.org/2000/svg" width="360" height="120">
  <title>Activity of GPU%20for%20the%20Web%20Working%20Group</title>

<g transform="translate(0 0)">
  <title>Activity in 2020</title>
  <text x="2" y="20">2020</text><rect x="190" y="6" width="15" height="15" fill="#5174a8"><title>11 emails, 117 repository events, 0 wiki edits in Aug 2020</title></rect><rect x="210" y="6" width="15" height="15" fill="#5174a8"><title>2 emails, 130 repository events, 0 wiki edits in Sep 2020</title></rect><rect x="230" y="6" width="15" height="15" fill="#6882ae"><title>6 emails, 112 repository events, 0 wiki edits in Oct 2020</title></rect><rect x="250" y="6" width="15" height="15" fill="#005a9c"><title>7 emails, 191 repository events, 0 wiki edits in Nov 2020</title></rect><rect x="270" y="6" width="15" height="15" fill="#5174a8"><title>5 emails, 130 repository events, 0 wiki edits in Dec 2020</title></rect></g>
<g transform="translate(0 20)">
  <title>Activity in 2021</title>
  <text x="2" y="20">2021</text><rect x="50" y="6" width="15" height="15" fill="#6882ae"><title>4 emails, 112 repository events, 0 wiki edits in Jan 2021</title></rect><rect x="70" y="6" width="15" height="15" fill="#5174a8"><title>3 emails, 129 repository events, 0 wiki edits in Feb 2021</title></rect><rect x="90" y="6" width="15" height="15" fill="#005a9c"><title>3 emails, 187 repository events, 0 wiki edits in Mar 2021</title></rect><rect x="110" y="6" width="15" height="15" fill="#005a9c"><title>6 emails, 178 repository events, 0 wiki edits in Apr 2021</title></rect><rect x="130" y="6" width="15" height="15" fill="#5174a8"><title>6 emails, 120 repository events, 0 wiki edits in May 2021</title></rect><rect x="150" y="6" width="15" height="15" fill="#005a9c"><title>4 emails, 189 repository events, 0 wiki edits in Jun 2021</title></rect><rect x="170" y="6" width="15" height="15" fill="#005a9c"><title>10 emails, 252 repository events, 0 wiki edits in Jul 2021</title></rect><rect x="190" y="6" width="15" height="15" fill="#3667a2"><title>11 emails, 155 repository events, 0 wiki edits in Aug 2021</title></rect><rect x="210" y="6" width="15" height="15" fill="#5174a8"><title>3 emails, 146 repository events, 0 wiki edits in Sep 2021</title></rect><rect x="230" y="6" width="15" height="15" fill="#3667a2"><title>13 emails, 148 repository events, 0 wiki edits in Oct 2021</title></rect><rect x="250" y="6" width="15" height="15" fill="#005a9c"><title>12 emails, 196 repository events, 0 wiki edits in Nov 2021</title></rect><rect x="270" y="6" width="15" height="15" fill="#5174a8"><title>3 emails, 133 repository events, 0 wiki edits in Dec 2021</title></rect></g>
<g transform="translate(0 40)">
  <title>Activity in 2022</title>
  <text x="2" y="20">2022</text><rect x="50" y="6" width="15" height="15" fill="#005a9c"><title>3 emails, 208 repository events, 0 wiki edits in Jan 2022</title></rect><rect x="70" y="6" width="15" height="15" fill="#005a9c"><title>1 emails, 178 repository events, 0 wiki edits in Feb 2022</title></rect><rect x="90" y="6" width="15" height="15" fill="#005a9c"><title>6 emails, 271 repository events, 0 wiki edits in Mar 2022</title></rect><rect x="110" y="6" width="15" height="15" fill="#005a9c"><title>10 emails, 406 repository events, 0 wiki edits in Apr 2022</title></rect><rect x="130" y="6" width="15" height="15" fill="#005a9c"><title>3 emails, 428 repository events, 0 wiki edits in May 2022</title></rect><rect x="150" y="6" width="15" height="15" fill="#005a9c"><title>4 emails, 295 repository events, 0 wiki edits in Jun 2022</title></rect><rect x="170" y="6" width="15" height="15" fill="#005a9c"><title>12 emails, 344 repository events, 0 wiki edits in Jul 2022</title></rect><rect x="190" y="6" width="15" height="15" fill="#005a9c"><title>6 emails, 273 repository events, 0 wiki edits in Aug 2022</title></rect><rect x="210" y="6" width="15" height="15" fill="#005a9c"><title>5 emails, 191 repository events, 0 wiki edits in Sep 2022</title></rect><rect x="230" y="6" width="15" height="15" fill="#005a9c"><title>5 emails, 183 repository events, 0 wiki edits in Oct 2022</title></rect><rect x="250" y="6" width="15" height="15" fill="#005a9c"><title>1 emails, 215 repository events, 0 wiki edits in Nov 2022</title></rect><rect x="270" y="6" width="15" height="15" fill="#3667a2"><title>7 emails, 160 repository events, 0 wiki edits in Dec 2022</title></rect></g>
<g transform="translate(0 60)">
  <title>Activity in 2023</title>
  <text x="2" y="20">2023</text><rect x="50" y="6" width="15" height="15" fill="#005a9c"><title>2 emails, 285 repository events, 0 wiki edits in Jan 2023</title></rect><rect x="70" y="6" width="15" height="15" fill="#005a9c"><title>3 emails, 264 repository events, 0 wiki edits in Feb 2023</title></rect><rect x="90" y="6" width="15" height="15" fill="#005a9c"><title>1 emails, 350 repository events, 0 wiki edits in Mar 2023</title></rect><rect x="110" y="6" width="15" height="15" fill="#3667a2"><title>5 emails, 152 repository events, 0 wiki edits in Apr 2023</title></rect><rect x="130" y="6" width="15" height="15" fill="#005a9c"><title>1 emails, 311 repository events, 0 wiki edits in May 2023</title></rect><rect x="150" y="6" width="15" height="15" fill="#5174a8"><title>3 emails, 133 repository events, 0 wiki edits in Jun 2023</title></rect><rect x="170" y="6" width="15" height="15" fill="#005a9c"><title>3 emails, 208 repository events, 0 wiki edits in Jul 2023</title></rect><rect x="190" y="6" width="15" height="15" fill="#7d90b5"><title>3 emails, 81 repository events, 0 wiki edits in Aug 2023</title></rect><rect x="210" y="6" width="15" height="15" fill="#005a9c"><title>1 emails, 251 repository events, 0 wiki edits in Sep 2023</title></rect><rect x="230" y="6" width="15" height="15" fill="#005a9c"><title>4 emails, 186 repository events, 0 wiki edits in Oct 2023</title></rect><rect x="250" y="6" width="15" height="15" fill="#3667a2"><title>5 emails, 150 repository events, 0 wiki edits in Nov 2023</title></rect><rect x="270" y="6" width="15" height="15" fill="#919fba"><title>1 emails, 61 repository events, 0 wiki edits in Dec 2023</title></rect></g>
<g transform="translate(0 80)">
  <title>Activity in 2024</title>
  <text x="2" y="20">2024</text><rect x="50" y="6" width="15" height="15" fill="#005a9c"><title>1 emails, 213 repository events, 0 wiki edits in Jan 2024</title></rect><rect x="70" y="6" width="15" height="15" fill="#5174a8"><title>5 emails, 121 repository events, 0 wiki edits in Feb 2024</title></rect></g><text style="font-size: 10px; text-align: center" x="53" y="110">J</text><text style="font-size: 10px; text-align: center" x="73" y="110">F</text><text style="font-size: 10px; text-align: center" x="93" y="110">M</text><text style="font-size: 10px; text-align: center" x="113" y="110">A</text><text style="font-size: 10px; text-align: center" x="133" y="110">M</text><text style="font-size: 10px; text-align: center" x="153" y="110">J</text><text style="font-size: 10px; text-align: center" x="173" y="110">J</text><text style="font-size: 10px; text-align: center" x="193" y="110">A</text><text style="font-size: 10px; text-align: center" x="213" y="110">S</text><text style="font-size: 10px; text-align: center" x="233" y="110">O</text><text style="font-size: 10px; text-align: center" x="253" y="110">N</text><text style="font-size: 10px; text-align: center" x="273" y="110">D</text><text style="font-size: 10px;" x="155" y="129">Less</text><rect fill="#b9bdc6" width="10" height="10" x="180" y="120"><title>No activity in the period</title></rect><rect fill="#919fba" width="10" height="10" x="195" y="120"><title>Low activity in the period</title></rect><rect fill="#6882ae" width="10" height="10" x="210" y="120"><title>Medium activity in the period</title></rect><rect fill="#005a9c" width="10" height="10" x="225" y="120"><title>High activity in period</title></rect><text x="240" y="129" style="font-size: 10px;">More</text></svg>