<svg xmlns="http://www.w3.org/2000/svg">
  <title>Activity of Timed%20Text%20Working%20Group</title>
  <style type="text/css">.none { fill: #aaa;}
  .low { fill: #8ac;}
  .medium { fill: #49a;}
  .high { fill: #159;}
  </style>

<g transform="translate(0 0)">
  <title>Activity in 2008</title>
  <text x="2" y="20">2008</text><rect x="190" y="6" width="15" height="15" class="none"><title>0 emails, 0 repo event, 0 wiki edits in Aug 2008</title></rect><rect x="210" y="6" width="15" height="15" class="low"><title>8 emails, 0 repo event, 0 wiki edits in Sep 2008</title></rect><rect x="230" y="6" width="15" height="15" class="medium"><title>41 emails, 0 repo event, 0 wiki edits in Oct 2008</title></rect><rect x="250" y="6" width="15" height="15" class="medium"><title>24 emails, 0 repo event, 0 wiki edits in Nov 2008</title></rect><rect x="270" y="6" width="15" height="15" class="high"><title>180 emails, 0 repo event, 0 wiki edits in Dec 2008</title></rect></g>
<g transform="translate(0 20)">
  <title>Activity in 2009</title>
  <text x="2" y="20">2009</text><rect x="50" y="6" width="15" height="15" class="medium"><title>45 emails, 0 repo event, 0 wiki edits in Jan 2009</title></rect><rect x="70" y="6" width="15" height="15" class="low"><title>16 emails, 0 repo event, 0 wiki edits in Feb 2009</title></rect><rect x="90" y="6" width="15" height="15" class="low"><title>12 emails, 0 repo event, 0 wiki edits in Mar 2009</title></rect><rect x="110" y="6" width="15" height="15" class="high"><title>124 emails, 0 repo event, 0 wiki edits in Apr 2009</title></rect><rect x="130" y="6" width="15" height="15" class="high"><title>99 emails, 0 repo event, 0 wiki edits in May 2009</title></rect><rect x="150" y="6" width="15" height="15" class="medium"><title>55 emails, 0 repo event, 0 wiki edits in Jun 2009</title></rect><rect x="170" y="6" width="15" height="15" class="medium"><title>27 emails, 0 repo event, 0 wiki edits in Jul 2009</title></rect><rect x="190" y="6" width="15" height="15" class="low"><title>11 emails, 0 repo event, 0 wiki edits in Aug 2009</title></rect><rect x="210" y="6" width="15" height="15" class="medium"><title>27 emails, 0 repo event, 0 wiki edits in Sep 2009</title></rect><rect x="230" y="6" width="15" height="15" class="medium"><title>20 emails, 0 repo event, 0 wiki edits in Oct 2009</title></rect><rect x="250" y="6" width="15" height="15" class="none"><title>0 emails, 0 repo event, 0 wiki edits in Nov 2009</title></rect><rect x="270" y="6" width="15" height="15" class="none"><title>0 emails, 0 repo event, 0 wiki edits in Dec 2009</title></rect></g>
<g transform="translate(0 40)">
  <title>Activity in 2010</title>
  <text x="2" y="20">2010</text><rect x="50" y="6" width="15" height="15" class="low"><title>2 emails, 0 repo event, 0 wiki edits in Jan 2010</title></rect><rect x="70" y="6" width="15" height="15" class="low"><title>5 emails, 0 repo event, 0 wiki edits in Feb 2010</title></rect><rect x="90" y="6" width="15" height="15" class="low"><title>4 emails, 0 repo event, 0 wiki edits in Mar 2010</title></rect><rect x="110" y="6" width="15" height="15" class="low"><title>8 emails, 0 repo event, 0 wiki edits in Apr 2010</title></rect><rect x="130" y="6" width="15" height="15" class="low"><title>1 emails, 0 repo event, 0 wiki edits in May 2010</title></rect><rect x="150" y="6" width="15" height="15" class="low"><title>2 emails, 0 repo event, 0 wiki edits in Jun 2010</title></rect><rect x="170" y="6" width="15" height="15" class="low"><title>1 emails, 0 repo event, 0 wiki edits in Jul 2010</title></rect><rect x="190" y="6" width="15" height="15" class="low"><title>13 emails, 0 repo event, 0 wiki edits in Aug 2010</title></rect><rect x="210" y="6" width="15" height="15" class="low"><title>2 emails, 0 repo event, 0 wiki edits in Sep 2010</title></rect><rect x="230" y="6" width="15" height="15" class="low"><title>3 emails, 0 repo event, 0 wiki edits in Oct 2010</title></rect><rect x="250" y="6" width="15" height="15" class="low"><title>2 emails, 0 repo event, 0 wiki edits in Nov 2010</title></rect><rect x="270" y="6" width="15" height="15" class="low"><title>6 emails, 0 repo event, 0 wiki edits in Dec 2010</title></rect></g>
<g transform="translate(0 60)">
  <title>Activity in 2011</title>
  <text x="2" y="20">2011</text><rect x="50" y="6" width="15" height="15" class="none"><title>0 emails, 0 repo event, 0 wiki edits in Jan 2011</title></rect><rect x="70" y="6" width="15" height="15" class="none"><title>0 emails, 0 repo event, 0 wiki edits in Feb 2011</title></rect><rect x="90" y="6" width="15" height="15" class="low"><title>3 emails, 0 repo event, 0 wiki edits in Mar 2011</title></rect><rect x="110" y="6" width="15" height="15" class="none"><title>0 emails, 0 repo event, 0 wiki edits in Apr 2011</title></rect><rect x="130" y="6" width="15" height="15" class="none"><title>0 emails, 0 repo event, 0 wiki edits in May 2011</title></rect><rect x="150" y="6" width="15" height="15" class="none"><title>0 emails, 0 repo event, 0 wiki edits in Jun 2011</title></rect><rect x="170" y="6" width="15" height="15" class="none"><title>0 emails, 0 repo event, 0 wiki edits in Jul 2011</title></rect><rect x="190" y="6" width="15" height="15" class="none"><title>0 emails, 0 repo event, 0 wiki edits in Aug 2011</title></rect><rect x="210" y="6" width="15" height="15" class="none"><title>0 emails, 0 repo event, 0 wiki edits in Sep 2011</title></rect><rect x="230" y="6" width="15" height="15" class="none"><title>0 emails, 0 repo event, 0 wiki edits in Oct 2011</title></rect><rect x="250" y="6" width="15" height="15" class="none"><title>0 emails, 0 repo event, 0 wiki edits in Nov 2011</title></rect><rect x="270" y="6" width="15" height="15" class="none"><title>0 emails, 0 repo event, 0 wiki edits in Dec 2011</title></rect></g>
<g transform="translate(0 80)">
  <title>Activity in 2012</title>
  <text x="2" y="20">2012</text><rect x="50" y="6" width="15" height="15" class="low"><title>14 emails, 0 repo event, 0 wiki edits in Jan 2012</title></rect><rect x="70" y="6" width="15" height="15" class="medium"><title>30 emails, 0 repo event, 0 wiki edits in Feb 2012</title></rect><rect x="90" y="6" width="15" height="15" class="medium"><title>43 emails, 0 repo event, 0 wiki edits in Mar 2012</title></rect><rect x="110" y="6" width="15" height="15" class="medium"><title>39 emails, 0 repo event, 0 wiki edits in Apr 2012</title></rect><rect x="130" y="6" width="15" height="15" class="medium"><title>34 emails, 0 repo event, 0 wiki edits in May 2012</title></rect><rect x="150" y="6" width="15" height="15" class="medium"><title>30 emails, 0 repo event, 0 wiki edits in Jun 2012</title></rect><rect x="170" y="6" width="15" height="15" class="medium"><title>25 emails, 0 repo event, 0 wiki edits in Jul 2012</title></rect><rect x="190" y="6" width="15" height="15" class="medium"><title>47 emails, 0 repo event, 0 wiki edits in Aug 2012</title></rect><rect x="210" y="6" width="15" height="15" class="high"><title>88 emails, 0 repo event, 0 wiki edits in Sep 2012</title></rect><rect x="230" y="6" width="15" height="15" class="medium"><title>62 emails, 0 repo event, 0 wiki edits in Oct 2012</title></rect><rect x="250" y="6" width="15" height="15" class="medium"><title>44 emails, 0 repo event, 0 wiki edits in Nov 2012</title></rect><rect x="270" y="6" width="15" height="15" class="low"><title>11 emails, 0 repo event, 0 wiki edits in Dec 2012</title></rect></g>
<g transform="translate(0 100)">
  <title>Activity in 2013</title>
  <text x="2" y="20">2013</text><rect x="50" y="6" width="15" height="15" class="medium"><title>79 emails, 0 repo event, 0 wiki edits in Jan 2013</title></rect><rect x="70" y="6" width="15" height="15" class="medium"><title>53 emails, 0 repo event, 0 wiki edits in Feb 2013</title></rect><rect x="90" y="6" width="15" height="15" class="low"><title>15 emails, 0 repo event, 0 wiki edits in Mar 2013</title></rect><rect x="110" y="6" width="15" height="15" class="low"><title>19 emails, 0 repo event, 0 wiki edits in Apr 2013</title></rect><rect x="130" y="6" width="15" height="15" class="high"><title>148 emails, 0 repo event, 0 wiki edits in May 2013</title></rect><rect x="150" y="6" width="15" height="15" class="high"><title>133 emails, 0 repo event, 0 wiki edits in Jun 2013</title></rect><rect x="170" y="6" width="15" height="15" class="high"><title>137 emails, 0 repo event, 0 wiki edits in Jul 2013</title></rect><rect x="190" y="6" width="15" height="15" class="medium"><title>71 emails, 0 repo event, 0 wiki edits in Aug 2013</title></rect><rect x="210" y="6" width="15" height="15" class="medium"><title>45 emails, 0 repo event, 0 wiki edits in Sep 2013</title></rect><rect x="230" y="6" width="15" height="15" class="medium"><title>68 emails, 0 repo event, 0 wiki edits in Oct 2013</title></rect><rect x="250" y="6" width="15" height="15" class="medium"><title>50 emails, 0 repo event, 0 wiki edits in Nov 2013</title></rect><rect x="270" y="6" width="15" height="15" class="medium"><title>53 emails, 0 repo event, 0 wiki edits in Dec 2013</title></rect></g>
<g transform="translate(0 120)">
  <title>Activity in 2014</title>
  <text x="2" y="20">2014</text><rect x="50" y="6" width="15" height="15" class="high"><title>31 emails, 76 repo event, 0 wiki edits in Jan 2014</title></rect><rect x="70" y="6" width="15" height="15" class="medium"><title>21 emails, 18 repo event, 0 wiki edits in Feb 2014</title></rect><rect x="90" y="6" width="15" height="15" class="medium"><title>32 emails, 20 repo event, 0 wiki edits in Mar 2014</title></rect><rect x="110" y="6" width="15" height="15" class="medium"><title>28 emails, 0 repo event, 0 wiki edits in Apr 2014</title></rect><rect x="130" y="6" width="15" height="15" class="high"><title>193 emails, 40 repo event, 0 wiki edits in May 2014</title></rect><rect x="150" y="6" width="15" height="15" class="high"><title>93 emails, 70 repo event, 0 wiki edits in Jun 2014</title></rect><rect x="170" y="6" width="15" height="15" class="medium"><title>55 emails, 0 repo event, 0 wiki edits in Jul 2014</title></rect><rect x="190" y="6" width="15" height="15" class="high"><title>113 emails, 0 repo event, 0 wiki edits in Aug 2014</title></rect><rect x="210" y="6" width="15" height="15" class="high"><title>149 emails, 22 repo event, 0 wiki edits in Sep 2014</title></rect><rect x="230" y="6" width="15" height="15" class="high"><title>119 emails, 90 repo event, 0 wiki edits in Oct 2014</title></rect><rect x="250" y="6" width="15" height="15" class="high"><title>101 emails, 0 repo event, 0 wiki edits in Nov 2014</title></rect><rect x="270" y="6" width="15" height="15" class="medium"><title>44 emails, 0 repo event, 0 wiki edits in Dec 2014</title></rect></g>
<g transform="translate(0 140)">
  <title>Activity in 2015</title>
  <text x="2" y="20">2015</text><rect x="50" y="6" width="15" height="15" class="high"><title>122 emails, 6 repo event, 0 wiki edits in Jan 2015</title></rect><rect x="70" y="6" width="15" height="15" class="medium"><title>49 emails, 10 repo event, 0 wiki edits in Feb 2015</title></rect><rect x="90" y="6" width="15" height="15" class="high"><title>98 emails, 24 repo event, 0 wiki edits in Mar 2015</title></rect><rect x="110" y="6" width="15" height="15" class="medium"><title>69 emails, 2 repo event, 0 wiki edits in Apr 2015</title></rect><rect x="130" y="6" width="15" height="15" class="medium"><title>31 emails, 2 repo event, 0 wiki edits in May 2015</title></rect><rect x="150" y="6" width="15" height="15" class="high"><title>70 emails, 26 repo event, 0 wiki edits in Jun 2015</title></rect><rect x="170" y="6" width="15" height="15" class="medium"><title>33 emails, 3 repo event, 0 wiki edits in Jul 2015</title></rect><rect x="190" y="6" width="15" height="15" class="medium"><title>58 emails, 12 repo event, 0 wiki edits in Aug 2015</title></rect><rect x="210" y="6" width="15" height="15" class="high"><title>136 emails, 6 repo event, 0 wiki edits in Sep 2015</title></rect><rect x="230" y="6" width="15" height="15" class="high"><title>97 emails, 23 repo event, 0 wiki edits in Oct 2015</title></rect><rect x="250" y="6" width="15" height="15" class="high"><title>54 emails, 533 repo event, 0 wiki edits in Nov 2015</title></rect><rect x="270" y="6" width="15" height="15" class="high"><title>96 emails, 56 repo event, 0 wiki edits in Dec 2015</title></rect></g>
<g transform="translate(0 160)">
  <title>Activity in 2016</title>
  <text x="2" y="20">2016</text><rect x="50" y="6" width="15" height="15" class="high"><title>84 emails, 32 repo event, 0 wiki edits in Jan 2016</title></rect><rect x="70" y="6" width="15" height="15" class="high"><title>117 emails, 62 repo event, 0 wiki edits in Feb 2016</title></rect><rect x="90" y="6" width="15" height="15" class="medium"><title>65 emails, 9 repo event, 0 wiki edits in Mar 2016</title></rect><rect x="110" y="6" width="15" height="15" class="medium"><title>59 emails, 20 repo event, 0 wiki edits in Apr 2016</title></rect><rect x="130" y="6" width="15" height="15" class="high"><title>69 emails, 39 repo event, 0 wiki edits in May 2016</title></rect><rect x="150" y="6" width="15" height="15" class="medium"><title>25 emails, 17 repo event, 0 wiki edits in Jun 2016</title></rect><rect x="170" y="6" width="15" height="15" class="medium"><title>36 emails, 20 repo event, 0 wiki edits in Jul 2016</title></rect><rect x="190" y="6" width="15" height="15" class="medium"><title>24 emails, 7 repo event, 0 wiki edits in Aug 2016</title></rect><rect x="210" y="6" width="15" height="15" class="high"><title>73 emails, 26 repo event, 0 wiki edits in Sep 2016</title></rect><rect x="230" y="6" width="15" height="15" class="high"><title>106 emails, 60 repo event, 0 wiki edits in Oct 2016</title></rect><rect x="250" y="6" width="15" height="15" class="medium"><title>60 emails, 16 repo event, 0 wiki edits in Nov 2016</title></rect><rect x="270" y="6" width="15" height="15" class="high"><title>76 emails, 17 repo event, 0 wiki edits in Dec 2016</title></rect></g>
<g transform="translate(0 180)">
  <title>Activity in 2017</title>
  <text x="2" y="20">2017</text><rect x="50" y="6" width="15" height="15" class="high"><title>87 emails, 49 repo event, 0 wiki edits in Jan 2017</title></rect><rect x="70" y="6" width="15" height="15" class="high"><title>85 emails, 69 repo event, 0 wiki edits in Feb 2017</title></rect><rect x="90" y="6" width="15" height="15" class="high"><title>97 emails, 42 repo event, 0 wiki edits in Mar 2017</title></rect><rect x="110" y="6" width="15" height="15" class="high"><title>58 emails, 35 repo event, 0 wiki edits in Apr 2017</title></rect><rect x="130" y="6" width="15" height="15" class="high"><title>187 emails, 150 repo event, 0 wiki edits in May 2017</title></rect><rect x="150" y="6" width="15" height="15" class="high"><title>119 emails, 78 repo event, 0 wiki edits in Jun 2017</title></rect><rect x="170" y="6" width="15" height="15" class="high"><title>70 emails, 26 repo event, 0 wiki edits in Jul 2017</title></rect><rect x="190" y="6" width="15" height="15" class="high"><title>58 emails, 31 repo event, 0 wiki edits in Aug 2017</title></rect><rect x="210" y="6" width="15" height="15" class="high"><title>108 emails, 70 repo event, 0 wiki edits in Sep 2017</title></rect><rect x="230" y="6" width="15" height="15" class="high"><title>139 emails, 89 repo event, 0 wiki edits in Oct 2017</title></rect><rect x="250" y="6" width="15" height="15" class="high"><title>214 emails, 110 repo event, 0 wiki edits in Nov 2017</title></rect><rect x="270" y="6" width="15" height="15" class="high"><title>137 emails, 141 repo event, 0 wiki edits in Dec 2017</title></rect></g>
<g transform="translate(0 200)">
  <title>Activity in 2018</title>
  <text x="2" y="20">2018</text><rect x="50" y="6" width="15" height="15" class="high"><title>304 emails, 248 repo event, 0 wiki edits in Jan 2018</title></rect><rect x="70" y="6" width="15" height="15" class="high"><title>239 emails, 143 repo event, 0 wiki edits in Feb 2018</title></rect><rect x="90" y="6" width="15" height="15" class="high"><title>184 emails, 115 repo event, 0 wiki edits in Mar 2018</title></rect><rect x="110" y="6" width="15" height="15" class="high"><title>103 emails, 68 repo event, 0 wiki edits in Apr 2018</title></rect><rect x="130" y="6" width="15" height="15" class="high"><title>184 emails, 180 repo event, 0 wiki edits in May 2018</title></rect><rect x="150" y="6" width="15" height="15" class="high"><title>240 emails, 178 repo event, 0 wiki edits in Jun 2018</title></rect><rect x="170" y="6" width="15" height="15" class="high"><title>220 emails, 216 repo event, 0 wiki edits in Jul 2018</title></rect><rect x="190" y="6" width="15" height="15" class="high"><title>93 emails, 198 repo event, 0 wiki edits in Aug 2018</title></rect><rect x="210" y="6" width="15" height="15" class="high"><title>138 emails, 203 repo event, 0 wiki edits in Sep 2018</title></rect><rect x="230" y="6" width="15" height="15" class="high"><title>60 emails, 34 repo event, 0 wiki edits in Oct 2018</title></rect><rect x="250" y="6" width="15" height="15" class="medium"><title>42 emails, 25 repo event, 0 wiki edits in Nov 2018</title></rect><rect x="270" y="6" width="15" height="15" class="medium"><title>19 emails, 20 repo event, 0 wiki edits in Dec 2018</title></rect></g>
<g transform="translate(0 220)">
  <title>Activity in 2019</title>
  <text x="2" y="20">2019</text><rect x="50" y="6" width="15" height="15" class="high"><title>74 emails, 54 repo event, 0 wiki edits in Jan 2019</title></rect><rect x="70" y="6" width="15" height="15" class="high"><title>63 emails, 44 repo event, 0 wiki edits in Feb 2019</title></rect><rect x="90" y="6" width="15" height="15" class="high"><title>64 emails, 90 repo event, 0 wiki edits in Mar 2019</title></rect><rect x="110" y="6" width="15" height="15" class="medium"><title>33 emails, 35 repo event, 0 wiki edits in Apr 2019</title></rect><rect x="130" y="6" width="15" height="15" class="high"><title>52 emails, 71 repo event, 0 wiki edits in May 2019</title></rect><rect x="150" y="6" width="15" height="15" class="high"><title>88 emails, 62 repo event, 0 wiki edits in Jun 2019</title></rect><rect x="170" y="6" width="15" height="15" class="high"><title>49 emails, 80 repo event, 0 wiki edits in Jul 2019</title></rect><rect x="190" y="6" width="15" height="15" class="high"><title>39 emails, 52 repo event, 0 wiki edits in Aug 2019</title></rect><rect x="210" y="6" width="15" height="15" class="high"><title>60 emails, 91 repo event, 0 wiki edits in Sep 2019</title></rect><rect x="230" y="6" width="15" height="15" class="high"><title>76 emails, 72 repo event, 0 wiki edits in Oct 2019</title></rect><rect x="250" y="6" width="15" height="15" class="medium"><title>41 emails, 32 repo event, 0 wiki edits in Nov 2019</title></rect><rect x="270" y="6" width="15" height="15" class="medium"><title>30 emails, 30 repo event, 0 wiki edits in Dec 2019</title></rect></g>
<g transform="translate(0 240)">
  <title>Activity in 2020</title>
  <text x="2" y="20">2020</text><rect x="50" y="6" width="15" height="15" class="medium"><title>24 emails, 24 repo event, 0 wiki edits in Jan 2020</title></rect><rect x="70" y="6" width="15" height="15" class="medium"><title>20 emails, 16 repo event, 0 wiki edits in Feb 2020</title></rect><rect x="90" y="6" width="15" height="15" class="high"><title>30 emails, 81 repo event, 0 wiki edits in Mar 2020</title></rect><rect x="110" y="6" width="15" height="15" class="medium"><title>29 emails, 29 repo event, 0 wiki edits in Apr 2020</title></rect><rect x="130" y="6" width="15" height="15" class="medium"><title>45 emails, 29 repo event, 0 wiki edits in May 2020</title></rect><rect x="150" y="6" width="15" height="15" class="medium"><title>33 emails, 43 repo event, 0 wiki edits in Jun 2020</title></rect><rect x="170" y="6" width="15" height="15" class="medium"><title>29 emails, 23 repo event, 0 wiki edits in Jul 2020</title></rect><rect x="190" y="6" width="15" height="15" class="medium"><title>18 emails, 19 repo event, 0 wiki edits in Aug 2020</title></rect><rect x="210" y="6" width="15" height="15" class="medium"><title>13 emails, 32 repo event, 0 wiki edits in Sep 2020</title></rect><rect x="230" y="6" width="15" height="15" class="medium"><title>19 emails, 42 repo event, 0 wiki edits in Oct 2020</title></rect></g><text style="font-size: 10px; text-align: center" x="53" y="270">J</text><text style="font-size: 10px; text-align: center" x="73" y="270">F</text><text style="font-size: 10px; text-align: center" x="93" y="270">M</text><text style="font-size: 10px; text-align: center" x="113" y="270">A</text><text style="font-size: 10px; text-align: center" x="133" y="270">M</text><text style="font-size: 10px; text-align: center" x="153" y="270">J</text><text style="font-size: 10px; text-align: center" x="173" y="270">J</text><text style="font-size: 10px; text-align: center" x="193" y="270">A</text><text style="font-size: 10px; text-align: center" x="213" y="270">S</text><text style="font-size: 10px; text-align: center" x="233" y="270">O</text><text style="font-size: 10px; text-align: center" x="253" y="270">N</text><text style="font-size: 10px; text-align: center" x="273" y="270">D</text><text style="font-size: 10px;" x="150" y="290">Less</text><rect class="none" width="10" height="10" x="180" y="280"></rect><rect class="low" width="10" height="10" x="195" y="280"></rect><rect class="medium" width="10" height="10" x="210" y="280"></rect><rect class="high" width="10" height="10" x="225" y="280"></rect><text x="240" y="290" style="font-size: 10px;">More</text></svg>