<svg xmlns="http://www.w3.org/2000/svg" width="360" height="260">
  <title>Activity of Web%20Performance%20Working%20Group</title>

<g transform="translate(0 0)">
  <title>Activity in 2010</title>
  <text x="2" y="20">2010</text><rect x="190" y="6" width="15" height="15" fill="#a5aec0"><title>36 emails, 0 repository events, 0 wiki edits in Aug 2010</title></rect><rect x="210" y="6" width="15" height="15" fill="#a5aec0"><title>38 emails, 0 repository events, 0 wiki edits in Sep 2010</title></rect><rect x="230" y="6" width="15" height="15" fill="#919fba"><title>70 emails, 0 repository events, 0 wiki edits in Oct 2010</title></rect><rect x="250" y="6" width="15" height="15" fill="#919fba"><title>55 emails, 0 repository events, 0 wiki edits in Nov 2010</title></rect><rect x="270" y="6" width="15" height="15" fill="#a5aec0"><title>42 emails, 0 repository events, 0 wiki edits in Dec 2010</title></rect></g>
<g transform="translate(0 20)">
  <title>Activity in 2011</title>
  <text x="2" y="20">2011</text><rect x="50" y="6" width="15" height="15" fill="#a5aec0"><title>41 emails, 0 repository events, 0 wiki edits in Jan 2011</title></rect><rect x="70" y="6" width="15" height="15" fill="#a5aec0"><title>42 emails, 0 repository events, 0 wiki edits in Feb 2011</title></rect><rect x="90" y="6" width="15" height="15" fill="#6882ae"><title>125 emails, 0 repository events, 0 wiki edits in Mar 2011</title></rect><rect x="110" y="6" width="15" height="15" fill="#7d90b5"><title>84 emails, 0 repository events, 0 wiki edits in Apr 2011</title></rect><rect x="130" y="6" width="15" height="15" fill="#5174a8"><title>139 emails, 0 repository events, 0 wiki edits in May 2011</title></rect><rect x="150" y="6" width="15" height="15" fill="#6882ae"><title>122 emails, 0 repository events, 0 wiki edits in Jun 2011</title></rect><rect x="170" y="6" width="15" height="15" fill="#6882ae"><title>109 emails, 0 repository events, 0 wiki edits in Jul 2011</title></rect><rect x="190" y="6" width="15" height="15" fill="#919fba"><title>55 emails, 0 repository events, 0 wiki edits in Aug 2011</title></rect><rect x="210" y="6" width="15" height="15" fill="#a5aec0"><title>47 emails, 0 repository events, 0 wiki edits in Sep 2011</title></rect><rect x="230" y="6" width="15" height="15" fill="#7d90b5"><title>95 emails, 0 repository events, 0 wiki edits in Oct 2011</title></rect><rect x="250" y="6" width="15" height="15" fill="#919fba"><title>62 emails, 0 repository events, 0 wiki edits in Nov 2011</title></rect><rect x="270" y="6" width="15" height="15" fill="#a5aec0"><title>32 emails, 0 repository events, 0 wiki edits in Dec 2011</title></rect></g>
<g transform="translate(0 40)">
  <title>Activity in 2012</title>
  <text x="2" y="20">2012</text><rect x="50" y="6" width="15" height="15" fill="#a5aec0"><title>49 emails, 0 repository events, 0 wiki edits in Jan 2012</title></rect><rect x="70" y="6" width="15" height="15" fill="#6882ae"><title>122 emails, 0 repository events, 0 wiki edits in Feb 2012</title></rect><rect x="90" y="6" width="15" height="15" fill="#a5aec0"><title>47 emails, 0 repository events, 0 wiki edits in Mar 2012</title></rect><rect x="110" y="6" width="15" height="15" fill="#7d90b5"><title>79 emails, 0 repository events, 0 wiki edits in Apr 2012</title></rect><rect x="130" y="6" width="15" height="15" fill="#5174a8"><title>127 emails, 0 repository events, 0 wiki edits in May 2012</title></rect><rect x="150" y="6" width="15" height="15" fill="#919fba"><title>55 emails, 0 repository events, 0 wiki edits in Jun 2012</title></rect><rect x="170" y="6" width="15" height="15" fill="#919fba"><title>53 emails, 0 repository events, 0 wiki edits in Jul 2012</title></rect><rect x="190" y="6" width="15" height="15" fill="#b9bdc6"><title>24 emails, 0 repository events, 0 wiki edits in Aug 2012</title></rect><rect x="210" y="6" width="15" height="15" fill="#a5aec0"><title>46 emails, 0 repository events, 0 wiki edits in Sep 2012</title></rect><rect x="230" y="6" width="15" height="15" fill="#919fba"><title>65 emails, 0 repository events, 0 wiki edits in Oct 2012</title></rect><rect x="250" y="6" width="15" height="15" fill="#a5aec0"><title>29 emails, 0 repository events, 0 wiki edits in Nov 2012</title></rect><rect x="270" y="6" width="15" height="15" fill="#a5aec0"><title>26 emails, 0 repository events, 0 wiki edits in Dec 2012</title></rect></g>
<g transform="translate(0 60)">
  <title>Activity in 2013</title>
  <text x="2" y="20">2013</text><rect x="50" y="6" width="15" height="15" fill="#a5aec0"><title>49 emails, 0 repository events, 0 wiki edits in Jan 2013</title></rect><rect x="70" y="6" width="15" height="15" fill="#919fba"><title>55 emails, 0 repository events, 0 wiki edits in Feb 2013</title></rect><rect x="90" y="6" width="15" height="15" fill="#a5aec0"><title>26 emails, 0 repository events, 0 wiki edits in Mar 2013</title></rect><rect x="110" y="6" width="15" height="15" fill="#5174a8"><title>127 emails, 0 repository events, 0 wiki edits in Apr 2013</title></rect><rect x="130" y="6" width="15" height="15" fill="#7d90b5"><title>92 emails, 0 repository events, 0 wiki edits in May 2013</title></rect><rect x="150" y="6" width="15" height="15" fill="#a5aec0"><title>41 emails, 0 repository events, 0 wiki edits in Jun 2013</title></rect><rect x="170" y="6" width="15" height="15" fill="#a5aec0"><title>40 emails, 0 repository events, 0 wiki edits in Jul 2013</title></rect><rect x="190" y="6" width="15" height="15" fill="#6882ae"><title>113 emails, 0 repository events, 0 wiki edits in Aug 2013</title></rect><rect x="210" y="6" width="15" height="15" fill="#6882ae"><title>109 emails, 0 repository events, 0 wiki edits in Sep 2013</title></rect><rect x="230" y="6" width="15" height="15" fill="#7d90b5"><title>87 emails, 0 repository events, 0 wiki edits in Oct 2013</title></rect><rect x="250" y="6" width="15" height="15" fill="#6882ae"><title>104 emails, 2 repository events, 0 wiki edits in Nov 2013</title></rect><rect x="270" y="6" width="15" height="15" fill="#6882ae"><title>110 emails, 0 repository events, 0 wiki edits in Dec 2013</title></rect></g>
<g transform="translate(0 80)">
  <title>Activity in 2014</title>
  <text x="2" y="20">2014</text><rect x="50" y="6" width="15" height="15" fill="#919fba"><title>69 emails, 0 repository events, 0 wiki edits in Jan 2014</title></rect><rect x="70" y="6" width="15" height="15" fill="#919fba"><title>62 emails, 0 repository events, 0 wiki edits in Feb 2014</title></rect><rect x="90" y="6" width="15" height="15" fill="#a5aec0"><title>36 emails, 0 repository events, 0 wiki edits in Mar 2014</title></rect><rect x="110" y="6" width="15" height="15" fill="#919fba"><title>53 emails, 0 repository events, 0 wiki edits in Apr 2014</title></rect><rect x="130" y="6" width="15" height="15" fill="#919fba"><title>64 emails, 0 repository events, 0 wiki edits in May 2014</title></rect><rect x="150" y="6" width="15" height="15" fill="#919fba"><title>56 emails, 0 repository events, 0 wiki edits in Jun 2014</title></rect><rect x="170" y="6" width="15" height="15" fill="#6882ae"><title>123 emails, 0 repository events, 0 wiki edits in Jul 2014</title></rect><rect x="190" y="6" width="15" height="15" fill="#919fba"><title>67 emails, 2 repository events, 0 wiki edits in Aug 2014</title></rect><rect x="210" y="6" width="15" height="15" fill="#919fba"><title>55 emails, 9 repository events, 0 wiki edits in Sep 2014</title></rect><rect x="230" y="6" width="15" height="15" fill="#3667a2"><title>136 emails, 33 repository events, 0 wiki edits in Oct 2014</title></rect><rect x="250" y="6" width="15" height="15" fill="#919fba"><title>43 emails, 25 repository events, 0 wiki edits in Nov 2014</title></rect><rect x="270" y="6" width="15" height="15" fill="#919fba"><title>41 emails, 11 repository events, 0 wiki edits in Dec 2014</title></rect></g>
<g transform="translate(0 100)">
  <title>Activity in 2015</title>
  <text x="2" y="20">2015</text><rect x="50" y="6" width="15" height="15" fill="#7d90b5"><title>74 emails, 13 repository events, 0 wiki edits in Jan 2015</title></rect><rect x="70" y="6" width="15" height="15" fill="#5174a8"><title>76 emails, 50 repository events, 0 wiki edits in Feb 2015</title></rect><rect x="90" y="6" width="15" height="15" fill="#7d90b5"><title>47 emails, 47 repository events, 0 wiki edits in Mar 2015</title></rect><rect x="110" y="6" width="15" height="15" fill="#7d90b5"><title>31 emails, 58 repository events, 0 wiki edits in Apr 2015</title></rect><rect x="130" y="6" width="15" height="15" fill="#919fba"><title>37 emails, 27 repository events, 0 wiki edits in May 2015</title></rect><rect x="150" y="6" width="15" height="15" fill="#005a9c"><title>131 emails, 60 repository events, 0 wiki edits in Jun 2015</title></rect><rect x="170" y="6" width="15" height="15" fill="#6882ae"><title>17 emails, 100 repository events, 0 wiki edits in Jul 2015</title></rect><rect x="190" y="6" width="15" height="15" fill="#a5aec0"><title>18 emails, 18 repository events, 0 wiki edits in Aug 2015</title></rect><rect x="210" y="6" width="15" height="15" fill="#919fba"><title>15 emails, 53 repository events, 0 wiki edits in Sep 2015</title></rect><rect x="230" y="6" width="15" height="15" fill="#919fba"><title>28 emails, 45 repository events, 0 wiki edits in Oct 2015</title></rect><rect x="250" y="6" width="15" height="15" fill="#919fba"><title>13 emails, 43 repository events, 0 wiki edits in Nov 2015</title></rect><rect x="270" y="6" width="15" height="15" fill="#b9bdc6"><title>4 emails, 12 repository events, 0 wiki edits in Dec 2015</title></rect></g>
<g transform="translate(0 120)">
  <title>Activity in 2016</title>
  <text x="2" y="20">2016</text><rect x="50" y="6" width="15" height="15" fill="#a5aec0"><title>6 emails, 34 repository events, 0 wiki edits in Jan 2016</title></rect><rect x="70" y="6" width="15" height="15" fill="#a5aec0"><title>3 emails, 29 repository events, 0 wiki edits in Feb 2016</title></rect><rect x="90" y="6" width="15" height="15" fill="#b9bdc6"><title>6 emails, 13 repository events, 0 wiki edits in Mar 2016</title></rect><rect x="110" y="6" width="15" height="15" fill="#a5aec0"><title>12 emails, 27 repository events, 0 wiki edits in Apr 2016</title></rect><rect x="130" y="6" width="15" height="15" fill="#919fba"><title>31 emails, 31 repository events, 0 wiki edits in May 2016</title></rect><rect x="150" y="6" width="15" height="15" fill="#a5aec0"><title>18 emails, 31 repository events, 0 wiki edits in Jun 2016</title></rect><rect x="170" y="6" width="15" height="15" fill="#b9bdc6"><title>6 emails, 18 repository events, 0 wiki edits in Jul 2016</title></rect><rect x="190" y="6" width="15" height="15" fill="#a5aec0"><title>22 emails, 21 repository events, 0 wiki edits in Aug 2016</title></rect><rect x="210" y="6" width="15" height="15" fill="#a5aec0"><title>13 emails, 25 repository events, 0 wiki edits in Sep 2016</title></rect><rect x="230" y="6" width="15" height="15" fill="#a5aec0"><title>9 emails, 39 repository events, 0 wiki edits in Oct 2016</title></rect><rect x="250" y="6" width="15" height="15" fill="#919fba"><title>10 emails, 43 repository events, 0 wiki edits in Nov 2016</title></rect><rect x="270" y="6" width="15" height="15" fill="#919fba"><title>18 emails, 33 repository events, 0 wiki edits in Dec 2016</title></rect></g>
<g transform="translate(0 140)">
  <title>Activity in 2017</title>
  <text x="2" y="20">2017</text><rect x="50" y="6" width="15" height="15" fill="#a5aec0"><title>9 emails, 36 repository events, 0 wiki edits in Jan 2017</title></rect><rect x="70" y="6" width="15" height="15" fill="#919fba"><title>15 emails, 59 repository events, 0 wiki edits in Feb 2017</title></rect><rect x="90" y="6" width="15" height="15" fill="#919fba"><title>29 emails, 30 repository events, 0 wiki edits in Mar 2017</title></rect><rect x="110" y="6" width="15" height="15" fill="#a5aec0"><title>18 emails, 30 repository events, 0 wiki edits in Apr 2017</title></rect><rect x="130" y="6" width="15" height="15" fill="#919fba"><title>26 emails, 45 repository events, 0 wiki edits in May 2017</title></rect><rect x="150" y="6" width="15" height="15" fill="#919fba"><title>11 emails, 41 repository events, 0 wiki edits in Jun 2017</title></rect><rect x="170" y="6" width="15" height="15" fill="#7d90b5"><title>11 emails, 65 repository events, 0 wiki edits in Jul 2017</title></rect><rect x="190" y="6" width="15" height="15" fill="#919fba"><title>11 emails, 45 repository events, 0 wiki edits in Aug 2017</title></rect><rect x="210" y="6" width="15" height="15" fill="#919fba"><title>10 emails, 44 repository events, 0 wiki edits in Sep 2017</title></rect><rect x="230" y="6" width="15" height="15" fill="#919fba"><title>21 emails, 54 repository events, 0 wiki edits in Oct 2017</title></rect><rect x="250" y="6" width="15" height="15" fill="#7d90b5"><title>14 emails, 66 repository events, 0 wiki edits in Nov 2017</title></rect><rect x="270" y="6" width="15" height="15" fill="#919fba"><title>18 emails, 35 repository events, 0 wiki edits in Dec 2017</title></rect></g>
<g transform="translate(0 160)">
  <title>Activity in 2018</title>
  <text x="2" y="20">2018</text><rect x="50" y="6" width="15" height="15" fill="#7d90b5"><title>40 emails, 49 repository events, 0 wiki edits in Jan 2018</title></rect><rect x="70" y="6" width="15" height="15" fill="#a5aec0"><title>23 emails, 17 repository events, 0 wiki edits in Feb 2018</title></rect><rect x="90" y="6" width="15" height="15" fill="#a5aec0"><title>18 emails, 12 repository events, 0 wiki edits in Mar 2018</title></rect><rect x="110" y="6" width="15" height="15" fill="#a5aec0"><title>5 emails, 28 repository events, 0 wiki edits in Apr 2018</title></rect><rect x="130" y="6" width="15" height="15" fill="#a5aec0"><title>13 emails, 34 repository events, 0 wiki edits in May 2018</title></rect><rect x="150" y="6" width="15" height="15" fill="#7d90b5"><title>21 emails, 77 repository events, 0 wiki edits in Jun 2018</title></rect><rect x="170" y="6" width="15" height="15" fill="#919fba"><title>10 emails, 58 repository events, 0 wiki edits in Jul 2018</title></rect><rect x="190" y="6" width="15" height="15" fill="#a5aec0"><title>15 emails, 26 repository events, 0 wiki edits in Aug 2018</title></rect><rect x="210" y="6" width="15" height="15" fill="#a5aec0"><title>21 emails, 21 repository events, 0 wiki edits in Sep 2018</title></rect><rect x="230" y="6" width="15" height="15" fill="#7d90b5"><title>29 emails, 63 repository events, 0 wiki edits in Oct 2018</title></rect><rect x="250" y="6" width="15" height="15" fill="#7d90b5"><title>14 emails, 64 repository events, 0 wiki edits in Nov 2018</title></rect><rect x="270" y="6" width="15" height="15" fill="#a5aec0"><title>10 emails, 34 repository events, 0 wiki edits in Dec 2018</title></rect></g>
<g transform="translate(0 180)">
  <title>Activity in 2019</title>
  <text x="2" y="20">2019</text><rect x="50" y="6" width="15" height="15" fill="#919fba"><title>13 emails, 48 repository events, 0 wiki edits in Jan 2019</title></rect><rect x="70" y="6" width="15" height="15" fill="#a5aec0"><title>4 emails, 33 repository events, 0 wiki edits in Feb 2019</title></rect><rect x="90" y="6" width="15" height="15" fill="#a5aec0"><title>14 emails, 28 repository events, 0 wiki edits in Mar 2019</title></rect><rect x="110" y="6" width="15" height="15" fill="#919fba"><title>33 emails, 33 repository events, 0 wiki edits in Apr 2019</title></rect><rect x="130" y="6" width="15" height="15" fill="#a5aec0"><title>18 emails, 30 repository events, 0 wiki edits in May 2019</title></rect><rect x="150" y="6" width="15" height="15" fill="#6882ae"><title>13 emails, 98 repository events, 0 wiki edits in Jun 2019</title></rect><rect x="170" y="6" width="15" height="15" fill="#919fba"><title>8 emails, 51 repository events, 0 wiki edits in Jul 2019</title></rect><rect x="190" y="6" width="15" height="15" fill="#a5aec0"><title>9 emails, 29 repository events, 0 wiki edits in Aug 2019</title></rect><rect x="210" y="6" width="15" height="15" fill="#a5aec0"><title>7 emails, 35 repository events, 0 wiki edits in Sep 2019</title></rect><rect x="230" y="6" width="15" height="15" fill="#919fba"><title>19 emails, 32 repository events, 0 wiki edits in Oct 2019</title></rect><rect x="250" y="6" width="15" height="15" fill="#a5aec0"><title>12 emails, 34 repository events, 0 wiki edits in Nov 2019</title></rect><rect x="270" y="6" width="15" height="15" fill="#a5aec0"><title>10 emails, 29 repository events, 0 wiki edits in Dec 2019</title></rect></g>
<g transform="translate(0 200)">
  <title>Activity in 2020</title>
  <text x="2" y="20">2020</text><rect x="50" y="6" width="15" height="15" fill="#a5aec0"><title>8 emails, 35 repository events, 0 wiki edits in Jan 2020</title></rect><rect x="70" y="6" width="15" height="15" fill="#a5aec0"><title>15 emails, 20 repository events, 0 wiki edits in Feb 2020</title></rect><rect x="90" y="6" width="15" height="15" fill="#6882ae"><title>20 emails, 84 repository events, 0 wiki edits in Mar 2020</title></rect><rect x="110" y="6" width="15" height="15" fill="#919fba"><title>16 emails, 50 repository events, 0 wiki edits in Apr 2020</title></rect><rect x="130" y="6" width="15" height="15" fill="#b9bdc6"><title>13 emails, 9 repository events, 0 wiki edits in May 2020</title></rect><rect x="150" y="6" width="15" height="15" fill="#a5aec0"><title>11 emails, 15 repository events, 0 wiki edits in Jun 2020</title></rect><rect x="170" y="6" width="15" height="15" fill="#a5aec0"><title>15 emails, 21 repository events, 0 wiki edits in Jul 2020</title></rect><rect x="190" y="6" width="15" height="15" fill="#919fba"><title>45 emails, 23 repository events, 0 wiki edits in Aug 2020</title></rect><rect x="210" y="6" width="15" height="15" fill="#919fba"><title>24 emails, 38 repository events, 0 wiki edits in Sep 2020</title></rect><rect x="230" y="6" width="15" height="15" fill="#a5aec0"><title>12 emails, 22 repository events, 0 wiki edits in Oct 2020</title></rect><rect x="250" y="6" width="15" height="15" fill="#a5aec0"><title>9 emails, 19 repository events, 0 wiki edits in Nov 2020</title></rect><rect x="270" y="6" width="15" height="15" fill="#b9bdc6"><title>10 emails, 4 repository events, 0 wiki edits in Dec 2020</title></rect></g>
<g transform="translate(0 220)">
  <title>Activity in 2021</title>
  <text x="2" y="20">2021</text><rect x="50" y="6" width="15" height="15" fill="#a5aec0"><title>8 emails, 27 repository events, 0 wiki edits in Jan 2021</title></rect><rect x="70" y="6" width="15" height="15" fill="#a5aec0"><title>18 emails, 32 repository events, 0 wiki edits in Feb 2021</title></rect><rect x="90" y="6" width="15" height="15" fill="#a5aec0"><title>16 emails, 32 repository events, 0 wiki edits in Mar 2021</title></rect><rect x="110" y="6" width="15" height="15" fill="#a5aec0"><title>21 emails, 25 repository events, 0 wiki edits in Apr 2021</title></rect><rect x="130" y="6" width="15" height="15" fill="#a5aec0"><title>11 emails, 23 repository events, 0 wiki edits in May 2021</title></rect><rect x="150" y="6" width="15" height="15" fill="#7d90b5"><title>15 emails, 70 repository events, 0 wiki edits in Jun 2021</title></rect><rect x="170" y="6" width="15" height="15" fill="#a5aec0"><title>10 emails, 36 repository events, 0 wiki edits in Jul 2021</title></rect><rect x="190" y="6" width="15" height="15" fill="#b9bdc6"><title>7 emails, 11 repository events, 0 wiki edits in Aug 2021</title></rect><rect x="210" y="6" width="15" height="15" fill="#919fba"><title>12 emails, 45 repository events, 0 wiki edits in Sep 2021</title></rect><rect x="230" y="6" width="15" height="15" fill="#919fba"><title>9 emails, 49 repository events, 0 wiki edits in Oct 2021</title></rect><rect x="250" y="6" width="15" height="15" fill="#a5aec0"><title>12 emails, 17 repository events, 0 wiki edits in Nov 2021</title></rect><rect x="270" y="6" width="15" height="15" fill="#b9bdc6"><title>6 emails, 9 repository events, 0 wiki edits in Dec 2021</title></rect></g><text style="font-size: 10px; text-align: center" x="53" y="250">J</text><text style="font-size: 10px; text-align: center" x="73" y="250">F</text><text style="font-size: 10px; text-align: center" x="93" y="250">M</text><text style="font-size: 10px; text-align: center" x="113" y="250">A</text><text style="font-size: 10px; text-align: center" x="133" y="250">M</text><text style="font-size: 10px; text-align: center" x="153" y="250">J</text><text style="font-size: 10px; text-align: center" x="173" y="250">J</text><text style="font-size: 10px; text-align: center" x="193" y="250">A</text><text style="font-size: 10px; text-align: center" x="213" y="250">S</text><text style="font-size: 10px; text-align: center" x="233" y="250">O</text><text style="font-size: 10px; text-align: center" x="253" y="250">N</text><text style="font-size: 10px; text-align: center" x="273" y="250">D</text><text style="font-size: 10px;" x="155" y="269">Less</text><rect fill="#b9bdc6" width="10" height="10" x="180" y="260"><title>No activity in the period</title></rect><rect fill="#919fba" width="10" height="10" x="195" y="260"><title>Low activity in the period</title></rect><rect fill="#6882ae" width="10" height="10" x="210" y="260"><title>Medium activity in the period</title></rect><rect fill="#005a9c" width="10" height="10" x="225" y="260"><title>High activity in period</title></rect><text x="240" y="269" style="font-size: 10px;">More</text></svg>