<svg xmlns="http://www.w3.org/2000/svg">
  <title>Activity of Web%20Real-Time%20Communications%20Working%20Group</title>
  <style type="text/css">.none { fill: #aaa;}
  .low { fill: #8ac;}
  .medium { fill: #49a;}
  .high { fill: #159;}
  </style>

<g transform="translate(0 0)">
  <title>Activity in 2011</title>
  <text x="2" y="20">2011</text><rect x="130" y="6" width="15" height="15" class="medium"><title>23 emails, 0 repo event, 0 wiki edits in May 2011</title></rect><rect x="150" y="6" width="15" height="15" class="medium"><title>46 emails, 0 repo event, 0 wiki edits in Jun 2011</title></rect><rect x="170" y="6" width="15" height="15" class="high"><title>171 emails, 0 repo event, 0 wiki edits in Jul 2011</title></rect><rect x="190" y="6" width="15" height="15" class="high"><title>142 emails, 0 repo event, 0 wiki edits in Aug 2011</title></rect><rect x="210" y="6" width="15" height="15" class="high"><title>114 emails, 0 repo event, 0 wiki edits in Sep 2011</title></rect><rect x="230" y="6" width="15" height="15" class="high"><title>120 emails, 0 repo event, 0 wiki edits in Oct 2011</title></rect><rect x="250" y="6" width="15" height="15" class="high"><title>123 emails, 0 repo event, 0 wiki edits in Nov 2011</title></rect><rect x="270" y="6" width="15" height="15" class="high"><title>106 emails, 0 repo event, 0 wiki edits in Dec 2011</title></rect></g>
<g transform="translate(0 20)">
  <title>Activity in 2012</title>
  <text x="2" y="20">2012</text><rect x="50" y="6" width="15" height="15" class="high"><title>150 emails, 0 repo event, 0 wiki edits in Jan 2012</title></rect><rect x="70" y="6" width="15" height="15" class="high"><title>240 emails, 0 repo event, 0 wiki edits in Feb 2012</title></rect><rect x="90" y="6" width="15" height="15" class="high"><title>118 emails, 0 repo event, 0 wiki edits in Mar 2012</title></rect><rect x="110" y="6" width="15" height="15" class="high"><title>91 emails, 0 repo event, 0 wiki edits in Apr 2012</title></rect><rect x="130" y="6" width="15" height="15" class="medium"><title>51 emails, 0 repo event, 0 wiki edits in May 2012</title></rect><rect x="150" y="6" width="15" height="15" class="high"><title>286 emails, 0 repo event, 0 wiki edits in Jun 2012</title></rect><rect x="170" y="6" width="15" height="15" class="medium"><title>78 emails, 0 repo event, 0 wiki edits in Jul 2012</title></rect><rect x="190" y="6" width="15" height="15" class="high"><title>272 emails, 0 repo event, 0 wiki edits in Aug 2012</title></rect><rect x="210" y="6" width="15" height="15" class="high"><title>215 emails, 0 repo event, 0 wiki edits in Sep 2012</title></rect><rect x="230" y="6" width="15" height="15" class="high"><title>153 emails, 0 repo event, 0 wiki edits in Oct 2012</title></rect><rect x="250" y="6" width="15" height="15" class="high"><title>139 emails, 0 repo event, 0 wiki edits in Nov 2012</title></rect><rect x="270" y="6" width="15" height="15" class="high"><title>129 emails, 0 repo event, 0 wiki edits in Dec 2012</title></rect></g>
<g transform="translate(0 40)">
  <title>Activity in 2013</title>
  <text x="2" y="20">2013</text><rect x="50" y="6" width="15" height="15" class="high"><title>127 emails, 0 repo event, 0 wiki edits in Jan 2013</title></rect><rect x="70" y="6" width="15" height="15" class="high"><title>99 emails, 0 repo event, 0 wiki edits in Feb 2013</title></rect><rect x="90" y="6" width="15" height="15" class="medium"><title>73 emails, 0 repo event, 0 wiki edits in Mar 2013</title></rect><rect x="110" y="6" width="15" height="15" class="high"><title>136 emails, 0 repo event, 0 wiki edits in Apr 2013</title></rect><rect x="130" y="6" width="15" height="15" class="high"><title>80 emails, 0 repo event, 0 wiki edits in May 2013</title></rect><rect x="150" y="6" width="15" height="15" class="high"><title>263 emails, 0 repo event, 0 wiki edits in Jun 2013</title></rect><rect x="170" y="6" width="15" height="15" class="high"><title>700 emails, 0 repo event, 0 wiki edits in Jul 2013</title></rect><rect x="190" y="6" width="15" height="15" class="medium"><title>68 emails, 0 repo event, 0 wiki edits in Aug 2013</title></rect><rect x="210" y="6" width="15" height="15" class="high"><title>87 emails, 0 repo event, 0 wiki edits in Sep 2013</title></rect><rect x="230" y="6" width="15" height="15" class="high"><title>121 emails, 0 repo event, 0 wiki edits in Oct 2013</title></rect><rect x="250" y="6" width="15" height="15" class="high"><title>223 emails, 0 repo event, 0 wiki edits in Nov 2013</title></rect><rect x="270" y="6" width="15" height="15" class="high"><title>131 emails, 0 repo event, 0 wiki edits in Dec 2013</title></rect></g>
<g transform="translate(0 60)">
  <title>Activity in 2014</title>
  <text x="2" y="20">2014</text><rect x="50" y="6" width="15" height="15" class="high"><title>290 emails, 0 repo event, 0 wiki edits in Jan 2014</title></rect><rect x="70" y="6" width="15" height="15" class="high"><title>134 emails, 0 repo event, 0 wiki edits in Feb 2014</title></rect><rect x="90" y="6" width="15" height="15" class="high"><title>105 emails, 0 repo event, 0 wiki edits in Mar 2014</title></rect><rect x="110" y="6" width="15" height="15" class="high"><title>110 emails, 0 repo event, 0 wiki edits in Apr 2014</title></rect><rect x="130" y="6" width="15" height="15" class="high"><title>381 emails, 5 repo event, 0 wiki edits in May 2014</title></rect><rect x="150" y="6" width="15" height="15" class="high"><title>130 emails, 10 repo event, 0 wiki edits in Jun 2014</title></rect><rect x="170" y="6" width="15" height="15" class="medium"><title>28 emails, 2 repo event, 0 wiki edits in Jul 2014</title></rect><rect x="190" y="6" width="15" height="15" class="medium"><title>38 emails, 24 repo event, 0 wiki edits in Aug 2014</title></rect><rect x="210" y="6" width="15" height="15" class="high"><title>71 emails, 63 repo event, 0 wiki edits in Sep 2014</title></rect><rect x="230" y="6" width="15" height="15" class="high"><title>185 emails, 98 repo event, 0 wiki edits in Oct 2014</title></rect><rect x="250" y="6" width="15" height="15" class="high"><title>85 emails, 140 repo event, 0 wiki edits in Nov 2014</title></rect><rect x="270" y="6" width="15" height="15" class="high"><title>115 emails, 158 repo event, 0 wiki edits in Dec 2014</title></rect></g>
<g transform="translate(0 80)">
  <title>Activity in 2015</title>
  <text x="2" y="20">2015</text><rect x="50" y="6" width="15" height="15" class="high"><title>101 emails, 109 repo event, 0 wiki edits in Jan 2015</title></rect><rect x="70" y="6" width="15" height="15" class="high"><title>86 emails, 118 repo event, 0 wiki edits in Feb 2015</title></rect><rect x="90" y="6" width="15" height="15" class="high"><title>61 emails, 40 repo event, 0 wiki edits in Mar 2015</title></rect><rect x="110" y="6" width="15" height="15" class="high"><title>202 emails, 71 repo event, 0 wiki edits in Apr 2015</title></rect><rect x="130" y="6" width="15" height="15" class="high"><title>203 emails, 33 repo event, 0 wiki edits in May 2015</title></rect><rect x="150" y="6" width="15" height="15" class="high"><title>81 emails, 73 repo event, 0 wiki edits in Jun 2015</title></rect><rect x="170" y="6" width="15" height="15" class="high"><title>113 emails, 70 repo event, 0 wiki edits in Jul 2015</title></rect><rect x="190" y="6" width="15" height="15" class="high"><title>153 emails, 61 repo event, 0 wiki edits in Aug 2015</title></rect><rect x="210" y="6" width="15" height="15" class="high"><title>134 emails, 96 repo event, 0 wiki edits in Sep 2015</title></rect><rect x="230" y="6" width="15" height="15" class="high"><title>81 emails, 119 repo event, 0 wiki edits in Oct 2015</title></rect><rect x="250" y="6" width="15" height="15" class="high"><title>39 emails, 124 repo event, 0 wiki edits in Nov 2015</title></rect><rect x="270" y="6" width="15" height="15" class="high"><title>110 emails, 129 repo event, 0 wiki edits in Dec 2015</title></rect></g>
<g transform="translate(0 100)">
  <title>Activity in 2016</title>
  <text x="2" y="20">2016</text><rect x="50" y="6" width="15" height="15" class="high"><title>117 emails, 125 repo event, 0 wiki edits in Jan 2016</title></rect><rect x="70" y="6" width="15" height="15" class="high"><title>154 emails, 91 repo event, 0 wiki edits in Feb 2016</title></rect><rect x="90" y="6" width="15" height="15" class="high"><title>90 emails, 127 repo event, 0 wiki edits in Mar 2016</title></rect><rect x="110" y="6" width="15" height="15" class="high"><title>106 emails, 132 repo event, 0 wiki edits in Apr 2016</title></rect><rect x="130" y="6" width="15" height="15" class="high"><title>217 emails, 167 repo event, 0 wiki edits in May 2016</title></rect><rect x="150" y="6" width="15" height="15" class="high"><title>109 emails, 116 repo event, 0 wiki edits in Jun 2016</title></rect><rect x="170" y="6" width="15" height="15" class="medium"><title>14 emails, 47 repo event, 0 wiki edits in Jul 2016</title></rect><rect x="190" y="6" width="15" height="15" class="high"><title>119 emails, 144 repo event, 0 wiki edits in Aug 2016</title></rect><rect x="210" y="6" width="15" height="15" class="high"><title>144 emails, 160 repo event, 0 wiki edits in Sep 2016</title></rect><rect x="230" y="6" width="15" height="15" class="high"><title>127 emails, 248 repo event, 0 wiki edits in Oct 2016</title></rect><rect x="250" y="6" width="15" height="15" class="high"><title>133 emails, 175 repo event, 0 wiki edits in Nov 2016</title></rect><rect x="270" y="6" width="15" height="15" class="high"><title>79 emails, 152 repo event, 0 wiki edits in Dec 2016</title></rect></g>
<g transform="translate(0 120)">
  <title>Activity in 2017</title>
  <text x="2" y="20">2017</text><rect x="50" y="6" width="15" height="15" class="high"><title>79 emails, 131 repo event, 0 wiki edits in Jan 2017</title></rect><rect x="70" y="6" width="15" height="15" class="high"><title>72 emails, 108 repo event, 0 wiki edits in Feb 2017</title></rect><rect x="90" y="6" width="15" height="15" class="high"><title>123 emails, 171 repo event, 0 wiki edits in Mar 2017</title></rect><rect x="110" y="6" width="15" height="15" class="high"><title>92 emails, 116 repo event, 0 wiki edits in Apr 2017</title></rect><rect x="130" y="6" width="15" height="15" class="high"><title>185 emails, 276 repo event, 0 wiki edits in May 2017</title></rect><rect x="150" y="6" width="15" height="15" class="high"><title>171 emails, 248 repo event, 0 wiki edits in Jun 2017</title></rect><rect x="170" y="6" width="15" height="15" class="high"><title>99 emails, 108 repo event, 0 wiki edits in Jul 2017</title></rect><rect x="190" y="6" width="15" height="15" class="high"><title>111 emails, 130 repo event, 0 wiki edits in Aug 2017</title></rect><rect x="210" y="6" width="15" height="15" class="high"><title>81 emails, 107 repo event, 0 wiki edits in Sep 2017</title></rect><rect x="230" y="6" width="15" height="15" class="high"><title>94 emails, 117 repo event, 0 wiki edits in Oct 2017</title></rect><rect x="250" y="6" width="15" height="15" class="high"><title>62 emails, 57 repo event, 0 wiki edits in Nov 2017</title></rect><rect x="270" y="6" width="15" height="15" class="high"><title>50 emails, 82 repo event, 0 wiki edits in Dec 2017</title></rect></g>
<g transform="translate(0 140)">
  <title>Activity in 2018</title>
  <text x="2" y="20">2018</text><rect x="50" y="6" width="15" height="15" class="high"><title>296 emails, 142 repo event, 0 wiki edits in Jan 2018</title></rect><rect x="70" y="6" width="15" height="15" class="high"><title>86 emails, 113 repo event, 0 wiki edits in Feb 2018</title></rect><rect x="90" y="6" width="15" height="15" class="high"><title>135 emails, 99 repo event, 0 wiki edits in Mar 2018</title></rect><rect x="110" y="6" width="15" height="15" class="high"><title>117 emails, 80 repo event, 0 wiki edits in Apr 2018</title></rect><rect x="130" y="6" width="15" height="15" class="high"><title>165 emails, 57 repo event, 0 wiki edits in May 2018</title></rect><rect x="150" y="6" width="15" height="15" class="high"><title>209 emails, 94 repo event, 0 wiki edits in Jun 2018</title></rect><rect x="170" y="6" width="15" height="15" class="high"><title>90 emails, 65 repo event, 0 wiki edits in Jul 2018</title></rect><rect x="190" y="6" width="15" height="15" class="high"><title>48 emails, 81 repo event, 0 wiki edits in Aug 2018</title></rect><rect x="210" y="6" width="15" height="15" class="high"><title>90 emails, 78 repo event, 0 wiki edits in Sep 2018</title></rect><rect x="230" y="6" width="15" height="15" class="high"><title>108 emails, 97 repo event, 0 wiki edits in Oct 2018</title></rect><rect x="250" y="6" width="15" height="15" class="high"><title>160 emails, 39 repo event, 0 wiki edits in Nov 2018</title></rect><rect x="270" y="6" width="15" height="15" class="high"><title>48 emails, 35 repo event, 0 wiki edits in Dec 2018</title></rect></g>
<g transform="translate(0 160)">
  <title>Activity in 2019</title>
  <text x="2" y="20">2019</text><rect x="50" y="6" width="15" height="15" class="high"><title>105 emails, 122 repo event, 0 wiki edits in Jan 2019</title></rect><rect x="70" y="6" width="15" height="15" class="high"><title>65 emails, 53 repo event, 0 wiki edits in Feb 2019</title></rect><rect x="90" y="6" width="15" height="15" class="high"><title>91 emails, 111 repo event, 0 wiki edits in Mar 2019</title></rect><rect x="110" y="6" width="15" height="15" class="high"><title>95 emails, 113 repo event, 0 wiki edits in Apr 2019</title></rect><rect x="130" y="6" width="15" height="15" class="high"><title>63 emails, 77 repo event, 0 wiki edits in May 2019</title></rect><rect x="150" y="6" width="15" height="15" class="high"><title>72 emails, 82 repo event, 0 wiki edits in Jun 2019</title></rect><rect x="170" y="6" width="15" height="15" class="high"><title>80 emails, 92 repo event, 0 wiki edits in Jul 2019</title></rect><rect x="190" y="6" width="15" height="15" class="high"><title>97 emails, 132 repo event, 0 wiki edits in Aug 2019</title></rect><rect x="210" y="6" width="15" height="15" class="high"><title>98 emails, 145 repo event, 0 wiki edits in Sep 2019</title></rect><rect x="230" y="6" width="15" height="15" class="high"><title>107 emails, 104 repo event, 0 wiki edits in Oct 2019</title></rect><rect x="250" y="6" width="15" height="15" class="high"><title>84 emails, 128 repo event, 0 wiki edits in Nov 2019</title></rect><rect x="270" y="6" width="15" height="15" class="high"><title>66 emails, 84 repo event, 0 wiki edits in Dec 2019</title></rect></g>
<g transform="translate(0 180)">
  <title>Activity in 2020</title>
  <text x="2" y="20">2020</text><rect x="50" y="6" width="15" height="15" class="high"><title>102 emails, 122 repo event, 0 wiki edits in Jan 2020</title></rect><rect x="70" y="6" width="15" height="15" class="high"><title>74 emails, 88 repo event, 0 wiki edits in Feb 2020</title></rect><rect x="90" y="6" width="15" height="15" class="high"><title>55 emails, 76 repo event, 0 wiki edits in Mar 2020</title></rect><rect x="110" y="6" width="15" height="15" class="high"><title>76 emails, 113 repo event, 0 wiki edits in Apr 2020</title></rect><rect x="130" y="6" width="15" height="15" class="high"><title>44 emails, 71 repo event, 0 wiki edits in May 2020</title></rect><rect x="150" y="6" width="15" height="15" class="high"><title>69 emails, 81 repo event, 0 wiki edits in Jun 2020</title></rect><rect x="170" y="6" width="15" height="15" class="high"><title>54 emails, 84 repo event, 0 wiki edits in Jul 2020</title></rect><rect x="190" y="6" width="15" height="15" class="high"><title>99 emails, 117 repo event, 0 wiki edits in Aug 2020</title></rect><rect x="210" y="6" width="15" height="15" class="high"><title>75 emails, 84 repo event, 0 wiki edits in Sep 2020</title></rect><rect x="230" y="6" width="15" height="15" class="high"><title>87 emails, 71 repo event, 7 wiki edits in Oct 2020</title></rect><rect x="250" y="6" width="15" height="15" class="medium"><title>30 emails, 37 repo event, 3 wiki edits in Nov 2020</title></rect></g><text style="font-size: 10px; text-align: center" x="53" y="210">J</text><text style="font-size: 10px; text-align: center" x="73" y="210">F</text><text style="font-size: 10px; text-align: center" x="93" y="210">M</text><text style="font-size: 10px; text-align: center" x="113" y="210">A</text><text style="font-size: 10px; text-align: center" x="133" y="210">M</text><text style="font-size: 10px; text-align: center" x="153" y="210">J</text><text style="font-size: 10px; text-align: center" x="173" y="210">J</text><text style="font-size: 10px; text-align: center" x="193" y="210">A</text><text style="font-size: 10px; text-align: center" x="213" y="210">S</text><text style="font-size: 10px; text-align: center" x="233" y="210">O</text><text style="font-size: 10px; text-align: center" x="253" y="210">N</text><text style="font-size: 10px; text-align: center" x="273" y="210">D</text><text style="font-size: 10px;" x="150" y="230">Less</text><rect class="none" width="10" height="10" x="180" y="220"></rect><rect class="low" width="10" height="10" x="195" y="220"></rect><rect class="medium" width="10" height="10" x="210" y="220"></rect><rect class="high" width="10" height="10" x="225" y="220"></rect><text x="240" y="230" style="font-size: 10px;">More</text></svg>