<svg xmlns="http://www.w3.org/2000/svg" width="360" height="320">
  <title>Activity of Web%20Real-Time%20Communications%20Working%20Group</title>

<g transform="translate(0 0)">
  <title>Activity in 2011</title>
  <text x="2" y="20">2011</text><rect x="130" y="6" width="15" height="15" fill="#b9bdc6"><title>23 emails, 0 repository events, 0 wiki edits in May 2011</title></rect><rect x="150" y="6" width="15" height="15" fill="#a5aec0"><title>46 emails, 0 repository events, 0 wiki edits in Jun 2011</title></rect><rect x="170" y="6" width="15" height="15" fill="#3667a2"><title>171 emails, 0 repository events, 0 wiki edits in Jul 2011</title></rect><rect x="190" y="6" width="15" height="15" fill="#5174a8"><title>142 emails, 0 repository events, 0 wiki edits in Aug 2011</title></rect><rect x="210" y="6" width="15" height="15" fill="#6882ae"><title>114 emails, 0 repository events, 0 wiki edits in Sep 2011</title></rect><rect x="230" y="6" width="15" height="15" fill="#6882ae"><title>120 emails, 0 repository events, 0 wiki edits in Oct 2011</title></rect><rect x="250" y="6" width="15" height="15" fill="#6882ae"><title>123 emails, 0 repository events, 0 wiki edits in Nov 2011</title></rect><rect x="270" y="6" width="15" height="15" fill="#6882ae"><title>106 emails, 0 repository events, 0 wiki edits in Dec 2011</title></rect></g>
<g transform="translate(0 20)">
  <title>Activity in 2012</title>
  <text x="2" y="20">2012</text><rect x="50" y="6" width="15" height="15" fill="#5174a8"><title>150 emails, 0 repository events, 0 wiki edits in Jan 2012</title></rect><rect x="70" y="6" width="15" height="15" fill="#005a9c"><title>240 emails, 0 repository events, 0 wiki edits in Feb 2012</title></rect><rect x="90" y="6" width="15" height="15" fill="#6882ae"><title>118 emails, 0 repository events, 0 wiki edits in Mar 2012</title></rect><rect x="110" y="6" width="15" height="15" fill="#7d90b5"><title>91 emails, 0 repository events, 0 wiki edits in Apr 2012</title></rect><rect x="130" y="6" width="15" height="15" fill="#919fba"><title>51 emails, 0 repository events, 0 wiki edits in May 2012</title></rect><rect x="150" y="6" width="15" height="15" fill="#005a9c"><title>286 emails, 0 repository events, 0 wiki edits in Jun 2012</title></rect><rect x="170" y="6" width="15" height="15" fill="#7d90b5"><title>78 emails, 0 repository events, 0 wiki edits in Jul 2012</title></rect><rect x="190" y="6" width="15" height="15" fill="#005a9c"><title>272 emails, 0 repository events, 0 wiki edits in Aug 2012</title></rect><rect x="210" y="6" width="15" height="15" fill="#005a9c"><title>215 emails, 0 repository events, 0 wiki edits in Sep 2012</title></rect><rect x="230" y="6" width="15" height="15" fill="#3667a2"><title>153 emails, 0 repository events, 0 wiki edits in Oct 2012</title></rect><rect x="250" y="6" width="15" height="15" fill="#5174a8"><title>139 emails, 0 repository events, 0 wiki edits in Nov 2012</title></rect><rect x="270" y="6" width="15" height="15" fill="#5174a8"><title>129 emails, 0 repository events, 0 wiki edits in Dec 2012</title></rect></g>
<g transform="translate(0 40)">
  <title>Activity in 2013</title>
  <text x="2" y="20">2013</text><rect x="50" y="6" width="15" height="15" fill="#5174a8"><title>127 emails, 0 repository events, 0 wiki edits in Jan 2013</title></rect><rect x="70" y="6" width="15" height="15" fill="#7d90b5"><title>99 emails, 0 repository events, 0 wiki edits in Feb 2013</title></rect><rect x="90" y="6" width="15" height="15" fill="#919fba"><title>73 emails, 0 repository events, 0 wiki edits in Mar 2013</title></rect><rect x="110" y="6" width="15" height="15" fill="#5174a8"><title>136 emails, 0 repository events, 0 wiki edits in Apr 2013</title></rect><rect x="130" y="6" width="15" height="15" fill="#7d90b5"><title>78 emails, 0 repository events, 0 wiki edits in May 2013</title></rect><rect x="150" y="6" width="15" height="15" fill="#005a9c"><title>263 emails, 0 repository events, 0 wiki edits in Jun 2013</title></rect><rect x="170" y="6" width="15" height="15" fill="#005a9c"><title>700 emails, 0 repository events, 0 wiki edits in Jul 2013</title></rect><rect x="190" y="6" width="15" height="15" fill="#919fba"><title>68 emails, 0 repository events, 0 wiki edits in Aug 2013</title></rect><rect x="210" y="6" width="15" height="15" fill="#7d90b5"><title>86 emails, 0 repository events, 0 wiki edits in Sep 2013</title></rect><rect x="230" y="6" width="15" height="15" fill="#6882ae"><title>121 emails, 0 repository events, 0 wiki edits in Oct 2013</title></rect><rect x="250" y="6" width="15" height="15" fill="#005a9c"><title>223 emails, 0 repository events, 0 wiki edits in Nov 2013</title></rect><rect x="270" y="6" width="15" height="15" fill="#5174a8"><title>131 emails, 0 repository events, 0 wiki edits in Dec 2013</title></rect></g>
<g transform="translate(0 60)">
  <title>Activity in 2014</title>
  <text x="2" y="20">2014</text><rect x="50" y="6" width="15" height="15" fill="#005a9c"><title>290 emails, 0 repository events, 0 wiki edits in Jan 2014</title></rect><rect x="70" y="6" width="15" height="15" fill="#5174a8"><title>134 emails, 0 repository events, 0 wiki edits in Feb 2014</title></rect><rect x="90" y="6" width="15" height="15" fill="#6882ae"><title>105 emails, 0 repository events, 0 wiki edits in Mar 2014</title></rect><rect x="110" y="6" width="15" height="15" fill="#6882ae"><title>110 emails, 0 repository events, 0 wiki edits in Apr 2014</title></rect><rect x="130" y="6" width="15" height="15" fill="#005a9c"><title>381 emails, 0 repository events, 0 wiki edits in May 2014</title></rect><rect x="150" y="6" width="15" height="15" fill="#5174a8"><title>130 emails, 0 repository events, 0 wiki edits in Jun 2014</title></rect><rect x="170" y="6" width="15" height="15" fill="#a5aec0"><title>28 emails, 0 repository events, 0 wiki edits in Jul 2014</title></rect><rect x="190" y="6" width="15" height="15" fill="#919fba"><title>38 emails, 20 repository events, 0 wiki edits in Aug 2014</title></rect><rect x="210" y="6" width="15" height="15" fill="#6882ae"><title>71 emails, 49 repository events, 0 wiki edits in Sep 2014</title></rect><rect x="230" y="6" width="15" height="15" fill="#005a9c"><title>185 emails, 86 repository events, 0 wiki edits in Oct 2014</title></rect><rect x="250" y="6" width="15" height="15" fill="#005a9c"><title>85 emails, 129 repository events, 0 wiki edits in Nov 2014</title></rect><rect x="270" y="6" width="15" height="15" fill="#005a9c"><title>115 emails, 156 repository events, 0 wiki edits in Dec 2014</title></rect></g>
<g transform="translate(0 80)">
  <title>Activity in 2015</title>
  <text x="2" y="20">2015</text><rect x="50" y="6" width="15" height="15" fill="#3667a2"><title>101 emails, 62 repository events, 0 wiki edits in Jan 2015</title></rect><rect x="70" y="6" width="15" height="15" fill="#005a9c"><title>86 emails, 105 repository events, 0 wiki edits in Feb 2015</title></rect><rect x="90" y="6" width="15" height="15" fill="#7d90b5"><title>61 emails, 39 repository events, 0 wiki edits in Mar 2015</title></rect><rect x="110" y="6" width="15" height="15" fill="#005a9c"><title>202 emails, 69 repository events, 0 wiki edits in Apr 2015</title></rect><rect x="130" y="6" width="15" height="15" fill="#005a9c"><title>202 emails, 33 repository events, 0 wiki edits in May 2015</title></rect><rect x="150" y="6" width="15" height="15" fill="#3667a2"><title>81 emails, 70 repository events, 0 wiki edits in Jun 2015</title></rect><rect x="170" y="6" width="15" height="15" fill="#005a9c"><title>113 emails, 70 repository events, 0 wiki edits in Jul 2015</title></rect><rect x="190" y="6" width="15" height="15" fill="#005a9c"><title>153 emails, 61 repository events, 0 wiki edits in Aug 2015</title></rect><rect x="210" y="6" width="15" height="15" fill="#005a9c"><title>134 emails, 92 repository events, 0 wiki edits in Sep 2015</title></rect><rect x="230" y="6" width="15" height="15" fill="#005a9c"><title>81 emails, 117 repository events, 0 wiki edits in Oct 2015</title></rect><rect x="250" y="6" width="15" height="15" fill="#5174a8"><title>39 emails, 106 repository events, 0 wiki edits in Nov 2015</title></rect><rect x="270" y="6" width="15" height="15" fill="#005a9c"><title>110 emails, 124 repository events, 0 wiki edits in Dec 2015</title></rect></g>
<g transform="translate(0 100)">
  <title>Activity in 2016</title>
  <text x="2" y="20">2016</text><rect x="50" y="6" width="15" height="15" fill="#005a9c"><title>117 emails, 122 repository events, 0 wiki edits in Jan 2016</title></rect><rect x="70" y="6" width="15" height="15" fill="#005a9c"><title>154 emails, 83 repository events, 0 wiki edits in Feb 2016</title></rect><rect x="90" y="6" width="15" height="15" fill="#005a9c"><title>90 emails, 102 repository events, 0 wiki edits in Mar 2016</title></rect><rect x="110" y="6" width="15" height="15" fill="#005a9c"><title>106 emails, 114 repository events, 0 wiki edits in Apr 2016</title></rect><rect x="130" y="6" width="15" height="15" fill="#005a9c"><title>217 emails, 162 repository events, 0 wiki edits in May 2016</title></rect><rect x="150" y="6" width="15" height="15" fill="#005a9c"><title>109 emails, 108 repository events, 0 wiki edits in Jun 2016</title></rect><rect x="170" y="6" width="15" height="15" fill="#919fba"><title>14 emails, 46 repository events, 0 wiki edits in Jul 2016</title></rect><rect x="190" y="6" width="15" height="15" fill="#005a9c"><title>119 emails, 142 repository events, 0 wiki edits in Aug 2016</title></rect><rect x="210" y="6" width="15" height="15" fill="#005a9c"><title>144 emails, 159 repository events, 0 wiki edits in Sep 2016</title></rect><rect x="230" y="6" width="15" height="15" fill="#005a9c"><title>127 emails, 237 repository events, 0 wiki edits in Oct 2016</title></rect><rect x="250" y="6" width="15" height="15" fill="#005a9c"><title>133 emails, 152 repository events, 0 wiki edits in Nov 2016</title></rect><rect x="270" y="6" width="15" height="15" fill="#005a9c"><title>79 emails, 148 repository events, 0 wiki edits in Dec 2016</title></rect></g>
<g transform="translate(0 120)">
  <title>Activity in 2017</title>
  <text x="2" y="20">2017</text><rect x="50" y="6" width="15" height="15" fill="#005a9c"><title>79 emails, 123 repository events, 0 wiki edits in Jan 2017</title></rect><rect x="70" y="6" width="15" height="15" fill="#005a9c"><title>72 emails, 105 repository events, 0 wiki edits in Feb 2017</title></rect><rect x="90" y="6" width="15" height="15" fill="#005a9c"><title>123 emails, 160 repository events, 0 wiki edits in Mar 2017</title></rect><rect x="110" y="6" width="15" height="15" fill="#005a9c"><title>92 emails, 111 repository events, 0 wiki edits in Apr 2017</title></rect><rect x="130" y="6" width="15" height="15" fill="#005a9c"><title>185 emails, 276 repository events, 0 wiki edits in May 2017</title></rect><rect x="150" y="6" width="15" height="15" fill="#005a9c"><title>171 emails, 248 repository events, 0 wiki edits in Jun 2017</title></rect><rect x="170" y="6" width="15" height="15" fill="#005a9c"><title>99 emails, 108 repository events, 0 wiki edits in Jul 2017</title></rect><rect x="190" y="6" width="15" height="15" fill="#005a9c"><title>111 emails, 130 repository events, 0 wiki edits in Aug 2017</title></rect><rect x="210" y="6" width="15" height="15" fill="#005a9c"><title>81 emails, 107 repository events, 0 wiki edits in Sep 2017</title></rect><rect x="230" y="6" width="15" height="15" fill="#005a9c"><title>94 emails, 116 repository events, 0 wiki edits in Oct 2017</title></rect><rect x="250" y="6" width="15" height="15" fill="#6882ae"><title>62 emails, 54 repository events, 0 wiki edits in Nov 2017</title></rect><rect x="270" y="6" width="15" height="15" fill="#5174a8"><title>50 emails, 82 repository events, 0 wiki edits in Dec 2017</title></rect></g>
<g transform="translate(0 140)">
  <title>Activity in 2018</title>
  <text x="2" y="20">2018</text><rect x="50" y="6" width="15" height="15" fill="#005a9c"><title>296 emails, 142 repository events, 0 wiki edits in Jan 2018</title></rect><rect x="70" y="6" width="15" height="15" fill="#005a9c"><title>85 emails, 107 repository events, 0 wiki edits in Feb 2018</title></rect><rect x="90" y="6" width="15" height="15" fill="#005a9c"><title>135 emails, 95 repository events, 0 wiki edits in Mar 2018</title></rect><rect x="110" y="6" width="15" height="15" fill="#005a9c"><title>117 emails, 80 repository events, 0 wiki edits in Apr 2018</title></rect><rect x="130" y="6" width="15" height="15" fill="#005a9c"><title>165 emails, 57 repository events, 0 wiki edits in May 2018</title></rect><rect x="150" y="6" width="15" height="15" fill="#005a9c"><title>209 emails, 94 repository events, 0 wiki edits in Jun 2018</title></rect><rect x="170" y="6" width="15" height="15" fill="#3667a2"><title>90 emails, 65 repository events, 0 wiki edits in Jul 2018</title></rect><rect x="190" y="6" width="15" height="15" fill="#5174a8"><title>48 emails, 81 repository events, 0 wiki edits in Aug 2018</title></rect><rect x="210" y="6" width="15" height="15" fill="#3667a2"><title>90 emails, 73 repository events, 0 wiki edits in Sep 2018</title></rect><rect x="230" y="6" width="15" height="15" fill="#005a9c"><title>108 emails, 94 repository events, 0 wiki edits in Oct 2018</title></rect><rect x="250" y="6" width="15" height="15" fill="#005a9c"><title>160 emails, 39 repository events, 0 wiki edits in Nov 2018</title></rect><rect x="270" y="6" width="15" height="15" fill="#7d90b5"><title>48 emails, 35 repository events, 0 wiki edits in Dec 2018</title></rect></g>
<g transform="translate(0 160)">
  <title>Activity in 2019</title>
  <text x="2" y="20">2019</text><rect x="50" y="6" width="15" height="15" fill="#005a9c"><title>105 emails, 122 repository events, 0 wiki edits in Jan 2019</title></rect><rect x="70" y="6" width="15" height="15" fill="#6882ae"><title>65 emails, 51 repository events, 0 wiki edits in Feb 2019</title></rect><rect x="90" y="6" width="15" height="15" fill="#005a9c"><title>91 emails, 106 repository events, 0 wiki edits in Mar 2019</title></rect><rect x="110" y="6" width="15" height="15" fill="#005a9c"><title>95 emails, 111 repository events, 0 wiki edits in Apr 2019</title></rect><rect x="130" y="6" width="15" height="15" fill="#5174a8"><title>63 emails, 77 repository events, 0 wiki edits in May 2019</title></rect><rect x="150" y="6" width="15" height="15" fill="#3667a2"><title>72 emails, 82 repository events, 0 wiki edits in Jun 2019</title></rect><rect x="170" y="6" width="15" height="15" fill="#3667a2"><title>80 emails, 91 repository events, 0 wiki edits in Jul 2019</title></rect><rect x="190" y="6" width="15" height="15" fill="#005a9c"><title>97 emails, 132 repository events, 0 wiki edits in Aug 2019</title></rect><rect x="210" y="6" width="15" height="15" fill="#005a9c"><title>98 emails, 142 repository events, 0 wiki edits in Sep 2019</title></rect><rect x="230" y="6" width="15" height="15" fill="#005a9c"><title>107 emails, 97 repository events, 0 wiki edits in Oct 2019</title></rect><rect x="250" y="6" width="15" height="15" fill="#005a9c"><title>84 emails, 127 repository events, 0 wiki edits in Nov 2019</title></rect><rect x="270" y="6" width="15" height="15" fill="#5174a8"><title>66 emails, 84 repository events, 0 wiki edits in Dec 2019</title></rect></g>
<g transform="translate(0 180)">
  <title>Activity in 2020</title>
  <text x="2" y="20">2020</text><rect x="50" y="6" width="15" height="15" fill="#005a9c"><title>102 emails, 122 repository events, 0 wiki edits in Jan 2020</title></rect><rect x="70" y="6" width="15" height="15" fill="#3667a2"><title>74 emails, 88 repository events, 0 wiki edits in Feb 2020</title></rect><rect x="90" y="6" width="15" height="15" fill="#5174a8"><title>55 emails, 76 repository events, 0 wiki edits in Mar 2020</title></rect><rect x="110" y="6" width="15" height="15" fill="#005a9c"><title>76 emails, 113 repository events, 0 wiki edits in Apr 2020</title></rect><rect x="130" y="6" width="15" height="15" fill="#6882ae"><title>44 emails, 71 repository events, 0 wiki edits in May 2020</title></rect><rect x="150" y="6" width="15" height="15" fill="#5174a8"><title>69 emails, 81 repository events, 0 wiki edits in Jun 2020</title></rect><rect x="170" y="6" width="15" height="15" fill="#5174a8"><title>54 emails, 84 repository events, 0 wiki edits in Jul 2020</title></rect><rect x="190" y="6" width="15" height="15" fill="#005a9c"><title>99 emails, 116 repository events, 0 wiki edits in Aug 2020</title></rect><rect x="210" y="6" width="15" height="15" fill="#3667a2"><title>75 emails, 84 repository events, 0 wiki edits in Sep 2020</title></rect><rect x="230" y="6" width="15" height="15" fill="#5174a8"><title>87 emails, 57 repository events, 0 wiki edits in Oct 2020</title></rect><rect x="250" y="6" width="15" height="15" fill="#3667a2"><title>78 emails, 88 repository events, 0 wiki edits in Nov 2020</title></rect><rect x="270" y="6" width="15" height="15" fill="#6882ae"><title>58 emails, 50 repository events, 0 wiki edits in Dec 2020</title></rect></g>
<g transform="translate(0 200)">
  <title>Activity in 2021</title>
  <text x="2" y="20">2021</text><rect x="50" y="6" width="15" height="15" fill="#6882ae"><title>50 emails, 51 repository events, 0 wiki edits in Jan 2021</title></rect><rect x="70" y="6" width="15" height="15" fill="#6882ae"><title>55 emails, 51 repository events, 0 wiki edits in Feb 2021</title></rect><rect x="90" y="6" width="15" height="15" fill="#005a9c"><title>87 emails, 117 repository events, 0 wiki edits in Mar 2021</title></rect><rect x="110" y="6" width="15" height="15" fill="#6882ae"><title>60 emails, 60 repository events, 0 wiki edits in Apr 2021</title></rect><rect x="130" y="6" width="15" height="15" fill="#5174a8"><title>65 emails, 78 repository events, 0 wiki edits in May 2021</title></rect><rect x="150" y="6" width="15" height="15" fill="#005a9c"><title>113 emails, 110 repository events, 0 wiki edits in Jun 2021</title></rect><rect x="170" y="6" width="15" height="15" fill="#7d90b5"><title>46 emails, 46 repository events, 0 wiki edits in Jul 2021</title></rect><rect x="190" y="6" width="15" height="15" fill="#6882ae"><title>61 emails, 52 repository events, 0 wiki edits in Aug 2021</title></rect><rect x="210" y="6" width="15" height="15" fill="#919fba"><title>48 emails, 27 repository events, 0 wiki edits in Sep 2021</title></rect><rect x="230" y="6" width="15" height="15" fill="#6882ae"><title>62 emails, 61 repository events, 0 wiki edits in Oct 2021</title></rect><rect x="250" y="6" width="15" height="15" fill="#5174a8"><title>64 emails, 76 repository events, 0 wiki edits in Nov 2021</title></rect><rect x="270" y="6" width="15" height="15" fill="#6882ae"><title>73 emails, 48 repository events, 0 wiki edits in Dec 2021</title></rect></g>
<g transform="translate(0 220)">
  <title>Activity in 2022</title>
  <text x="2" y="20">2022</text><rect x="50" y="6" width="15" height="15" fill="#005a9c"><title>113 emails, 116 repository events, 0 wiki edits in Jan 2022</title></rect><rect x="70" y="6" width="15" height="15" fill="#5174a8"><title>67 emails, 75 repository events, 0 wiki edits in Feb 2022</title></rect><rect x="90" y="6" width="15" height="15" fill="#005a9c"><title>99 emails, 140 repository events, 0 wiki edits in Mar 2022</title></rect><rect x="110" y="6" width="15" height="15" fill="#3667a2"><title>79 emails, 92 repository events, 0 wiki edits in Apr 2022</title></rect><rect x="130" y="6" width="15" height="15" fill="#005a9c"><title>79 emails, 107 repository events, 0 wiki edits in May 2022</title></rect><rect x="150" y="6" width="15" height="15" fill="#005a9c"><title>81 emails, 121 repository events, 0 wiki edits in Jun 2022</title></rect><rect x="170" y="6" width="15" height="15" fill="#7d90b5"><title>52 emails, 45 repository events, 0 wiki edits in Jul 2022</title></rect><rect x="190" y="6" width="15" height="15" fill="#7d90b5"><title>45 emails, 45 repository events, 0 wiki edits in Aug 2022</title></rect><rect x="210" y="6" width="15" height="15" fill="#005a9c"><title>103 emails, 127 repository events, 0 wiki edits in Sep 2022</title></rect><rect x="230" y="6" width="15" height="15" fill="#005a9c"><title>84 emails, 114 repository events, 0 wiki edits in Oct 2022</title></rect><rect x="250" y="6" width="15" height="15" fill="#7d90b5"><title>44 emails, 43 repository events, 0 wiki edits in Nov 2022</title></rect><rect x="270" y="6" width="15" height="15" fill="#5174a8"><title>61 emails, 85 repository events, 0 wiki edits in Dec 2022</title></rect></g>
<g transform="translate(0 240)">
  <title>Activity in 2023</title>
  <text x="2" y="20">2023</text><rect x="50" y="6" width="15" height="15" fill="#005a9c"><title>106 emails, 90 repository events, 0 wiki edits in Jan 2023</title></rect><rect x="70" y="6" width="15" height="15" fill="#3667a2"><title>71 emails, 81 repository events, 0 wiki edits in Feb 2023</title></rect><rect x="90" y="6" width="15" height="15" fill="#005a9c"><title>82 emails, 120 repository events, 0 wiki edits in Mar 2023</title></rect><rect x="110" y="6" width="15" height="15" fill="#5174a8"><title>52 emails, 75 repository events, 0 wiki edits in Apr 2023</title></rect><rect x="130" y="6" width="15" height="15" fill="#6882ae"><title>51 emails, 64 repository events, 0 wiki edits in May 2023</title></rect><rect x="150" y="6" width="15" height="15" fill="#7d90b5"><title>43 emails, 57 repository events, 0 wiki edits in Jun 2023</title></rect><rect x="170" y="6" width="15" height="15" fill="#7d90b5"><title>34 emails, 50 repository events, 0 wiki edits in Jul 2023</title></rect><rect x="190" y="6" width="15" height="15" fill="#919fba"><title>38 emails, 36 repository events, 0 wiki edits in Aug 2023</title></rect><rect x="210" y="6" width="15" height="15" fill="#7d90b5"><title>38 emails, 54 repository events, 0 wiki edits in Sep 2023</title></rect><rect x="230" y="6" width="15" height="15" fill="#7d90b5"><title>36 emails, 64 repository events, 0 wiki edits in Oct 2023</title></rect><rect x="250" y="6" width="15" height="15" fill="#6882ae"><title>54 emails, 69 repository events, 0 wiki edits in Nov 2023</title></rect><rect x="270" y="6" width="15" height="15" fill="#7d90b5"><title>36 emails, 49 repository events, 0 wiki edits in Dec 2023</title></rect></g>
<g transform="translate(0 260)">
  <title>Activity in 2024</title>
  <text x="2" y="20">2024</text><rect x="50" y="6" width="15" height="15" fill="#3667a2"><title>69 emails, 95 repository events, 0 wiki edits in Jan 2024</title></rect><rect x="70" y="6" width="15" height="15" fill="#6882ae"><title>55 emails, 58 repository events, 0 wiki edits in Feb 2024</title></rect><rect x="90" y="6" width="15" height="15" fill="#919fba"><title>34 emails, 40 repository events, 0 wiki edits in Mar 2024</title></rect><rect x="110" y="6" width="15" height="15" fill="#7d90b5"><title>39 emails, 60 repository events, 0 wiki edits in Apr 2024</title></rect><rect x="130" y="6" width="15" height="15" fill="#6882ae"><title>43 emails, 65 repository events, 0 wiki edits in May 2024</title></rect><rect x="150" y="6" width="15" height="15" fill="#6882ae"><title>47 emails, 73 repository events, 0 wiki edits in Jun 2024</title></rect><rect x="170" y="6" width="15" height="15" fill="#a5aec0"><title>13 emails, 14 repository events, 0 wiki edits in Jul 2024</title></rect><rect x="190" y="6" width="15" height="15" fill="#7d90b5"><title>41 emails, 52 repository events, 2 wiki edits in Aug 2024</title></rect><rect x="210" y="6" width="15" height="15" fill="#5174a8"><title>50 emails, 74 repository events, 9 wiki edits in Sep 2024</title></rect><rect x="230" y="6" width="15" height="15" fill="#3667a2"><title>65 emails, 97 repository events, 7 wiki edits in Oct 2024</title></rect><rect x="250" y="6" width="15" height="15" fill="#7d90b5"><title>53 emails, 36 repository events, 9 wiki edits in Nov 2024</title></rect><rect x="270" y="6" width="15" height="15" fill="#a5aec0"><title>17 emails, 23 repository events, 3 wiki edits in Dec 2024</title></rect></g>
<g transform="translate(0 280)">
  <title>Activity in 2025</title>
  <text x="2" y="20">2025</text><rect x="50" y="6" width="15" height="15" fill="#7d90b5"><title>41 emails, 48 repository events, 1 wiki edits in Jan 2025</title></rect><rect x="70" y="6" width="15" height="15" fill="#6882ae"><title>39 emails, 61 repository events, 1 wiki edits in Feb 2025</title></rect><rect x="90" y="6" width="15" height="15" fill="#7d90b5"><title>40 emails, 50 repository events, 1 wiki edits in Mar 2025</title></rect><rect x="110" y="6" width="15" height="15" fill="#7d90b5"><title>39 emails, 46 repository events, 12 wiki edits in Apr 2025</title></rect><rect x="130" y="6" width="15" height="15" fill="#919fba"><title>30 emails, 39 repository events, 1 wiki edits in May 2025</title></rect><rect x="150" y="6" width="15" height="15" fill="#b9bdc6"><title>1 emails, 0 repository events, 0 wiki edits in Jun 2025</title></rect></g><text style="font-size: 10px; text-align: center" x="53" y="310">J</text><text style="font-size: 10px; text-align: center" x="73" y="310">F</text><text style="font-size: 10px; text-align: center" x="93" y="310">M</text><text style="font-size: 10px; text-align: center" x="113" y="310">A</text><text style="font-size: 10px; text-align: center" x="133" y="310">M</text><text style="font-size: 10px; text-align: center" x="153" y="310">J</text><text style="font-size: 10px; text-align: center" x="173" y="310">J</text><text style="font-size: 10px; text-align: center" x="193" y="310">A</text><text style="font-size: 10px; text-align: center" x="213" y="310">S</text><text style="font-size: 10px; text-align: center" x="233" y="310">O</text><text style="font-size: 10px; text-align: center" x="253" y="310">N</text><text style="font-size: 10px; text-align: center" x="273" y="310">D</text><text style="font-size: 10px;" x="155" y="329">Less</text><rect fill="#b9bdc6" width="10" height="10" x="180" y="320"><title>No activity in the period</title></rect><rect fill="#919fba" width="10" height="10" x="195" y="320"><title>Low activity in the period</title></rect><rect fill="#6882ae" width="10" height="10" x="210" y="320"><title>Medium activity in the period</title></rect><rect fill="#005a9c" width="10" height="10" x="225" y="320"><title>High activity in period</title></rect><text x="240" y="329" style="font-size: 10px;">More</text></svg>