<svg xmlns="http://www.w3.org/2000/svg" width="360" height="220">
  <title>Activity of Web%20of%20Things%20Working%20Group</title>

<g transform="translate(0 0)">
  <title>Activity in 2016</title>
  <text x="2" y="20">2016</text><rect x="270" y="6" width="15" height="15" fill="#b9bdc6"><title>2 emails, 0 repository events, 0 wiki edits in Dec 2016</title></rect></g>
<g transform="translate(0 20)">
  <title>Activity in 2017</title>
  <text x="2" y="20">2017</text><rect x="50" y="6" width="15" height="15" fill="#b9bdc6"><title>6 emails, 1 repository events, 0 wiki edits in Jan 2017</title></rect><rect x="70" y="6" width="15" height="15" fill="#a5aec0"><title>20 emails, 7 repository events, 0 wiki edits in Feb 2017</title></rect><rect x="90" y="6" width="15" height="15" fill="#a5aec0"><title>18 emails, 17 repository events, 0 wiki edits in Mar 2017</title></rect><rect x="110" y="6" width="15" height="15" fill="#a5aec0"><title>22 emails, 18 repository events, 0 wiki edits in Apr 2017</title></rect><rect x="130" y="6" width="15" height="15" fill="#a5aec0"><title>14 emails, 18 repository events, 0 wiki edits in May 2017</title></rect><rect x="150" y="6" width="15" height="15" fill="#b9bdc6"><title>11 emails, 5 repository events, 0 wiki edits in Jun 2017</title></rect><rect x="170" y="6" width="15" height="15" fill="#7d90b5"><title>57 emails, 24 repository events, 0 wiki edits in Jul 2017</title></rect><rect x="190" y="6" width="15" height="15" fill="#6882ae"><title>18 emails, 104 repository events, 0 wiki edits in Aug 2017</title></rect><rect x="210" y="6" width="15" height="15" fill="#5174a8"><title>27 emails, 109 repository events, 0 wiki edits in Sep 2017</title></rect><rect x="230" y="6" width="15" height="15" fill="#919fba"><title>20 emails, 53 repository events, 0 wiki edits in Oct 2017</title></rect><rect x="250" y="6" width="15" height="15" fill="#a5aec0"><title>14 emails, 26 repository events, 0 wiki edits in Nov 2017</title></rect><rect x="270" y="6" width="15" height="15" fill="#a5aec0"><title>10 emails, 18 repository events, 0 wiki edits in Dec 2017</title></rect></g>
<g transform="translate(0 40)">
  <title>Activity in 2018</title>
  <text x="2" y="20">2018</text><rect x="50" y="6" width="15" height="15" fill="#a5aec0"><title>12 emails, 38 repository events, 0 wiki edits in Jan 2018</title></rect><rect x="70" y="6" width="15" height="15" fill="#7d90b5"><title>17 emails, 60 repository events, 0 wiki edits in Feb 2018</title></rect><rect x="90" y="6" width="15" height="15" fill="#7d90b5"><title>8 emails, 72 repository events, 0 wiki edits in Mar 2018</title></rect><rect x="110" y="6" width="15" height="15" fill="#919fba"><title>24 emails, 41 repository events, 0 wiki edits in Apr 2018</title></rect><rect x="130" y="6" width="15" height="15" fill="#a5aec0"><title>11 emails, 37 repository events, 0 wiki edits in May 2018</title></rect><rect x="150" y="6" width="15" height="15" fill="#919fba"><title>19 emails, 39 repository events, 0 wiki edits in Jun 2018</title></rect><rect x="170" y="6" width="15" height="15" fill="#a5aec0"><title>7 emails, 35 repository events, 0 wiki edits in Jul 2018</title></rect><rect x="190" y="6" width="15" height="15" fill="#6882ae"><title>14 emails, 88 repository events, 0 wiki edits in Aug 2018</title></rect><rect x="210" y="6" width="15" height="15" fill="#919fba"><title>24 emails, 46 repository events, 0 wiki edits in Sep 2018</title></rect><rect x="230" y="6" width="15" height="15" fill="#7d90b5"><title>12 emails, 79 repository events, 0 wiki edits in Oct 2018</title></rect><rect x="250" y="6" width="15" height="15" fill="#919fba"><title>12 emails, 62 repository events, 0 wiki edits in Nov 2018</title></rect><rect x="270" y="6" width="15" height="15" fill="#a5aec0"><title>11 emails, 35 repository events, 0 wiki edits in Dec 2018</title></rect></g>
<g transform="translate(0 60)">
  <title>Activity in 2019</title>
  <text x="2" y="20">2019</text><rect x="50" y="6" width="15" height="15" fill="#5174a8"><title>8 emails, 126 repository events, 0 wiki edits in Jan 2019</title></rect><rect x="70" y="6" width="15" height="15" fill="#3667a2"><title>8 emails, 162 repository events, 0 wiki edits in Feb 2019</title></rect><rect x="90" y="6" width="15" height="15" fill="#005a9c"><title>10 emails, 292 repository events, 0 wiki edits in Mar 2019</title></rect><rect x="110" y="6" width="15" height="15" fill="#3667a2"><title>12 emails, 160 repository events, 0 wiki edits in Apr 2019</title></rect><rect x="130" y="6" width="15" height="15" fill="#005a9c"><title>15 emails, 386 repository events, 0 wiki edits in May 2019</title></rect><rect x="150" y="6" width="15" height="15" fill="#5174a8"><title>5 emails, 122 repository events, 0 wiki edits in Jun 2019</title></rect><rect x="170" y="6" width="15" height="15" fill="#7d90b5"><title>16 emails, 63 repository events, 0 wiki edits in Jul 2019</title></rect><rect x="190" y="6" width="15" height="15" fill="#a5aec0"><title>12 emails, 31 repository events, 0 wiki edits in Aug 2019</title></rect><rect x="210" y="6" width="15" height="15" fill="#919fba"><title>20 emails, 50 repository events, 0 wiki edits in Sep 2019</title></rect><rect x="230" y="6" width="15" height="15" fill="#7d90b5"><title>12 emails, 84 repository events, 0 wiki edits in Oct 2019</title></rect><rect x="250" y="6" width="15" height="15" fill="#919fba"><title>20 emails, 38 repository events, 0 wiki edits in Nov 2019</title></rect><rect x="270" y="6" width="15" height="15" fill="#919fba"><title>7 emails, 53 repository events, 0 wiki edits in Dec 2019</title></rect></g>
<g transform="translate(0 80)">
  <title>Activity in 2020</title>
  <text x="2" y="20">2020</text><rect x="50" y="6" width="15" height="15" fill="#a5aec0"><title>7 emails, 41 repository events, 0 wiki edits in Jan 2020</title></rect><rect x="70" y="6" width="15" height="15" fill="#7d90b5"><title>35 emails, 42 repository events, 0 wiki edits in Feb 2020</title></rect><rect x="90" y="6" width="15" height="15" fill="#7d90b5"><title>18 emails, 64 repository events, 0 wiki edits in Mar 2020</title></rect><rect x="110" y="6" width="15" height="15" fill="#7d90b5"><title>43 emails, 56 repository events, 0 wiki edits in Apr 2020</title></rect><rect x="130" y="6" width="15" height="15" fill="#7d90b5"><title>29 emails, 65 repository events, 0 wiki edits in May 2020</title></rect><rect x="150" y="6" width="15" height="15" fill="#7d90b5"><title>26 emails, 57 repository events, 0 wiki edits in Jun 2020</title></rect><rect x="170" y="6" width="15" height="15" fill="#6882ae"><title>41 emails, 64 repository events, 0 wiki edits in Jul 2020</title></rect><rect x="190" y="6" width="15" height="15" fill="#5174a8"><title>29 emails, 113 repository events, 0 wiki edits in Aug 2020</title></rect><rect x="210" y="6" width="15" height="15" fill="#3667a2"><title>63 emails, 99 repository events, 0 wiki edits in Sep 2020</title></rect><rect x="230" y="6" width="15" height="15" fill="#5174a8"><title>27 emails, 121 repository events, 0 wiki edits in Oct 2020</title></rect><rect x="250" y="6" width="15" height="15" fill="#6882ae"><title>36 emails, 70 repository events, 0 wiki edits in Nov 2020</title></rect><rect x="270" y="6" width="15" height="15" fill="#919fba"><title>28 emails, 34 repository events, 0 wiki edits in Dec 2020</title></rect></g>
<g transform="translate(0 100)">
  <title>Activity in 2021</title>
  <text x="2" y="20">2021</text><rect x="50" y="6" width="15" height="15" fill="#6882ae"><title>35 emails, 73 repository events, 0 wiki edits in Jan 2021</title></rect><rect x="70" y="6" width="15" height="15" fill="#7d90b5"><title>16 emails, 73 repository events, 0 wiki edits in Feb 2021</title></rect><rect x="90" y="6" width="15" height="15" fill="#6882ae"><title>40 emails, 84 repository events, 0 wiki edits in Mar 2021</title></rect><rect x="110" y="6" width="15" height="15" fill="#5174a8"><title>24 emails, 103 repository events, 0 wiki edits in Apr 2021</title></rect><rect x="130" y="6" width="15" height="15" fill="#5174a8"><title>40 emails, 102 repository events, 0 wiki edits in May 2021</title></rect><rect x="150" y="6" width="15" height="15" fill="#7d90b5"><title>0 emails, 97 repository events, 0 wiki edits in Jun 2021</title></rect><rect x="170" y="6" width="15" height="15" fill="#5174a8"><title>42 emails, 91 repository events, 0 wiki edits in Jul 2021</title></rect><rect x="190" y="6" width="15" height="15" fill="#a5aec0"><title>7 emails, 39 repository events, 0 wiki edits in Aug 2021</title></rect><rect x="210" y="6" width="15" height="15" fill="#6882ae"><title>39 emails, 84 repository events, 0 wiki edits in Sep 2021</title></rect><rect x="230" y="6" width="15" height="15" fill="#919fba"><title>6 emails, 67 repository events, 0 wiki edits in Oct 2021</title></rect><rect x="250" y="6" width="15" height="15" fill="#005a9c"><title>13 emails, 199 repository events, 0 wiki edits in Nov 2021</title></rect><rect x="270" y="6" width="15" height="15" fill="#5174a8"><title>0 emails, 144 repository events, 0 wiki edits in Dec 2021</title></rect></g>
<g transform="translate(0 120)">
  <title>Activity in 2022</title>
  <text x="2" y="20">2022</text><rect x="50" y="6" width="15" height="15" fill="#5174a8"><title>22 emails, 117 repository events, 0 wiki edits in Jan 2022</title></rect><rect x="70" y="6" width="15" height="15" fill="#5174a8"><title>1 emails, 146 repository events, 0 wiki edits in Feb 2022</title></rect><rect x="90" y="6" width="15" height="15" fill="#005a9c"><title>39 emails, 137 repository events, 0 wiki edits in Mar 2022</title></rect><rect x="110" y="6" width="15" height="15" fill="#6882ae"><title>11 emails, 111 repository events, 0 wiki edits in Apr 2022</title></rect><rect x="130" y="6" width="15" height="15" fill="#005a9c"><title>16 emails, 182 repository events, 0 wiki edits in May 2022</title></rect><rect x="150" y="6" width="15" height="15" fill="#005a9c"><title>14 emails, 192 repository events, 0 wiki edits in Jun 2022</title></rect><rect x="170" y="6" width="15" height="15" fill="#005a9c"><title>23 emails, 237 repository events, 0 wiki edits in Jul 2022</title></rect><rect x="190" y="6" width="15" height="15" fill="#005a9c"><title>38 emails, 163 repository events, 0 wiki edits in Aug 2022</title></rect><rect x="210" y="6" width="15" height="15" fill="#005a9c"><title>20 emails, 165 repository events, 0 wiki edits in Sep 2022</title></rect><rect x="230" y="6" width="15" height="15" fill="#3667a2"><title>19 emails, 151 repository events, 0 wiki edits in Oct 2022</title></rect><rect x="250" y="6" width="15" height="15" fill="#5174a8"><title>6 emails, 137 repository events, 0 wiki edits in Nov 2022</title></rect><rect x="270" y="6" width="15" height="15" fill="#7d90b5"><title>27 emails, 73 repository events, 0 wiki edits in Dec 2022</title></rect></g>
<g transform="translate(0 140)">
  <title>Activity in 2023</title>
  <text x="2" y="20">2023</text><rect x="50" y="6" width="15" height="15" fill="#6882ae"><title>23 emails, 85 repository events, 0 wiki edits in Jan 2023</title></rect><rect x="70" y="6" width="15" height="15" fill="#6882ae"><title>42 emails, 83 repository events, 0 wiki edits in Feb 2023</title></rect><rect x="90" y="6" width="15" height="15" fill="#6882ae"><title>9 emails, 112 repository events, 0 wiki edits in Mar 2023</title></rect><rect x="110" y="6" width="15" height="15" fill="#6882ae"><title>4 emails, 97 repository events, 0 wiki edits in Apr 2023</title></rect><rect x="130" y="6" width="15" height="15" fill="#5174a8"><title>6 emails, 137 repository events, 0 wiki edits in May 2023</title></rect><rect x="150" y="6" width="15" height="15" fill="#a5aec0"><title>26 emails, 22 repository events, 0 wiki edits in Jun 2023</title></rect><rect x="170" y="6" width="15" height="15" fill="#7d90b5"><title>17 emails, 70 repository events, 0 wiki edits in Jul 2023</title></rect><rect x="190" y="6" width="15" height="15" fill="#919fba"><title>18 emails, 34 repository events, 0 wiki edits in Aug 2023</title></rect><rect x="210" y="6" width="15" height="15" fill="#7d90b5"><title>23 emails, 68 repository events, 0 wiki edits in Sep 2023</title></rect><rect x="230" y="6" width="15" height="15" fill="#6882ae"><title>14 emails, 106 repository events, 0 wiki edits in Oct 2023</title></rect><rect x="250" y="6" width="15" height="15" fill="#6882ae"><title>11 emails, 92 repository events, 0 wiki edits in Nov 2023</title></rect><rect x="270" y="6" width="15" height="15" fill="#7d90b5"><title>32 emails, 63 repository events, 0 wiki edits in Dec 2023</title></rect></g>
<g transform="translate(0 160)">
  <title>Activity in 2024</title>
  <text x="2" y="20">2024</text><rect x="50" y="6" width="15" height="15" fill="#919fba"><title>9 emails, 59 repository events, 0 wiki edits in Jan 2024</title></rect><rect x="70" y="6" width="15" height="15" fill="#919fba"><title>11 emails, 47 repository events, 0 wiki edits in Feb 2024</title></rect><rect x="90" y="6" width="15" height="15" fill="#a5aec0"><title>21 emails, 21 repository events, 0 wiki edits in Mar 2024</title></rect><rect x="110" y="6" width="15" height="15" fill="#7d90b5"><title>35 emails, 55 repository events, 0 wiki edits in Apr 2024</title></rect><rect x="130" y="6" width="15" height="15" fill="#7d90b5"><title>10 emails, 66 repository events, 0 wiki edits in May 2024</title></rect><rect x="150" y="6" width="15" height="15" fill="#a5aec0"><title>25 emails, 10 repository events, 0 wiki edits in Jun 2024</title></rect><rect x="170" y="6" width="15" height="15" fill="#919fba"><title>21 emails, 30 repository events, 0 wiki edits in Jul 2024</title></rect><rect x="190" y="6" width="15" height="15" fill="#a5aec0"><title>12 emails, 15 repository events, 0 wiki edits in Aug 2024</title></rect><rect x="210" y="6" width="15" height="15" fill="#a5aec0"><title>28 emails, 10 repository events, 0 wiki edits in Sep 2024</title></rect><rect x="230" y="6" width="15" height="15" fill="#a5aec0"><title>15 emails, 13 repository events, 0 wiki edits in Oct 2024</title></rect><rect x="250" y="6" width="15" height="15" fill="#a5aec0"><title>25 emails, 15 repository events, 0 wiki edits in Nov 2024</title></rect><rect x="270" y="6" width="15" height="15" fill="#a5aec0"><title>21 emails, 20 repository events, 0 wiki edits in Dec 2024</title></rect></g>
<g transform="translate(0 180)">
  <title>Activity in 2025</title>
  <text x="2" y="20">2025</text><rect x="50" y="6" width="15" height="15" fill="#b9bdc6"><title>17 emails, 8 repository events, 0 wiki edits in Jan 2025</title></rect><rect x="70" y="6" width="15" height="15" fill="#919fba"><title>17 emails, 50 repository events, 0 wiki edits in Feb 2025</title></rect><rect x="90" y="6" width="15" height="15" fill="#a5aec0"><title>10 emails, 21 repository events, 0 wiki edits in Mar 2025</title></rect></g><text style="font-size: 10px; text-align: center" x="53" y="210">J</text><text style="font-size: 10px; text-align: center" x="73" y="210">F</text><text style="font-size: 10px; text-align: center" x="93" y="210">M</text><text style="font-size: 10px; text-align: center" x="113" y="210">A</text><text style="font-size: 10px; text-align: center" x="133" y="210">M</text><text style="font-size: 10px; text-align: center" x="153" y="210">J</text><text style="font-size: 10px; text-align: center" x="173" y="210">J</text><text style="font-size: 10px; text-align: center" x="193" y="210">A</text><text style="font-size: 10px; text-align: center" x="213" y="210">S</text><text style="font-size: 10px; text-align: center" x="233" y="210">O</text><text style="font-size: 10px; text-align: center" x="253" y="210">N</text><text style="font-size: 10px; text-align: center" x="273" y="210">D</text><text style="font-size: 10px;" x="155" y="229">Less</text><rect fill="#b9bdc6" width="10" height="10" x="180" y="220"><title>No activity in the period</title></rect><rect fill="#919fba" width="10" height="10" x="195" y="220"><title>Low activity in the period</title></rect><rect fill="#6882ae" width="10" height="10" x="210" y="220"><title>Medium activity in the period</title></rect><rect fill="#005a9c" width="10" height="10" x="225" y="220"><title>High activity in period</title></rect><text x="240" y="229" style="font-size: 10px;">More</text></svg>