<svg xmlns="http://www.w3.org/2000/svg" width="360" height="160">
  <title>Activity of ACT%20Rules%20Community%20Group</title>

<g transform="translate(0 0)">
  <title>Activity in 2019</title>
  <text x="2" y="20">2019</text><rect x="110" y="6" width="15" height="15" fill="#a5aec0"><title>14 emails, 33 repository events, 0 wiki edits in Apr 2019</title></rect><rect x="130" y="6" width="15" height="15" fill="#3667a2"><title>11 emails, 162 repository events, 0 wiki edits in May 2019</title></rect><rect x="150" y="6" width="15" height="15" fill="#7d90b5"><title>4 emails, 94 repository events, 0 wiki edits in Jun 2019</title></rect><rect x="170" y="6" width="15" height="15" fill="#5174a8"><title>11 emails, 134 repository events, 0 wiki edits in Jul 2019</title></rect><rect x="190" y="6" width="15" height="15" fill="#005a9c"><title>16 emails, 250 repository events, 0 wiki edits in Aug 2019</title></rect><rect x="210" y="6" width="15" height="15" fill="#005a9c"><title>14 emails, 182 repository events, 0 wiki edits in Sep 2019</title></rect><rect x="230" y="6" width="15" height="15" fill="#3667a2"><title>18 emails, 156 repository events, 0 wiki edits in Oct 2019</title></rect><rect x="250" y="6" width="15" height="15" fill="#3667a2"><title>23 emails, 139 repository events, 0 wiki edits in Nov 2019</title></rect><rect x="270" y="6" width="15" height="15" fill="#7d90b5"><title>4 emails, 94 repository events, 0 wiki edits in Dec 2019</title></rect></g>
<g transform="translate(0 20)">
  <title>Activity in 2020</title>
  <text x="2" y="20">2020</text><rect x="50" y="6" width="15" height="15" fill="#005a9c"><title>25 emails, 171 repository events, 0 wiki edits in Jan 2020</title></rect><rect x="70" y="6" width="15" height="15" fill="#3667a2"><title>12 emails, 142 repository events, 0 wiki edits in Feb 2020</title></rect><rect x="90" y="6" width="15" height="15" fill="#3667a2"><title>18 emails, 137 repository events, 0 wiki edits in Mar 2020</title></rect><rect x="110" y="6" width="15" height="15" fill="#7d90b5"><title>14 emails, 81 repository events, 0 wiki edits in Apr 2020</title></rect><rect x="130" y="6" width="15" height="15" fill="#7d90b5"><title>20 emails, 78 repository events, 0 wiki edits in May 2020</title></rect><rect x="150" y="6" width="15" height="15" fill="#6882ae"><title>23 emails, 90 repository events, 0 wiki edits in Jun 2020</title></rect><rect x="170" y="6" width="15" height="15" fill="#7d90b5"><title>16 emails, 74 repository events, 0 wiki edits in Jul 2020</title></rect><rect x="190" y="6" width="15" height="15" fill="#7d90b5"><title>16 emails, 80 repository events, 0 wiki edits in Aug 2020</title></rect><rect x="210" y="6" width="15" height="15" fill="#7d90b5"><title>25 emails, 68 repository events, 0 wiki edits in Sep 2020</title></rect><rect x="230" y="6" width="15" height="15" fill="#919fba"><title>17 emails, 57 repository events, 0 wiki edits in Oct 2020</title></rect><rect x="250" y="6" width="15" height="15" fill="#a5aec0"><title>9 emails, 26 repository events, 0 wiki edits in Nov 2020</title></rect><rect x="270" y="6" width="15" height="15" fill="#a5aec0"><title>6 emails, 42 repository events, 0 wiki edits in Dec 2020</title></rect></g>
<g transform="translate(0 40)">
  <title>Activity in 2021</title>
  <text x="2" y="20">2021</text><rect x="50" y="6" width="15" height="15" fill="#919fba"><title>18 emails, 34 repository events, 0 wiki edits in Jan 2021</title></rect><rect x="70" y="6" width="15" height="15" fill="#b9bdc6"><title>8 emails, 13 repository events, 0 wiki edits in Feb 2021</title></rect><rect x="90" y="6" width="15" height="15" fill="#a5aec0"><title>10 emails, 36 repository events, 0 wiki edits in Mar 2021</title></rect><rect x="110" y="6" width="15" height="15" fill="#919fba"><title>16 emails, 56 repository events, 0 wiki edits in Apr 2021</title></rect><rect x="130" y="6" width="15" height="15" fill="#7d90b5"><title>9 emails, 84 repository events, 0 wiki edits in May 2021</title></rect><rect x="150" y="6" width="15" height="15" fill="#919fba"><title>18 emails, 57 repository events, 0 wiki edits in Jun 2021</title></rect><rect x="170" y="6" width="15" height="15" fill="#919fba"><title>19 emails, 35 repository events, 0 wiki edits in Jul 2021</title></rect><rect x="190" y="6" width="15" height="15" fill="#a5aec0"><title>7 emails, 43 repository events, 0 wiki edits in Aug 2021</title></rect><rect x="210" y="6" width="15" height="15" fill="#919fba"><title>11 emails, 58 repository events, 0 wiki edits in Sep 2021</title></rect><rect x="230" y="6" width="15" height="15" fill="#a5aec0"><title>7 emails, 19 repository events, 0 wiki edits in Oct 2021</title></rect><rect x="250" y="6" width="15" height="15" fill="#919fba"><title>7 emails, 52 repository events, 0 wiki edits in Nov 2021</title></rect><rect x="270" y="6" width="15" height="15" fill="#a5aec0"><title>9 emails, 17 repository events, 0 wiki edits in Dec 2021</title></rect></g>
<g transform="translate(0 60)">
  <title>Activity in 2022</title>
  <text x="2" y="20">2022</text><rect x="50" y="6" width="15" height="15" fill="#a5aec0"><title>8 emails, 21 repository events, 0 wiki edits in Jan 2022</title></rect><rect x="70" y="6" width="15" height="15" fill="#7d90b5"><title>11 emails, 85 repository events, 0 wiki edits in Feb 2022</title></rect><rect x="90" y="6" width="15" height="15" fill="#919fba"><title>10 emails, 56 repository events, 0 wiki edits in Mar 2022</title></rect><rect x="110" y="6" width="15" height="15" fill="#a5aec0"><title>11 emails, 39 repository events, 0 wiki edits in Apr 2022</title></rect><rect x="130" y="6" width="15" height="15" fill="#a5aec0"><title>10 emails, 23 repository events, 0 wiki edits in May 2022</title></rect><rect x="150" y="6" width="15" height="15" fill="#7d90b5"><title>15 emails, 61 repository events, 0 wiki edits in Jun 2022</title></rect><rect x="170" y="6" width="15" height="15" fill="#a5aec0"><title>9 emails, 37 repository events, 0 wiki edits in Jul 2022</title></rect><rect x="190" y="6" width="15" height="15" fill="#b9bdc6"><title>4 emails, 21 repository events, 0 wiki edits in Aug 2022</title></rect><rect x="210" y="6" width="15" height="15" fill="#a5aec0"><title>15 emails, 27 repository events, 0 wiki edits in Sep 2022</title></rect><rect x="230" y="6" width="15" height="15" fill="#7d90b5"><title>28 emails, 67 repository events, 0 wiki edits in Oct 2022</title></rect><rect x="250" y="6" width="15" height="15" fill="#a5aec0"><title>9 emails, 33 repository events, 0 wiki edits in Nov 2022</title></rect><rect x="270" y="6" width="15" height="15" fill="#919fba"><title>5 emails, 46 repository events, 0 wiki edits in Dec 2022</title></rect></g>
<g transform="translate(0 80)">
  <title>Activity in 2023</title>
  <text x="2" y="20">2023</text><rect x="50" y="6" width="15" height="15" fill="#7d90b5"><title>17 emails, 65 repository events, 0 wiki edits in Jan 2023</title></rect><rect x="70" y="6" width="15" height="15" fill="#919fba"><title>10 emails, 42 repository events, 0 wiki edits in Feb 2023</title></rect><rect x="90" y="6" width="15" height="15" fill="#b9bdc6"><title>8 emails, 8 repository events, 0 wiki edits in Mar 2023</title></rect><rect x="110" y="6" width="15" height="15" fill="#a5aec0"><title>3 emails, 27 repository events, 0 wiki edits in Apr 2023</title></rect><rect x="130" y="6" width="15" height="15" fill="#a5aec0"><title>7 emails, 31 repository events, 0 wiki edits in May 2023</title></rect><rect x="150" y="6" width="15" height="15" fill="#b9bdc6"><title>6 emails, 19 repository events, 0 wiki edits in Jun 2023</title></rect><rect x="170" y="6" width="15" height="15" fill="#a5aec0"><title>3 emails, 27 repository events, 0 wiki edits in Jul 2023</title></rect><rect x="190" y="6" width="15" height="15" fill="#a5aec0"><title>4 emails, 29 repository events, 0 wiki edits in Aug 2023</title></rect><rect x="210" y="6" width="15" height="15" fill="#a5aec0"><title>14 emails, 20 repository events, 0 wiki edits in Sep 2023</title></rect><rect x="230" y="6" width="15" height="15" fill="#b9bdc6"><title>5 emails, 16 repository events, 0 wiki edits in Oct 2023</title></rect><rect x="250" y="6" width="15" height="15" fill="#b9bdc6"><title>4 emails, 15 repository events, 0 wiki edits in Nov 2023</title></rect><rect x="270" y="6" width="15" height="15" fill="#a5aec0"><title>8 emails, 18 repository events, 0 wiki edits in Dec 2023</title></rect></g>
<g transform="translate(0 100)">
  <title>Activity in 2024</title>
  <text x="2" y="20">2024</text><rect x="50" y="6" width="15" height="15" fill="#b9bdc6"><title>10 emails, 6 repository events, 0 wiki edits in Jan 2024</title></rect><rect x="70" y="6" width="15" height="15" fill="#b9bdc6"><title>7 emails, 15 repository events, 0 wiki edits in Feb 2024</title></rect><rect x="90" y="6" width="15" height="15" fill="#b9bdc6"><title>1 emails, 9 repository events, 0 wiki edits in Mar 2024</title></rect><rect x="110" y="6" width="15" height="15" fill="#a5aec0"><title>9 emails, 21 repository events, 0 wiki edits in Apr 2024</title></rect><rect x="130" y="6" width="15" height="15" fill="#b9bdc6"><title>2 emails, 14 repository events, 0 wiki edits in May 2024</title></rect><rect x="150" y="6" width="15" height="15" fill="#b9bdc6"><title>6 emails, 11 repository events, 0 wiki edits in Jun 2024</title></rect><rect x="170" y="6" width="15" height="15" fill="#b9bdc6"><title>8 emails, 9 repository events, 0 wiki edits in Jul 2024</title></rect><rect x="190" y="6" width="15" height="15" fill="#a5aec0"><title>18 emails, 8 repository events, 0 wiki edits in Aug 2024</title></rect><rect x="210" y="6" width="15" height="15" fill="#b9bdc6"><title>11 emails, 2 repository events, 0 wiki edits in Sep 2024</title></rect><rect x="230" y="6" width="15" height="15" fill="#b9bdc6"><title>6 emails, 13 repository events, 0 wiki edits in Oct 2024</title></rect><rect x="250" y="6" width="15" height="15" fill="#b9bdc6"><title>8 emails, 11 repository events, 0 wiki edits in Nov 2024</title></rect><rect x="270" y="6" width="15" height="15" fill="#b9bdc6"><title>3 emails, 6 repository events, 0 wiki edits in Dec 2024</title></rect></g>
<g transform="translate(0 120)">
  <title>Activity in 2025</title>
  <text x="2" y="20">2025</text><rect x="50" y="6" width="15" height="15" fill="#b9bdc6"><title>5 emails, 19 repository events, 0 wiki edits in Jan 2025</title></rect><rect x="70" y="6" width="15" height="15" fill="#7d90b5"><title>7 emails, 91 repository events, 0 wiki edits in Feb 2025</title></rect><rect x="90" y="6" width="15" height="15" fill="#b9bdc6"><title>4 emails, 11 repository events, 0 wiki edits in Mar 2025</title></rect></g><text style="font-size: 10px; text-align: center" x="53" y="150">J</text><text style="font-size: 10px; text-align: center" x="73" y="150">F</text><text style="font-size: 10px; text-align: center" x="93" y="150">M</text><text style="font-size: 10px; text-align: center" x="113" y="150">A</text><text style="font-size: 10px; text-align: center" x="133" y="150">M</text><text style="font-size: 10px; text-align: center" x="153" y="150">J</text><text style="font-size: 10px; text-align: center" x="173" y="150">J</text><text style="font-size: 10px; text-align: center" x="193" y="150">A</text><text style="font-size: 10px; text-align: center" x="213" y="150">S</text><text style="font-size: 10px; text-align: center" x="233" y="150">O</text><text style="font-size: 10px; text-align: center" x="253" y="150">N</text><text style="font-size: 10px; text-align: center" x="273" y="150">D</text><text style="font-size: 10px;" x="155" y="169">Less</text><rect fill="#b9bdc6" width="10" height="10" x="180" y="160"><title>No activity in the period</title></rect><rect fill="#919fba" width="10" height="10" x="195" y="160"><title>Low activity in the period</title></rect><rect fill="#6882ae" width="10" height="10" x="210" y="160"><title>Medium activity in the period</title></rect><rect fill="#005a9c" width="10" height="10" x="225" y="160"><title>High activity in period</title></rect><text x="240" y="169" style="font-size: 10px;">More</text></svg>