<svg xmlns="http://www.w3.org/2000/svg">
  <title>Activity of AI%20KR%20%28Artificial%20Intelligence%20Knowledge%20Representation%29%20Community%20Group</title>
  <style type="text/css">.none { fill: #aaa;}
  .low { fill: #8ac;}
  .medium { fill: #49a;}
  .high { fill: #159;}
  </style>

<g transform="translate(0 0)">
  <title>Activity in 2018</title>
  <text x="2" y="20">2018</text><rect x="170" y="6" width="15" height="15" class="medium"><title>70 emails, 0 repo event, 0 wiki edits in Jul 2018</title></rect><rect x="190" y="6" width="15" height="15" class="low"><title>17 emails, 0 repo event, 0 wiki edits in Aug 2018</title></rect><rect x="210" y="6" width="15" height="15" class="low"><title>7 emails, 0 repo event, 0 wiki edits in Sep 2018</title></rect><rect x="230" y="6" width="15" height="15" class="medium"><title>22 emails, 0 repo event, 0 wiki edits in Oct 2018</title></rect><rect x="250" y="6" width="15" height="15" class="medium"><title>24 emails, 0 repo event, 0 wiki edits in Nov 2018</title></rect><rect x="270" y="6" width="15" height="15" class="medium"><title>23 emails, 0 repo event, 0 wiki edits in Dec 2018</title></rect></g>
<g transform="translate(0 20)">
  <title>Activity in 2019</title>
  <text x="2" y="20">2019</text><rect x="50" y="6" width="15" height="15" class="low"><title>11 emails, 0 repo event, 0 wiki edits in Jan 2019</title></rect><rect x="70" y="6" width="15" height="15" class="low"><title>13 emails, 0 repo event, 0 wiki edits in Feb 2019</title></rect><rect x="90" y="6" width="15" height="15" class="medium"><title>41 emails, 0 repo event, 0 wiki edits in Mar 2019</title></rect><rect x="110" y="6" width="15" height="15" class="medium"><title>39 emails, 0 repo event, 0 wiki edits in Apr 2019</title></rect><rect x="130" y="6" width="15" height="15" class="medium"><title>24 emails, 0 repo event, 0 wiki edits in May 2019</title></rect><rect x="150" y="6" width="15" height="15" class="medium"><title>24 emails, 0 repo event, 0 wiki edits in Jun 2019</title></rect><rect x="170" y="6" width="15" height="15" class="medium"><title>62 emails, 0 repo event, 0 wiki edits in Jul 2019</title></rect><rect x="190" y="6" width="15" height="15" class="medium"><title>74 emails, 0 repo event, 0 wiki edits in Aug 2019</title></rect><rect x="210" y="6" width="15" height="15" class="medium"><title>27 emails, 0 repo event, 0 wiki edits in Sep 2019</title></rect><rect x="230" y="6" width="15" height="15" class="low"><title>11 emails, 0 repo event, 0 wiki edits in Oct 2019</title></rect><rect x="250" y="6" width="15" height="15" class="medium"><title>52 emails, 0 repo event, 0 wiki edits in Nov 2019</title></rect><rect x="270" y="6" width="15" height="15" class="medium"><title>49 emails, 0 repo event, 0 wiki edits in Dec 2019</title></rect></g>
<g transform="translate(0 40)">
  <title>Activity in 2020</title>
  <text x="2" y="20">2020</text><rect x="50" y="6" width="15" height="15" class="high"><title>114 emails, 0 repo event, 0 wiki edits in Jan 2020</title></rect><rect x="70" y="6" width="15" height="15" class="medium"><title>58 emails, 0 repo event, 9 wiki edits in Feb 2020</title></rect><rect x="90" y="6" width="15" height="15" class="medium"><title>69 emails, 0 repo event, 3 wiki edits in Mar 2020</title></rect><rect x="110" y="6" width="15" height="15" class="medium"><title>76 emails, 0 repo event, 3 wiki edits in Apr 2020</title></rect><rect x="130" y="6" width="15" height="15" class="high"><title>117 emails, 0 repo event, 5 wiki edits in May 2020</title></rect><rect x="150" y="6" width="15" height="15" class="high"><title>128 emails, 0 repo event, 0 wiki edits in Jun 2020</title></rect><rect x="170" y="6" width="15" height="15" class="medium"><title>68 emails, 0 repo event, 0 wiki edits in Jul 2020</title></rect><rect x="190" y="6" width="15" height="15" class="medium"><title>23 emails, 0 repo event, 0 wiki edits in Aug 2020</title></rect><rect x="210" y="6" width="15" height="15" class="medium"><title>28 emails, 0 repo event, 0 wiki edits in Sep 2020</title></rect><rect x="230" y="6" width="15" height="15" class="medium"><title>27 emails, 0 repo event, 0 wiki edits in Oct 2020</title></rect><rect x="250" y="6" width="15" height="15" class="low"><title>11 emails, 0 repo event, 0 wiki edits in Nov 2020</title></rect></g></svg>