<svg xmlns="http://www.w3.org/2000/svg">
  <title>Activity of Atomic%20Data%20Community%20Group</title>
  <style type="text/css">.none { fill: #aaa;}
  .low { fill: #8ac;}
  .medium { fill: #49a;}
  .high { fill: #159;}
  </style>

<g transform="translate(0 0)">
  <title>Activity in 2020</title>
  <text x="2" y="20">2020</text><rect x="210" y="6" width="15" height="15" class="none"><title>0 emails, 0 repo event, 0 wiki edits in Sep 2020</title></rect><rect x="230" y="6" width="15" height="15" class="none"><title>0 emails, 0 repo event, 0 wiki edits in Oct 2020</title></rect><rect x="250" y="6" width="15" height="15" class="none"><title>0 emails, 0 repo event, 0 wiki edits in Nov 2020</title></rect></g><text style="font-size: 10px; text-align: center" x="53" y="30">J</text><text style="font-size: 10px; text-align: center" x="73" y="30">F</text><text style="font-size: 10px; text-align: center" x="93" y="30">M</text><text style="font-size: 10px; text-align: center" x="113" y="30">A</text><text style="font-size: 10px; text-align: center" x="133" y="30">M</text><text style="font-size: 10px; text-align: center" x="153" y="30">J</text><text style="font-size: 10px; text-align: center" x="173" y="30">J</text><text style="font-size: 10px; text-align: center" x="193" y="30">A</text><text style="font-size: 10px; text-align: center" x="213" y="30">S</text><text style="font-size: 10px; text-align: center" x="233" y="30">O</text><text style="font-size: 10px; text-align: center" x="253" y="30">N</text><text style="font-size: 10px; text-align: center" x="273" y="30">D</text><text style="font-size: 10px;" x="150" y="50">Less</text><rect class="none" width="10" height="10" x="180" y="40"></rect><rect class="low" width="10" height="10" x="195" y="40"></rect><rect class="medium" width="10" height="10" x="210" y="40"></rect><rect class="high" width="10" height="10" x="225" y="40"></rect><text x="240" y="50" style="font-size: 10px;">More</text></svg>