<svg xmlns="http://www.w3.org/2000/svg" width="360" height="140">
  <title>Activity of Bioschemas%20for%20lifesciences%20Community%20Group</title>

<g transform="translate(0 0)">
  <title>Activity in 2017</title>
  <text x="2" y="20">2017</text><rect x="70" y="6" width="15" height="15" fill="#b9bdc6"><title>1 emails, 0 repository events, 0 wiki edits in Feb 2017</title></rect><rect x="90" y="6" width="15" height="15" fill="#a5aec0"><title>2 emails, 25 repository events, 0 wiki edits in Mar 2017</title></rect><rect x="110" y="6" width="15" height="15" fill="#cccccc"><title>0 emails, 0 repository events, 0 wiki edits in Apr 2017</title></rect><rect x="130" y="6" width="15" height="15" fill="#b9bdc6"><title>15 emails, 0 repository events, 0 wiki edits in May 2017</title></rect><rect x="150" y="6" width="15" height="15" fill="#919fba"><title>45 emails, 22 repository events, 0 wiki edits in Jun 2017</title></rect><rect x="170" y="6" width="15" height="15" fill="#b9bdc6"><title>16 emails, 4 repository events, 0 wiki edits in Jul 2017</title></rect><rect x="190" y="6" width="15" height="15" fill="#b9bdc6"><title>7 emails, 11 repository events, 0 wiki edits in Aug 2017</title></rect><rect x="210" y="6" width="15" height="15" fill="#a5aec0"><title>39 emails, 8 repository events, 0 wiki edits in Sep 2017</title></rect><rect x="230" y="6" width="15" height="15" fill="#919fba"><title>36 emails, 22 repository events, 0 wiki edits in Oct 2017</title></rect><rect x="250" y="6" width="15" height="15" fill="#7d90b5"><title>97 emails, 2 repository events, 0 wiki edits in Nov 2017</title></rect><rect x="270" y="6" width="15" height="15" fill="#b9bdc6"><title>22 emails, 2 repository events, 0 wiki edits in Dec 2017</title></rect></g>
<g transform="translate(0 20)">
  <title>Activity in 2018</title>
  <text x="2" y="20">2018</text><rect x="50" y="6" width="15" height="15" fill="#919fba"><title>69 emails, 1 repository events, 0 wiki edits in Jan 2018</title></rect><rect x="70" y="6" width="15" height="15" fill="#a5aec0"><title>33 emails, 6 repository events, 0 wiki edits in Feb 2018</title></rect><rect x="90" y="6" width="15" height="15" fill="#919fba"><title>60 emails, 8 repository events, 0 wiki edits in Mar 2018</title></rect><rect x="110" y="6" width="15" height="15" fill="#a5aec0"><title>30 emails, 2 repository events, 0 wiki edits in Apr 2018</title></rect><rect x="130" y="6" width="15" height="15" fill="#a5aec0"><title>41 emails, 5 repository events, 0 wiki edits in May 2018</title></rect><rect x="150" y="6" width="15" height="15" fill="#919fba"><title>55 emails, 9 repository events, 0 wiki edits in Jun 2018</title></rect><rect x="170" y="6" width="15" height="15" fill="#b9bdc6"><title>21 emails, 2 repository events, 0 wiki edits in Jul 2018</title></rect><rect x="190" y="6" width="15" height="15" fill="#b9bdc6"><title>4 emails, 0 repository events, 0 wiki edits in Aug 2018</title></rect><rect x="210" y="6" width="15" height="15" fill="#a5aec0"><title>23 emails, 9 repository events, 0 wiki edits in Sep 2018</title></rect><rect x="230" y="6" width="15" height="15" fill="#b9bdc6"><title>21 emails, 0 repository events, 0 wiki edits in Oct 2018</title></rect><rect x="250" y="6" width="15" height="15" fill="#a5aec0"><title>19 emails, 15 repository events, 0 wiki edits in Nov 2018</title></rect><rect x="270" y="6" width="15" height="15" fill="#b9bdc6"><title>0 emails, 2 repository events, 0 wiki edits in Dec 2018</title></rect></g>
<g transform="translate(0 40)">
  <title>Activity in 2019</title>
  <text x="2" y="20">2019</text><rect x="50" y="6" width="15" height="15" fill="#b9bdc6"><title>2 emails, 0 repository events, 0 wiki edits in Jan 2019</title></rect><rect x="70" y="6" width="15" height="15" fill="#b9bdc6"><title>20 emails, 1 repository events, 0 wiki edits in Feb 2019</title></rect><rect x="90" y="6" width="15" height="15" fill="#b9bdc6"><title>10 emails, 3 repository events, 0 wiki edits in Mar 2019</title></rect><rect x="110" y="6" width="15" height="15" fill="#b9bdc6"><title>4 emails, 6 repository events, 0 wiki edits in Apr 2019</title></rect><rect x="130" y="6" width="15" height="15" fill="#919fba"><title>32 emails, 21 repository events, 0 wiki edits in May 2019</title></rect><rect x="150" y="6" width="15" height="15" fill="#a5aec0"><title>25 emails, 17 repository events, 0 wiki edits in Jun 2019</title></rect><rect x="170" y="6" width="15" height="15" fill="#b9bdc6"><title>3 emails, 6 repository events, 0 wiki edits in Jul 2019</title></rect><rect x="190" y="6" width="15" height="15" fill="#b9bdc6"><title>3 emails, 7 repository events, 0 wiki edits in Aug 2019</title></rect><rect x="210" y="6" width="15" height="15" fill="#b9bdc6"><title>0 emails, 3 repository events, 0 wiki edits in Sep 2019</title></rect><rect x="230" y="6" width="15" height="15" fill="#b9bdc6"><title>14 emails, 1 repository events, 0 wiki edits in Oct 2019</title></rect><rect x="250" y="6" width="15" height="15" fill="#b9bdc6"><title>3 emails, 9 repository events, 0 wiki edits in Nov 2019</title></rect><rect x="270" y="6" width="15" height="15" fill="#b9bdc6"><title>1 emails, 14 repository events, 0 wiki edits in Dec 2019</title></rect></g>
<g transform="translate(0 60)">
  <title>Activity in 2020</title>
  <text x="2" y="20">2020</text><rect x="50" y="6" width="15" height="15" fill="#b9bdc6"><title>1 emails, 1 repository events, 0 wiki edits in Jan 2020</title></rect><rect x="70" y="6" width="15" height="15" fill="#b9bdc6"><title>12 emails, 7 repository events, 0 wiki edits in Feb 2020</title></rect><rect x="90" y="6" width="15" height="15" fill="#a5aec0"><title>11 emails, 34 repository events, 0 wiki edits in Mar 2020</title></rect><rect x="110" y="6" width="15" height="15" fill="#b9bdc6"><title>2 emails, 9 repository events, 0 wiki edits in Apr 2020</title></rect><rect x="130" y="6" width="15" height="15" fill="#a5aec0"><title>5 emails, 42 repository events, 0 wiki edits in May 2020</title></rect><rect x="150" y="6" width="15" height="15" fill="#919fba"><title>26 emails, 34 repository events, 0 wiki edits in Jun 2020</title></rect><rect x="170" y="6" width="15" height="15" fill="#a5aec0"><title>11 emails, 19 repository events, 0 wiki edits in Jul 2020</title></rect><rect x="190" y="6" width="15" height="15" fill="#a5aec0"><title>7 emails, 29 repository events, 0 wiki edits in Aug 2020</title></rect><rect x="210" y="6" width="15" height="15" fill="#a5aec0"><title>20 emails, 13 repository events, 0 wiki edits in Sep 2020</title></rect><rect x="230" y="6" width="15" height="15" fill="#5174a8"><title>12 emails, 123 repository events, 0 wiki edits in Oct 2020</title></rect><rect x="250" y="6" width="15" height="15" fill="#a5aec0"><title>12 emails, 32 repository events, 0 wiki edits in Nov 2020</title></rect><rect x="270" y="6" width="15" height="15" fill="#a5aec0"><title>15 emails, 21 repository events, 0 wiki edits in Dec 2020</title></rect></g>
<g transform="translate(0 80)">
  <title>Activity in 2021</title>
  <text x="2" y="20">2021</text><rect x="50" y="6" width="15" height="15" fill="#a5aec0"><title>5 emails, 23 repository events, 0 wiki edits in Jan 2021</title></rect><rect x="70" y="6" width="15" height="15" fill="#a5aec0"><title>6 emails, 32 repository events, 0 wiki edits in Feb 2021</title></rect><rect x="90" y="6" width="15" height="15" fill="#a5aec0"><title>11 emails, 29 repository events, 0 wiki edits in Mar 2021</title></rect><rect x="110" y="6" width="15" height="15" fill="#a5aec0"><title>16 emails, 34 repository events, 0 wiki edits in Apr 2021</title></rect><rect x="130" y="6" width="15" height="15" fill="#a5aec0"><title>8 emails, 31 repository events, 0 wiki edits in May 2021</title></rect><rect x="150" y="6" width="15" height="15" fill="#919fba"><title>14 emails, 59 repository events, 0 wiki edits in Jun 2021</title></rect><rect x="170" y="6" width="15" height="15" fill="#a5aec0"><title>6 emails, 30 repository events, 0 wiki edits in Jul 2021</title></rect><rect x="190" y="6" width="15" height="15" fill="#a5aec0"><title>7 emails, 29 repository events, 0 wiki edits in Aug 2021</title></rect><rect x="210" y="6" width="15" height="15" fill="#a5aec0"><title>3 emails, 28 repository events, 0 wiki edits in Sep 2021</title></rect><rect x="230" y="6" width="15" height="15" fill="#a5aec0"><title>8 emails, 42 repository events, 0 wiki edits in Oct 2021</title></rect><rect x="250" y="6" width="15" height="15" fill="#5174a8"><title>2 emails, 125 repository events, 0 wiki edits in Nov 2021</title></rect><rect x="270" y="6" width="15" height="15" fill="#b9bdc6"><title>8 emails, 10 repository events, 0 wiki edits in Dec 2021</title></rect></g>
<g transform="translate(0 100)">
  <title>Activity in 2022</title>
  <text x="2" y="20">2022</text><rect x="50" y="6" width="15" height="15" fill="#919fba"><title>1 emails, 68 repository events, 0 wiki edits in Jan 2022</title></rect><rect x="70" y="6" width="15" height="15" fill="#7d90b5"><title>1 emails, 81 repository events, 0 wiki edits in Feb 2022</title></rect><rect x="90" y="6" width="15" height="15" fill="#a5aec0"><title>5 emails, 42 repository events, 0 wiki edits in Mar 2022</title></rect><rect x="110" y="6" width="15" height="15" fill="#b9bdc6"><title>2 emails, 21 repository events, 0 wiki edits in Apr 2022</title></rect><rect x="130" y="6" width="15" height="15" fill="#a5aec0"><title>3 emails, 23 repository events, 0 wiki edits in May 2022</title></rect><rect x="150" y="6" width="15" height="15" fill="#a5aec0"><title>3 emails, 30 repository events, 0 wiki edits in Jun 2022</title></rect><rect x="170" y="6" width="15" height="15" fill="#b9bdc6"><title>4 emails, 11 repository events, 0 wiki edits in Jul 2022</title></rect><rect x="190" y="6" width="15" height="15" fill="#b9bdc6"><title>2 emails, 13 repository events, 0 wiki edits in Aug 2022</title></rect><rect x="210" y="6" width="15" height="15" fill="#b9bdc6"><title>1 emails, 13 repository events, 0 wiki edits in Sep 2022</title></rect></g><text style="font-size: 10px; text-align: center" x="53" y="130">J</text><text style="font-size: 10px; text-align: center" x="73" y="130">F</text><text style="font-size: 10px; text-align: center" x="93" y="130">M</text><text style="font-size: 10px; text-align: center" x="113" y="130">A</text><text style="font-size: 10px; text-align: center" x="133" y="130">M</text><text style="font-size: 10px; text-align: center" x="153" y="130">J</text><text style="font-size: 10px; text-align: center" x="173" y="130">J</text><text style="font-size: 10px; text-align: center" x="193" y="130">A</text><text style="font-size: 10px; text-align: center" x="213" y="130">S</text><text style="font-size: 10px; text-align: center" x="233" y="130">O</text><text style="font-size: 10px; text-align: center" x="253" y="130">N</text><text style="font-size: 10px; text-align: center" x="273" y="130">D</text><text style="font-size: 10px;" x="155" y="149">Less</text><rect fill="#b9bdc6" width="10" height="10" x="180" y="140"><title>No activity in the period</title></rect><rect fill="#919fba" width="10" height="10" x="195" y="140"><title>Low activity in the period</title></rect><rect fill="#6882ae" width="10" height="10" x="210" y="140"><title>Medium activity in the period</title></rect><rect fill="#005a9c" width="10" height="10" x="225" y="140"><title>High activity in period</title></rect><text x="240" y="149" style="font-size: 10px;">More</text></svg>