<svg xmlns="http://www.w3.org/2000/svg">
  <title>Activity of Browser%20Sync%20Community%20Group</title>
  <style type="text/css">.none { fill: #aaa;}
  .low { fill: #8ac;}
  .medium { fill: #49a;}
  .high { fill: #159;}
  </style>

<g transform="translate(0 0)">
  <title>Activity in 2014</title>
  <text x="2" y="20">2014</text><rect x="130" y="6" width="15" height="15" class="low"><title>1 emails, 0 repo event, 0 wiki edits in May 2014</title></rect><rect x="150" y="6" width="15" height="15" class="low"><title>3 emails, 0 repo event, 0 wiki edits in Jun 2014</title></rect><rect x="170" y="6" width="15" height="15" class="none"><title>0 emails, 0 repo event, 0 wiki edits in Jul 2014</title></rect><rect x="190" y="6" width="15" height="15" class="none"><title>0 emails, 0 repo event, 0 wiki edits in Aug 2014</title></rect><rect x="210" y="6" width="15" height="15" class="none"><title>0 emails, 0 repo event, 0 wiki edits in Sep 2014</title></rect><rect x="230" y="6" width="15" height="15" class="none"><title>0 emails, 0 repo event, 0 wiki edits in Oct 2014</title></rect><rect x="250" y="6" width="15" height="15" class="none"><title>0 emails, 0 repo event, 0 wiki edits in Nov 2014</title></rect><rect x="270" y="6" width="15" height="15" class="none"><title>0 emails, 0 repo event, 0 wiki edits in Dec 2014</title></rect></g>
<g transform="translate(0 20)">
  <title>Activity in 2015</title>
  <text x="2" y="20">2015</text><rect x="50" y="6" width="15" height="15" class="none"><title>0 emails, 0 repo event, 0 wiki edits in Jan 2015</title></rect><rect x="70" y="6" width="15" height="15" class="none"><title>0 emails, 0 repo event, 0 wiki edits in Feb 2015</title></rect><rect x="90" y="6" width="15" height="15" class="none"><title>0 emails, 0 repo event, 0 wiki edits in Mar 2015</title></rect><rect x="110" y="6" width="15" height="15" class="none"><title>0 emails, 0 repo event, 0 wiki edits in Apr 2015</title></rect><rect x="130" y="6" width="15" height="15" class="none"><title>0 emails, 0 repo event, 0 wiki edits in May 2015</title></rect><rect x="150" y="6" width="15" height="15" class="none"><title>0 emails, 0 repo event, 0 wiki edits in Jun 2015</title></rect><rect x="170" y="6" width="15" height="15" class="none"><title>0 emails, 0 repo event, 0 wiki edits in Jul 2015</title></rect><rect x="190" y="6" width="15" height="15" class="none"><title>0 emails, 0 repo event, 0 wiki edits in Aug 2015</title></rect><rect x="210" y="6" width="15" height="15" class="none"><title>0 emails, 0 repo event, 0 wiki edits in Sep 2015</title></rect><rect x="230" y="6" width="15" height="15" class="none"><title>0 emails, 0 repo event, 0 wiki edits in Oct 2015</title></rect><rect x="250" y="6" width="15" height="15" class="none"><title>0 emails, 0 repo event, 0 wiki edits in Nov 2015</title></rect><rect x="270" y="6" width="15" height="15" class="none"><title>0 emails, 0 repo event, 0 wiki edits in Dec 2015</title></rect></g>
<g transform="translate(0 40)">
  <title>Activity in 2016</title>
  <text x="2" y="20">2016</text><rect x="50" y="6" width="15" height="15" class="low"><title>1 emails, 0 repo event, 0 wiki edits in Jan 2016</title></rect><rect x="70" y="6" width="15" height="15" class="none"><title>0 emails, 0 repo event, 0 wiki edits in Feb 2016</title></rect><rect x="90" y="6" width="15" height="15" class="low"><title>1 emails, 0 repo event, 0 wiki edits in Mar 2016</title></rect><rect x="110" y="6" width="15" height="15" class="none"><title>0 emails, 0 repo event, 0 wiki edits in Apr 2016</title></rect><rect x="130" y="6" width="15" height="15" class="none"><title>0 emails, 0 repo event, 0 wiki edits in May 2016</title></rect><rect x="150" y="6" width="15" height="15" class="none"><title>0 emails, 0 repo event, 0 wiki edits in Jun 2016</title></rect><rect x="170" y="6" width="15" height="15" class="none"><title>0 emails, 0 repo event, 0 wiki edits in Jul 2016</title></rect><rect x="190" y="6" width="15" height="15" class="none"><title>0 emails, 0 repo event, 0 wiki edits in Aug 2016</title></rect><rect x="210" y="6" width="15" height="15" class="none"><title>0 emails, 0 repo event, 0 wiki edits in Sep 2016</title></rect><rect x="230" y="6" width="15" height="15" class="none"><title>0 emails, 0 repo event, 0 wiki edits in Oct 2016</title></rect><rect x="250" y="6" width="15" height="15" class="none"><title>0 emails, 0 repo event, 0 wiki edits in Nov 2016</title></rect><rect x="270" y="6" width="15" height="15" class="none"><title>0 emails, 0 repo event, 0 wiki edits in Dec 2016</title></rect></g>
<g transform="translate(0 60)">
  <title>Activity in 2017</title>
  <text x="2" y="20">2017</text><rect x="50" y="6" width="15" height="15" class="none"><title>0 emails, 0 repo event, 0 wiki edits in Jan 2017</title></rect><rect x="70" y="6" width="15" height="15" class="none"><title>0 emails, 0 repo event, 0 wiki edits in Feb 2017</title></rect><rect x="90" y="6" width="15" height="15" class="none"><title>0 emails, 0 repo event, 0 wiki edits in Mar 2017</title></rect><rect x="110" y="6" width="15" height="15" class="none"><title>0 emails, 0 repo event, 0 wiki edits in Apr 2017</title></rect><rect x="130" y="6" width="15" height="15" class="none"><title>0 emails, 0 repo event, 0 wiki edits in May 2017</title></rect><rect x="150" y="6" width="15" height="15" class="none"><title>0 emails, 0 repo event, 0 wiki edits in Jun 2017</title></rect><rect x="170" y="6" width="15" height="15" class="none"><title>0 emails, 0 repo event, 0 wiki edits in Jul 2017</title></rect><rect x="190" y="6" width="15" height="15" class="none"><title>0 emails, 0 repo event, 0 wiki edits in Aug 2017</title></rect><rect x="210" y="6" width="15" height="15" class="none"><title>0 emails, 0 repo event, 0 wiki edits in Sep 2017</title></rect><rect x="230" y="6" width="15" height="15" class="none"><title>0 emails, 0 repo event, 0 wiki edits in Oct 2017</title></rect><rect x="250" y="6" width="15" height="15" class="none"><title>0 emails, 0 repo event, 0 wiki edits in Nov 2017</title></rect><rect x="270" y="6" width="15" height="15" class="none"><title>0 emails, 0 repo event, 0 wiki edits in Dec 2017</title></rect></g>
<g transform="translate(0 80)">
  <title>Activity in 2018</title>
  <text x="2" y="20">2018</text><rect x="50" y="6" width="15" height="15" class="none"><title>0 emails, 0 repo event, 0 wiki edits in Jan 2018</title></rect><rect x="70" y="6" width="15" height="15" class="none"><title>0 emails, 0 repo event, 0 wiki edits in Feb 2018</title></rect><rect x="90" y="6" width="15" height="15" class="low"><title>1 emails, 0 repo event, 0 wiki edits in Mar 2018</title></rect><rect x="110" y="6" width="15" height="15" class="none"><title>0 emails, 0 repo event, 0 wiki edits in Apr 2018</title></rect><rect x="130" y="6" width="15" height="15" class="low"><title>1 emails, 0 repo event, 0 wiki edits in May 2018</title></rect><rect x="150" y="6" width="15" height="15" class="none"><title>0 emails, 0 repo event, 0 wiki edits in Jun 2018</title></rect><rect x="170" y="6" width="15" height="15" class="none"><title>0 emails, 0 repo event, 0 wiki edits in Jul 2018</title></rect><rect x="190" y="6" width="15" height="15" class="none"><title>0 emails, 0 repo event, 0 wiki edits in Aug 2018</title></rect><rect x="210" y="6" width="15" height="15" class="none"><title>0 emails, 0 repo event, 0 wiki edits in Sep 2018</title></rect><rect x="230" y="6" width="15" height="15" class="none"><title>0 emails, 0 repo event, 0 wiki edits in Oct 2018</title></rect><rect x="250" y="6" width="15" height="15" class="none"><title>0 emails, 0 repo event, 0 wiki edits in Nov 2018</title></rect><rect x="270" y="6" width="15" height="15" class="none"><title>0 emails, 0 repo event, 0 wiki edits in Dec 2018</title></rect></g>
<g transform="translate(0 100)">
  <title>Activity in 2019</title>
  <text x="2" y="20">2019</text><rect x="50" y="6" width="15" height="15" class="none"><title>0 emails, 0 repo event, 0 wiki edits in Jan 2019</title></rect><rect x="70" y="6" width="15" height="15" class="none"><title>0 emails, 0 repo event, 0 wiki edits in Feb 2019</title></rect><rect x="90" y="6" width="15" height="15" class="low"><title>1 emails, 0 repo event, 0 wiki edits in Mar 2019</title></rect><rect x="110" y="6" width="15" height="15" class="low"><title>1 emails, 0 repo event, 0 wiki edits in Apr 2019</title></rect><rect x="130" y="6" width="15" height="15" class="none"><title>0 emails, 0 repo event, 0 wiki edits in May 2019</title></rect><rect x="150" y="6" width="15" height="15" class="none"><title>0 emails, 0 repo event, 0 wiki edits in Jun 2019</title></rect><rect x="170" y="6" width="15" height="15" class="none"><title>0 emails, 0 repo event, 0 wiki edits in Jul 2019</title></rect><rect x="190" y="6" width="15" height="15" class="none"><title>0 emails, 0 repo event, 0 wiki edits in Aug 2019</title></rect><rect x="210" y="6" width="15" height="15" class="none"><title>0 emails, 0 repo event, 0 wiki edits in Sep 2019</title></rect><rect x="230" y="6" width="15" height="15" class="none"><title>0 emails, 0 repo event, 0 wiki edits in Oct 2019</title></rect><rect x="250" y="6" width="15" height="15" class="none"><title>0 emails, 0 repo event, 0 wiki edits in Nov 2019</title></rect><rect x="270" y="6" width="15" height="15" class="none"><title>0 emails, 0 repo event, 0 wiki edits in Dec 2019</title></rect></g>
<g transform="translate(0 120)">
  <title>Activity in 2020</title>
  <text x="2" y="20">2020</text><rect x="50" y="6" width="15" height="15" class="none"><title>0 emails, 0 repo event, 0 wiki edits in Jan 2020</title></rect><rect x="70" y="6" width="15" height="15" class="none"><title>0 emails, 0 repo event, 0 wiki edits in Feb 2020</title></rect><rect x="90" y="6" width="15" height="15" class="none"><title>0 emails, 0 repo event, 0 wiki edits in Mar 2020</title></rect><rect x="110" y="6" width="15" height="15" class="none"><title>0 emails, 0 repo event, 0 wiki edits in Apr 2020</title></rect><rect x="130" y="6" width="15" height="15" class="none"><title>0 emails, 0 repo event, 0 wiki edits in May 2020</title></rect><rect x="150" y="6" width="15" height="15" class="none"><title>0 emails, 0 repo event, 0 wiki edits in Jun 2020</title></rect><rect x="170" y="6" width="15" height="15" class="none"><title>0 emails, 0 repo event, 0 wiki edits in Jul 2020</title></rect><rect x="190" y="6" width="15" height="15" class="none"><title>0 emails, 0 repo event, 0 wiki edits in Aug 2020</title></rect><rect x="210" y="6" width="15" height="15" class="none"><title>0 emails, 0 repo event, 0 wiki edits in Sep 2020</title></rect><rect x="230" y="6" width="15" height="15" class="none"><title>0 emails, 0 repo event, 0 wiki edits in Oct 2020</title></rect></g><text style="font-size: 10px; text-align: center" x="53" y="150">J</text><text style="font-size: 10px; text-align: center" x="73" y="150">F</text><text style="font-size: 10px; text-align: center" x="93" y="150">M</text><text style="font-size: 10px; text-align: center" x="113" y="150">A</text><text style="font-size: 10px; text-align: center" x="133" y="150">M</text><text style="font-size: 10px; text-align: center" x="153" y="150">J</text><text style="font-size: 10px; text-align: center" x="173" y="150">J</text><text style="font-size: 10px; text-align: center" x="193" y="150">A</text><text style="font-size: 10px; text-align: center" x="213" y="150">S</text><text style="font-size: 10px; text-align: center" x="233" y="150">O</text><text style="font-size: 10px; text-align: center" x="253" y="150">N</text><text style="font-size: 10px; text-align: center" x="273" y="150">D</text><text style="font-size: 10px;" x="150" y="170">Less</text><rect class="none" width="10" height="10" x="180" y="160"></rect><rect class="low" width="10" height="10" x="195" y="160"></rect><rect class="medium" width="10" height="10" x="210" y="160"></rect><rect class="high" width="10" height="10" x="225" y="160"></rect><text x="240" y="170" style="font-size: 10px;">More</text></svg>