<svg xmlns="http://www.w3.org/2000/svg">
  <title>Activity of Chainpoint%20Community%20Group</title>

<g transform="translate(0 0)">
  <title>Activity in 2016</title>
  <text x="2" y="20">2016</text><rect x="210" y="6" width="15" height="15" fill="#6882ae"><title>2 emails, 116 repo event, 0 wiki edits in Sep 2016</title></rect><rect x="230" y="6" width="15" height="15" fill="#7d90b5"><title>0 emails, 92 repo event, 0 wiki edits in Oct 2016</title></rect><rect x="250" y="6" width="15" height="15" fill="#5174a8"><title>5 emails, 126 repo event, 0 wiki edits in Nov 2016</title></rect><rect x="270" y="6" width="15" height="15" fill="#6882ae"><title>0 emails, 115 repo event, 0 wiki edits in Dec 2016</title></rect></g>
<g transform="translate(0 20)">
  <title>Activity in 2017</title>
  <text x="2" y="20">2017</text><rect x="50" y="6" width="15" height="15" fill="#005a9c"><title>0 emails, 210 repo event, 0 wiki edits in Jan 2017</title></rect><rect x="70" y="6" width="15" height="15" fill="#005a9c"><title>0 emails, 194 repo event, 0 wiki edits in Feb 2017</title></rect><rect x="90" y="6" width="15" height="15" fill="#005a9c"><title>0 emails, 322 repo event, 0 wiki edits in Mar 2017</title></rect><rect x="110" y="6" width="15" height="15" fill="#005a9c"><title>0 emails, 398 repo event, 0 wiki edits in Apr 2017</title></rect><rect x="130" y="6" width="15" height="15" fill="#005a9c"><title>0 emails, 338 repo event, 0 wiki edits in May 2017</title></rect><rect x="150" y="6" width="15" height="15" fill="#005a9c"><title>0 emails, 209 repo event, 0 wiki edits in Jun 2017</title></rect><rect x="170" y="6" width="15" height="15" fill="#005a9c"><title>0 emails, 225 repo event, 0 wiki edits in Jul 2017</title></rect><rect x="190" y="6" width="15" height="15" fill="#005a9c"><title>0 emails, 199 repo event, 0 wiki edits in Aug 2017</title></rect><rect x="210" y="6" width="15" height="15" fill="#005a9c"><title>0 emails, 278 repo event, 0 wiki edits in Sep 2017</title></rect><rect x="230" y="6" width="15" height="15" fill="#005a9c"><title>0 emails, 434 repo event, 0 wiki edits in Oct 2017</title></rect><rect x="250" y="6" width="15" height="15" fill="#005a9c"><title>0 emails, 431 repo event, 0 wiki edits in Nov 2017</title></rect><rect x="270" y="6" width="15" height="15" fill="#005a9c"><title>0 emails, 573 repo event, 0 wiki edits in Dec 2017</title></rect></g>
<g transform="translate(0 40)">
  <title>Activity in 2018</title>
  <text x="2" y="20">2018</text><rect x="50" y="6" width="15" height="15" fill="#005a9c"><title>0 emails, 345 repo event, 0 wiki edits in Jan 2018</title></rect><rect x="70" y="6" width="15" height="15" fill="#005a9c"><title>0 emails, 262 repo event, 0 wiki edits in Feb 2018</title></rect><rect x="90" y="6" width="15" height="15" fill="#005a9c"><title>1 emails, 324 repo event, 0 wiki edits in Mar 2018</title></rect><rect x="110" y="6" width="15" height="15" fill="#005a9c"><title>0 emails, 379 repo event, 0 wiki edits in Apr 2018</title></rect><rect x="130" y="6" width="15" height="15" fill="#005a9c"><title>1 emails, 410 repo event, 0 wiki edits in May 2018</title></rect><rect x="150" y="6" width="15" height="15" fill="#005a9c"><title>0 emails, 423 repo event, 0 wiki edits in Jun 2018</title></rect><rect x="170" y="6" width="15" height="15" fill="#005a9c"><title>0 emails, 392 repo event, 0 wiki edits in Jul 2018</title></rect><rect x="190" y="6" width="15" height="15" fill="#005a9c"><title>0 emails, 250 repo event, 0 wiki edits in Aug 2018</title></rect><rect x="210" y="6" width="15" height="15" fill="#005a9c"><title>0 emails, 234 repo event, 0 wiki edits in Sep 2018</title></rect><rect x="230" y="6" width="15" height="15" fill="#005a9c"><title>0 emails, 328 repo event, 0 wiki edits in Oct 2018</title></rect><rect x="250" y="6" width="15" height="15" fill="#005a9c"><title>0 emails, 234 repo event, 0 wiki edits in Nov 2018</title></rect><rect x="270" y="6" width="15" height="15" fill="#5174a8"><title>0 emails, 145 repo event, 0 wiki edits in Dec 2018</title></rect></g>
<g transform="translate(0 60)">
  <title>Activity in 2019</title>
  <text x="2" y="20">2019</text><rect x="50" y="6" width="15" height="15" fill="#3667a2"><title>0 emails, 174 repo event, 0 wiki edits in Jan 2019</title></rect><rect x="70" y="6" width="15" height="15" fill="#5174a8"><title>0 emails, 137 repo event, 0 wiki edits in Feb 2019</title></rect><rect x="90" y="6" width="15" height="15" fill="#005a9c"><title>1 emails, 200 repo event, 0 wiki edits in Mar 2019</title></rect><rect x="110" y="6" width="15" height="15" fill="#005a9c"><title>1 emails, 176 repo event, 0 wiki edits in Apr 2019</title></rect><rect x="130" y="6" width="15" height="15" fill="#5174a8"><title>0 emails, 129 repo event, 0 wiki edits in May 2019</title></rect><rect x="150" y="6" width="15" height="15" fill="#5174a8"><title>0 emails, 128 repo event, 0 wiki edits in Jun 2019</title></rect><rect x="170" y="6" width="15" height="15" fill="#7d90b5"><title>0 emails, 77 repo event, 0 wiki edits in Jul 2019</title></rect><rect x="190" y="6" width="15" height="15" fill="#919fba"><title>0 emails, 54 repo event, 0 wiki edits in Aug 2019</title></rect><rect x="210" y="6" width="15" height="15" fill="#7d90b5"><title>0 emails, 79 repo event, 0 wiki edits in Sep 2019</title></rect><rect x="230" y="6" width="15" height="15" fill="#7d90b5"><title>0 emails, 86 repo event, 0 wiki edits in Oct 2019</title></rect><rect x="250" y="6" width="15" height="15" fill="#6882ae"><title>0 emails, 116 repo event, 0 wiki edits in Nov 2019</title></rect><rect x="270" y="6" width="15" height="15" fill="#b9bdc6"><title>0 emails, 12 repo event, 0 wiki edits in Dec 2019</title></rect></g>
<g transform="translate(0 80)">
  <title>Activity in 2020</title>
  <text x="2" y="20">2020</text><rect x="50" y="6" width="15" height="15" fill="#b9bdc6"><title>0 emails, 12 repo event, 0 wiki edits in Jan 2020</title></rect><rect x="70" y="6" width="15" height="15" fill="#b9bdc6"><title>0 emails, 22 repo event, 0 wiki edits in Feb 2020</title></rect><rect x="90" y="6" width="15" height="15" fill="#b9bdc6"><title>0 emails, 12 repo event, 0 wiki edits in Mar 2020</title></rect><rect x="110" y="6" width="15" height="15" fill="#b9bdc6"><title>0 emails, 25 repo event, 0 wiki edits in Apr 2020</title></rect><rect x="130" y="6" width="15" height="15" fill="#b9bdc6"><title>1 emails, 8 repo event, 0 wiki edits in May 2020</title></rect><rect x="150" y="6" width="15" height="15" fill="#b9bdc6"><title>0 emails, 8 repo event, 0 wiki edits in Jun 2020</title></rect><rect x="170" y="6" width="15" height="15" fill="#b9bdc6"><title>0 emails, 3 repo event, 0 wiki edits in Jul 2020</title></rect><rect x="190" y="6" width="15" height="15" fill="#b9bdc6"><title>0 emails, 7 repo event, 0 wiki edits in Aug 2020</title></rect><rect x="210" y="6" width="15" height="15" fill="#b9bdc6"><title>0 emails, 6 repo event, 0 wiki edits in Sep 2020</title></rect><rect x="230" y="6" width="15" height="15" fill="#b9bdc6"><title>0 emails, 2 repo event, 0 wiki edits in Oct 2020</title></rect></g><text style="font-size: 10px; text-align: center" x="53" y="110">J</text><text style="font-size: 10px; text-align: center" x="73" y="110">F</text><text style="font-size: 10px; text-align: center" x="93" y="110">M</text><text style="font-size: 10px; text-align: center" x="113" y="110">A</text><text style="font-size: 10px; text-align: center" x="133" y="110">M</text><text style="font-size: 10px; text-align: center" x="153" y="110">J</text><text style="font-size: 10px; text-align: center" x="173" y="110">J</text><text style="font-size: 10px; text-align: center" x="193" y="110">A</text><text style="font-size: 10px; text-align: center" x="213" y="110">S</text><text style="font-size: 10px; text-align: center" x="233" y="110">O</text><text style="font-size: 10px; text-align: center" x="253" y="110">N</text><text style="font-size: 10px; text-align: center" x="273" y="110">D</text><text style="font-size: 10px;" x="150" y="130">Less</text><rect fill="#b9bdc6" width="10" height="10" x="180" y="120"></rect><rect fill="#919fba" width="10" height="10" x="195" y="120"></rect><rect fill="#6882ae" width="10" height="10" x="210" y="120"></rect><rect fill="#005a9c" width="10" height="10" x="225" y="120"></rect><text x="240" y="130" style="font-size: 10px;">More</text></svg>