<svg xmlns="http://www.w3.org/2000/svg" width="360" height="80">
  <title>Activity of Cognitive%20AI%20Community%20Group</title>

<g transform="translate(0 0)">
  <title>Activity in 2019</title>
  <text x="2" y="20">2019</text><rect x="270" y="6" width="15" height="15" fill="#cccccc"><title>0 emails, 0 repository events, 0 wiki edits in Dec 2019</title></rect></g>
<g transform="translate(0 20)">
  <title>Activity in 2020</title>
  <text x="2" y="20">2020</text><rect x="50" y="6" width="15" height="15" fill="#b9bdc6"><title>11 emails, 1 repository events, 0 wiki edits in Jan 2020</title></rect><rect x="70" y="6" width="15" height="15" fill="#b9bdc6"><title>7 emails, 0 repository events, 0 wiki edits in Feb 2020</title></rect><rect x="90" y="6" width="15" height="15" fill="#b9bdc6"><title>6 emails, 0 repository events, 0 wiki edits in Mar 2020</title></rect><rect x="110" y="6" width="15" height="15" fill="#cccccc"><title>0 emails, 0 repository events, 0 wiki edits in Apr 2020</title></rect><rect x="130" y="6" width="15" height="15" fill="#b9bdc6"><title>3 emails, 2 repository events, 0 wiki edits in May 2020</title></rect><rect x="150" y="6" width="15" height="15" fill="#b9bdc6"><title>7 emails, 11 repository events, 0 wiki edits in Jun 2020</title></rect><rect x="170" y="6" width="15" height="15" fill="#b9bdc6"><title>20 emails, 3 repository events, 0 wiki edits in Jul 2020</title></rect><rect x="190" y="6" width="15" height="15" fill="#b9bdc6"><title>3 emails, 4 repository events, 0 wiki edits in Aug 2020</title></rect><rect x="210" y="6" width="15" height="15" fill="#b9bdc6"><title>24 emails, 0 repository events, 0 wiki edits in Sep 2020</title></rect><rect x="230" y="6" width="15" height="15" fill="#b9bdc6"><title>12 emails, 0 repository events, 0 wiki edits in Oct 2020</title></rect><rect x="250" y="6" width="15" height="15" fill="#b9bdc6"><title>14 emails, 7 repository events, 0 wiki edits in Nov 2020</title></rect><rect x="270" y="6" width="15" height="15" fill="#cccccc"><title>0 emails, 0 repository events, 0 wiki edits in Dec 2020</title></rect></g>
<g transform="translate(0 40)">
  <title>Activity in 2021</title>
  <text x="2" y="20">2021</text><rect x="50" y="6" width="15" height="15" fill="#b9bdc6"><title>13 emails, 0 repository events, 0 wiki edits in Jan 2021</title></rect><rect x="70" y="6" width="15" height="15" fill="#a5aec0"><title>17 emails, 9 repository events, 0 wiki edits in Feb 2021</title></rect><rect x="90" y="6" width="15" height="15" fill="#b9bdc6"><title>6 emails, 6 repository events, 0 wiki edits in Mar 2021</title></rect><rect x="110" y="6" width="15" height="15" fill="#b9bdc6"><title>13 emails, 0 repository events, 0 wiki edits in Apr 2021</title></rect><rect x="130" y="6" width="15" height="15" fill="#b9bdc6"><title>2 emails, 5 repository events, 0 wiki edits in May 2021</title></rect><rect x="150" y="6" width="15" height="15" fill="#b9bdc6"><title>4 emails, 1 repository events, 0 wiki edits in Jun 2021</title></rect><rect x="170" y="6" width="15" height="15" fill="#b9bdc6"><title>8 emails, 4 repository events, 0 wiki edits in Jul 2021</title></rect><rect x="190" y="6" width="15" height="15" fill="#cccccc"><title>0 emails, 0 repository events, 0 wiki edits in Aug 2021</title></rect></g><text style="font-size: 10px; text-align: center" x="53" y="70">J</text><text style="font-size: 10px; text-align: center" x="73" y="70">F</text><text style="font-size: 10px; text-align: center" x="93" y="70">M</text><text style="font-size: 10px; text-align: center" x="113" y="70">A</text><text style="font-size: 10px; text-align: center" x="133" y="70">M</text><text style="font-size: 10px; text-align: center" x="153" y="70">J</text><text style="font-size: 10px; text-align: center" x="173" y="70">J</text><text style="font-size: 10px; text-align: center" x="193" y="70">A</text><text style="font-size: 10px; text-align: center" x="213" y="70">S</text><text style="font-size: 10px; text-align: center" x="233" y="70">O</text><text style="font-size: 10px; text-align: center" x="253" y="70">N</text><text style="font-size: 10px; text-align: center" x="273" y="70">D</text><text style="font-size: 10px;" x="155" y="89">Less</text><rect fill="#b9bdc6" width="10" height="10" x="180" y="80"><title>No activity in the period</title></rect><rect fill="#919fba" width="10" height="10" x="195" y="80"><title>Low activity in the period</title></rect><rect fill="#6882ae" width="10" height="10" x="210" y="80"><title>Medium activity in the period</title></rect><rect fill="#005a9c" width="10" height="10" x="225" y="80"><title>High activity in period</title></rect><text x="240" y="89" style="font-size: 10px;">More</text></svg>