<svg xmlns="http://www.w3.org/2000/svg" width="360">
  <title>Activity of Decentralized%20Identity%20Korean%20Community%20Group</title>

<g transform="translate(0 0)">
  <title>Activity in 2020</title>
  <text x="2" y="20">2020</text><rect x="90" y="6" width="15" height="15" fill="#b9bdc6"><title>6 emails, 0 repo event, 0 wiki edits in Mar 2020</title></rect><rect x="110" y="6" width="15" height="15" fill="#b9bdc6"><title>2 emails, 0 repo event, 0 wiki edits in Apr 2020</title></rect><rect x="130" y="6" width="15" height="15" fill="#cccccc"><title>0 emails, 0 repo event, 0 wiki edits in May 2020</title></rect><rect x="150" y="6" width="15" height="15" fill="#b9bdc6"><title>0 emails, 5 repo event, 0 wiki edits in Jun 2020</title></rect><rect x="170" y="6" width="15" height="15" fill="#cccccc"><title>0 emails, 0 repo event, 0 wiki edits in Jul 2020</title></rect><rect x="190" y="6" width="15" height="15" fill="#b9bdc6"><title>0 emails, 2 repo event, 0 wiki edits in Aug 2020</title></rect><rect x="210" y="6" width="15" height="15" fill="#cccccc"><title>0 emails, 0 repo event, 0 wiki edits in Sep 2020</title></rect><rect x="230" y="6" width="15" height="15" fill="#cccccc"><title>0 emails, 0 repo event, 0 wiki edits in Oct 2020</title></rect><rect x="250" y="6" width="15" height="15" fill="#cccccc"><title>0 emails, 0 repo event, 0 wiki edits in Nov 2020</title></rect></g><text style="font-size: 10px; text-align: center" x="53" y="30">J</text><text style="font-size: 10px; text-align: center" x="73" y="30">F</text><text style="font-size: 10px; text-align: center" x="93" y="30">M</text><text style="font-size: 10px; text-align: center" x="113" y="30">A</text><text style="font-size: 10px; text-align: center" x="133" y="30">M</text><text style="font-size: 10px; text-align: center" x="153" y="30">J</text><text style="font-size: 10px; text-align: center" x="173" y="30">J</text><text style="font-size: 10px; text-align: center" x="193" y="30">A</text><text style="font-size: 10px; text-align: center" x="213" y="30">S</text><text style="font-size: 10px; text-align: center" x="233" y="30">O</text><text style="font-size: 10px; text-align: center" x="253" y="30">N</text><text style="font-size: 10px; text-align: center" x="273" y="30">D</text><text style="font-size: 10px;" x="150" y="50">Less</text><rect fill="#b9bdc6" width="10" height="10" x="180" y="40"></rect><rect fill="#919fba" width="10" height="10" x="195" y="40"></rect><rect fill="#6882ae" width="10" height="10" x="210" y="40"></rect><rect fill="#005a9c" width="10" height="10" x="225" y="40"></rect><text x="240" y="50" style="font-size: 10px;">More</text></svg>