<svg xmlns="http://www.w3.org/2000/svg">
  <title>Activity of EPUB%203%20Community%20Group</title>
  <style type="text/css">.none { fill: #aaa;}
  .low { fill: #8ac;}
  .medium { fill: #49a;}
  .high { fill: #159;}
  </style>

<g transform="translate(0 0)">
  <title>Activity in 2017</title>
  <text x="2" y="20">2017</text><rect x="70" y="6" width="15" height="15" class="medium"><title>22 emails, 4 repo event, 0 wiki edits in Feb 2017</title></rect><rect x="90" y="6" width="15" height="15" class="low"><title>8 emails, 4 repo event, 0 wiki edits in Mar 2017</title></rect><rect x="110" y="6" width="15" height="15" class="low"><title>9 emails, 3 repo event, 0 wiki edits in Apr 2017</title></rect><rect x="130" y="6" width="15" height="15" class="medium"><title>27 emails, 14 repo event, 0 wiki edits in May 2017</title></rect><rect x="150" y="6" width="15" height="15" class="medium"><title>46 emails, 24 repo event, 0 wiki edits in Jun 2017</title></rect><rect x="170" y="6" width="15" height="15" class="medium"><title>12 emails, 16 repo event, 0 wiki edits in Jul 2017</title></rect><rect x="190" y="6" width="15" height="15" class="medium"><title>30 emails, 13 repo event, 0 wiki edits in Aug 2017</title></rect><rect x="210" y="6" width="15" height="15" class="low"><title>5 emails, 14 repo event, 0 wiki edits in Sep 2017</title></rect><rect x="230" y="6" width="15" height="15" class="medium"><title>41 emails, 9 repo event, 0 wiki edits in Oct 2017</title></rect><rect x="250" y="6" width="15" height="15" class="medium"><title>6 emails, 26 repo event, 0 wiki edits in Nov 2017</title></rect><rect x="270" y="6" width="15" height="15" class="medium"><title>8 emails, 15 repo event, 0 wiki edits in Dec 2017</title></rect></g>
<g transform="translate(0 20)">
  <title>Activity in 2018</title>
  <text x="2" y="20">2018</text><rect x="50" y="6" width="15" height="15" class="medium"><title>18 emails, 5 repo event, 0 wiki edits in Jan 2018</title></rect><rect x="70" y="6" width="15" height="15" class="low"><title>0 emails, 9 repo event, 0 wiki edits in Feb 2018</title></rect><rect x="90" y="6" width="15" height="15" class="low"><title>8 emails, 4 repo event, 0 wiki edits in Mar 2018</title></rect><rect x="110" y="6" width="15" height="15" class="medium"><title>10 emails, 13 repo event, 0 wiki edits in Apr 2018</title></rect><rect x="130" y="6" width="15" height="15" class="medium"><title>1 emails, 45 repo event, 0 wiki edits in May 2018</title></rect><rect x="150" y="6" width="15" height="15" class="low"><title>6 emails, 3 repo event, 0 wiki edits in Jun 2018</title></rect><rect x="170" y="6" width="15" height="15" class="medium"><title>35 emails, 2 repo event, 0 wiki edits in Jul 2018</title></rect><rect x="190" y="6" width="15" height="15" class="low"><title>4 emails, 5 repo event, 0 wiki edits in Aug 2018</title></rect><rect x="210" y="6" width="15" height="15" class="medium"><title>53 emails, 2 repo event, 0 wiki edits in Sep 2018</title></rect><rect x="230" y="6" width="15" height="15" class="low"><title>3 emails, 11 repo event, 0 wiki edits in Oct 2018</title></rect><rect x="250" y="6" width="15" height="15" class="medium"><title>0 emails, 64 repo event, 0 wiki edits in Nov 2018</title></rect><rect x="270" y="6" width="15" height="15" class="medium"><title>25 emails, 26 repo event, 0 wiki edits in Dec 2018</title></rect></g>
<g transform="translate(0 40)">
  <title>Activity in 2019</title>
  <text x="2" y="20">2019</text><rect x="50" y="6" width="15" height="15" class="medium"><title>10 emails, 53 repo event, 0 wiki edits in Jan 2019</title></rect><rect x="70" y="6" width="15" height="15" class="medium"><title>13 emails, 43 repo event, 0 wiki edits in Feb 2019</title></rect><rect x="90" y="6" width="15" height="15" class="high"><title>21 emails, 68 repo event, 0 wiki edits in Mar 2019</title></rect><rect x="110" y="6" width="15" height="15" class="medium"><title>10 emails, 19 repo event, 0 wiki edits in Apr 2019</title></rect><rect x="130" y="6" width="15" height="15" class="high"><title>88 emails, 9 repo event, 0 wiki edits in May 2019</title></rect><rect x="150" y="6" width="15" height="15" class="medium"><title>15 emails, 9 repo event, 0 wiki edits in Jun 2019</title></rect><rect x="170" y="6" width="15" height="15" class="medium"><title>18 emails, 17 repo event, 0 wiki edits in Jul 2019</title></rect><rect x="190" y="6" width="15" height="15" class="medium"><title>41 emails, 22 repo event, 0 wiki edits in Aug 2019</title></rect><rect x="210" y="6" width="15" height="15" class="medium"><title>13 emails, 8 repo event, 0 wiki edits in Sep 2019</title></rect><rect x="230" y="6" width="15" height="15" class="low"><title>4 emails, 5 repo event, 0 wiki edits in Oct 2019</title></rect><rect x="250" y="6" width="15" height="15" class="low"><title>10 emails, 6 repo event, 0 wiki edits in Nov 2019</title></rect><rect x="270" y="6" width="15" height="15" class="low"><title>13 emails, 3 repo event, 0 wiki edits in Dec 2019</title></rect></g>
<g transform="translate(0 60)">
  <title>Activity in 2020</title>
  <text x="2" y="20">2020</text><rect x="50" y="6" width="15" height="15" class="low"><title>4 emails, 9 repo event, 0 wiki edits in Jan 2020</title></rect><rect x="70" y="6" width="15" height="15" class="low"><title>16 emails, 1 repo event, 0 wiki edits in Feb 2020</title></rect><rect x="90" y="6" width="15" height="15" class="medium"><title>24 emails, 33 repo event, 0 wiki edits in Mar 2020</title></rect><rect x="110" y="6" width="15" height="15" class="low"><title>1 emails, 14 repo event, 0 wiki edits in Apr 2020</title></rect><rect x="130" y="6" width="15" height="15" class="low"><title>0 emails, 18 repo event, 0 wiki edits in May 2020</title></rect><rect x="150" y="6" width="15" height="15" class="medium"><title>3 emails, 20 repo event, 0 wiki edits in Jun 2020</title></rect><rect x="170" y="6" width="15" height="15" class="medium"><title>1 emails, 20 repo event, 0 wiki edits in Jul 2020</title></rect><rect x="190" y="6" width="15" height="15" class="low"><title>0 emails, 19 repo event, 0 wiki edits in Aug 2020</title></rect><rect x="210" y="6" width="15" height="15" class="low"><title>4 emails, 4 repo event, 0 wiki edits in Sep 2020</title></rect><rect x="230" y="6" width="15" height="15" class="medium"><title>21 emails, 6 repo event, 0 wiki edits in Oct 2020</title></rect><rect x="250" y="6" width="15" height="15" class="medium"><title>22 emails, 5 repo event, 0 wiki edits in Nov 2020</title></rect></g></svg>