<svg xmlns="http://www.w3.org/2000/svg">
  <title>Activity of Immersive%20Web%20Community%20Group</title>

<g transform="translate(0 0)">
  <title>Activity in 2016</title>
  <text x="2" y="20">2016</text><rect x="90" y="6" width="15" height="15" fill="#7d90b5"><title>0 emails, 81 repo event, 0 wiki edits in Mar 2016</title></rect><rect x="110" y="6" width="15" height="15" fill="#6882ae"><title>0 emails, 115 repo event, 0 wiki edits in Apr 2016</title></rect><rect x="130" y="6" width="15" height="15" fill="#919fba"><title>0 emails, 60 repo event, 0 wiki edits in May 2016</title></rect><rect x="150" y="6" width="15" height="15" fill="#7d90b5"><title>0 emails, 94 repo event, 0 wiki edits in Jun 2016</title></rect><rect x="170" y="6" width="15" height="15" fill="#b9bdc6"><title>0 emails, 23 repo event, 0 wiki edits in Jul 2016</title></rect><rect x="190" y="6" width="15" height="15" fill="#a5aec0"><title>0 emails, 37 repo event, 0 wiki edits in Aug 2016</title></rect><rect x="210" y="6" width="15" height="15" fill="#919fba"><title>0 emails, 62 repo event, 0 wiki edits in Sep 2016</title></rect><rect x="230" y="6" width="15" height="15" fill="#7d90b5"><title>0 emails, 84 repo event, 0 wiki edits in Oct 2016</title></rect><rect x="250" y="6" width="15" height="15" fill="#005a9c"><title>0 emails, 290 repo event, 0 wiki edits in Nov 2016</title></rect><rect x="270" y="6" width="15" height="15" fill="#6882ae"><title>0 emails, 101 repo event, 0 wiki edits in Dec 2016</title></rect></g>
<g transform="translate(0 20)">
  <title>Activity in 2017</title>
  <text x="2" y="20">2017</text><rect x="50" y="6" width="15" height="15" fill="#5174a8"><title>0 emails, 132 repo event, 0 wiki edits in Jan 2017</title></rect><rect x="70" y="6" width="15" height="15" fill="#919fba"><title>0 emails, 65 repo event, 0 wiki edits in Feb 2017</title></rect><rect x="90" y="6" width="15" height="15" fill="#7d90b5"><title>0 emails, 89 repo event, 0 wiki edits in Mar 2017</title></rect><rect x="110" y="6" width="15" height="15" fill="#5174a8"><title>0 emails, 133 repo event, 0 wiki edits in Apr 2017</title></rect><rect x="130" y="6" width="15" height="15" fill="#005a9c"><title>0 emails, 202 repo event, 0 wiki edits in May 2017</title></rect><rect x="150" y="6" width="15" height="15" fill="#5174a8"><title>0 emails, 132 repo event, 0 wiki edits in Jun 2017</title></rect><rect x="170" y="6" width="15" height="15" fill="#a5aec0"><title>0 emails, 28 repo event, 0 wiki edits in Jul 2017</title></rect><rect x="190" y="6" width="15" height="15" fill="#919fba"><title>0 emails, 59 repo event, 0 wiki edits in Aug 2017</title></rect><rect x="210" y="6" width="15" height="15" fill="#a5aec0"><title>0 emails, 32 repo event, 0 wiki edits in Sep 2017</title></rect><rect x="230" y="6" width="15" height="15" fill="#a5aec0"><title>0 emails, 49 repo event, 0 wiki edits in Oct 2017</title></rect><rect x="250" y="6" width="15" height="15" fill="#919fba"><title>0 emails, 59 repo event, 0 wiki edits in Nov 2017</title></rect><rect x="270" y="6" width="15" height="15" fill="#7d90b5"><title>0 emails, 80 repo event, 0 wiki edits in Dec 2017</title></rect></g>
<g transform="translate(0 40)">
  <title>Activity in 2018</title>
  <text x="2" y="20">2018</text><rect x="50" y="6" width="15" height="15" fill="#7d90b5"><title>0 emails, 84 repo event, 0 wiki edits in Jan 2018</title></rect><rect x="70" y="6" width="15" height="15" fill="#7d90b5"><title>0 emails, 82 repo event, 0 wiki edits in Feb 2018</title></rect><rect x="90" y="6" width="15" height="15" fill="#6882ae"><title>0 emails, 105 repo event, 0 wiki edits in Mar 2018</title></rect><rect x="110" y="6" width="15" height="15" fill="#919fba"><title>0 emails, 72 repo event, 0 wiki edits in Apr 2018</title></rect><rect x="130" y="6" width="15" height="15" fill="#5174a8"><title>0 emails, 138 repo event, 0 wiki edits in May 2018</title></rect><rect x="150" y="6" width="15" height="15" fill="#6882ae"><title>10 emails, 93 repo event, 0 wiki edits in Jun 2018</title></rect><rect x="170" y="6" width="15" height="15" fill="#6882ae"><title>11 emails, 99 repo event, 0 wiki edits in Jul 2018</title></rect><rect x="190" y="6" width="15" height="15" fill="#005a9c"><title>105 emails, 74 repo event, 0 wiki edits in Aug 2018</title></rect><rect x="210" y="6" width="15" height="15" fill="#5174a8"><title>28 emails, 119 repo event, 0 wiki edits in Sep 2018</title></rect><rect x="230" y="6" width="15" height="15" fill="#6882ae"><title>19 emails, 104 repo event, 0 wiki edits in Oct 2018</title></rect><rect x="250" y="6" width="15" height="15" fill="#7d90b5"><title>11 emails, 80 repo event, 0 wiki edits in Nov 2018</title></rect><rect x="270" y="6" width="15" height="15" fill="#7d90b5"><title>20 emails, 73 repo event, 0 wiki edits in Dec 2018</title></rect></g>
<g transform="translate(0 60)">
  <title>Activity in 2019</title>
  <text x="2" y="20">2019</text><rect x="50" y="6" width="15" height="15" fill="#3667a2"><title>15 emails, 146 repo event, 0 wiki edits in Jan 2019</title></rect><rect x="70" y="6" width="15" height="15" fill="#005a9c"><title>27 emails, 231 repo event, 0 wiki edits in Feb 2019</title></rect><rect x="90" y="6" width="15" height="15" fill="#7d90b5"><title>12 emails, 80 repo event, 0 wiki edits in Mar 2019</title></rect><rect x="110" y="6" width="15" height="15" fill="#3667a2"><title>13 emails, 138 repo event, 0 wiki edits in Apr 2019</title></rect><rect x="130" y="6" width="15" height="15" fill="#005a9c"><title>8 emails, 168 repo event, 0 wiki edits in May 2019</title></rect><rect x="150" y="6" width="15" height="15" fill="#005a9c"><title>8 emails, 231 repo event, 0 wiki edits in Jun 2019</title></rect><rect x="170" y="6" width="15" height="15" fill="#005a9c"><title>18 emails, 160 repo event, 0 wiki edits in Jul 2019</title></rect><rect x="190" y="6" width="15" height="15" fill="#005a9c"><title>14 emails, 247 repo event, 0 wiki edits in Aug 2019</title></rect><rect x="210" y="6" width="15" height="15" fill="#005a9c"><title>13 emails, 266 repo event, 0 wiki edits in Sep 2019</title></rect><rect x="230" y="6" width="15" height="15" fill="#005a9c"><title>13 emails, 227 repo event, 0 wiki edits in Oct 2019</title></rect><rect x="250" y="6" width="15" height="15" fill="#3667a2"><title>10 emails, 149 repo event, 0 wiki edits in Nov 2019</title></rect><rect x="270" y="6" width="15" height="15" fill="#005a9c"><title>10 emails, 199 repo event, 0 wiki edits in Dec 2019</title></rect></g>
<g transform="translate(0 80)">
  <title>Activity in 2020</title>
  <text x="2" y="20">2020</text><rect x="50" y="6" width="15" height="15" fill="#005a9c"><title>11 emails, 261 repo event, 0 wiki edits in Jan 2020</title></rect><rect x="70" y="6" width="15" height="15" fill="#3667a2"><title>12 emails, 149 repo event, 0 wiki edits in Feb 2020</title></rect><rect x="90" y="6" width="15" height="15" fill="#3667a2"><title>6 emails, 145 repo event, 0 wiki edits in Mar 2020</title></rect><rect x="110" y="6" width="15" height="15" fill="#005a9c"><title>13 emails, 286 repo event, 0 wiki edits in Apr 2020</title></rect><rect x="130" y="6" width="15" height="15" fill="#005a9c"><title>8 emails, 231 repo event, 0 wiki edits in May 2020</title></rect><rect x="150" y="6" width="15" height="15" fill="#005a9c"><title>9 emails, 242 repo event, 0 wiki edits in Jun 2020</title></rect><rect x="170" y="6" width="15" height="15" fill="#3667a2"><title>11 emails, 146 repo event, 0 wiki edits in Jul 2020</title></rect><rect x="190" y="6" width="15" height="15" fill="#5174a8"><title>5 emails, 137 repo event, 0 wiki edits in Aug 2020</title></rect><rect x="210" y="6" width="15" height="15" fill="#3667a2"><title>7 emails, 150 repo event, 0 wiki edits in Sep 2020</title></rect><rect x="230" y="6" width="15" height="15" fill="#5174a8"><title>14 emails, 129 repo event, 0 wiki edits in Oct 2020</title></rect><rect x="250" y="6" width="15" height="15" fill="#7d90b5"><title>8 emails, 78 repo event, 0 wiki edits in Nov 2020</title></rect></g><text style="font-size: 10px; text-align: center" x="53" y="110">J</text><text style="font-size: 10px; text-align: center" x="73" y="110">F</text><text style="font-size: 10px; text-align: center" x="93" y="110">M</text><text style="font-size: 10px; text-align: center" x="113" y="110">A</text><text style="font-size: 10px; text-align: center" x="133" y="110">M</text><text style="font-size: 10px; text-align: center" x="153" y="110">J</text><text style="font-size: 10px; text-align: center" x="173" y="110">J</text><text style="font-size: 10px; text-align: center" x="193" y="110">A</text><text style="font-size: 10px; text-align: center" x="213" y="110">S</text><text style="font-size: 10px; text-align: center" x="233" y="110">O</text><text style="font-size: 10px; text-align: center" x="253" y="110">N</text><text style="font-size: 10px; text-align: center" x="273" y="110">D</text><text style="font-size: 10px;" x="150" y="130">Less</text><rect fill="#b9bdc6" width="10" height="10" x="180" y="120"></rect><rect fill="#919fba" width="10" height="10" x="195" y="120"></rect><rect fill="#6882ae" width="10" height="10" x="210" y="120"></rect><rect fill="#005a9c" width="10" height="10" x="225" y="120"></rect><text x="240" y="130" style="font-size: 10px;">More</text></svg>