<svg xmlns="http://www.w3.org/2000/svg" width="360" height="180">
  <title>Activity of Interledger%20Payments%20Community%20Group</title>

<g transform="translate(0 0)">
  <title>Activity in 2015</title>
  <text x="2" y="20">2015</text><rect x="230" y="6" width="15" height="15" fill="#919fba"><title>68 emails, 0 repository events, 0 wiki edits in Oct 2015</title></rect><rect x="250" y="6" width="15" height="15" fill="#a5aec0"><title>44 emails, 0 repository events, 0 wiki edits in Nov 2015</title></rect><rect x="270" y="6" width="15" height="15" fill="#b9bdc6"><title>25 emails, 0 repository events, 0 wiki edits in Dec 2015</title></rect></g>
<g transform="translate(0 20)">
  <title>Activity in 2016</title>
  <text x="2" y="20">2016</text><rect x="50" y="6" width="15" height="15" fill="#6882ae"><title>109 emails, 0 repository events, 0 wiki edits in Jan 2016</title></rect><rect x="70" y="6" width="15" height="15" fill="#a5aec0"><title>45 emails, 4 repository events, 0 wiki edits in Feb 2016</title></rect><rect x="90" y="6" width="15" height="15" fill="#005a9c"><title>189 emails, 2 repository events, 0 wiki edits in Mar 2016</title></rect><rect x="110" y="6" width="15" height="15" fill="#b9bdc6"><title>19 emails, 2 repository events, 0 wiki edits in Apr 2016</title></rect><rect x="130" y="6" width="15" height="15" fill="#7d90b5"><title>53 emails, 35 repository events, 0 wiki edits in May 2016</title></rect><rect x="150" y="6" width="15" height="15" fill="#a5aec0"><title>34 emails, 10 repository events, 0 wiki edits in Jun 2016</title></rect><rect x="170" y="6" width="15" height="15" fill="#a5aec0"><title>35 emails, 6 repository events, 0 wiki edits in Jul 2016</title></rect><rect x="190" y="6" width="15" height="15" fill="#a5aec0"><title>25 emails, 1 repository events, 0 wiki edits in Aug 2016</title></rect><rect x="210" y="6" width="15" height="15" fill="#a5aec0"><title>28 emails, 9 repository events, 0 wiki edits in Sep 2016</title></rect><rect x="230" y="6" width="15" height="15" fill="#a5aec0"><title>7 emails, 22 repository events, 0 wiki edits in Oct 2016</title></rect><rect x="250" y="6" width="15" height="15" fill="#6882ae"><title>97 emails, 12 repository events, 0 wiki edits in Nov 2016</title></rect><rect x="270" y="6" width="15" height="15" fill="#a5aec0"><title>33 emails, 9 repository events, 0 wiki edits in Dec 2016</title></rect></g>
<g transform="translate(0 40)">
  <title>Activity in 2017</title>
  <text x="2" y="20">2017</text><rect x="50" y="6" width="15" height="15" fill="#a5aec0"><title>29 emails, 9 repository events, 0 wiki edits in Jan 2017</title></rect><rect x="70" y="6" width="15" height="15" fill="#919fba"><title>45 emails, 15 repository events, 0 wiki edits in Feb 2017</title></rect><rect x="90" y="6" width="15" height="15" fill="#7d90b5"><title>40 emails, 42 repository events, 0 wiki edits in Mar 2017</title></rect><rect x="110" y="6" width="15" height="15" fill="#7d90b5"><title>34 emails, 52 repository events, 0 wiki edits in Apr 2017</title></rect><rect x="130" y="6" width="15" height="15" fill="#a5aec0"><title>7 emails, 40 repository events, 0 wiki edits in May 2017</title></rect><rect x="150" y="6" width="15" height="15" fill="#7d90b5"><title>64 emails, 27 repository events, 0 wiki edits in Jun 2017</title></rect><rect x="170" y="6" width="15" height="15" fill="#919fba"><title>34 emails, 32 repository events, 0 wiki edits in Jul 2017</title></rect><rect x="190" y="6" width="15" height="15" fill="#7d90b5"><title>50 emails, 45 repository events, 0 wiki edits in Aug 2017</title></rect><rect x="210" y="6" width="15" height="15" fill="#919fba"><title>5 emails, 53 repository events, 0 wiki edits in Sep 2017</title></rect><rect x="230" y="6" width="15" height="15" fill="#919fba"><title>6 emails, 51 repository events, 0 wiki edits in Oct 2017</title></rect><rect x="250" y="6" width="15" height="15" fill="#919fba"><title>8 emails, 45 repository events, 0 wiki edits in Nov 2017</title></rect><rect x="270" y="6" width="15" height="15" fill="#a5aec0"><title>2 emails, 39 repository events, 0 wiki edits in Dec 2017</title></rect></g>
<g transform="translate(0 60)">
  <title>Activity in 2018</title>
  <text x="2" y="20">2018</text><rect x="50" y="6" width="15" height="15" fill="#a5aec0"><title>4 emails, 46 repository events, 0 wiki edits in Jan 2018</title></rect><rect x="70" y="6" width="15" height="15" fill="#a5aec0"><title>7 emails, 38 repository events, 0 wiki edits in Feb 2018</title></rect><rect x="90" y="6" width="15" height="15" fill="#a5aec0"><title>7 emails, 19 repository events, 0 wiki edits in Mar 2018</title></rect><rect x="110" y="6" width="15" height="15" fill="#b9bdc6"><title>0 emails, 18 repository events, 0 wiki edits in Apr 2018</title></rect><rect x="130" y="6" width="15" height="15" fill="#919fba"><title>25 emails, 30 repository events, 0 wiki edits in May 2018</title></rect><rect x="150" y="6" width="15" height="15" fill="#b9bdc6"><title>5 emails, 10 repository events, 0 wiki edits in Jun 2018</title></rect><rect x="170" y="6" width="15" height="15" fill="#b9bdc6"><title>2 emails, 11 repository events, 0 wiki edits in Jul 2018</title></rect><rect x="190" y="6" width="15" height="15" fill="#919fba"><title>5 emails, 54 repository events, 0 wiki edits in Aug 2018</title></rect><rect x="210" y="6" width="15" height="15" fill="#b9bdc6"><title>5 emails, 20 repository events, 0 wiki edits in Sep 2018</title></rect><rect x="230" y="6" width="15" height="15" fill="#a5aec0"><title>22 emails, 23 repository events, 0 wiki edits in Oct 2018</title></rect><rect x="250" y="6" width="15" height="15" fill="#a5aec0"><title>22 emails, 24 repository events, 0 wiki edits in Nov 2018</title></rect><rect x="270" y="6" width="15" height="15" fill="#b9bdc6"><title>2 emails, 11 repository events, 0 wiki edits in Dec 2018</title></rect></g>
<g transform="translate(0 80)">
  <title>Activity in 2019</title>
  <text x="2" y="20">2019</text><rect x="50" y="6" width="15" height="15" fill="#b9bdc6"><title>10 emails, 12 repository events, 0 wiki edits in Jan 2019</title></rect><rect x="70" y="6" width="15" height="15" fill="#a5aec0"><title>24 emails, 22 repository events, 0 wiki edits in Feb 2019</title></rect><rect x="90" y="6" width="15" height="15" fill="#a5aec0"><title>7 emails, 19 repository events, 0 wiki edits in Mar 2019</title></rect><rect x="110" y="6" width="15" height="15" fill="#b9bdc6"><title>4 emails, 8 repository events, 0 wiki edits in Apr 2019</title></rect><rect x="130" y="6" width="15" height="15" fill="#a5aec0"><title>5 emails, 27 repository events, 0 wiki edits in May 2019</title></rect><rect x="150" y="6" width="15" height="15" fill="#b9bdc6"><title>2 emails, 19 repository events, 0 wiki edits in Jun 2019</title></rect><rect x="170" y="6" width="15" height="15" fill="#b9bdc6"><title>2 emails, 12 repository events, 0 wiki edits in Jul 2019</title></rect><rect x="190" y="6" width="15" height="15" fill="#a5aec0"><title>2 emails, 26 repository events, 0 wiki edits in Aug 2019</title></rect><rect x="210" y="6" width="15" height="15" fill="#b9bdc6"><title>2 emails, 14 repository events, 0 wiki edits in Sep 2019</title></rect><rect x="230" y="6" width="15" height="15" fill="#a5aec0"><title>3 emails, 43 repository events, 0 wiki edits in Oct 2019</title></rect><rect x="250" y="6" width="15" height="15" fill="#b9bdc6"><title>2 emails, 20 repository events, 0 wiki edits in Nov 2019</title></rect><rect x="270" y="6" width="15" height="15" fill="#b9bdc6"><title>3 emails, 6 repository events, 0 wiki edits in Dec 2019</title></rect></g>
<g transform="translate(0 100)">
  <title>Activity in 2020</title>
  <text x="2" y="20">2020</text><rect x="50" y="6" width="15" height="15" fill="#b9bdc6"><title>2 emails, 4 repository events, 0 wiki edits in Jan 2020</title></rect><rect x="70" y="6" width="15" height="15" fill="#b9bdc6"><title>2 emails, 19 repository events, 0 wiki edits in Feb 2020</title></rect><rect x="90" y="6" width="15" height="15" fill="#b9bdc6"><title>3 emails, 18 repository events, 0 wiki edits in Mar 2020</title></rect><rect x="110" y="6" width="15" height="15" fill="#b9bdc6"><title>2 emails, 18 repository events, 0 wiki edits in Apr 2020</title></rect><rect x="130" y="6" width="15" height="15" fill="#a5aec0"><title>2 emails, 32 repository events, 0 wiki edits in May 2020</title></rect><rect x="150" y="6" width="15" height="15" fill="#b9bdc6"><title>2 emails, 6 repository events, 0 wiki edits in Jun 2020</title></rect><rect x="170" y="6" width="15" height="15" fill="#b9bdc6"><title>2 emails, 6 repository events, 0 wiki edits in Jul 2020</title></rect><rect x="190" y="6" width="15" height="15" fill="#b9bdc6"><title>2 emails, 7 repository events, 0 wiki edits in Aug 2020</title></rect><rect x="210" y="6" width="15" height="15" fill="#b9bdc6"><title>4 emails, 1 repository events, 0 wiki edits in Sep 2020</title></rect><rect x="230" y="6" width="15" height="15" fill="#b9bdc6"><title>4 emails, 1 repository events, 0 wiki edits in Oct 2020</title></rect><rect x="250" y="6" width="15" height="15" fill="#b9bdc6"><title>2 emails, 5 repository events, 0 wiki edits in Nov 2020</title></rect><rect x="270" y="6" width="15" height="15" fill="#b9bdc6"><title>1 emails, 2 repository events, 0 wiki edits in Dec 2020</title></rect></g>
<g transform="translate(0 120)">
  <title>Activity in 2021</title>
  <text x="2" y="20">2021</text><rect x="50" y="6" width="15" height="15" fill="#b9bdc6"><title>4 emails, 2 repository events, 0 wiki edits in Jan 2021</title></rect><rect x="70" y="6" width="15" height="15" fill="#b9bdc6"><title>2 emails, 0 repository events, 0 wiki edits in Feb 2021</title></rect><rect x="90" y="6" width="15" height="15" fill="#b9bdc6"><title>3 emails, 10 repository events, 0 wiki edits in Mar 2021</title></rect><rect x="110" y="6" width="15" height="15" fill="#a5aec0"><title>4 emails, 41 repository events, 0 wiki edits in Apr 2021</title></rect><rect x="130" y="6" width="15" height="15" fill="#a5aec0"><title>2 emails, 27 repository events, 0 wiki edits in May 2021</title></rect><rect x="150" y="6" width="15" height="15" fill="#a5aec0"><title>2 emails, 25 repository events, 0 wiki edits in Jun 2021</title></rect><rect x="170" y="6" width="15" height="15" fill="#b9bdc6"><title>1 emails, 16 repository events, 0 wiki edits in Jul 2021</title></rect><rect x="190" y="6" width="15" height="15" fill="#a5aec0"><title>0 emails, 28 repository events, 0 wiki edits in Aug 2021</title></rect><rect x="210" y="6" width="15" height="15" fill="#b9bdc6"><title>0 emails, 16 repository events, 0 wiki edits in Sep 2021</title></rect><rect x="230" y="6" width="15" height="15" fill="#b9bdc6"><title>0 emails, 23 repository events, 0 wiki edits in Oct 2021</title></rect><rect x="250" y="6" width="15" height="15" fill="#b9bdc6"><title>0 emails, 13 repository events, 0 wiki edits in Nov 2021</title></rect><rect x="270" y="6" width="15" height="15" fill="#b9bdc6"><title>0 emails, 10 repository events, 0 wiki edits in Dec 2021</title></rect></g>
<g transform="translate(0 140)">
  <title>Activity in 2022</title>
  <text x="2" y="20">2022</text><rect x="50" y="6" width="15" height="15" fill="#b9bdc6"><title>0 emails, 14 repository events, 0 wiki edits in Jan 2022</title></rect><rect x="70" y="6" width="15" height="15" fill="#a5aec0"><title>0 emails, 36 repository events, 0 wiki edits in Feb 2022</title></rect><rect x="90" y="6" width="15" height="15" fill="#a5aec0"><title>0 emails, 40 repository events, 0 wiki edits in Mar 2022</title></rect><rect x="110" y="6" width="15" height="15" fill="#919fba"><title>0 emails, 58 repository events, 0 wiki edits in Apr 2022</title></rect><rect x="130" y="6" width="15" height="15" fill="#919fba"><title>0 emails, 53 repository events, 0 wiki edits in May 2022</title></rect><rect x="150" y="6" width="15" height="15" fill="#919fba"><title>0 emails, 69 repository events, 0 wiki edits in Jun 2022</title></rect><rect x="170" y="6" width="15" height="15" fill="#919fba"><title>0 emails, 54 repository events, 0 wiki edits in Jul 2022</title></rect><rect x="190" y="6" width="15" height="15" fill="#005a9c"><title>0 emails, 342 repository events, 0 wiki edits in Aug 2022</title></rect><rect x="210" y="6" width="15" height="15" fill="#5174a8"><title>0 emails, 141 repository events, 0 wiki edits in Sep 2022</title></rect><rect x="230" y="6" width="15" height="15" fill="#a5aec0"><title>0 emails, 28 repository events, 0 wiki edits in Oct 2022</title></rect></g><text style="font-size: 10px; text-align: center" x="53" y="170">J</text><text style="font-size: 10px; text-align: center" x="73" y="170">F</text><text style="font-size: 10px; text-align: center" x="93" y="170">M</text><text style="font-size: 10px; text-align: center" x="113" y="170">A</text><text style="font-size: 10px; text-align: center" x="133" y="170">M</text><text style="font-size: 10px; text-align: center" x="153" y="170">J</text><text style="font-size: 10px; text-align: center" x="173" y="170">J</text><text style="font-size: 10px; text-align: center" x="193" y="170">A</text><text style="font-size: 10px; text-align: center" x="213" y="170">S</text><text style="font-size: 10px; text-align: center" x="233" y="170">O</text><text style="font-size: 10px; text-align: center" x="253" y="170">N</text><text style="font-size: 10px; text-align: center" x="273" y="170">D</text><text style="font-size: 10px;" x="155" y="189">Less</text><rect fill="#b9bdc6" width="10" height="10" x="180" y="180"><title>No activity in the period</title></rect><rect fill="#919fba" width="10" height="10" x="195" y="180"><title>Low activity in the period</title></rect><rect fill="#6882ae" width="10" height="10" x="210" y="180"><title>Medium activity in the period</title></rect><rect fill="#005a9c" width="10" height="10" x="225" y="180"><title>High activity in period</title></rect><text x="240" y="189" style="font-size: 10px;">More</text></svg>