<svg xmlns="http://www.w3.org/2000/svg" width="360" height="300">
  <title>Activity of JSON%20for%20Linking%20Data%20Community%20Group</title>

<g transform="translate(0 0)">
  <title>Activity in 2011</title>
  <text x="2" y="20">2011</text><rect x="210" y="6" width="15" height="15" fill="#5174a8"><title>116 emails, 13 repository events, 0 wiki edits in Sep 2011</title></rect><rect x="230" y="6" width="15" height="15" fill="#6882ae"><title>101 emails, 3 repository events, 0 wiki edits in Oct 2011</title></rect><rect x="250" y="6" width="15" height="15" fill="#919fba"><title>58 emails, 5 repository events, 0 wiki edits in Nov 2011</title></rect><rect x="270" y="6" width="15" height="15" fill="#919fba"><title>60 emails, 5 repository events, 0 wiki edits in Dec 2011</title></rect></g>
<g transform="translate(0 20)">
  <title>Activity in 2012</title>
  <text x="2" y="20">2012</text><rect x="50" y="6" width="15" height="15" fill="#3667a2"><title>115 emails, 36 repository events, 0 wiki edits in Jan 2012</title></rect><rect x="70" y="6" width="15" height="15" fill="#a5aec0"><title>20 emails, 8 repository events, 0 wiki edits in Feb 2012</title></rect><rect x="90" y="6" width="15" height="15" fill="#919fba"><title>33 emails, 28 repository events, 0 wiki edits in Mar 2012</title></rect><rect x="110" y="6" width="15" height="15" fill="#5174a8"><title>59 emails, 75 repository events, 0 wiki edits in Apr 2012</title></rect><rect x="130" y="6" width="15" height="15" fill="#6882ae"><title>87 emails, 38 repository events, 0 wiki edits in May 2012</title></rect><rect x="150" y="6" width="15" height="15" fill="#5174a8"><title>114 emails, 17 repository events, 0 wiki edits in Jun 2012</title></rect><rect x="170" y="6" width="15" height="15" fill="#919fba"><title>60 emails, 10 repository events, 0 wiki edits in Jul 2012</title></rect><rect x="190" y="6" width="15" height="15" fill="#a5aec0"><title>33 emails, 15 repository events, 0 wiki edits in Aug 2012</title></rect><rect x="210" y="6" width="15" height="15" fill="#a5aec0"><title>24 emails, 15 repository events, 0 wiki edits in Sep 2012</title></rect><rect x="230" y="6" width="15" height="15" fill="#919fba"><title>36 emails, 23 repository events, 0 wiki edits in Oct 2012</title></rect><rect x="250" y="6" width="15" height="15" fill="#a5aec0"><title>21 emails, 23 repository events, 0 wiki edits in Nov 2012</title></rect><rect x="270" y="6" width="15" height="15" fill="#7d90b5"><title>44 emails, 56 repository events, 0 wiki edits in Dec 2012</title></rect></g>
<g transform="translate(0 40)">
  <title>Activity in 2013</title>
  <text x="2" y="20">2013</text><rect x="50" y="6" width="15" height="15" fill="#7d90b5"><title>57 emails, 27 repository events, 0 wiki edits in Jan 2013</title></rect><rect x="70" y="6" width="15" height="15" fill="#005a9c"><title>180 emails, 32 repository events, 0 wiki edits in Feb 2013</title></rect><rect x="90" y="6" width="15" height="15" fill="#5174a8"><title>118 emails, 32 repository events, 0 wiki edits in Mar 2013</title></rect><rect x="110" y="6" width="15" height="15" fill="#919fba"><title>51 emails, 21 repository events, 0 wiki edits in Apr 2013</title></rect><rect x="130" y="6" width="15" height="15" fill="#5174a8"><title>96 emails, 30 repository events, 0 wiki edits in May 2013</title></rect><rect x="150" y="6" width="15" height="15" fill="#7d90b5"><title>47 emails, 38 repository events, 0 wiki edits in Jun 2013</title></rect><rect x="170" y="6" width="15" height="15" fill="#005a9c"><title>148 emails, 33 repository events, 0 wiki edits in Jul 2013</title></rect><rect x="190" y="6" width="15" height="15" fill="#3667a2"><title>118 emails, 49 repository events, 0 wiki edits in Aug 2013</title></rect><rect x="210" y="6" width="15" height="15" fill="#6882ae"><title>99 emails, 24 repository events, 0 wiki edits in Sep 2013</title></rect><rect x="230" y="6" width="15" height="15" fill="#7d90b5"><title>62 emails, 16 repository events, 0 wiki edits in Oct 2013</title></rect><rect x="250" y="6" width="15" height="15" fill="#b9bdc6"><title>15 emails, 3 repository events, 0 wiki edits in Nov 2013</title></rect><rect x="270" y="6" width="15" height="15" fill="#b9bdc6"><title>19 emails, 4 repository events, 0 wiki edits in Dec 2013</title></rect></g>
<g transform="translate(0 60)">
  <title>Activity in 2014</title>
  <text x="2" y="20">2014</text><rect x="50" y="6" width="15" height="15" fill="#919fba"><title>69 emails, 5 repository events, 0 wiki edits in Jan 2014</title></rect><rect x="70" y="6" width="15" height="15" fill="#919fba"><title>37 emails, 19 repository events, 0 wiki edits in Feb 2014</title></rect><rect x="90" y="6" width="15" height="15" fill="#919fba"><title>42 emails, 23 repository events, 0 wiki edits in Mar 2014</title></rect><rect x="110" y="6" width="15" height="15" fill="#b9bdc6"><title>10 emails, 4 repository events, 0 wiki edits in Apr 2014</title></rect><rect x="130" y="6" width="15" height="15" fill="#a5aec0"><title>18 emails, 9 repository events, 0 wiki edits in May 2014</title></rect><rect x="150" y="6" width="15" height="15" fill="#919fba"><title>53 emails, 3 repository events, 0 wiki edits in Jun 2014</title></rect><rect x="170" y="6" width="15" height="15" fill="#7d90b5"><title>72 emails, 12 repository events, 0 wiki edits in Jul 2014</title></rect><rect x="190" y="6" width="15" height="15" fill="#919fba"><title>49 emails, 2 repository events, 0 wiki edits in Aug 2014</title></rect><rect x="210" y="6" width="15" height="15" fill="#b9bdc6"><title>7 emails, 9 repository events, 0 wiki edits in Sep 2014</title></rect><rect x="230" y="6" width="15" height="15" fill="#a5aec0"><title>24 emails, 8 repository events, 0 wiki edits in Oct 2014</title></rect><rect x="250" y="6" width="15" height="15" fill="#919fba"><title>47 emails, 5 repository events, 0 wiki edits in Nov 2014</title></rect><rect x="270" y="6" width="15" height="15" fill="#919fba"><title>52 emails, 0 repository events, 0 wiki edits in Dec 2014</title></rect></g>
<g transform="translate(0 80)">
  <title>Activity in 2015</title>
  <text x="2" y="20">2015</text><rect x="50" y="6" width="15" height="15" fill="#a5aec0"><title>40 emails, 8 repository events, 0 wiki edits in Jan 2015</title></rect><rect x="70" y="6" width="15" height="15" fill="#a5aec0"><title>32 emails, 1 repository events, 0 wiki edits in Feb 2015</title></rect><rect x="90" y="6" width="15" height="15" fill="#919fba"><title>52 emails, 4 repository events, 0 wiki edits in Mar 2015</title></rect><rect x="110" y="6" width="15" height="15" fill="#a5aec0"><title>24 emails, 2 repository events, 0 wiki edits in Apr 2015</title></rect><rect x="130" y="6" width="15" height="15" fill="#b9bdc6"><title>20 emails, 4 repository events, 0 wiki edits in May 2015</title></rect><rect x="150" y="6" width="15" height="15" fill="#a5aec0"><title>37 emails, 2 repository events, 0 wiki edits in Jun 2015</title></rect><rect x="170" y="6" width="15" height="15" fill="#b9bdc6"><title>10 emails, 1 repository events, 0 wiki edits in Jul 2015</title></rect><rect x="190" y="6" width="15" height="15" fill="#b9bdc6"><title>16 emails, 2 repository events, 0 wiki edits in Aug 2015</title></rect><rect x="210" y="6" width="15" height="15" fill="#b9bdc6"><title>19 emails, 0 repository events, 0 wiki edits in Sep 2015</title></rect><rect x="230" y="6" width="15" height="15" fill="#a5aec0"><title>22 emails, 7 repository events, 0 wiki edits in Oct 2015</title></rect><rect x="250" y="6" width="15" height="15" fill="#b9bdc6"><title>2 emails, 7 repository events, 0 wiki edits in Nov 2015</title></rect><rect x="270" y="6" width="15" height="15" fill="#a5aec0"><title>29 emails, 2 repository events, 0 wiki edits in Dec 2015</title></rect></g>
<g transform="translate(0 100)">
  <title>Activity in 2016</title>
  <text x="2" y="20">2016</text><rect x="50" y="6" width="15" height="15" fill="#b9bdc6"><title>15 emails, 5 repository events, 0 wiki edits in Jan 2016</title></rect><rect x="70" y="6" width="15" height="15" fill="#a5aec0"><title>27 emails, 3 repository events, 0 wiki edits in Feb 2016</title></rect><rect x="90" y="6" width="15" height="15" fill="#a5aec0"><title>33 emails, 6 repository events, 0 wiki edits in Mar 2016</title></rect><rect x="110" y="6" width="15" height="15" fill="#b9bdc6"><title>11 emails, 3 repository events, 0 wiki edits in Apr 2016</title></rect><rect x="130" y="6" width="15" height="15" fill="#b9bdc6"><title>6 emails, 2 repository events, 0 wiki edits in May 2016</title></rect><rect x="150" y="6" width="15" height="15" fill="#b9bdc6"><title>5 emails, 2 repository events, 0 wiki edits in Jun 2016</title></rect><rect x="170" y="6" width="15" height="15" fill="#b9bdc6"><title>13 emails, 1 repository events, 0 wiki edits in Jul 2016</title></rect><rect x="190" y="6" width="15" height="15" fill="#a5aec0"><title>26 emails, 2 repository events, 0 wiki edits in Aug 2016</title></rect><rect x="210" y="6" width="15" height="15" fill="#b9bdc6"><title>14 emails, 10 repository events, 0 wiki edits in Sep 2016</title></rect><rect x="230" y="6" width="15" height="15" fill="#919fba"><title>42 emails, 11 repository events, 0 wiki edits in Oct 2016</title></rect><rect x="250" y="6" width="15" height="15" fill="#b9bdc6"><title>4 emails, 10 repository events, 0 wiki edits in Nov 2016</title></rect><rect x="270" y="6" width="15" height="15" fill="#b9bdc6"><title>0 emails, 7 repository events, 0 wiki edits in Dec 2016</title></rect></g>
<g transform="translate(0 120)">
  <title>Activity in 2017</title>
  <text x="2" y="20">2017</text><rect x="50" y="6" width="15" height="15" fill="#919fba"><title>19 emails, 39 repository events, 0 wiki edits in Jan 2017</title></rect><rect x="70" y="6" width="15" height="15" fill="#b9bdc6"><title>12 emails, 12 repository events, 0 wiki edits in Feb 2017</title></rect><rect x="90" y="6" width="15" height="15" fill="#a5aec0"><title>26 emails, 5 repository events, 0 wiki edits in Mar 2017</title></rect><rect x="110" y="6" width="15" height="15" fill="#a5aec0"><title>19 emails, 26 repository events, 0 wiki edits in Apr 2017</title></rect><rect x="130" y="6" width="15" height="15" fill="#919fba"><title>32 emails, 29 repository events, 0 wiki edits in May 2017</title></rect><rect x="150" y="6" width="15" height="15" fill="#b9bdc6"><title>2 emails, 12 repository events, 0 wiki edits in Jun 2017</title></rect><rect x="170" y="6" width="15" height="15" fill="#a5aec0"><title>2 emails, 37 repository events, 0 wiki edits in Jul 2017</title></rect><rect x="190" y="6" width="15" height="15" fill="#b9bdc6"><title>2 emails, 12 repository events, 0 wiki edits in Aug 2017</title></rect><rect x="210" y="6" width="15" height="15" fill="#b9bdc6"><title>17 emails, 4 repository events, 0 wiki edits in Sep 2017</title></rect><rect x="230" y="6" width="15" height="15" fill="#a5aec0"><title>31 emails, 15 repository events, 0 wiki edits in Oct 2017</title></rect><rect x="250" y="6" width="15" height="15" fill="#b9bdc6"><title>11 emails, 7 repository events, 0 wiki edits in Nov 2017</title></rect><rect x="270" y="6" width="15" height="15" fill="#a5aec0"><title>12 emails, 20 repository events, 0 wiki edits in Dec 2017</title></rect></g>
<g transform="translate(0 140)">
  <title>Activity in 2018</title>
  <text x="2" y="20">2018</text><rect x="50" y="6" width="15" height="15" fill="#7d90b5"><title>20 emails, 63 repository events, 0 wiki edits in Jan 2018</title></rect><rect x="70" y="6" width="15" height="15" fill="#919fba"><title>34 emails, 34 repository events, 0 wiki edits in Feb 2018</title></rect><rect x="90" y="6" width="15" height="15" fill="#7d90b5"><title>26 emails, 66 repository events, 0 wiki edits in Mar 2018</title></rect><rect x="110" y="6" width="15" height="15" fill="#7d90b5"><title>24 emails, 55 repository events, 0 wiki edits in Apr 2018</title></rect><rect x="130" y="6" width="15" height="15" fill="#b9bdc6"><title>11 emails, 7 repository events, 0 wiki edits in May 2018</title></rect><rect x="150" y="6" width="15" height="15" fill="#a5aec0"><title>20 emails, 16 repository events, 0 wiki edits in Jun 2018</title></rect><rect x="170" y="6" width="15" height="15" fill="#b9bdc6"><title>7 emails, 6 repository events, 0 wiki edits in Jul 2018</title></rect><rect x="190" y="6" width="15" height="15" fill="#b9bdc6"><title>8 emails, 8 repository events, 0 wiki edits in Aug 2018</title></rect><rect x="210" y="6" width="15" height="15" fill="#b9bdc6"><title>3 emails, 12 repository events, 0 wiki edits in Sep 2018</title></rect><rect x="230" y="6" width="15" height="15" fill="#b9bdc6"><title>7 emails, 0 repository events, 0 wiki edits in Oct 2018</title></rect><rect x="250" y="6" width="15" height="15" fill="#b9bdc6"><title>3 emails, 1 repository events, 0 wiki edits in Nov 2018</title></rect><rect x="270" y="6" width="15" height="15" fill="#b9bdc6"><title>5 emails, 2 repository events, 0 wiki edits in Dec 2018</title></rect></g>
<g transform="translate(0 160)">
  <title>Activity in 2019</title>
  <text x="2" y="20">2019</text><rect x="50" y="6" width="15" height="15" fill="#b9bdc6"><title>10 emails, 8 repository events, 0 wiki edits in Jan 2019</title></rect><rect x="70" y="6" width="15" height="15" fill="#a5aec0"><title>36 emails, 12 repository events, 0 wiki edits in Feb 2019</title></rect><rect x="90" y="6" width="15" height="15" fill="#b9bdc6"><title>4 emails, 0 repository events, 0 wiki edits in Mar 2019</title></rect><rect x="110" y="6" width="15" height="15" fill="#b9bdc6"><title>1 emails, 9 repository events, 0 wiki edits in Apr 2019</title></rect><rect x="130" y="6" width="15" height="15" fill="#b9bdc6"><title>1 emails, 5 repository events, 0 wiki edits in May 2019</title></rect><rect x="150" y="6" width="15" height="15" fill="#b9bdc6"><title>0 emails, 3 repository events, 0 wiki edits in Jun 2019</title></rect><rect x="170" y="6" width="15" height="15" fill="#b9bdc6"><title>1 emails, 1 repository events, 0 wiki edits in Jul 2019</title></rect><rect x="190" y="6" width="15" height="15" fill="#b9bdc6"><title>0 emails, 2 repository events, 0 wiki edits in Aug 2019</title></rect><rect x="210" y="6" width="15" height="15" fill="#b9bdc6"><title>0 emails, 4 repository events, 0 wiki edits in Sep 2019</title></rect><rect x="230" y="6" width="15" height="15" fill="#b9bdc6"><title>2 emails, 6 repository events, 0 wiki edits in Oct 2019</title></rect><rect x="250" y="6" width="15" height="15" fill="#b9bdc6"><title>9 emails, 1 repository events, 0 wiki edits in Nov 2019</title></rect><rect x="270" y="6" width="15" height="15" fill="#b9bdc6"><title>1 emails, 2 repository events, 0 wiki edits in Dec 2019</title></rect></g>
<g transform="translate(0 180)">
  <title>Activity in 2020</title>
  <text x="2" y="20">2020</text><rect x="50" y="6" width="15" height="15" fill="#b9bdc6"><title>5 emails, 4 repository events, 0 wiki edits in Jan 2020</title></rect><rect x="70" y="6" width="15" height="15" fill="#b9bdc6"><title>6 emails, 3 repository events, 0 wiki edits in Feb 2020</title></rect><rect x="90" y="6" width="15" height="15" fill="#b9bdc6"><title>12 emails, 8 repository events, 0 wiki edits in Mar 2020</title></rect><rect x="110" y="6" width="15" height="15" fill="#a5aec0"><title>19 emails, 9 repository events, 0 wiki edits in Apr 2020</title></rect><rect x="130" y="6" width="15" height="15" fill="#a5aec0"><title>19 emails, 12 repository events, 0 wiki edits in May 2020</title></rect><rect x="150" y="6" width="15" height="15" fill="#b9bdc6"><title>7 emails, 6 repository events, 0 wiki edits in Jun 2020</title></rect><rect x="170" y="6" width="15" height="15" fill="#b9bdc6"><title>1 emails, 10 repository events, 0 wiki edits in Jul 2020</title></rect><rect x="190" y="6" width="15" height="15" fill="#b9bdc6"><title>3 emails, 6 repository events, 0 wiki edits in Aug 2020</title></rect><rect x="210" y="6" width="15" height="15" fill="#b9bdc6"><title>4 emails, 0 repository events, 0 wiki edits in Sep 2020</title></rect><rect x="230" y="6" width="15" height="15" fill="#b9bdc6"><title>9 emails, 7 repository events, 0 wiki edits in Oct 2020</title></rect><rect x="250" y="6" width="15" height="15" fill="#cccccc"><title>0 emails, 0 repository events, 0 wiki edits in Nov 2020</title></rect><rect x="270" y="6" width="15" height="15" fill="#b9bdc6"><title>1 emails, 6 repository events, 0 wiki edits in Dec 2020</title></rect></g>
<g transform="translate(0 200)">
  <title>Activity in 2021</title>
  <text x="2" y="20">2021</text><rect x="50" y="6" width="15" height="15" fill="#b9bdc6"><title>0 emails, 5 repository events, 0 wiki edits in Jan 2021</title></rect><rect x="70" y="6" width="15" height="15" fill="#b9bdc6"><title>5 emails, 4 repository events, 0 wiki edits in Feb 2021</title></rect><rect x="90" y="6" width="15" height="15" fill="#b9bdc6"><title>0 emails, 14 repository events, 0 wiki edits in Mar 2021</title></rect><rect x="110" y="6" width="15" height="15" fill="#b9bdc6"><title>0 emails, 10 repository events, 0 wiki edits in Apr 2021</title></rect><rect x="130" y="6" width="15" height="15" fill="#b9bdc6"><title>0 emails, 5 repository events, 0 wiki edits in May 2021</title></rect><rect x="150" y="6" width="15" height="15" fill="#b9bdc6"><title>5 emails, 4 repository events, 0 wiki edits in Jun 2021</title></rect><rect x="170" y="6" width="15" height="15" fill="#b9bdc6"><title>2 emails, 11 repository events, 0 wiki edits in Jul 2021</title></rect><rect x="190" y="6" width="15" height="15" fill="#b9bdc6"><title>6 emails, 2 repository events, 0 wiki edits in Aug 2021</title></rect><rect x="210" y="6" width="15" height="15" fill="#b9bdc6"><title>0 emails, 8 repository events, 0 wiki edits in Sep 2021</title></rect><rect x="230" y="6" width="15" height="15" fill="#b9bdc6"><title>2 emails, 0 repository events, 0 wiki edits in Oct 2021</title></rect><rect x="250" y="6" width="15" height="15" fill="#b9bdc6"><title>2 emails, 1 repository events, 0 wiki edits in Nov 2021</title></rect><rect x="270" y="6" width="15" height="15" fill="#b9bdc6"><title>1 emails, 5 repository events, 0 wiki edits in Dec 2021</title></rect></g>
<g transform="translate(0 220)">
  <title>Activity in 2022</title>
  <text x="2" y="20">2022</text><rect x="50" y="6" width="15" height="15" fill="#b9bdc6"><title>0 emails, 5 repository events, 0 wiki edits in Jan 2022</title></rect><rect x="70" y="6" width="15" height="15" fill="#b9bdc6"><title>0 emails, 6 repository events, 0 wiki edits in Feb 2022</title></rect><rect x="90" y="6" width="15" height="15" fill="#b9bdc6"><title>0 emails, 3 repository events, 0 wiki edits in Mar 2022</title></rect><rect x="110" y="6" width="15" height="15" fill="#b9bdc6"><title>0 emails, 4 repository events, 0 wiki edits in Apr 2022</title></rect><rect x="130" y="6" width="15" height="15" fill="#a5aec0"><title>12 emails, 32 repository events, 0 wiki edits in May 2022</title></rect><rect x="150" y="6" width="15" height="15" fill="#a5aec0"><title>7 emails, 38 repository events, 0 wiki edits in Jun 2022</title></rect><rect x="170" y="6" width="15" height="15" fill="#919fba"><title>8 emails, 56 repository events, 0 wiki edits in Jul 2022</title></rect><rect x="190" y="6" width="15" height="15" fill="#a5aec0"><title>9 emails, 37 repository events, 0 wiki edits in Aug 2022</title></rect><rect x="210" y="6" width="15" height="15" fill="#a5aec0"><title>17 emails, 29 repository events, 0 wiki edits in Sep 2022</title></rect><rect x="230" y="6" width="15" height="15" fill="#a5aec0"><title>12 emails, 18 repository events, 0 wiki edits in Oct 2022</title></rect><rect x="250" y="6" width="15" height="15" fill="#b9bdc6"><title>13 emails, 4 repository events, 0 wiki edits in Nov 2022</title></rect><rect x="270" y="6" width="15" height="15" fill="#b9bdc6"><title>5 emails, 2 repository events, 0 wiki edits in Dec 2022</title></rect></g>
<g transform="translate(0 240)">
  <title>Activity in 2023</title>
  <text x="2" y="20">2023</text><rect x="50" y="6" width="15" height="15" fill="#b9bdc6"><title>5 emails, 6 repository events, 0 wiki edits in Jan 2023</title></rect><rect x="70" y="6" width="15" height="15" fill="#b9bdc6"><title>5 emails, 3 repository events, 0 wiki edits in Feb 2023</title></rect><rect x="90" y="6" width="15" height="15" fill="#b9bdc6"><title>1 emails, 15 repository events, 0 wiki edits in Mar 2023</title></rect><rect x="110" y="6" width="15" height="15" fill="#b9bdc6"><title>10 emails, 8 repository events, 0 wiki edits in Apr 2023</title></rect><rect x="130" y="6" width="15" height="15" fill="#b9bdc6"><title>16 emails, 8 repository events, 0 wiki edits in May 2023</title></rect><rect x="150" y="6" width="15" height="15" fill="#b9bdc6"><title>7 emails, 4 repository events, 0 wiki edits in Jun 2023</title></rect><rect x="170" y="6" width="15" height="15" fill="#a5aec0"><title>15 emails, 24 repository events, 0 wiki edits in Jul 2023</title></rect><rect x="190" y="6" width="15" height="15" fill="#a5aec0"><title>11 emails, 17 repository events, 0 wiki edits in Aug 2023</title></rect><rect x="210" y="6" width="15" height="15" fill="#a5aec0"><title>6 emails, 20 repository events, 0 wiki edits in Sep 2023</title></rect><rect x="230" y="6" width="15" height="15" fill="#b9bdc6"><title>6 emails, 8 repository events, 0 wiki edits in Oct 2023</title></rect><rect x="250" y="6" width="15" height="15" fill="#a5aec0"><title>12 emails, 18 repository events, 0 wiki edits in Nov 2023</title></rect><rect x="270" y="6" width="15" height="15" fill="#b9bdc6"><title>8 emails, 2 repository events, 0 wiki edits in Dec 2023</title></rect></g>
<g transform="translate(0 260)">
  <title>Activity in 2024</title>
  <text x="2" y="20">2024</text><rect x="50" y="6" width="15" height="15" fill="#b9bdc6"><title>3 emails, 2 repository events, 0 wiki edits in Jan 2024</title></rect><rect x="70" y="6" width="15" height="15" fill="#b9bdc6"><title>3 emails, 14 repository events, 0 wiki edits in Feb 2024</title></rect><rect x="90" y="6" width="15" height="15" fill="#b9bdc6"><title>11 emails, 5 repository events, 0 wiki edits in Mar 2024</title></rect><rect x="110" y="6" width="15" height="15" fill="#b9bdc6"><title>3 emails, 2 repository events, 0 wiki edits in Apr 2024</title></rect></g><text style="font-size: 10px; text-align: center" x="53" y="290">J</text><text style="font-size: 10px; text-align: center" x="73" y="290">F</text><text style="font-size: 10px; text-align: center" x="93" y="290">M</text><text style="font-size: 10px; text-align: center" x="113" y="290">A</text><text style="font-size: 10px; text-align: center" x="133" y="290">M</text><text style="font-size: 10px; text-align: center" x="153" y="290">J</text><text style="font-size: 10px; text-align: center" x="173" y="290">J</text><text style="font-size: 10px; text-align: center" x="193" y="290">A</text><text style="font-size: 10px; text-align: center" x="213" y="290">S</text><text style="font-size: 10px; text-align: center" x="233" y="290">O</text><text style="font-size: 10px; text-align: center" x="253" y="290">N</text><text style="font-size: 10px; text-align: center" x="273" y="290">D</text><text style="font-size: 10px;" x="155" y="309">Less</text><rect fill="#b9bdc6" width="10" height="10" x="180" y="300"><title>No activity in the period</title></rect><rect fill="#919fba" width="10" height="10" x="195" y="300"><title>Low activity in the period</title></rect><rect fill="#6882ae" width="10" height="10" x="210" y="300"><title>Medium activity in the period</title></rect><rect fill="#005a9c" width="10" height="10" x="225" y="300"><title>High activity in period</title></rect><text x="240" y="309" style="font-size: 10px;">More</text></svg>