<svg xmlns="http://www.w3.org/2000/svg" width="360">
  <title>Activity of Maps%20For%20HTML%20Community%20Group</title>

<g transform="translate(0 0)">
  <title>Activity in 2014</title>
  <text x="2" y="20">2014</text><rect x="90" y="6" width="15" height="15" fill="#b9bdc6"><title>2 emails, 21 repository events, 0 wiki edits in Mar 2014</title></rect><rect x="110" y="6" width="15" height="15" fill="#a5aec0"><title>3 emails, 31 repository events, 0 wiki edits in Apr 2014</title></rect><rect x="130" y="6" width="15" height="15" fill="#a5aec0"><title>0 emails, 36 repository events, 0 wiki edits in May 2014</title></rect><rect x="150" y="6" width="15" height="15" fill="#6882ae"><title>0 emails, 113 repository events, 0 wiki edits in Jun 2014</title></rect><rect x="170" y="6" width="15" height="15" fill="#a5aec0"><title>0 emails, 26 repository events, 0 wiki edits in Jul 2014</title></rect><rect x="190" y="6" width="15" height="15" fill="#a5aec0"><title>0 emails, 28 repository events, 0 wiki edits in Aug 2014</title></rect><rect x="210" y="6" width="15" height="15" fill="#b9bdc6"><title>0 emails, 8 repository events, 0 wiki edits in Sep 2014</title></rect><rect x="230" y="6" width="15" height="15" fill="#5174a8"><title>0 emails, 127 repository events, 0 wiki edits in Oct 2014</title></rect><rect x="250" y="6" width="15" height="15" fill="#b9bdc6"><title>0 emails, 6 repository events, 0 wiki edits in Nov 2014</title></rect><rect x="270" y="6" width="15" height="15" fill="#b9bdc6"><title>0 emails, 7 repository events, 0 wiki edits in Dec 2014</title></rect></g>
<g transform="translate(0 20)">
  <title>Activity in 2015</title>
  <text x="2" y="20">2015</text><rect x="50" y="6" width="15" height="15" fill="#b9bdc6"><title>0 emails, 15 repository events, 0 wiki edits in Jan 2015</title></rect><rect x="70" y="6" width="15" height="15" fill="#6882ae"><title>0 emails, 109 repository events, 0 wiki edits in Feb 2015</title></rect><rect x="90" y="6" width="15" height="15" fill="#3667a2"><title>0 emails, 168 repository events, 0 wiki edits in Mar 2015</title></rect><rect x="110" y="6" width="15" height="15" fill="#a5aec0"><title>0 emails, 27 repository events, 0 wiki edits in Apr 2015</title></rect><rect x="130" y="6" width="15" height="15" fill="#b9bdc6"><title>0 emails, 23 repository events, 0 wiki edits in May 2015</title></rect><rect x="150" y="6" width="15" height="15" fill="#919fba"><title>0 emails, 65 repository events, 0 wiki edits in Jun 2015</title></rect><rect x="170" y="6" width="15" height="15" fill="#a5aec0"><title>6 emails, 37 repository events, 0 wiki edits in Jul 2015</title></rect><rect x="190" y="6" width="15" height="15" fill="#919fba"><title>0 emails, 62 repository events, 0 wiki edits in Aug 2015</title></rect><rect x="210" y="6" width="15" height="15" fill="#b9bdc6"><title>5 emails, 19 repository events, 0 wiki edits in Sep 2015</title></rect><rect x="230" y="6" width="15" height="15" fill="#a5aec0"><title>3 emails, 23 repository events, 0 wiki edits in Oct 2015</title></rect><rect x="250" y="6" width="15" height="15" fill="#b9bdc6"><title>1 emails, 4 repository events, 0 wiki edits in Nov 2015</title></rect><rect x="270" y="6" width="15" height="15" fill="#919fba"><title>2 emails, 51 repository events, 0 wiki edits in Dec 2015</title></rect></g>
<g transform="translate(0 40)">
  <title>Activity in 2016</title>
  <text x="2" y="20">2016</text><rect x="50" y="6" width="15" height="15" fill="#919fba"><title>1 emails, 51 repository events, 0 wiki edits in Jan 2016</title></rect><rect x="70" y="6" width="15" height="15" fill="#a5aec0"><title>1 emails, 38 repository events, 0 wiki edits in Feb 2016</title></rect><rect x="90" y="6" width="15" height="15" fill="#a5aec0"><title>3 emails, 34 repository events, 0 wiki edits in Mar 2016</title></rect><rect x="110" y="6" width="15" height="15" fill="#b9bdc6"><title>1 emails, 19 repository events, 0 wiki edits in Apr 2016</title></rect><rect x="130" y="6" width="15" height="15" fill="#b9bdc6"><title>2 emails, 20 repository events, 0 wiki edits in May 2016</title></rect><rect x="150" y="6" width="15" height="15" fill="#5174a8"><title>0 emails, 131 repository events, 0 wiki edits in Jun 2016</title></rect><rect x="170" y="6" width="15" height="15" fill="#3667a2"><title>0 emails, 162 repository events, 0 wiki edits in Jul 2016</title></rect><rect x="190" y="6" width="15" height="15" fill="#7d90b5"><title>0 emails, 84 repository events, 0 wiki edits in Aug 2016</title></rect><rect x="210" y="6" width="15" height="15" fill="#a5aec0"><title>0 emails, 42 repository events, 0 wiki edits in Sep 2016</title></rect><rect x="230" y="6" width="15" height="15" fill="#b9bdc6"><title>1 emails, 22 repository events, 0 wiki edits in Oct 2016</title></rect><rect x="250" y="6" width="15" height="15" fill="#b9bdc6"><title>0 emails, 19 repository events, 0 wiki edits in Nov 2016</title></rect><rect x="270" y="6" width="15" height="15" fill="#6882ae"><title>0 emails, 125 repository events, 0 wiki edits in Dec 2016</title></rect></g>
<g transform="translate(0 60)">
  <title>Activity in 2017</title>
  <text x="2" y="20">2017</text><rect x="50" y="6" width="15" height="15" fill="#a5aec0"><title>1 emails, 35 repository events, 0 wiki edits in Jan 2017</title></rect><rect x="70" y="6" width="15" height="15" fill="#a5aec0"><title>0 emails, 26 repository events, 0 wiki edits in Feb 2017</title></rect><rect x="90" y="6" width="15" height="15" fill="#a5aec0"><title>0 emails, 37 repository events, 0 wiki edits in Mar 2017</title></rect><rect x="110" y="6" width="15" height="15" fill="#a5aec0"><title>0 emails, 45 repository events, 0 wiki edits in Apr 2017</title></rect><rect x="130" y="6" width="15" height="15" fill="#3667a2"><title>0 emails, 155 repository events, 0 wiki edits in May 2017</title></rect><rect x="150" y="6" width="15" height="15" fill="#5174a8"><title>0 emails, 150 repository events, 0 wiki edits in Jun 2017</title></rect><rect x="170" y="6" width="15" height="15" fill="#7d90b5"><title>1 emails, 91 repository events, 0 wiki edits in Jul 2017</title></rect><rect x="190" y="6" width="15" height="15" fill="#6882ae"><title>0 emails, 118 repository events, 0 wiki edits in Aug 2017</title></rect><rect x="210" y="6" width="15" height="15" fill="#5174a8"><title>0 emails, 133 repository events, 0 wiki edits in Sep 2017</title></rect><rect x="230" y="6" width="15" height="15" fill="#5174a8"><title>0 emails, 139 repository events, 0 wiki edits in Oct 2017</title></rect><rect x="250" y="6" width="15" height="15" fill="#005a9c"><title>0 emails, 183 repository events, 0 wiki edits in Nov 2017</title></rect><rect x="270" y="6" width="15" height="15" fill="#5174a8"><title>0 emails, 149 repository events, 0 wiki edits in Dec 2017</title></rect></g>
<g transform="translate(0 80)">
  <title>Activity in 2018</title>
  <text x="2" y="20">2018</text><rect x="50" y="6" width="15" height="15" fill="#3667a2"><title>3 emails, 167 repository events, 0 wiki edits in Jan 2018</title></rect><rect x="70" y="6" width="15" height="15" fill="#005a9c"><title>7 emails, 255 repository events, 0 wiki edits in Feb 2018</title></rect><rect x="90" y="6" width="15" height="15" fill="#5174a8"><title>3 emails, 137 repository events, 0 wiki edits in Mar 2018</title></rect><rect x="110" y="6" width="15" height="15" fill="#6882ae"><title>0 emails, 108 repository events, 0 wiki edits in Apr 2018</title></rect><rect x="130" y="6" width="15" height="15" fill="#7d90b5"><title>1 emails, 84 repository events, 0 wiki edits in May 2018</title></rect><rect x="150" y="6" width="15" height="15" fill="#3667a2"><title>0 emails, 163 repository events, 0 wiki edits in Jun 2018</title></rect><rect x="170" y="6" width="15" height="15" fill="#005a9c"><title>4 emails, 222 repository events, 0 wiki edits in Jul 2018</title></rect><rect x="190" y="6" width="15" height="15" fill="#3667a2"><title>0 emails, 169 repository events, 0 wiki edits in Aug 2018</title></rect><rect x="210" y="6" width="15" height="15" fill="#5174a8"><title>1 emails, 125 repository events, 0 wiki edits in Sep 2018</title></rect><rect x="230" y="6" width="15" height="15" fill="#005a9c"><title>0 emails, 307 repository events, 0 wiki edits in Oct 2018</title></rect><rect x="250" y="6" width="15" height="15" fill="#3667a2"><title>0 emails, 155 repository events, 0 wiki edits in Nov 2018</title></rect><rect x="270" y="6" width="15" height="15" fill="#7d90b5"><title>0 emails, 95 repository events, 0 wiki edits in Dec 2018</title></rect></g>
<g transform="translate(0 100)">
  <title>Activity in 2019</title>
  <text x="2" y="20">2019</text><rect x="50" y="6" width="15" height="15" fill="#6882ae"><title>2 emails, 109 repository events, 0 wiki edits in Jan 2019</title></rect><rect x="70" y="6" width="15" height="15" fill="#7d90b5"><title>5 emails, 81 repository events, 0 wiki edits in Feb 2019</title></rect><rect x="90" y="6" width="15" height="15" fill="#7d90b5"><title>2 emails, 79 repository events, 0 wiki edits in Mar 2019</title></rect><rect x="110" y="6" width="15" height="15" fill="#919fba"><title>3 emails, 65 repository events, 0 wiki edits in Apr 2019</title></rect><rect x="130" y="6" width="15" height="15" fill="#6882ae"><title>2 emails, 114 repository events, 0 wiki edits in May 2019</title></rect><rect x="150" y="6" width="15" height="15" fill="#005a9c"><title>6 emails, 311 repository events, 0 wiki edits in Jun 2019</title></rect><rect x="170" y="6" width="15" height="15" fill="#5174a8"><title>2 emails, 136 repository events, 0 wiki edits in Jul 2019</title></rect><rect x="190" y="6" width="15" height="15" fill="#5174a8"><title>2 emails, 143 repository events, 1 wiki edits in Aug 2019</title></rect><rect x="210" y="6" width="15" height="15" fill="#005a9c"><title>2 emails, 170 repository events, 8 wiki edits in Sep 2019</title></rect><rect x="230" y="6" width="15" height="15" fill="#6882ae"><title>0 emails, 120 repository events, 0 wiki edits in Oct 2019</title></rect><rect x="250" y="6" width="15" height="15" fill="#7d90b5"><title>0 emails, 99 repository events, 0 wiki edits in Nov 2019</title></rect><rect x="270" y="6" width="15" height="15" fill="#919fba"><title>1 emails, 74 repository events, 0 wiki edits in Dec 2019</title></rect></g>
<g transform="translate(0 120)">
  <title>Activity in 2020</title>
  <text x="2" y="20">2020</text><rect x="50" y="6" width="15" height="15" fill="#919fba"><title>4 emails, 67 repository events, 0 wiki edits in Jan 2020</title></rect><rect x="70" y="6" width="15" height="15" fill="#5174a8"><title>0 emails, 127 repository events, 0 wiki edits in Feb 2020</title></rect><rect x="90" y="6" width="15" height="15" fill="#7d90b5"><title>0 emails, 95 repository events, 0 wiki edits in Mar 2020</title></rect><rect x="110" y="6" width="15" height="15" fill="#919fba"><title>4 emails, 59 repository events, 0 wiki edits in Apr 2020</title></rect><rect x="130" y="6" width="15" height="15" fill="#6882ae"><title>0 emails, 106 repository events, 0 wiki edits in May 2020</title></rect><rect x="150" y="6" width="15" height="15" fill="#7d90b5"><title>0 emails, 96 repository events, 0 wiki edits in Jun 2020</title></rect><rect x="170" y="6" width="15" height="15" fill="#919fba"><title>0 emails, 65 repository events, 0 wiki edits in Jul 2020</title></rect><rect x="190" y="6" width="15" height="15" fill="#6882ae"><title>1 emails, 117 repository events, 0 wiki edits in Aug 2020</title></rect><rect x="210" y="6" width="15" height="15" fill="#5174a8"><title>0 emails, 140 repository events, 0 wiki edits in Sep 2020</title></rect><rect x="230" y="6" width="15" height="15" fill="#919fba"><title>0 emails, 71 repository events, 0 wiki edits in Oct 2020</title></rect><rect x="250" y="6" width="15" height="15" fill="#a5aec0"><title>0 emails, 38 repository events, 0 wiki edits in Nov 2020</title></rect></g><text style="font-size: 10px; text-align: center" x="53" y="150">J</text><text style="font-size: 10px; text-align: center" x="73" y="150">F</text><text style="font-size: 10px; text-align: center" x="93" y="150">M</text><text style="font-size: 10px; text-align: center" x="113" y="150">A</text><text style="font-size: 10px; text-align: center" x="133" y="150">M</text><text style="font-size: 10px; text-align: center" x="153" y="150">J</text><text style="font-size: 10px; text-align: center" x="173" y="150">J</text><text style="font-size: 10px; text-align: center" x="193" y="150">A</text><text style="font-size: 10px; text-align: center" x="213" y="150">S</text><text style="font-size: 10px; text-align: center" x="233" y="150">O</text><text style="font-size: 10px; text-align: center" x="253" y="150">N</text><text style="font-size: 10px; text-align: center" x="273" y="150">D</text><text style="font-size: 10px;" x="155" y="169">Less</text><rect fill="#b9bdc6" width="10" height="10" x="180" y="160"><title>No activity in the period</title></rect><rect fill="#919fba" width="10" height="10" x="195" y="160"><title>Low activity in the period</title></rect><rect fill="#6882ae" width="10" height="10" x="210" y="160"><title>Medium activity in the period</title></rect><rect fill="#005a9c" width="10" height="10" x="225" y="160"><title>High activity in period</title></rect><text x="240" y="169" style="font-size: 10px;">More</text></svg>