<svg xmlns="http://www.w3.org/2000/svg" width="360">
  <title>Activity of OpenActive%20Community%20Group</title>

<g transform="translate(0 0)">
  <title>Activity in 2016</title>
  <text x="2" y="20">2016</text><rect x="110" y="6" width="15" height="15" fill="#005a9c"><title>0 emails, 409 repository events, 0 wiki edits in Apr 2016</title></rect><rect x="130" y="6" width="15" height="15" fill="#6882ae"><title>0 emails, 123 repository events, 0 wiki edits in May 2016</title></rect><rect x="150" y="6" width="15" height="15" fill="#6882ae"><title>0 emails, 102 repository events, 0 wiki edits in Jun 2016</title></rect><rect x="170" y="6" width="15" height="15" fill="#005a9c"><title>0 emails, 229 repository events, 0 wiki edits in Jul 2016</title></rect><rect x="190" y="6" width="15" height="15" fill="#3667a2"><title>0 emails, 164 repository events, 0 wiki edits in Aug 2016</title></rect><rect x="210" y="6" width="15" height="15" fill="#7d90b5"><title>0 emails, 93 repository events, 0 wiki edits in Sep 2016</title></rect><rect x="230" y="6" width="15" height="15" fill="#7d90b5"><title>0 emails, 81 repository events, 0 wiki edits in Oct 2016</title></rect><rect x="250" y="6" width="15" height="15" fill="#5174a8"><title>8 emails, 121 repository events, 0 wiki edits in Nov 2016</title></rect><rect x="270" y="6" width="15" height="15" fill="#a5aec0"><title>9 emails, 39 repository events, 0 wiki edits in Dec 2016</title></rect></g>
<g transform="translate(0 20)">
  <title>Activity in 2017</title>
  <text x="2" y="20">2017</text><rect x="50" y="6" width="15" height="15" fill="#7d90b5"><title>8 emails, 78 repository events, 0 wiki edits in Jan 2017</title></rect><rect x="70" y="6" width="15" height="15" fill="#919fba"><title>8 emails, 46 repository events, 0 wiki edits in Feb 2017</title></rect><rect x="90" y="6" width="15" height="15" fill="#5174a8"><title>27 emails, 107 repository events, 0 wiki edits in Mar 2017</title></rect><rect x="110" y="6" width="15" height="15" fill="#a5aec0"><title>13 emails, 37 repository events, 0 wiki edits in Apr 2017</title></rect><rect x="130" y="6" width="15" height="15" fill="#005a9c"><title>29 emails, 160 repository events, 0 wiki edits in May 2017</title></rect><rect x="150" y="6" width="15" height="15" fill="#005a9c"><title>8 emails, 168 repository events, 0 wiki edits in Jun 2017</title></rect><rect x="170" y="6" width="15" height="15" fill="#005a9c"><title>9 emails, 176 repository events, 0 wiki edits in Jul 2017</title></rect><rect x="190" y="6" width="15" height="15" fill="#5174a8"><title>2 emails, 144 repository events, 0 wiki edits in Aug 2017</title></rect><rect x="210" y="6" width="15" height="15" fill="#919fba"><title>3 emails, 57 repository events, 0 wiki edits in Sep 2017</title></rect><rect x="230" y="6" width="15" height="15" fill="#a5aec0"><title>3 emails, 28 repository events, 0 wiki edits in Oct 2017</title></rect><rect x="250" y="6" width="15" height="15" fill="#7d90b5"><title>7 emails, 69 repository events, 0 wiki edits in Nov 2017</title></rect><rect x="270" y="6" width="15" height="15" fill="#a5aec0"><title>3 emails, 41 repository events, 0 wiki edits in Dec 2017</title></rect></g>
<g transform="translate(0 40)">
  <title>Activity in 2018</title>
  <text x="2" y="20">2018</text><rect x="50" y="6" width="15" height="15" fill="#b9bdc6"><title>6 emails, 18 repository events, 0 wiki edits in Jan 2018</title></rect><rect x="70" y="6" width="15" height="15" fill="#a5aec0"><title>7 emails, 21 repository events, 0 wiki edits in Feb 2018</title></rect><rect x="90" y="6" width="15" height="15" fill="#7d90b5"><title>10 emails, 71 repository events, 0 wiki edits in Mar 2018</title></rect><rect x="110" y="6" width="15" height="15" fill="#6882ae"><title>13 emails, 97 repository events, 0 wiki edits in Apr 2018</title></rect><rect x="130" y="6" width="15" height="15" fill="#7d90b5"><title>6 emails, 91 repository events, 0 wiki edits in May 2018</title></rect><rect x="150" y="6" width="15" height="15" fill="#005a9c"><title>4 emails, 207 repository events, 0 wiki edits in Jun 2018</title></rect><rect x="170" y="6" width="15" height="15" fill="#005a9c"><title>11 emails, 284 repository events, 0 wiki edits in Jul 2018</title></rect><rect x="190" y="6" width="15" height="15" fill="#005a9c"><title>7 emails, 328 repository events, 0 wiki edits in Aug 2018</title></rect><rect x="210" y="6" width="15" height="15" fill="#005a9c"><title>7 emails, 295 repository events, 0 wiki edits in Sep 2018</title></rect><rect x="230" y="6" width="15" height="15" fill="#005a9c"><title>5 emails, 274 repository events, 0 wiki edits in Oct 2018</title></rect><rect x="250" y="6" width="15" height="15" fill="#919fba"><title>1 emails, 51 repository events, 0 wiki edits in Nov 2018</title></rect><rect x="270" y="6" width="15" height="15" fill="#a5aec0"><title>3 emails, 25 repository events, 0 wiki edits in Dec 2018</title></rect></g>
<g transform="translate(0 60)">
  <title>Activity in 2019</title>
  <text x="2" y="20">2019</text><rect x="50" y="6" width="15" height="15" fill="#b9bdc6"><title>5 emails, 17 repository events, 0 wiki edits in Jan 2019</title></rect><rect x="70" y="6" width="15" height="15" fill="#6882ae"><title>8 emails, 97 repository events, 0 wiki edits in Feb 2019</title></rect><rect x="90" y="6" width="15" height="15" fill="#5174a8"><title>4 emails, 146 repository events, 0 wiki edits in Mar 2019</title></rect><rect x="110" y="6" width="15" height="15" fill="#3667a2"><title>3 emails, 168 repository events, 0 wiki edits in Apr 2019</title></rect><rect x="130" y="6" width="15" height="15" fill="#919fba"><title>4 emails, 50 repository events, 0 wiki edits in May 2019</title></rect><rect x="150" y="6" width="15" height="15" fill="#7d90b5"><title>7 emails, 85 repository events, 0 wiki edits in Jun 2019</title></rect><rect x="170" y="6" width="15" height="15" fill="#6882ae"><title>3 emails, 106 repository events, 0 wiki edits in Jul 2019</title></rect><rect x="190" y="6" width="15" height="15" fill="#7d90b5"><title>3 emails, 73 repository events, 0 wiki edits in Aug 2019</title></rect><rect x="210" y="6" width="15" height="15" fill="#7d90b5"><title>6 emails, 88 repository events, 0 wiki edits in Sep 2019</title></rect><rect x="230" y="6" width="15" height="15" fill="#005a9c"><title>6 emails, 197 repository events, 0 wiki edits in Oct 2019</title></rect><rect x="250" y="6" width="15" height="15" fill="#005a9c"><title>8 emails, 178 repository events, 0 wiki edits in Nov 2019</title></rect><rect x="270" y="6" width="15" height="15" fill="#5174a8"><title>3 emails, 147 repository events, 0 wiki edits in Dec 2019</title></rect></g>
<g transform="translate(0 80)">
  <title>Activity in 2020</title>
  <text x="2" y="20">2020</text><rect x="50" y="6" width="15" height="15" fill="#3667a2"><title>3 emails, 152 repository events, 0 wiki edits in Jan 2020</title></rect><rect x="70" y="6" width="15" height="15" fill="#6882ae"><title>4 emails, 119 repository events, 0 wiki edits in Feb 2020</title></rect><rect x="90" y="6" width="15" height="15" fill="#3667a2"><title>4 emails, 160 repository events, 0 wiki edits in Mar 2020</title></rect><rect x="110" y="6" width="15" height="15" fill="#3667a2"><title>5 emails, 158 repository events, 0 wiki edits in Apr 2020</title></rect><rect x="130" y="6" width="15" height="15" fill="#6882ae"><title>8 emails, 96 repository events, 0 wiki edits in May 2020</title></rect><rect x="150" y="6" width="15" height="15" fill="#005a9c"><title>4 emails, 174 repository events, 0 wiki edits in Jun 2020</title></rect><rect x="170" y="6" width="15" height="15" fill="#005a9c"><title>3 emails, 470 repository events, 0 wiki edits in Jul 2020</title></rect><rect x="190" y="6" width="15" height="15" fill="#005a9c"><title>1 emails, 240 repository events, 0 wiki edits in Aug 2020</title></rect><rect x="210" y="6" width="15" height="15" fill="#005a9c"><title>8 emails, 253 repository events, 0 wiki edits in Sep 2020</title></rect><rect x="230" y="6" width="15" height="15" fill="#005a9c"><title>3 emails, 407 repository events, 0 wiki edits in Oct 2020</title></rect><rect x="250" y="6" width="15" height="15" fill="#5174a8"><title>4 emails, 140 repository events, 0 wiki edits in Nov 2020</title></rect><rect x="270" y="6" width="15" height="15" fill="#b9bdc6"><title>2 emails, 8 repository events, 0 wiki edits in Dec 2020</title></rect></g><text style="font-size: 10px; text-align: center" x="53" y="110">J</text><text style="font-size: 10px; text-align: center" x="73" y="110">F</text><text style="font-size: 10px; text-align: center" x="93" y="110">M</text><text style="font-size: 10px; text-align: center" x="113" y="110">A</text><text style="font-size: 10px; text-align: center" x="133" y="110">M</text><text style="font-size: 10px; text-align: center" x="153" y="110">J</text><text style="font-size: 10px; text-align: center" x="173" y="110">J</text><text style="font-size: 10px; text-align: center" x="193" y="110">A</text><text style="font-size: 10px; text-align: center" x="213" y="110">S</text><text style="font-size: 10px; text-align: center" x="233" y="110">O</text><text style="font-size: 10px; text-align: center" x="253" y="110">N</text><text style="font-size: 10px; text-align: center" x="273" y="110">D</text><text style="font-size: 10px;" x="155" y="129">Less</text><rect fill="#b9bdc6" width="10" height="10" x="180" y="120"><title>No activity in the period</title></rect><rect fill="#919fba" width="10" height="10" x="195" y="120"><title>Low activity in the period</title></rect><rect fill="#6882ae" width="10" height="10" x="210" y="120"><title>Medium activity in the period</title></rect><rect fill="#005a9c" width="10" height="10" x="225" y="120"><title>High activity in period</title></rect><text x="240" y="129" style="font-size: 10px;">More</text></svg>