<svg xmlns="http://www.w3.org/2000/svg" width="360" height="60">
  <title>Activity of Private%20Advertising%20Technology%20Community%20Group</title>

<g transform="translate(0 0)">
  <title>Activity in 2021</title>
  <text x="2" y="20">2021</text><rect x="230" y="6" width="15" height="15" fill="#b9bdc6"><title>5 emails, 12 repository events, 0 wiki edits in Oct 2021</title></rect><rect x="250" y="6" width="15" height="15" fill="#b9bdc6"><title>0 emails, 1 repository events, 0 wiki edits in Nov 2021</title></rect><rect x="270" y="6" width="15" height="15" fill="#b9bdc6"><title>0 emails, 1 repository events, 0 wiki edits in Dec 2021</title></rect></g>
<g transform="translate(0 20)">
  <title>Activity in 2022</title>
  <text x="2" y="20">2022</text><rect x="50" y="6" width="15" height="15" fill="#5174a8"><title>117 emails, 14 repository events, 0 wiki edits in Jan 2022</title></rect><rect x="70" y="6" width="15" height="15" fill="#005a9c"><title>291 emails, 44 repository events, 0 wiki edits in Feb 2022</title></rect><rect x="90" y="6" width="15" height="15" fill="#005a9c"><title>252 emails, 49 repository events, 0 wiki edits in Mar 2022</title></rect><rect x="110" y="6" width="15" height="15" fill="#005a9c"><title>203 emails, 29 repository events, 0 wiki edits in Apr 2022</title></rect><rect x="130" y="6" width="15" height="15" fill="#005a9c"><title>194 emails, 26 repository events, 0 wiki edits in May 2022</title></rect><rect x="150" y="6" width="15" height="15" fill="#3667a2"><title>142 emails, 29 repository events, 0 wiki edits in Jun 2022</title></rect></g><text style="font-size: 10px; text-align: center" x="53" y="50">J</text><text style="font-size: 10px; text-align: center" x="73" y="50">F</text><text style="font-size: 10px; text-align: center" x="93" y="50">M</text><text style="font-size: 10px; text-align: center" x="113" y="50">A</text><text style="font-size: 10px; text-align: center" x="133" y="50">M</text><text style="font-size: 10px; text-align: center" x="153" y="50">J</text><text style="font-size: 10px; text-align: center" x="173" y="50">J</text><text style="font-size: 10px; text-align: center" x="193" y="50">A</text><text style="font-size: 10px; text-align: center" x="213" y="50">S</text><text style="font-size: 10px; text-align: center" x="233" y="50">O</text><text style="font-size: 10px; text-align: center" x="253" y="50">N</text><text style="font-size: 10px; text-align: center" x="273" y="50">D</text><text style="font-size: 10px;" x="155" y="69">Less</text><rect fill="#b9bdc6" width="10" height="10" x="180" y="60"><title>No activity in the period</title></rect><rect fill="#919fba" width="10" height="10" x="195" y="60"><title>Low activity in the period</title></rect><rect fill="#6882ae" width="10" height="10" x="210" y="60"><title>Medium activity in the period</title></rect><rect fill="#005a9c" width="10" height="10" x="225" y="60"><title>High activity in period</title></rect><text x="240" y="69" style="font-size: 10px;">More</text></svg>