<svg xmlns="http://www.w3.org/2000/svg">
  <title>Activity of Entity%20Reconciliation%20Community%20Group</title>
  <style type="text/css">.none { fill: #aaa;}
  .low { fill: #8ac;}
  .medium { fill: #49a;}
  .high { fill: #159;}
  </style>

<g transform="translate(0 0)">
  <title>Activity in 2019</title>
  <text x="2" y="20">2019</text><rect x="150" y="6" width="15" height="15" class="medium"><title>21 emails, 10 repo event, 0 wiki edits in Jun 2019</title></rect><rect x="170" y="6" width="15" height="15" class="medium"><title>16 emails, 9 repo event, 0 wiki edits in Jul 2019</title></rect><rect x="190" y="6" width="15" height="15" class="low"><title>1 emails, 4 repo event, 0 wiki edits in Aug 2019</title></rect><rect x="210" y="6" width="15" height="15" class="medium"><title>10 emails, 24 repo event, 0 wiki edits in Sep 2019</title></rect><rect x="230" y="6" width="15" height="15" class="low"><title>6 emails, 8 repo event, 0 wiki edits in Oct 2019</title></rect><rect x="250" y="6" width="15" height="15" class="low"><title>8 emails, 8 repo event, 0 wiki edits in Nov 2019</title></rect><rect x="270" y="6" width="15" height="15" class="low"><title>4 emails, 14 repo event, 0 wiki edits in Dec 2019</title></rect></g>
<g transform="translate(0 20)">
  <title>Activity in 2020</title>
  <text x="2" y="20">2020</text><rect x="50" y="6" width="15" height="15" class="low"><title>5 emails, 10 repo event, 0 wiki edits in Jan 2020</title></rect><rect x="70" y="6" width="15" height="15" class="low"><title>2 emails, 17 repo event, 0 wiki edits in Feb 2020</title></rect><rect x="90" y="6" width="15" height="15" class="low"><title>0 emails, 2 repo event, 0 wiki edits in Mar 2020</title></rect><rect x="110" y="6" width="15" height="15" class="low"><title>0 emails, 1 repo event, 0 wiki edits in Apr 2020</title></rect><rect x="130" y="6" width="15" height="15" class="low"><title>1 emails, 0 repo event, 0 wiki edits in May 2020</title></rect><rect x="150" y="6" width="15" height="15" class="low"><title>16 emails, 1 repo event, 0 wiki edits in Jun 2020</title></rect><rect x="170" y="6" width="15" height="15" class="low"><title>13 emails, 4 repo event, 0 wiki edits in Jul 2020</title></rect><rect x="190" y="6" width="15" height="15" class="low"><title>0 emails, 2 repo event, 0 wiki edits in Aug 2020</title></rect><rect x="210" y="6" width="15" height="15" class="low"><title>0 emails, 6 repo event, 0 wiki edits in Sep 2020</title></rect><rect x="230" y="6" width="15" height="15" class="low"><title>10 emails, 8 repo event, 0 wiki edits in Oct 2020</title></rect></g></svg>