<svg xmlns="http://www.w3.org/2000/svg">
  <title>Activity of Research%20Object%20for%20Scholarly%20Communication%20Community%20Group</title>

<g transform="translate(0 0)">
  <title>Activity in 2013</title>
  <text x="2" y="20">2013</text><rect x="110" y="6" width="15" height="15" fill="#005a9c"><title>22 emails, 319 repo event, 0 wiki edits in Apr 2013</title></rect><rect x="130" y="6" width="15" height="15" fill="#005a9c"><title>0 emails, 372 repo event, 0 wiki edits in May 2013</title></rect><rect x="150" y="6" width="15" height="15" fill="#005a9c"><title>3 emails, 277 repo event, 0 wiki edits in Jun 2013</title></rect><rect x="170" y="6" width="15" height="15" fill="#5174a8"><title>0 emails, 127 repo event, 0 wiki edits in Jul 2013</title></rect><rect x="190" y="6" width="15" height="15" fill="#005a9c"><title>1 emails, 258 repo event, 0 wiki edits in Aug 2013</title></rect><rect x="210" y="6" width="15" height="15" fill="#005a9c"><title>0 emails, 244 repo event, 0 wiki edits in Sep 2013</title></rect><rect x="230" y="6" width="15" height="15" fill="#005a9c"><title>1 emails, 392 repo event, 0 wiki edits in Oct 2013</title></rect><rect x="250" y="6" width="15" height="15" fill="#005a9c"><title>0 emails, 379 repo event, 0 wiki edits in Nov 2013</title></rect><rect x="270" y="6" width="15" height="15" fill="#005a9c"><title>0 emails, 326 repo event, 0 wiki edits in Dec 2013</title></rect></g>
<g transform="translate(0 20)">
  <title>Activity in 2014</title>
  <text x="2" y="20">2014</text><rect x="50" y="6" width="15" height="15" fill="#005a9c"><title>0 emails, 434 repo event, 0 wiki edits in Jan 2014</title></rect><rect x="70" y="6" width="15" height="15" fill="#005a9c"><title>0 emails, 325 repo event, 0 wiki edits in Feb 2014</title></rect><rect x="90" y="6" width="15" height="15" fill="#005a9c"><title>0 emails, 237 repo event, 0 wiki edits in Mar 2014</title></rect><rect x="110" y="6" width="15" height="15" fill="#005a9c"><title>0 emails, 354 repo event, 0 wiki edits in Apr 2014</title></rect><rect x="130" y="6" width="15" height="15" fill="#005a9c"><title>0 emails, 401 repo event, 0 wiki edits in May 2014</title></rect><rect x="150" y="6" width="15" height="15" fill="#005a9c"><title>0 emails, 306 repo event, 0 wiki edits in Jun 2014</title></rect><rect x="170" y="6" width="15" height="15" fill="#005a9c"><title>0 emails, 248 repo event, 0 wiki edits in Jul 2014</title></rect><rect x="190" y="6" width="15" height="15" fill="#005a9c"><title>0 emails, 294 repo event, 0 wiki edits in Aug 2014</title></rect><rect x="210" y="6" width="15" height="15" fill="#005a9c"><title>0 emails, 355 repo event, 0 wiki edits in Sep 2014</title></rect><rect x="230" y="6" width="15" height="15" fill="#005a9c"><title>0 emails, 362 repo event, 0 wiki edits in Oct 2014</title></rect><rect x="250" y="6" width="15" height="15" fill="#005a9c"><title>5 emails, 258 repo event, 0 wiki edits in Nov 2014</title></rect><rect x="270" y="6" width="15" height="15" fill="#005a9c"><title>0 emails, 458 repo event, 0 wiki edits in Dec 2014</title></rect></g>
<g transform="translate(0 40)">
  <title>Activity in 2015</title>
  <text x="2" y="20">2015</text><rect x="50" y="6" width="15" height="15" fill="#005a9c"><title>0 emails, 421 repo event, 0 wiki edits in Jan 2015</title></rect><rect x="70" y="6" width="15" height="15" fill="#005a9c"><title>0 emails, 553 repo event, 0 wiki edits in Feb 2015</title></rect><rect x="90" y="6" width="15" height="15" fill="#005a9c"><title>0 emails, 503 repo event, 0 wiki edits in Mar 2015</title></rect><rect x="110" y="6" width="15" height="15" fill="#005a9c"><title>0 emails, 388 repo event, 0 wiki edits in Apr 2015</title></rect><rect x="130" y="6" width="15" height="15" fill="#005a9c"><title>0 emails, 390 repo event, 0 wiki edits in May 2015</title></rect><rect x="150" y="6" width="15" height="15" fill="#005a9c"><title>0 emails, 449 repo event, 0 wiki edits in Jun 2015</title></rect><rect x="170" y="6" width="15" height="15" fill="#005a9c"><title>0 emails, 450 repo event, 0 wiki edits in Jul 2015</title></rect><rect x="190" y="6" width="15" height="15" fill="#005a9c"><title>0 emails, 421 repo event, 0 wiki edits in Aug 2015</title></rect><rect x="210" y="6" width="15" height="15" fill="#005a9c"><title>0 emails, 408 repo event, 0 wiki edits in Sep 2015</title></rect><rect x="230" y="6" width="15" height="15" fill="#005a9c"><title>0 emails, 410 repo event, 0 wiki edits in Oct 2015</title></rect><rect x="250" y="6" width="15" height="15" fill="#005a9c"><title>0 emails, 350 repo event, 0 wiki edits in Nov 2015</title></rect><rect x="270" y="6" width="15" height="15" fill="#005a9c"><title>0 emails, 530 repo event, 0 wiki edits in Dec 2015</title></rect></g>
<g transform="translate(0 60)">
  <title>Activity in 2016</title>
  <text x="2" y="20">2016</text><rect x="50" y="6" width="15" height="15" fill="#005a9c"><title>1 emails, 441 repo event, 0 wiki edits in Jan 2016</title></rect><rect x="70" y="6" width="15" height="15" fill="#005a9c"><title>0 emails, 438 repo event, 0 wiki edits in Feb 2016</title></rect><rect x="90" y="6" width="15" height="15" fill="#005a9c"><title>1 emails, 535 repo event, 0 wiki edits in Mar 2016</title></rect><rect x="110" y="6" width="15" height="15" fill="#005a9c"><title>0 emails, 458 repo event, 0 wiki edits in Apr 2016</title></rect><rect x="130" y="6" width="15" height="15" fill="#005a9c"><title>0 emails, 433 repo event, 0 wiki edits in May 2016</title></rect><rect x="150" y="6" width="15" height="15" fill="#005a9c"><title>0 emails, 399 repo event, 0 wiki edits in Jun 2016</title></rect><rect x="170" y="6" width="15" height="15" fill="#005a9c"><title>1 emails, 460 repo event, 0 wiki edits in Jul 2016</title></rect><rect x="190" y="6" width="15" height="15" fill="#005a9c"><title>0 emails, 673 repo event, 0 wiki edits in Aug 2016</title></rect><rect x="210" y="6" width="15" height="15" fill="#005a9c"><title>0 emails, 469 repo event, 0 wiki edits in Sep 2016</title></rect><rect x="230" y="6" width="15" height="15" fill="#005a9c"><title>0 emails, 420 repo event, 0 wiki edits in Oct 2016</title></rect><rect x="250" y="6" width="15" height="15" fill="#005a9c"><title>0 emails, 408 repo event, 0 wiki edits in Nov 2016</title></rect><rect x="270" y="6" width="15" height="15" fill="#005a9c"><title>0 emails, 304 repo event, 0 wiki edits in Dec 2016</title></rect></g>
<g transform="translate(0 80)">
  <title>Activity in 2017</title>
  <text x="2" y="20">2017</text><rect x="50" y="6" width="15" height="15" fill="#005a9c"><title>1 emails, 389 repo event, 0 wiki edits in Jan 2017</title></rect><rect x="70" y="6" width="15" height="15" fill="#005a9c"><title>0 emails, 374 repo event, 0 wiki edits in Feb 2017</title></rect><rect x="90" y="6" width="15" height="15" fill="#005a9c"><title>0 emails, 450 repo event, 0 wiki edits in Mar 2017</title></rect><rect x="110" y="6" width="15" height="15" fill="#005a9c"><title>0 emails, 319 repo event, 0 wiki edits in Apr 2017</title></rect><rect x="130" y="6" width="15" height="15" fill="#005a9c"><title>0 emails, 378 repo event, 0 wiki edits in May 2017</title></rect><rect x="150" y="6" width="15" height="15" fill="#005a9c"><title>0 emails, 309 repo event, 0 wiki edits in Jun 2017</title></rect><rect x="170" y="6" width="15" height="15" fill="#005a9c"><title>0 emails, 348 repo event, 0 wiki edits in Jul 2017</title></rect><rect x="190" y="6" width="15" height="15" fill="#005a9c"><title>0 emails, 799 repo event, 0 wiki edits in Aug 2017</title></rect><rect x="210" y="6" width="15" height="15" fill="#005a9c"><title>0 emails, 665 repo event, 0 wiki edits in Sep 2017</title></rect><rect x="230" y="6" width="15" height="15" fill="#005a9c"><title>0 emails, 658 repo event, 0 wiki edits in Oct 2017</title></rect><rect x="250" y="6" width="15" height="15" fill="#005a9c"><title>1 emails, 679 repo event, 0 wiki edits in Nov 2017</title></rect><rect x="270" y="6" width="15" height="15" fill="#005a9c"><title>0 emails, 774 repo event, 0 wiki edits in Dec 2017</title></rect></g>
<g transform="translate(0 100)">
  <title>Activity in 2018</title>
  <text x="2" y="20">2018</text><rect x="50" y="6" width="15" height="15" fill="#005a9c"><title>0 emails, 384 repo event, 0 wiki edits in Jan 2018</title></rect><rect x="70" y="6" width="15" height="15" fill="#005a9c"><title>0 emails, 593 repo event, 0 wiki edits in Feb 2018</title></rect><rect x="90" y="6" width="15" height="15" fill="#005a9c"><title>1 emails, 764 repo event, 0 wiki edits in Mar 2018</title></rect><rect x="110" y="6" width="15" height="15" fill="#005a9c"><title>1 emails, 584 repo event, 0 wiki edits in Apr 2018</title></rect><rect x="130" y="6" width="15" height="15" fill="#005a9c"><title>1 emails, 534 repo event, 0 wiki edits in May 2018</title></rect><rect x="150" y="6" width="15" height="15" fill="#005a9c"><title>1 emails, 371 repo event, 0 wiki edits in Jun 2018</title></rect><rect x="170" y="6" width="15" height="15" fill="#005a9c"><title>1 emails, 330 repo event, 0 wiki edits in Jul 2018</title></rect><rect x="190" y="6" width="15" height="15" fill="#005a9c"><title>0 emails, 464 repo event, 0 wiki edits in Aug 2018</title></rect><rect x="210" y="6" width="15" height="15" fill="#005a9c"><title>0 emails, 455 repo event, 0 wiki edits in Sep 2018</title></rect><rect x="230" y="6" width="15" height="15" fill="#005a9c"><title>0 emails, 575 repo event, 0 wiki edits in Oct 2018</title></rect><rect x="250" y="6" width="15" height="15" fill="#005a9c"><title>0 emails, 379 repo event, 0 wiki edits in Nov 2018</title></rect><rect x="270" y="6" width="15" height="15" fill="#005a9c"><title>0 emails, 240 repo event, 0 wiki edits in Dec 2018</title></rect></g>
<g transform="translate(0 120)">
  <title>Activity in 2019</title>
  <text x="2" y="20">2019</text><rect x="50" y="6" width="15" height="15" fill="#005a9c"><title>0 emails, 505 repo event, 0 wiki edits in Jan 2019</title></rect><rect x="70" y="6" width="15" height="15" fill="#005a9c"><title>0 emails, 415 repo event, 0 wiki edits in Feb 2019</title></rect><rect x="90" y="6" width="15" height="15" fill="#005a9c"><title>1 emails, 788 repo event, 0 wiki edits in Mar 2019</title></rect><rect x="110" y="6" width="15" height="15" fill="#005a9c"><title>1 emails, 621 repo event, 0 wiki edits in Apr 2019</title></rect><rect x="130" y="6" width="15" height="15" fill="#005a9c"><title>1 emails, 617 repo event, 0 wiki edits in May 2019</title></rect><rect x="150" y="6" width="15" height="15" fill="#005a9c"><title>2 emails, 388 repo event, 0 wiki edits in Jun 2019</title></rect><rect x="170" y="6" width="15" height="15" fill="#005a9c"><title>1 emails, 362 repo event, 0 wiki edits in Jul 2019</title></rect><rect x="190" y="6" width="15" height="15" fill="#005a9c"><title>0 emails, 490 repo event, 0 wiki edits in Aug 2019</title></rect><rect x="210" y="6" width="15" height="15" fill="#005a9c"><title>0 emails, 513 repo event, 0 wiki edits in Sep 2019</title></rect><rect x="230" y="6" width="15" height="15" fill="#005a9c"><title>0 emails, 554 repo event, 0 wiki edits in Oct 2019</title></rect><rect x="250" y="6" width="15" height="15" fill="#005a9c"><title>0 emails, 445 repo event, 0 wiki edits in Nov 2019</title></rect><rect x="270" y="6" width="15" height="15" fill="#005a9c"><title>0 emails, 380 repo event, 0 wiki edits in Dec 2019</title></rect></g>
<g transform="translate(0 140)">
  <title>Activity in 2020</title>
  <text x="2" y="20">2020</text><rect x="50" y="6" width="15" height="15" fill="#005a9c"><title>0 emails, 513 repo event, 0 wiki edits in Jan 2020</title></rect><rect x="70" y="6" width="15" height="15" fill="#005a9c"><title>3 emails, 695 repo event, 0 wiki edits in Feb 2020</title></rect><rect x="90" y="6" width="15" height="15" fill="#005a9c"><title>1 emails, 512 repo event, 0 wiki edits in Mar 2020</title></rect><rect x="110" y="6" width="15" height="15" fill="#005a9c"><title>1 emails, 536 repo event, 0 wiki edits in Apr 2020</title></rect><rect x="130" y="6" width="15" height="15" fill="#005a9c"><title>0 emails, 585 repo event, 0 wiki edits in May 2020</title></rect><rect x="150" y="6" width="15" height="15" fill="#005a9c"><title>0 emails, 360 repo event, 0 wiki edits in Jun 2020</title></rect><rect x="170" y="6" width="15" height="15" fill="#005a9c"><title>0 emails, 432 repo event, 0 wiki edits in Jul 2020</title></rect><rect x="190" y="6" width="15" height="15" fill="#005a9c"><title>0 emails, 419 repo event, 0 wiki edits in Aug 2020</title></rect><rect x="210" y="6" width="15" height="15" fill="#005a9c"><title>0 emails, 787 repo event, 0 wiki edits in Sep 2020</title></rect><rect x="230" y="6" width="15" height="15" fill="#005a9c"><title>0 emails, 538 repo event, 0 wiki edits in Oct 2020</title></rect><rect x="250" y="6" width="15" height="15" fill="#5174a8"><title>0 emails, 129 repo event, 0 wiki edits in Nov 2020</title></rect></g><text style="font-size: 10px; text-align: center" x="53" y="170">J</text><text style="font-size: 10px; text-align: center" x="73" y="170">F</text><text style="font-size: 10px; text-align: center" x="93" y="170">M</text><text style="font-size: 10px; text-align: center" x="113" y="170">A</text><text style="font-size: 10px; text-align: center" x="133" y="170">M</text><text style="font-size: 10px; text-align: center" x="153" y="170">J</text><text style="font-size: 10px; text-align: center" x="173" y="170">J</text><text style="font-size: 10px; text-align: center" x="193" y="170">A</text><text style="font-size: 10px; text-align: center" x="213" y="170">S</text><text style="font-size: 10px; text-align: center" x="233" y="170">O</text><text style="font-size: 10px; text-align: center" x="253" y="170">N</text><text style="font-size: 10px; text-align: center" x="273" y="170">D</text><text style="font-size: 10px;" x="150" y="190">Less</text><rect fill="#b9bdc6" width="10" height="10" x="180" y="180"></rect><rect fill="#919fba" width="10" height="10" x="195" y="180"></rect><rect fill="#6882ae" width="10" height="10" x="210" y="180"></rect><rect fill="#005a9c" width="10" height="10" x="225" y="180"></rect><text x="240" y="190" style="font-size: 10px;">More</text></svg>