<svg xmlns="http://www.w3.org/2000/svg">
  <title>Activity of Shape%20Expressions%20Community%20Group</title>
  <style type="text/css">.none { fill: #aaa;}
  .low { fill: #8ac;}
  .medium { fill: #49a;}
  .high { fill: #159;}
  </style>

<g transform="translate(0 0)">
  <title>Activity in 2016</title>
  <text x="2" y="20">2016</text><rect x="270" y="6" width="15" height="15" class="medium"><title>5 emails, 37 repo event, 0 wiki edits in Dec 2016</title></rect></g>
<g transform="translate(0 20)">
  <title>Activity in 2017</title>
  <text x="2" y="20">2017</text><rect x="50" y="6" width="15" height="15" class="medium"><title>13 emails, 53 repo event, 0 wiki edits in Jan 2017</title></rect><rect x="70" y="6" width="15" height="15" class="medium"><title>12 emails, 42 repo event, 0 wiki edits in Feb 2017</title></rect><rect x="90" y="6" width="15" height="15" class="medium"><title>20 emails, 40 repo event, 0 wiki edits in Mar 2017</title></rect><rect x="110" y="6" width="15" height="15" class="medium"><title>4 emails, 48 repo event, 0 wiki edits in Apr 2017</title></rect><rect x="130" y="6" width="15" height="15" class="medium"><title>25 emails, 29 repo event, 0 wiki edits in May 2017</title></rect><rect x="150" y="6" width="15" height="15" class="high"><title>10 emails, 75 repo event, 0 wiki edits in Jun 2017</title></rect><rect x="170" y="6" width="15" height="15" class="medium"><title>3 emails, 37 repo event, 0 wiki edits in Jul 2017</title></rect><rect x="190" y="6" width="15" height="15" class="medium"><title>10 emails, 12 repo event, 0 wiki edits in Aug 2017</title></rect><rect x="210" y="6" width="15" height="15" class="medium"><title>4 emails, 35 repo event, 0 wiki edits in Sep 2017</title></rect><rect x="230" y="6" width="15" height="15" class="high"><title>11 emails, 81 repo event, 0 wiki edits in Oct 2017</title></rect><rect x="250" y="6" width="15" height="15" class="medium"><title>3 emails, 35 repo event, 0 wiki edits in Nov 2017</title></rect><rect x="270" y="6" width="15" height="15" class="medium"><title>6 emails, 37 repo event, 0 wiki edits in Dec 2017</title></rect></g>
<g transform="translate(0 40)">
  <title>Activity in 2018</title>
  <text x="2" y="20">2018</text><rect x="50" y="6" width="15" height="15" class="high"><title>7 emails, 87 repo event, 0 wiki edits in Jan 2018</title></rect><rect x="70" y="6" width="15" height="15" class="high"><title>6 emails, 83 repo event, 0 wiki edits in Feb 2018</title></rect><rect x="90" y="6" width="15" height="15" class="high"><title>15 emails, 113 repo event, 0 wiki edits in Mar 2018</title></rect><rect x="110" y="6" width="15" height="15" class="medium"><title>5 emails, 43 repo event, 0 wiki edits in Apr 2018</title></rect><rect x="130" y="6" width="15" height="15" class="medium"><title>6 emails, 53 repo event, 0 wiki edits in May 2018</title></rect><rect x="150" y="6" width="15" height="15" class="medium"><title>5 emails, 37 repo event, 0 wiki edits in Jun 2018</title></rect><rect x="170" y="6" width="15" height="15" class="medium"><title>2 emails, 37 repo event, 0 wiki edits in Jul 2018</title></rect><rect x="190" y="6" width="15" height="15" class="medium"><title>4 emails, 35 repo event, 0 wiki edits in Aug 2018</title></rect><rect x="210" y="6" width="15" height="15" class="medium"><title>2 emails, 31 repo event, 0 wiki edits in Sep 2018</title></rect><rect x="230" y="6" width="15" height="15" class="medium"><title>3 emails, 20 repo event, 0 wiki edits in Oct 2018</title></rect><rect x="250" y="6" width="15" height="15" class="medium"><title>11 emails, 47 repo event, 0 wiki edits in Nov 2018</title></rect><rect x="270" y="6" width="15" height="15" class="low"><title>2 emails, 17 repo event, 0 wiki edits in Dec 2018</title></rect></g>
<g transform="translate(0 60)">
  <title>Activity in 2019</title>
  <text x="2" y="20">2019</text><rect x="50" y="6" width="15" height="15" class="medium"><title>5 emails, 22 repo event, 0 wiki edits in Jan 2019</title></rect><rect x="70" y="6" width="15" height="15" class="medium"><title>5 emails, 21 repo event, 0 wiki edits in Feb 2019</title></rect><rect x="90" y="6" width="15" height="15" class="medium"><title>9 emails, 22 repo event, 0 wiki edits in Mar 2019</title></rect><rect x="110" y="6" width="15" height="15" class="medium"><title>3 emails, 38 repo event, 0 wiki edits in Apr 2019</title></rect><rect x="130" y="6" width="15" height="15" class="medium"><title>3 emails, 73 repo event, 0 wiki edits in May 2019</title></rect><rect x="150" y="6" width="15" height="15" class="medium"><title>5 emails, 33 repo event, 0 wiki edits in Jun 2019</title></rect><rect x="170" y="6" width="15" height="15" class="high"><title>5 emails, 92 repo event, 0 wiki edits in Jul 2019</title></rect><rect x="190" y="6" width="15" height="15" class="medium"><title>4 emails, 21 repo event, 0 wiki edits in Aug 2019</title></rect><rect x="210" y="6" width="15" height="15" class="low"><title>0 emails, 15 repo event, 0 wiki edits in Sep 2019</title></rect><rect x="230" y="6" width="15" height="15" class="low"><title>3 emails, 10 repo event, 0 wiki edits in Oct 2019</title></rect><rect x="250" y="6" width="15" height="15" class="low"><title>4 emails, 3 repo event, 0 wiki edits in Nov 2019</title></rect><rect x="270" y="6" width="15" height="15" class="low"><title>3 emails, 1 repo event, 0 wiki edits in Dec 2019</title></rect></g>
<g transform="translate(0 80)">
  <title>Activity in 2020</title>
  <text x="2" y="20">2020</text><rect x="50" y="6" width="15" height="15" class="low"><title>5 emails, 4 repo event, 0 wiki edits in Jan 2020</title></rect><rect x="70" y="6" width="15" height="15" class="low"><title>3 emails, 9 repo event, 0 wiki edits in Feb 2020</title></rect><rect x="90" y="6" width="15" height="15" class="low"><title>5 emails, 7 repo event, 0 wiki edits in Mar 2020</title></rect><rect x="110" y="6" width="15" height="15" class="low"><title>1 emails, 6 repo event, 0 wiki edits in Apr 2020</title></rect><rect x="130" y="6" width="15" height="15" class="low"><title>2 emails, 10 repo event, 0 wiki edits in May 2020</title></rect><rect x="150" y="6" width="15" height="15" class="low"><title>3 emails, 5 repo event, 0 wiki edits in Jun 2020</title></rect><rect x="170" y="6" width="15" height="15" class="low"><title>2 emails, 10 repo event, 0 wiki edits in Jul 2020</title></rect><rect x="190" y="6" width="15" height="15" class="low"><title>1 emails, 9 repo event, 0 wiki edits in Aug 2020</title></rect><rect x="210" y="6" width="15" height="15" class="low"><title>1 emails, 5 repo event, 0 wiki edits in Sep 2020</title></rect><rect x="230" y="6" width="15" height="15" class="low"><title>1 emails, 5 repo event, 0 wiki edits in Oct 2020</title></rect></g></svg>