<svg xmlns="http://www.w3.org/2000/svg">
  <title>Activity of Solid%20Community%20Group</title>
  <style type="text/css">.none { fill: #aaa;}
  .low { fill: #8ac;}
  .medium { fill: #49a;}
  .high { fill: #159;}
  </style>

<g transform="translate(0 0)">
  <title>Activity in 2018</title>
  <text x="2" y="20">2018</text><rect x="230" y="6" width="15" height="15" class="medium"><title>32 emails, 1 repo event, 0 wiki edits in Oct 2018</title></rect><rect x="250" y="6" width="15" height="15" class="low"><title>10 emails, 1 repo event, 0 wiki edits in Nov 2018</title></rect><rect x="270" y="6" width="15" height="15" class="low"><title>7 emails, 0 repo event, 0 wiki edits in Dec 2018</title></rect></g>
<g transform="translate(0 20)">
  <title>Activity in 2019</title>
  <text x="2" y="20">2019</text><rect x="50" y="6" width="15" height="15" class="low"><title>5 emails, 0 repo event, 0 wiki edits in Jan 2019</title></rect><rect x="70" y="6" width="15" height="15" class="medium"><title>56 emails, 0 repo event, 0 wiki edits in Feb 2019</title></rect><rect x="90" y="6" width="15" height="15" class="medium"><title>77 emails, 0 repo event, 0 wiki edits in Mar 2019</title></rect><rect x="110" y="6" width="15" height="15" class="medium"><title>28 emails, 0 repo event, 0 wiki edits in Apr 2019</title></rect><rect x="130" y="6" width="15" height="15" class="medium"><title>39 emails, 5 repo event, 0 wiki edits in May 2019</title></rect><rect x="150" y="6" width="15" height="15" class="low"><title>15 emails, 4 repo event, 0 wiki edits in Jun 2019</title></rect><rect x="170" y="6" width="15" height="15" class="medium"><title>36 emails, 21 repo event, 0 wiki edits in Jul 2019</title></rect><rect x="190" y="6" width="15" height="15" class="medium"><title>35 emails, 15 repo event, 0 wiki edits in Aug 2019</title></rect><rect x="210" y="6" width="15" height="15" class="medium"><title>16 emails, 35 repo event, 0 wiki edits in Sep 2019</title></rect><rect x="230" y="6" width="15" height="15" class="medium"><title>2 emails, 28 repo event, 0 wiki edits in Oct 2019</title></rect><rect x="250" y="6" width="15" height="15" class="medium"><title>1 emails, 20 repo event, 0 wiki edits in Nov 2019</title></rect><rect x="270" y="6" width="15" height="15" class="low"><title>1 emails, 10 repo event, 0 wiki edits in Dec 2019</title></rect></g>
<g transform="translate(0 40)">
  <title>Activity in 2020</title>
  <text x="2" y="20">2020</text><rect x="50" y="6" width="15" height="15" class="low"><title>1 emails, 9 repo event, 0 wiki edits in Jan 2020</title></rect><rect x="70" y="6" width="15" height="15" class="low"><title>0 emails, 4 repo event, 0 wiki edits in Feb 2020</title></rect><rect x="90" y="6" width="15" height="15" class="low"><title>1 emails, 12 repo event, 0 wiki edits in Mar 2020</title></rect><rect x="110" y="6" width="15" height="15" class="medium"><title>8 emails, 16 repo event, 0 wiki edits in Apr 2020</title></rect><rect x="130" y="6" width="15" height="15" class="low"><title>1 emails, 4 repo event, 0 wiki edits in May 2020</title></rect><rect x="150" y="6" width="15" height="15" class="low"><title>0 emails, 6 repo event, 0 wiki edits in Jun 2020</title></rect><rect x="170" y="6" width="15" height="15" class="low"><title>0 emails, 3 repo event, 4 wiki edits in Jul 2020</title></rect><rect x="190" y="6" width="15" height="15" class="low"><title>0 emails, 6 repo event, 2 wiki edits in Aug 2020</title></rect><rect x="210" y="6" width="15" height="15" class="medium"><title>4 emails, 10 repo event, 11 wiki edits in Sep 2020</title></rect><rect x="230" y="6" width="15" height="15" class="medium"><title>33 emails, 5 repo event, 0 wiki edits in Oct 2020</title></rect><rect x="250" y="6" width="15" height="15" class="low"><title>1 emails, 5 repo event, 10 wiki edits in Nov 2020</title></rect></g><text style="font-size: 10px; text-align: center" x="53" y="70">J</text><text style="font-size: 10px; text-align: center" x="73" y="70">F</text><text style="font-size: 10px; text-align: center" x="93" y="70">M</text><text style="font-size: 10px; text-align: center" x="113" y="70">A</text><text style="font-size: 10px; text-align: center" x="133" y="70">M</text><text style="font-size: 10px; text-align: center" x="153" y="70">J</text><text style="font-size: 10px; text-align: center" x="173" y="70">J</text><text style="font-size: 10px; text-align: center" x="193" y="70">A</text><text style="font-size: 10px; text-align: center" x="213" y="70">S</text><text style="font-size: 10px; text-align: center" x="233" y="70">O</text><text style="font-size: 10px; text-align: center" x="253" y="70">N</text><text style="font-size: 10px; text-align: center" x="273" y="70">D</text><text style="font-size: 10px;" x="150" y="90">Less</text><rect class="none" width="10" height="10" x="180" y="80"></rect><rect class="low" width="10" height="10" x="195" y="80"></rect><rect class="medium" width="10" height="10" x="210" y="80"></rect><rect class="high" width="10" height="10" x="225" y="80"></rect><text x="240" y="90" style="font-size: 10px;">More</text></svg>