<svg xmlns="http://www.w3.org/2000/svg">
  <title>Activity of Web%20Bluetooth%20Community%20Group</title>
  <style type="text/css">.none { fill: #aaa;}
  .low { fill: #8ac;}
  .medium { fill: #49a;}
  .high { fill: #159;}
  </style>

<g transform="translate(0 0)">
  <title>Activity in 2014</title>
  <text x="2" y="20">2014</text><rect x="170" y="6" width="15" height="15" class="none"><title>0 emails, 0 repo event, 0 wiki edits in Jul 2014</title></rect><rect x="190" y="6" width="15" height="15" class="high"><title>51 emails, 40 repo event, 0 wiki edits in Aug 2014</title></rect><rect x="230" y="6" width="15" height="15" class="low"><title>4 emails, 4 repo event, 0 wiki edits in Oct 2014</title></rect><rect x="250" y="6" width="15" height="15" class="low"><title>2 emails, 4 repo event, 0 wiki edits in Nov 2014</title></rect><rect x="270" y="6" width="15" height="15" class="low"><title>1 emails, 2 repo event, 0 wiki edits in Dec 2014</title></rect></g>
<g transform="translate(0 20)">
  <title>Activity in 2015</title>
  <text x="2" y="20">2015</text><rect x="50" y="6" width="15" height="15" class="medium"><title>23 emails, 7 repo event, 0 wiki edits in Jan 2015</title></rect><rect x="70" y="6" width="15" height="15" class="low"><title>0 emails, 9 repo event, 0 wiki edits in Feb 2015</title></rect><rect x="90" y="6" width="15" height="15" class="high"><title>106 emails, 39 repo event, 0 wiki edits in Mar 2015</title></rect><rect x="110" y="6" width="15" height="15" class="high"><title>128 emails, 25 repo event, 0 wiki edits in Apr 2015</title></rect><rect x="130" y="6" width="15" height="15" class="high"><title>82 emails, 25 repo event, 0 wiki edits in May 2015</title></rect><rect x="150" y="6" width="15" height="15" class="low"><title>0 emails, 13 repo event, 0 wiki edits in Jun 2015</title></rect><rect x="170" y="6" width="15" height="15" class="high"><title>81 emails, 22 repo event, 0 wiki edits in Jul 2015</title></rect><rect x="190" y="6" width="15" height="15" class="medium"><title>47 emails, 8 repo event, 0 wiki edits in Aug 2015</title></rect><rect x="210" y="6" width="15" height="15" class="medium"><title>50 emails, 19 repo event, 0 wiki edits in Sep 2015</title></rect><rect x="230" y="6" width="15" height="15" class="high"><title>67 emails, 20 repo event, 0 wiki edits in Oct 2015</title></rect><rect x="250" y="6" width="15" height="15" class="medium"><title>36 emails, 5 repo event, 0 wiki edits in Nov 2015</title></rect><rect x="270" y="6" width="15" height="15" class="medium"><title>45 emails, 5 repo event, 0 wiki edits in Dec 2015</title></rect></g>
<g transform="translate(0 40)">
  <title>Activity in 2016</title>
  <text x="2" y="20">2016</text><rect x="50" y="6" width="15" height="15" class="high"><title>134 emails, 25 repo event, 0 wiki edits in Jan 2016</title></rect><rect x="70" y="6" width="15" height="15" class="medium"><title>59 emails, 17 repo event, 0 wiki edits in Feb 2016</title></rect><rect x="90" y="6" width="15" height="15" class="high"><title>93 emails, 7 repo event, 0 wiki edits in Mar 2016</title></rect><rect x="110" y="6" width="15" height="15" class="medium"><title>49 emails, 12 repo event, 0 wiki edits in Apr 2016</title></rect><rect x="130" y="6" width="15" height="15" class="high"><title>78 emails, 12 repo event, 0 wiki edits in May 2016</title></rect><rect x="150" y="6" width="15" height="15" class="low"><title>0 emails, 6 repo event, 0 wiki edits in Jun 2016</title></rect><rect x="170" y="6" width="15" height="15" class="high"><title>92 emails, 15 repo event, 0 wiki edits in Jul 2016</title></rect><rect x="190" y="6" width="15" height="15" class="high"><title>191 emails, 43 repo event, 0 wiki edits in Aug 2016</title></rect><rect x="210" y="6" width="15" height="15" class="high"><title>162 emails, 37 repo event, 0 wiki edits in Sep 2016</title></rect><rect x="230" y="6" width="15" height="15" class="high"><title>83 emails, 35 repo event, 0 wiki edits in Oct 2016</title></rect><rect x="250" y="6" width="15" height="15" class="medium"><title>45 emails, 16 repo event, 0 wiki edits in Nov 2016</title></rect><rect x="270" y="6" width="15" height="15" class="low"><title>0 emails, 9 repo event, 0 wiki edits in Dec 2016</title></rect></g>
<g transform="translate(0 60)">
  <title>Activity in 2017</title>
  <text x="2" y="20">2017</text><rect x="50" y="6" width="15" height="15" class="low"><title>0 emails, 14 repo event, 0 wiki edits in Jan 2017</title></rect><rect x="70" y="6" width="15" height="15" class="medium"><title>39 emails, 5 repo event, 0 wiki edits in Feb 2017</title></rect><rect x="90" y="6" width="15" height="15" class="medium"><title>20 emails, 5 repo event, 0 wiki edits in Mar 2017</title></rect><rect x="110" y="6" width="15" height="15" class="low"><title>0 emails, 4 repo event, 0 wiki edits in Apr 2017</title></rect><rect x="130" y="6" width="15" height="15" class="low"><title>14 emails, 2 repo event, 0 wiki edits in May 2017</title></rect><rect x="150" y="6" width="15" height="15" class="low"><title>10 emails, 2 repo event, 0 wiki edits in Jun 2017</title></rect><rect x="170" y="6" width="15" height="15" class="low"><title>0 emails, 2 repo event, 0 wiki edits in Jul 2017</title></rect><rect x="190" y="6" width="15" height="15" class="low"><title>0 emails, 9 repo event, 0 wiki edits in Aug 2017</title></rect><rect x="210" y="6" width="15" height="15" class="low"><title>0 emails, 1 repo event, 0 wiki edits in Sep 2017</title></rect><rect x="230" y="6" width="15" height="15" class="low"><title>8 emails, 0 repo event, 0 wiki edits in Oct 2017</title></rect><rect x="250" y="6" width="15" height="15" class="low"><title>7 emails, 3 repo event, 0 wiki edits in Nov 2017</title></rect><rect x="270" y="6" width="15" height="15" class="none"><title>0 emails, 0 repo event, 0 wiki edits in Dec 2017</title></rect></g>
<g transform="translate(0 80)">
  <title>Activity in 2018</title>
  <text x="2" y="20">2018</text><rect x="50" y="6" width="15" height="15" class="low"><title>0 emails, 4 repo event, 0 wiki edits in Jan 2018</title></rect><rect x="70" y="6" width="15" height="15" class="low"><title>0 emails, 4 repo event, 0 wiki edits in Feb 2018</title></rect><rect x="90" y="6" width="15" height="15" class="low"><title>8 emails, 1 repo event, 0 wiki edits in Mar 2018</title></rect><rect x="110" y="6" width="15" height="15" class="medium"><title>46 emails, 9 repo event, 0 wiki edits in Apr 2018</title></rect><rect x="130" y="6" width="15" height="15" class="medium"><title>25 emails, 6 repo event, 0 wiki edits in May 2018</title></rect><rect x="150" y="6" width="15" height="15" class="low"><title>0 emails, 6 repo event, 0 wiki edits in Jun 2018</title></rect><rect x="170" y="6" width="15" height="15" class="low"><title>0 emails, 8 repo event, 0 wiki edits in Jul 2018</title></rect><rect x="190" y="6" width="15" height="15" class="none"><title>0 emails, 0 repo event, 0 wiki edits in Aug 2018</title></rect><rect x="210" y="6" width="15" height="15" class="low"><title>0 emails, 5 repo event, 0 wiki edits in Sep 2018</title></rect><rect x="230" y="6" width="15" height="15" class="low"><title>0 emails, 2 repo event, 0 wiki edits in Oct 2018</title></rect><rect x="250" y="6" width="15" height="15" class="low"><title>0 emails, 6 repo event, 0 wiki edits in Nov 2018</title></rect><rect x="270" y="6" width="15" height="15" class="low"><title>0 emails, 11 repo event, 0 wiki edits in Dec 2018</title></rect></g>
<g transform="translate(0 100)">
  <title>Activity in 2019</title>
  <text x="2" y="20">2019</text><rect x="50" y="6" width="15" height="15" class="low"><title>0 emails, 4 repo event, 0 wiki edits in Jan 2019</title></rect><rect x="70" y="6" width="15" height="15" class="low"><title>14 emails, 4 repo event, 0 wiki edits in Feb 2019</title></rect><rect x="90" y="6" width="15" height="15" class="low"><title>15 emails, 1 repo event, 0 wiki edits in Mar 2019</title></rect><rect x="110" y="6" width="15" height="15" class="medium"><title>60 emails, 11 repo event, 0 wiki edits in Apr 2019</title></rect><rect x="130" y="6" width="15" height="15" class="medium"><title>16 emails, 4 repo event, 0 wiki edits in May 2019</title></rect><rect x="150" y="6" width="15" height="15" class="medium"><title>24 emails, 6 repo event, 0 wiki edits in Jun 2019</title></rect><rect x="170" y="6" width="15" height="15" class="medium"><title>24 emails, 7 repo event, 0 wiki edits in Jul 2019</title></rect><rect x="190" y="6" width="15" height="15" class="low"><title>4 emails, 2 repo event, 0 wiki edits in Aug 2019</title></rect><rect x="210" y="6" width="15" height="15" class="medium"><title>21 emails, 6 repo event, 0 wiki edits in Sep 2019</title></rect><rect x="230" y="6" width="15" height="15" class="medium"><title>17 emails, 5 repo event, 0 wiki edits in Oct 2019</title></rect><rect x="250" y="6" width="15" height="15" class="low"><title>0 emails, 4 repo event, 0 wiki edits in Nov 2019</title></rect><rect x="270" y="6" width="15" height="15" class="low"><title>0 emails, 1 repo event, 0 wiki edits in Dec 2019</title></rect></g>
<g transform="translate(0 120)">
  <title>Activity in 2020</title>
  <text x="2" y="20">2020</text><rect x="50" y="6" width="15" height="15" class="low"><title>0 emails, 6 repo event, 0 wiki edits in Jan 2020</title></rect><rect x="70" y="6" width="15" height="15" class="medium"><title>36 emails, 18 repo event, 0 wiki edits in Feb 2020</title></rect><rect x="90" y="6" width="15" height="15" class="low"><title>0 emails, 10 repo event, 0 wiki edits in Mar 2020</title></rect><rect x="110" y="6" width="15" height="15" class="low"><title>0 emails, 10 repo event, 0 wiki edits in Apr 2020</title></rect><rect x="130" y="6" width="15" height="15" class="low"><title>0 emails, 12 repo event, 0 wiki edits in May 2020</title></rect><rect x="150" y="6" width="15" height="15" class="low"><title>0 emails, 8 repo event, 0 wiki edits in Jun 2020</title></rect><rect x="170" y="6" width="15" height="15" class="medium"><title>29 emails, 9 repo event, 0 wiki edits in Jul 2020</title></rect><rect x="190" y="6" width="15" height="15" class="low"><title>0 emails, 3 repo event, 0 wiki edits in Aug 2020</title></rect><rect x="210" y="6" width="15" height="15" class="medium"><title>50 emails, 21 repo event, 0 wiki edits in Sep 2020</title></rect><rect x="230" y="6" width="15" height="15" class="low"><title>13 emails, 2 repo event, 0 wiki edits in Oct 2020</title></rect><rect x="250" y="6" width="15" height="15" class="low"><title>0 emails, 1 repo event, 0 wiki edits in Nov 2020</title></rect></g></svg>