<svg xmlns="http://www.w3.org/2000/svg" width="360" height="220">
  <title>Activity of WebAssembly%20Community%20Group</title>

<g transform="translate(0 0)">
  <title>Activity in 2015</title>
  <text x="2" y="20">2015</text><rect x="110" y="6" width="15" height="15" fill="#b9bdc6"><title>0 emails, 18 repository events, 0 wiki edits in Apr 2015</title></rect><rect x="130" y="6" width="15" height="15" fill="#5174a8"><title>0 emails, 139 repository events, 0 wiki edits in May 2015</title></rect><rect x="150" y="6" width="15" height="15" fill="#005a9c"><title>1 emails, 239 repository events, 0 wiki edits in Jun 2015</title></rect><rect x="170" y="6" width="15" height="15" fill="#7d90b5"><title>0 emails, 76 repository events, 0 wiki edits in Jul 2015</title></rect><rect x="190" y="6" width="15" height="15" fill="#005a9c"><title>0 emails, 1773 repository events, 0 wiki edits in Aug 2015</title></rect><rect x="210" y="6" width="15" height="15" fill="#005a9c"><title>2 emails, 1671 repository events, 0 wiki edits in Sep 2015</title></rect><rect x="230" y="6" width="15" height="15" fill="#005a9c"><title>0 emails, 2128 repository events, 0 wiki edits in Oct 2015</title></rect><rect x="250" y="6" width="15" height="15" fill="#005a9c"><title>7 emails, 1016 repository events, 0 wiki edits in Nov 2015</title></rect><rect x="270" y="6" width="15" height="15" fill="#005a9c"><title>8 emails, 355 repository events, 0 wiki edits in Dec 2015</title></rect></g>
<g transform="translate(0 20)">
  <title>Activity in 2016</title>
  <text x="2" y="20">2016</text><rect x="50" y="6" width="15" height="15" fill="#005a9c"><title>13 emails, 617 repository events, 0 wiki edits in Jan 2016</title></rect><rect x="70" y="6" width="15" height="15" fill="#005a9c"><title>0 emails, 1297 repository events, 0 wiki edits in Feb 2016</title></rect><rect x="90" y="6" width="15" height="15" fill="#005a9c"><title>1 emails, 684 repository events, 0 wiki edits in Mar 2016</title></rect><rect x="110" y="6" width="15" height="15" fill="#005a9c"><title>3 emails, 421 repository events, 0 wiki edits in Apr 2016</title></rect><rect x="130" y="6" width="15" height="15" fill="#005a9c"><title>2 emails, 531 repository events, 0 wiki edits in May 2016</title></rect><rect x="150" y="6" width="15" height="15" fill="#005a9c"><title>1 emails, 568 repository events, 0 wiki edits in Jun 2016</title></rect><rect x="170" y="6" width="15" height="15" fill="#005a9c"><title>0 emails, 723 repository events, 0 wiki edits in Jul 2016</title></rect><rect x="190" y="6" width="15" height="15" fill="#005a9c"><title>10 emails, 825 repository events, 0 wiki edits in Aug 2016</title></rect><rect x="210" y="6" width="15" height="15" fill="#005a9c"><title>7 emails, 1333 repository events, 0 wiki edits in Sep 2016</title></rect><rect x="230" y="6" width="15" height="15" fill="#005a9c"><title>0 emails, 1085 repository events, 0 wiki edits in Oct 2016</title></rect><rect x="250" y="6" width="15" height="15" fill="#005a9c"><title>0 emails, 621 repository events, 0 wiki edits in Nov 2016</title></rect><rect x="270" y="6" width="15" height="15" fill="#005a9c"><title>0 emails, 481 repository events, 0 wiki edits in Dec 2016</title></rect></g>
<g transform="translate(0 40)">
  <title>Activity in 2017</title>
  <text x="2" y="20">2017</text><rect x="50" y="6" width="15" height="15" fill="#005a9c"><title>0 emails, 553 repository events, 0 wiki edits in Jan 2017</title></rect><rect x="70" y="6" width="15" height="15" fill="#005a9c"><title>4 emails, 540 repository events, 0 wiki edits in Feb 2017</title></rect><rect x="90" y="6" width="15" height="15" fill="#005a9c"><title>10 emails, 489 repository events, 0 wiki edits in Mar 2017</title></rect><rect x="110" y="6" width="15" height="15" fill="#005a9c"><title>3 emails, 611 repository events, 0 wiki edits in Apr 2017</title></rect><rect x="130" y="6" width="15" height="15" fill="#005a9c"><title>6 emails, 605 repository events, 0 wiki edits in May 2017</title></rect><rect x="150" y="6" width="15" height="15" fill="#005a9c"><title>14 emails, 843 repository events, 0 wiki edits in Jun 2017</title></rect><rect x="170" y="6" width="15" height="15" fill="#005a9c"><title>5 emails, 603 repository events, 0 wiki edits in Jul 2017</title></rect><rect x="190" y="6" width="15" height="15" fill="#005a9c"><title>8 emails, 494 repository events, 0 wiki edits in Aug 2017</title></rect><rect x="210" y="6" width="15" height="15" fill="#005a9c"><title>9 emails, 341 repository events, 0 wiki edits in Sep 2017</title></rect><rect x="230" y="6" width="15" height="15" fill="#005a9c"><title>9 emails, 598 repository events, 0 wiki edits in Oct 2017</title></rect><rect x="250" y="6" width="15" height="15" fill="#005a9c"><title>1 emails, 465 repository events, 0 wiki edits in Nov 2017</title></rect><rect x="270" y="6" width="15" height="15" fill="#005a9c"><title>2 emails, 296 repository events, 0 wiki edits in Dec 2017</title></rect></g>
<g transform="translate(0 60)">
  <title>Activity in 2018</title>
  <text x="2" y="20">2018</text><rect x="50" y="6" width="15" height="15" fill="#005a9c"><title>5 emails, 681 repository events, 0 wiki edits in Jan 2018</title></rect><rect x="70" y="6" width="15" height="15" fill="#005a9c"><title>6 emails, 996 repository events, 0 wiki edits in Feb 2018</title></rect><rect x="90" y="6" width="15" height="15" fill="#005a9c"><title>6 emails, 557 repository events, 0 wiki edits in Mar 2018</title></rect><rect x="110" y="6" width="15" height="15" fill="#005a9c"><title>2 emails, 564 repository events, 0 wiki edits in Apr 2018</title></rect><rect x="130" y="6" width="15" height="15" fill="#005a9c"><title>6 emails, 566 repository events, 0 wiki edits in May 2018</title></rect><rect x="150" y="6" width="15" height="15" fill="#005a9c"><title>5 emails, 460 repository events, 0 wiki edits in Jun 2018</title></rect><rect x="170" y="6" width="15" height="15" fill="#005a9c"><title>3 emails, 454 repository events, 0 wiki edits in Jul 2018</title></rect><rect x="190" y="6" width="15" height="15" fill="#005a9c"><title>0 emails, 518 repository events, 0 wiki edits in Aug 2018</title></rect><rect x="210" y="6" width="15" height="15" fill="#005a9c"><title>2 emails, 314 repository events, 0 wiki edits in Sep 2018</title></rect><rect x="230" y="6" width="15" height="15" fill="#005a9c"><title>4 emails, 616 repository events, 0 wiki edits in Oct 2018</title></rect><rect x="250" y="6" width="15" height="15" fill="#005a9c"><title>5 emails, 478 repository events, 0 wiki edits in Nov 2018</title></rect><rect x="270" y="6" width="15" height="15" fill="#005a9c"><title>1 emails, 485 repository events, 0 wiki edits in Dec 2018</title></rect></g>
<g transform="translate(0 80)">
  <title>Activity in 2019</title>
  <text x="2" y="20">2019</text><rect x="50" y="6" width="15" height="15" fill="#005a9c"><title>0 emails, 587 repository events, 0 wiki edits in Jan 2019</title></rect><rect x="70" y="6" width="15" height="15" fill="#005a9c"><title>2 emails, 512 repository events, 0 wiki edits in Feb 2019</title></rect><rect x="90" y="6" width="15" height="15" fill="#005a9c"><title>1 emails, 750 repository events, 0 wiki edits in Mar 2019</title></rect><rect x="110" y="6" width="15" height="15" fill="#005a9c"><title>2 emails, 767 repository events, 0 wiki edits in Apr 2019</title></rect><rect x="130" y="6" width="15" height="15" fill="#005a9c"><title>1 emails, 828 repository events, 0 wiki edits in May 2019</title></rect><rect x="150" y="6" width="15" height="15" fill="#005a9c"><title>3 emails, 381 repository events, 0 wiki edits in Jun 2019</title></rect><rect x="170" y="6" width="15" height="15" fill="#005a9c"><title>4 emails, 525 repository events, 0 wiki edits in Jul 2019</title></rect><rect x="190" y="6" width="15" height="15" fill="#005a9c"><title>2 emails, 346 repository events, 0 wiki edits in Aug 2019</title></rect><rect x="210" y="6" width="15" height="15" fill="#005a9c"><title>4 emails, 469 repository events, 0 wiki edits in Sep 2019</title></rect><rect x="230" y="6" width="15" height="15" fill="#005a9c"><title>4 emails, 547 repository events, 0 wiki edits in Oct 2019</title></rect><rect x="250" y="6" width="15" height="15" fill="#005a9c"><title>6 emails, 621 repository events, 0 wiki edits in Nov 2019</title></rect><rect x="270" y="6" width="15" height="15" fill="#005a9c"><title>1 emails, 429 repository events, 0 wiki edits in Dec 2019</title></rect></g>
<g transform="translate(0 100)">
  <title>Activity in 2020</title>
  <text x="2" y="20">2020</text><rect x="50" y="6" width="15" height="15" fill="#005a9c"><title>1 emails, 491 repository events, 0 wiki edits in Jan 2020</title></rect><rect x="70" y="6" width="15" height="15" fill="#005a9c"><title>1 emails, 568 repository events, 0 wiki edits in Feb 2020</title></rect><rect x="90" y="6" width="15" height="15" fill="#005a9c"><title>1 emails, 720 repository events, 0 wiki edits in Mar 2020</title></rect><rect x="110" y="6" width="15" height="15" fill="#005a9c"><title>0 emails, 609 repository events, 0 wiki edits in Apr 2020</title></rect><rect x="130" y="6" width="15" height="15" fill="#005a9c"><title>1 emails, 700 repository events, 0 wiki edits in May 2020</title></rect><rect x="150" y="6" width="15" height="15" fill="#005a9c"><title>1 emails, 640 repository events, 0 wiki edits in Jun 2020</title></rect><rect x="170" y="6" width="15" height="15" fill="#005a9c"><title>0 emails, 471 repository events, 0 wiki edits in Jul 2020</title></rect><rect x="190" y="6" width="15" height="15" fill="#005a9c"><title>0 emails, 562 repository events, 0 wiki edits in Aug 2020</title></rect><rect x="210" y="6" width="15" height="15" fill="#005a9c"><title>0 emails, 559 repository events, 0 wiki edits in Sep 2020</title></rect><rect x="230" y="6" width="15" height="15" fill="#005a9c"><title>3 emails, 635 repository events, 0 wiki edits in Oct 2020</title></rect><rect x="250" y="6" width="15" height="15" fill="#005a9c"><title>1 emails, 462 repository events, 0 wiki edits in Nov 2020</title></rect><rect x="270" y="6" width="15" height="15" fill="#005a9c"><title>2 emails, 378 repository events, 0 wiki edits in Dec 2020</title></rect></g>
<g transform="translate(0 120)">
  <title>Activity in 2021</title>
  <text x="2" y="20">2021</text><rect x="50" y="6" width="15" height="15" fill="#005a9c"><title>1 emails, 554 repository events, 0 wiki edits in Jan 2021</title></rect><rect x="70" y="6" width="15" height="15" fill="#005a9c"><title>1 emails, 691 repository events, 0 wiki edits in Feb 2021</title></rect><rect x="90" y="6" width="15" height="15" fill="#005a9c"><title>0 emails, 817 repository events, 0 wiki edits in Mar 2021</title></rect><rect x="110" y="6" width="15" height="15" fill="#005a9c"><title>0 emails, 510 repository events, 0 wiki edits in Apr 2021</title></rect><rect x="130" y="6" width="15" height="15" fill="#005a9c"><title>1 emails, 408 repository events, 0 wiki edits in May 2021</title></rect><rect x="150" y="6" width="15" height="15" fill="#005a9c"><title>0 emails, 366 repository events, 0 wiki edits in Jun 2021</title></rect><rect x="170" y="6" width="15" height="15" fill="#005a9c"><title>0 emails, 424 repository events, 0 wiki edits in Jul 2021</title></rect><rect x="190" y="6" width="15" height="15" fill="#005a9c"><title>0 emails, 338 repository events, 0 wiki edits in Aug 2021</title></rect><rect x="210" y="6" width="15" height="15" fill="#005a9c"><title>0 emails, 422 repository events, 0 wiki edits in Sep 2021</title></rect><rect x="230" y="6" width="15" height="15" fill="#005a9c"><title>0 emails, 620 repository events, 0 wiki edits in Oct 2021</title></rect><rect x="250" y="6" width="15" height="15" fill="#005a9c"><title>0 emails, 428 repository events, 0 wiki edits in Nov 2021</title></rect><rect x="270" y="6" width="15" height="15" fill="#005a9c"><title>0 emails, 307 repository events, 0 wiki edits in Dec 2021</title></rect></g>
<g transform="translate(0 140)">
  <title>Activity in 2022</title>
  <text x="2" y="20">2022</text><rect x="50" y="6" width="15" height="15" fill="#005a9c"><title>0 emails, 295 repository events, 0 wiki edits in Jan 2022</title></rect><rect x="70" y="6" width="15" height="15" fill="#005a9c"><title>0 emails, 444 repository events, 0 wiki edits in Feb 2022</title></rect><rect x="90" y="6" width="15" height="15" fill="#005a9c"><title>0 emails, 471 repository events, 0 wiki edits in Mar 2022</title></rect><rect x="110" y="6" width="15" height="15" fill="#005a9c"><title>7 emails, 424 repository events, 0 wiki edits in Apr 2022</title></rect><rect x="130" y="6" width="15" height="15" fill="#005a9c"><title>0 emails, 553 repository events, 0 wiki edits in May 2022</title></rect><rect x="150" y="6" width="15" height="15" fill="#005a9c"><title>0 emails, 433 repository events, 0 wiki edits in Jun 2022</title></rect><rect x="170" y="6" width="15" height="15" fill="#005a9c"><title>4 emails, 576 repository events, 0 wiki edits in Jul 2022</title></rect><rect x="190" y="6" width="15" height="15" fill="#005a9c"><title>0 emails, 711 repository events, 0 wiki edits in Aug 2022</title></rect><rect x="210" y="6" width="15" height="15" fill="#005a9c"><title>5 emails, 677 repository events, 0 wiki edits in Sep 2022</title></rect><rect x="230" y="6" width="15" height="15" fill="#005a9c"><title>0 emails, 620 repository events, 0 wiki edits in Oct 2022</title></rect><rect x="250" y="6" width="15" height="15" fill="#005a9c"><title>1 emails, 579 repository events, 0 wiki edits in Nov 2022</title></rect><rect x="270" y="6" width="15" height="15" fill="#005a9c"><title>0 emails, 532 repository events, 0 wiki edits in Dec 2022</title></rect></g>
<g transform="translate(0 160)">
  <title>Activity in 2023</title>
  <text x="2" y="20">2023</text><rect x="50" y="6" width="15" height="15" fill="#005a9c"><title>0 emails, 581 repository events, 0 wiki edits in Jan 2023</title></rect><rect x="70" y="6" width="15" height="15" fill="#005a9c"><title>0 emails, 895 repository events, 0 wiki edits in Feb 2023</title></rect><rect x="90" y="6" width="15" height="15" fill="#005a9c"><title>2 emails, 716 repository events, 0 wiki edits in Mar 2023</title></rect><rect x="110" y="6" width="15" height="15" fill="#005a9c"><title>3 emails, 508 repository events, 0 wiki edits in Apr 2023</title></rect><rect x="130" y="6" width="15" height="15" fill="#005a9c"><title>0 emails, 581 repository events, 0 wiki edits in May 2023</title></rect><rect x="150" y="6" width="15" height="15" fill="#005a9c"><title>0 emails, 508 repository events, 0 wiki edits in Jun 2023</title></rect><rect x="170" y="6" width="15" height="15" fill="#005a9c"><title>0 emails, 529 repository events, 0 wiki edits in Jul 2023</title></rect><rect x="190" y="6" width="15" height="15" fill="#005a9c"><title>1 emails, 456 repository events, 0 wiki edits in Aug 2023</title></rect><rect x="210" y="6" width="15" height="15" fill="#005a9c"><title>1 emails, 808 repository events, 0 wiki edits in Sep 2023</title></rect><rect x="230" y="6" width="15" height="15" fill="#005a9c"><title>1 emails, 715 repository events, 0 wiki edits in Oct 2023</title></rect><rect x="250" y="6" width="15" height="15" fill="#005a9c"><title>3 emails, 706 repository events, 0 wiki edits in Nov 2023</title></rect><rect x="270" y="6" width="15" height="15" fill="#005a9c"><title>2 emails, 371 repository events, 0 wiki edits in Dec 2023</title></rect></g>
<g transform="translate(0 180)">
  <title>Activity in 2024</title>
  <text x="2" y="20">2024</text><rect x="50" y="6" width="15" height="15" fill="#005a9c"><title>3 emails, 532 repository events, 0 wiki edits in Jan 2024</title></rect><rect x="70" y="6" width="15" height="15" fill="#005a9c"><title>0 emails, 657 repository events, 0 wiki edits in Feb 2024</title></rect><rect x="90" y="6" width="15" height="15" fill="#005a9c"><title>4 emails, 488 repository events, 0 wiki edits in Mar 2024</title></rect><rect x="110" y="6" width="15" height="15" fill="#005a9c"><title>5 emails, 620 repository events, 0 wiki edits in Apr 2024</title></rect><rect x="130" y="6" width="15" height="15" fill="#005a9c"><title>2 emails, 414 repository events, 0 wiki edits in May 2024</title></rect></g><text style="font-size: 10px; text-align: center" x="53" y="210">J</text><text style="font-size: 10px; text-align: center" x="73" y="210">F</text><text style="font-size: 10px; text-align: center" x="93" y="210">M</text><text style="font-size: 10px; text-align: center" x="113" y="210">A</text><text style="font-size: 10px; text-align: center" x="133" y="210">M</text><text style="font-size: 10px; text-align: center" x="153" y="210">J</text><text style="font-size: 10px; text-align: center" x="173" y="210">J</text><text style="font-size: 10px; text-align: center" x="193" y="210">A</text><text style="font-size: 10px; text-align: center" x="213" y="210">S</text><text style="font-size: 10px; text-align: center" x="233" y="210">O</text><text style="font-size: 10px; text-align: center" x="253" y="210">N</text><text style="font-size: 10px; text-align: center" x="273" y="210">D</text><text style="font-size: 10px;" x="155" y="229">Less</text><rect fill="#b9bdc6" width="10" height="10" x="180" y="220"><title>No activity in the period</title></rect><rect fill="#919fba" width="10" height="10" x="195" y="220"><title>Low activity in the period</title></rect><rect fill="#6882ae" width="10" height="10" x="210" y="220"><title>Medium activity in the period</title></rect><rect fill="#005a9c" width="10" height="10" x="225" y="220"><title>High activity in period</title></rect><text x="240" y="229" style="font-size: 10px;">More</text></svg>