<svg xmlns="http://www.w3.org/2000/svg" width="360" height="240">
  <title>Activity of WebAssembly%20Community%20Group</title>

<g transform="translate(0 0)">
  <title>Activity in 2015</title>
  <text x="2" y="20">2015</text><rect x="110" y="6" width="15" height="15" fill="#a5aec0"><title>0 emails, 36 repository events, 0 wiki edits in Apr 2015</title></rect><rect x="130" y="6" width="15" height="15" fill="#005a9c"><title>0 emails, 278 repository events, 0 wiki edits in May 2015</title></rect><rect x="150" y="6" width="15" height="15" fill="#005a9c"><title>1 emails, 476 repository events, 0 wiki edits in Jun 2015</title></rect><rect x="170" y="6" width="15" height="15" fill="#5174a8"><title>0 emails, 148 repository events, 0 wiki edits in Jul 2015</title></rect><rect x="190" y="6" width="15" height="15" fill="#005a9c"><title>0 emails, 2084 repository events, 0 wiki edits in Aug 2015</title></rect><rect x="210" y="6" width="15" height="15" fill="#005a9c"><title>2 emails, 1998 repository events, 0 wiki edits in Sep 2015</title></rect><rect x="230" y="6" width="15" height="15" fill="#005a9c"><title>0 emails, 2530 repository events, 0 wiki edits in Oct 2015</title></rect><rect x="250" y="6" width="15" height="15" fill="#005a9c"><title>7 emails, 1234 repository events, 0 wiki edits in Nov 2015</title></rect><rect x="270" y="6" width="15" height="15" fill="#005a9c"><title>8 emails, 517 repository events, 0 wiki edits in Dec 2015</title></rect></g>
<g transform="translate(0 20)">
  <title>Activity in 2016</title>
  <text x="2" y="20">2016</text><rect x="50" y="6" width="15" height="15" fill="#005a9c"><title>13 emails, 891 repository events, 0 wiki edits in Jan 2016</title></rect><rect x="70" y="6" width="15" height="15" fill="#005a9c"><title>0 emails, 1628 repository events, 0 wiki edits in Feb 2016</title></rect><rect x="90" y="6" width="15" height="15" fill="#005a9c"><title>1 emails, 1054 repository events, 0 wiki edits in Mar 2016</title></rect><rect x="110" y="6" width="15" height="15" fill="#005a9c"><title>3 emails, 724 repository events, 0 wiki edits in Apr 2016</title></rect><rect x="130" y="6" width="15" height="15" fill="#005a9c"><title>2 emails, 865 repository events, 0 wiki edits in May 2016</title></rect><rect x="150" y="6" width="15" height="15" fill="#005a9c"><title>1 emails, 768 repository events, 0 wiki edits in Jun 2016</title></rect><rect x="170" y="6" width="15" height="15" fill="#005a9c"><title>0 emails, 899 repository events, 0 wiki edits in Jul 2016</title></rect><rect x="190" y="6" width="15" height="15" fill="#005a9c"><title>10 emails, 1050 repository events, 0 wiki edits in Aug 2016</title></rect><rect x="210" y="6" width="15" height="15" fill="#005a9c"><title>7 emails, 1681 repository events, 0 wiki edits in Sep 2016</title></rect><rect x="230" y="6" width="15" height="15" fill="#005a9c"><title>0 emails, 1557 repository events, 0 wiki edits in Oct 2016</title></rect><rect x="250" y="6" width="15" height="15" fill="#005a9c"><title>0 emails, 851 repository events, 0 wiki edits in Nov 2016</title></rect><rect x="270" y="6" width="15" height="15" fill="#005a9c"><title>0 emails, 665 repository events, 0 wiki edits in Dec 2016</title></rect></g>
<g transform="translate(0 40)">
  <title>Activity in 2017</title>
  <text x="2" y="20">2017</text><rect x="50" y="6" width="15" height="15" fill="#005a9c"><title>0 emails, 764 repository events, 0 wiki edits in Jan 2017</title></rect><rect x="70" y="6" width="15" height="15" fill="#005a9c"><title>4 emails, 742 repository events, 0 wiki edits in Feb 2017</title></rect><rect x="90" y="6" width="15" height="15" fill="#005a9c"><title>10 emails, 721 repository events, 0 wiki edits in Mar 2017</title></rect><rect x="110" y="6" width="15" height="15" fill="#005a9c"><title>3 emails, 784 repository events, 0 wiki edits in Apr 2017</title></rect><rect x="130" y="6" width="15" height="15" fill="#005a9c"><title>6 emails, 889 repository events, 0 wiki edits in May 2017</title></rect><rect x="150" y="6" width="15" height="15" fill="#005a9c"><title>14 emails, 1168 repository events, 0 wiki edits in Jun 2017</title></rect><rect x="170" y="6" width="15" height="15" fill="#005a9c"><title>5 emails, 866 repository events, 0 wiki edits in Jul 2017</title></rect><rect x="190" y="6" width="15" height="15" fill="#005a9c"><title>8 emails, 674 repository events, 0 wiki edits in Aug 2017</title></rect><rect x="210" y="6" width="15" height="15" fill="#005a9c"><title>9 emails, 538 repository events, 0 wiki edits in Sep 2017</title></rect><rect x="230" y="6" width="15" height="15" fill="#005a9c"><title>9 emails, 815 repository events, 0 wiki edits in Oct 2017</title></rect><rect x="250" y="6" width="15" height="15" fill="#005a9c"><title>1 emails, 688 repository events, 0 wiki edits in Nov 2017</title></rect><rect x="270" y="6" width="15" height="15" fill="#005a9c"><title>2 emails, 443 repository events, 0 wiki edits in Dec 2017</title></rect></g>
<g transform="translate(0 60)">
  <title>Activity in 2018</title>
  <text x="2" y="20">2018</text><rect x="50" y="6" width="15" height="15" fill="#005a9c"><title>5 emails, 942 repository events, 0 wiki edits in Jan 2018</title></rect><rect x="70" y="6" width="15" height="15" fill="#005a9c"><title>6 emails, 1319 repository events, 0 wiki edits in Feb 2018</title></rect><rect x="90" y="6" width="15" height="15" fill="#005a9c"><title>6 emails, 780 repository events, 0 wiki edits in Mar 2018</title></rect><rect x="110" y="6" width="15" height="15" fill="#005a9c"><title>2 emails, 757 repository events, 0 wiki edits in Apr 2018</title></rect><rect x="130" y="6" width="15" height="15" fill="#005a9c"><title>6 emails, 772 repository events, 0 wiki edits in May 2018</title></rect><rect x="150" y="6" width="15" height="15" fill="#005a9c"><title>5 emails, 661 repository events, 0 wiki edits in Jun 2018</title></rect><rect x="170" y="6" width="15" height="15" fill="#005a9c"><title>3 emails, 616 repository events, 0 wiki edits in Jul 2018</title></rect><rect x="190" y="6" width="15" height="15" fill="#005a9c"><title>0 emails, 691 repository events, 0 wiki edits in Aug 2018</title></rect><rect x="210" y="6" width="15" height="15" fill="#005a9c"><title>2 emails, 444 repository events, 0 wiki edits in Sep 2018</title></rect><rect x="230" y="6" width="15" height="15" fill="#005a9c"><title>4 emails, 834 repository events, 0 wiki edits in Oct 2018</title></rect><rect x="250" y="6" width="15" height="15" fill="#005a9c"><title>5 emails, 714 repository events, 0 wiki edits in Nov 2018</title></rect><rect x="270" y="6" width="15" height="15" fill="#005a9c"><title>1 emails, 676 repository events, 0 wiki edits in Dec 2018</title></rect></g>
<g transform="translate(0 80)">
  <title>Activity in 2019</title>
  <text x="2" y="20">2019</text><rect x="50" y="6" width="15" height="15" fill="#005a9c"><title>0 emails, 772 repository events, 0 wiki edits in Jan 2019</title></rect><rect x="70" y="6" width="15" height="15" fill="#005a9c"><title>2 emails, 696 repository events, 0 wiki edits in Feb 2019</title></rect><rect x="90" y="6" width="15" height="15" fill="#005a9c"><title>1 emails, 1007 repository events, 0 wiki edits in Mar 2019</title></rect><rect x="110" y="6" width="15" height="15" fill="#005a9c"><title>2 emails, 1134 repository events, 0 wiki edits in Apr 2019</title></rect><rect x="130" y="6" width="15" height="15" fill="#005a9c"><title>1 emails, 1149 repository events, 0 wiki edits in May 2019</title></rect><rect x="150" y="6" width="15" height="15" fill="#005a9c"><title>3 emails, 564 repository events, 0 wiki edits in Jun 2019</title></rect><rect x="170" y="6" width="15" height="15" fill="#005a9c"><title>4 emails, 833 repository events, 0 wiki edits in Jul 2019</title></rect><rect x="190" y="6" width="15" height="15" fill="#005a9c"><title>2 emails, 523 repository events, 0 wiki edits in Aug 2019</title></rect><rect x="210" y="6" width="15" height="15" fill="#005a9c"><title>4 emails, 705 repository events, 0 wiki edits in Sep 2019</title></rect><rect x="230" y="6" width="15" height="15" fill="#005a9c"><title>4 emails, 787 repository events, 0 wiki edits in Oct 2019</title></rect><rect x="250" y="6" width="15" height="15" fill="#005a9c"><title>6 emails, 987 repository events, 0 wiki edits in Nov 2019</title></rect><rect x="270" y="6" width="15" height="15" fill="#005a9c"><title>1 emails, 690 repository events, 0 wiki edits in Dec 2019</title></rect></g>
<g transform="translate(0 100)">
  <title>Activity in 2020</title>
  <text x="2" y="20">2020</text><rect x="50" y="6" width="15" height="15" fill="#005a9c"><title>1 emails, 815 repository events, 0 wiki edits in Jan 2020</title></rect><rect x="70" y="6" width="15" height="15" fill="#005a9c"><title>1 emails, 844 repository events, 0 wiki edits in Feb 2020</title></rect><rect x="90" y="6" width="15" height="15" fill="#005a9c"><title>1 emails, 1002 repository events, 0 wiki edits in Mar 2020</title></rect><rect x="110" y="6" width="15" height="15" fill="#005a9c"><title>0 emails, 984 repository events, 0 wiki edits in Apr 2020</title></rect><rect x="130" y="6" width="15" height="15" fill="#005a9c"><title>1 emails, 1031 repository events, 0 wiki edits in May 2020</title></rect><rect x="150" y="6" width="15" height="15" fill="#005a9c"><title>1 emails, 920 repository events, 0 wiki edits in Jun 2020</title></rect><rect x="170" y="6" width="15" height="15" fill="#005a9c"><title>0 emails, 753 repository events, 0 wiki edits in Jul 2020</title></rect><rect x="190" y="6" width="15" height="15" fill="#005a9c"><title>0 emails, 842 repository events, 0 wiki edits in Aug 2020</title></rect><rect x="210" y="6" width="15" height="15" fill="#005a9c"><title>0 emails, 915 repository events, 0 wiki edits in Sep 2020</title></rect><rect x="230" y="6" width="15" height="15" fill="#005a9c"><title>3 emails, 1046 repository events, 0 wiki edits in Oct 2020</title></rect><rect x="250" y="6" width="15" height="15" fill="#005a9c"><title>1 emails, 781 repository events, 0 wiki edits in Nov 2020</title></rect><rect x="270" y="6" width="15" height="15" fill="#005a9c"><title>2 emails, 597 repository events, 0 wiki edits in Dec 2020</title></rect></g>
<g transform="translate(0 120)">
  <title>Activity in 2021</title>
  <text x="2" y="20">2021</text><rect x="50" y="6" width="15" height="15" fill="#005a9c"><title>1 emails, 812 repository events, 0 wiki edits in Jan 2021</title></rect><rect x="70" y="6" width="15" height="15" fill="#005a9c"><title>1 emails, 1008 repository events, 0 wiki edits in Feb 2021</title></rect><rect x="90" y="6" width="15" height="15" fill="#005a9c"><title>0 emails, 1306 repository events, 0 wiki edits in Mar 2021</title></rect><rect x="110" y="6" width="15" height="15" fill="#005a9c"><title>0 emails, 797 repository events, 0 wiki edits in Apr 2021</title></rect><rect x="130" y="6" width="15" height="15" fill="#005a9c"><title>1 emails, 620 repository events, 0 wiki edits in May 2021</title></rect><rect x="150" y="6" width="15" height="15" fill="#005a9c"><title>0 emails, 552 repository events, 0 wiki edits in Jun 2021</title></rect><rect x="170" y="6" width="15" height="15" fill="#005a9c"><title>0 emails, 701 repository events, 0 wiki edits in Jul 2021</title></rect><rect x="190" y="6" width="15" height="15" fill="#005a9c"><title>0 emails, 573 repository events, 0 wiki edits in Aug 2021</title></rect><rect x="210" y="6" width="15" height="15" fill="#005a9c"><title>0 emails, 666 repository events, 0 wiki edits in Sep 2021</title></rect><rect x="230" y="6" width="15" height="15" fill="#005a9c"><title>0 emails, 981 repository events, 0 wiki edits in Oct 2021</title></rect><rect x="250" y="6" width="15" height="15" fill="#005a9c"><title>0 emails, 697 repository events, 0 wiki edits in Nov 2021</title></rect><rect x="270" y="6" width="15" height="15" fill="#005a9c"><title>0 emails, 529 repository events, 0 wiki edits in Dec 2021</title></rect></g>
<g transform="translate(0 140)">
  <title>Activity in 2022</title>
  <text x="2" y="20">2022</text><rect x="50" y="6" width="15" height="15" fill="#005a9c"><title>0 emails, 511 repository events, 0 wiki edits in Jan 2022</title></rect><rect x="70" y="6" width="15" height="15" fill="#005a9c"><title>0 emails, 643 repository events, 0 wiki edits in Feb 2022</title></rect><rect x="90" y="6" width="15" height="15" fill="#005a9c"><title>0 emails, 709 repository events, 0 wiki edits in Mar 2022</title></rect><rect x="110" y="6" width="15" height="15" fill="#005a9c"><title>7 emails, 705 repository events, 0 wiki edits in Apr 2022</title></rect><rect x="130" y="6" width="15" height="15" fill="#005a9c"><title>0 emails, 868 repository events, 0 wiki edits in May 2022</title></rect><rect x="150" y="6" width="15" height="15" fill="#005a9c"><title>0 emails, 704 repository events, 0 wiki edits in Jun 2022</title></rect><rect x="170" y="6" width="15" height="15" fill="#005a9c"><title>4 emails, 902 repository events, 0 wiki edits in Jul 2022</title></rect><rect x="190" y="6" width="15" height="15" fill="#005a9c"><title>0 emails, 1142 repository events, 0 wiki edits in Aug 2022</title></rect><rect x="210" y="6" width="15" height="15" fill="#005a9c"><title>5 emails, 1042 repository events, 0 wiki edits in Sep 2022</title></rect><rect x="230" y="6" width="15" height="15" fill="#005a9c"><title>0 emails, 1006 repository events, 0 wiki edits in Oct 2022</title></rect><rect x="250" y="6" width="15" height="15" fill="#005a9c"><title>1 emails, 1005 repository events, 0 wiki edits in Nov 2022</title></rect><rect x="270" y="6" width="15" height="15" fill="#005a9c"><title>0 emails, 868 repository events, 0 wiki edits in Dec 2022</title></rect></g>
<g transform="translate(0 160)">
  <title>Activity in 2023</title>
  <text x="2" y="20">2023</text><rect x="50" y="6" width="15" height="15" fill="#005a9c"><title>0 emails, 994 repository events, 0 wiki edits in Jan 2023</title></rect><rect x="70" y="6" width="15" height="15" fill="#005a9c"><title>0 emails, 1382 repository events, 0 wiki edits in Feb 2023</title></rect><rect x="90" y="6" width="15" height="15" fill="#005a9c"><title>2 emails, 1168 repository events, 0 wiki edits in Mar 2023</title></rect><rect x="110" y="6" width="15" height="15" fill="#005a9c"><title>3 emails, 865 repository events, 0 wiki edits in Apr 2023</title></rect><rect x="130" y="6" width="15" height="15" fill="#005a9c"><title>0 emails, 892 repository events, 0 wiki edits in May 2023</title></rect><rect x="150" y="6" width="15" height="15" fill="#005a9c"><title>0 emails, 788 repository events, 0 wiki edits in Jun 2023</title></rect><rect x="170" y="6" width="15" height="15" fill="#005a9c"><title>0 emails, 792 repository events, 0 wiki edits in Jul 2023</title></rect><rect x="190" y="6" width="15" height="15" fill="#005a9c"><title>1 emails, 789 repository events, 0 wiki edits in Aug 2023</title></rect><rect x="210" y="6" width="15" height="15" fill="#005a9c"><title>1 emails, 1237 repository events, 0 wiki edits in Sep 2023</title></rect><rect x="230" y="6" width="15" height="15" fill="#005a9c"><title>1 emails, 1074 repository events, 0 wiki edits in Oct 2023</title></rect><rect x="250" y="6" width="15" height="15" fill="#005a9c"><title>3 emails, 1138 repository events, 0 wiki edits in Nov 2023</title></rect><rect x="270" y="6" width="15" height="15" fill="#005a9c"><title>2 emails, 616 repository events, 0 wiki edits in Dec 2023</title></rect></g>
<g transform="translate(0 180)">
  <title>Activity in 2024</title>
  <text x="2" y="20">2024</text><rect x="50" y="6" width="15" height="15" fill="#005a9c"><title>3 emails, 884 repository events, 0 wiki edits in Jan 2024</title></rect><rect x="70" y="6" width="15" height="15" fill="#005a9c"><title>0 emails, 1084 repository events, 0 wiki edits in Feb 2024</title></rect><rect x="90" y="6" width="15" height="15" fill="#005a9c"><title>4 emails, 830 repository events, 0 wiki edits in Mar 2024</title></rect><rect x="110" y="6" width="15" height="15" fill="#005a9c"><title>5 emails, 1078 repository events, 0 wiki edits in Apr 2024</title></rect><rect x="130" y="6" width="15" height="15" fill="#005a9c"><title>2 emails, 870 repository events, 0 wiki edits in May 2024</title></rect><rect x="150" y="6" width="15" height="15" fill="#005a9c"><title>2 emails, 736 repository events, 0 wiki edits in Jun 2024</title></rect><rect x="170" y="6" width="15" height="15" fill="#005a9c"><title>1 emails, 962 repository events, 0 wiki edits in Jul 2024</title></rect><rect x="190" y="6" width="15" height="15" fill="#005a9c"><title>1 emails, 1001 repository events, 0 wiki edits in Aug 2024</title></rect><rect x="210" y="6" width="15" height="15" fill="#005a9c"><title>5 emails, 852 repository events, 0 wiki edits in Sep 2024</title></rect><rect x="230" y="6" width="15" height="15" fill="#005a9c"><title>1 emails, 872 repository events, 0 wiki edits in Oct 2024</title></rect><rect x="250" y="6" width="15" height="15" fill="#005a9c"><title>4 emails, 786 repository events, 0 wiki edits in Nov 2024</title></rect><rect x="270" y="6" width="15" height="15" fill="#005a9c"><title>4 emails, 570 repository events, 0 wiki edits in Dec 2024</title></rect></g>
<g transform="translate(0 200)">
  <title>Activity in 2025</title>
  <text x="2" y="20">2025</text><rect x="50" y="6" width="15" height="15" fill="#b9bdc6"><title>0 emails, 24 repository events, 0 wiki edits in Jan 2025</title></rect></g><text style="font-size: 10px; text-align: center" x="53" y="230">J</text><text style="font-size: 10px; text-align: center" x="73" y="230">F</text><text style="font-size: 10px; text-align: center" x="93" y="230">M</text><text style="font-size: 10px; text-align: center" x="113" y="230">A</text><text style="font-size: 10px; text-align: center" x="133" y="230">M</text><text style="font-size: 10px; text-align: center" x="153" y="230">J</text><text style="font-size: 10px; text-align: center" x="173" y="230">J</text><text style="font-size: 10px; text-align: center" x="193" y="230">A</text><text style="font-size: 10px; text-align: center" x="213" y="230">S</text><text style="font-size: 10px; text-align: center" x="233" y="230">O</text><text style="font-size: 10px; text-align: center" x="253" y="230">N</text><text style="font-size: 10px; text-align: center" x="273" y="230">D</text><text style="font-size: 10px;" x="155" y="249">Less</text><rect fill="#b9bdc6" width="10" height="10" x="180" y="240"><title>No activity in the period</title></rect><rect fill="#919fba" width="10" height="10" x="195" y="240"><title>Low activity in the period</title></rect><rect fill="#6882ae" width="10" height="10" x="210" y="240"><title>Medium activity in the period</title></rect><rect fill="#005a9c" width="10" height="10" x="225" y="240"><title>High activity in period</title></rect><text x="240" y="249" style="font-size: 10px;">More</text></svg>