<svg xmlns="http://www.w3.org/2000/svg">
  <title>Activity of WebAssembly%20Community%20Group</title>
  <style type="text/css">.none { fill: #aaa;}
  .low { fill: #8ac;}
  .medium { fill: #49a;}
  .high { fill: #159;}
  </style>

<g transform="translate(0 0)">
  <title>Activity in 2015</title>
  <text x="2" y="20">2015</text><rect x="110" y="6" width="15" height="15" class="none"><title>0 emails, 0 repo event, 0 wiki edits in Apr 2015</title></rect><rect x="130" y="6" width="15" height="15" class="none"><title>0 emails, 0 repo event, 0 wiki edits in May 2015</title></rect><rect x="150" y="6" width="15" height="15" class="low"><title>1 emails, 0 repo event, 0 wiki edits in Jun 2015</title></rect><rect x="170" y="6" width="15" height="15" class="none"><title>0 emails, 0 repo event, 0 wiki edits in Jul 2015</title></rect><rect x="190" y="6" width="15" height="15" class="high"><title>0 emails, 802 repo event, 0 wiki edits in Aug 2015</title></rect><rect x="210" y="6" width="15" height="15" class="high"><title>2 emails, 774 repo event, 0 wiki edits in Sep 2015</title></rect><rect x="230" y="6" width="15" height="15" class="high"><title>0 emails, 965 repo event, 0 wiki edits in Oct 2015</title></rect><rect x="250" y="6" width="15" height="15" class="high"><title>7 emails, 473 repo event, 0 wiki edits in Nov 2015</title></rect><rect x="270" y="6" width="15" height="15" class="high"><title>8 emails, 103 repo event, 0 wiki edits in Dec 2015</title></rect></g>
<g transform="translate(0 20)">
  <title>Activity in 2016</title>
  <text x="2" y="20">2016</text><rect x="50" y="6" width="15" height="15" class="high"><title>13 emails, 178 repo event, 0 wiki edits in Jan 2016</title></rect><rect x="70" y="6" width="15" height="15" class="high"><title>0 emails, 530 repo event, 0 wiki edits in Feb 2016</title></rect><rect x="90" y="6" width="15" height="15" class="high"><title>1 emails, 171 repo event, 0 wiki edits in Mar 2016</title></rect><rect x="110" y="6" width="15" height="15" class="high"><title>3 emails, 77 repo event, 0 wiki edits in Apr 2016</title></rect><rect x="130" y="6" width="15" height="15" class="high"><title>2 emails, 109 repo event, 0 wiki edits in May 2016</title></rect><rect x="150" y="6" width="15" height="15" class="high"><title>1 emails, 132 repo event, 0 wiki edits in Jun 2016</title></rect><rect x="170" y="6" width="15" height="15" class="high"><title>0 emails, 215 repo event, 0 wiki edits in Jul 2016</title></rect><rect x="190" y="6" width="15" height="15" class="high"><title>10 emails, 236 repo event, 0 wiki edits in Aug 2016</title></rect><rect x="210" y="6" width="15" height="15" class="high"><title>7 emails, 462 repo event, 0 wiki edits in Sep 2016</title></rect><rect x="230" y="6" width="15" height="15" class="high"><title>0 emails, 278 repo event, 0 wiki edits in Oct 2016</title></rect><rect x="250" y="6" width="15" height="15" class="high"><title>0 emails, 170 repo event, 0 wiki edits in Nov 2016</title></rect><rect x="270" y="6" width="15" height="15" class="high"><title>0 emails, 96 repo event, 0 wiki edits in Dec 2016</title></rect></g>
<g transform="translate(0 40)">
  <title>Activity in 2017</title>
  <text x="2" y="20">2017</text><rect x="50" y="6" width="15" height="15" class="high"><title>0 emails, 114 repo event, 0 wiki edits in Jan 2017</title></rect><rect x="90" y="6" width="15" height="15" class="high"><title>10 emails, 114 repo event, 0 wiki edits in Mar 2017</title></rect><rect x="110" y="6" width="15" height="15" class="high"><title>3 emails, 166 repo event, 0 wiki edits in Apr 2017</title></rect><rect x="130" y="6" width="15" height="15" class="high"><title>6 emails, 173 repo event, 0 wiki edits in May 2017</title></rect><rect x="150" y="6" width="15" height="15" class="high"><title>14 emails, 284 repo event, 0 wiki edits in Jun 2017</title></rect><rect x="170" y="6" width="15" height="15" class="high"><title>5 emails, 166 repo event, 0 wiki edits in Jul 2017</title></rect><rect x="190" y="6" width="15" height="15" class="high"><title>8 emails, 179 repo event, 0 wiki edits in Aug 2017</title></rect><rect x="210" y="6" width="15" height="15" class="high"><title>9 emails, 80 repo event, 0 wiki edits in Sep 2017</title></rect><rect x="230" y="6" width="15" height="15" class="high"><title>9 emails, 171 repo event, 0 wiki edits in Oct 2017</title></rect><rect x="250" y="6" width="15" height="15" class="high"><title>0 emails, 115 repo event, 0 wiki edits in Nov 2017</title></rect><rect x="270" y="6" width="15" height="15" class="high"><title>2 emails, 84 repo event, 0 wiki edits in Dec 2017</title></rect></g>
<g transform="translate(0 60)">
  <title>Activity in 2018</title>
  <text x="2" y="20">2018</text><rect x="50" y="6" width="15" height="15" class="high"><title>5 emails, 221 repo event, 0 wiki edits in Jan 2018</title></rect><rect x="70" y="6" width="15" height="15" class="high"><title>6 emails, 456 repo event, 0 wiki edits in Feb 2018</title></rect><rect x="90" y="6" width="15" height="15" class="high"><title>6 emails, 177 repo event, 0 wiki edits in Mar 2018</title></rect><rect x="110" y="6" width="15" height="15" class="high"><title>2 emails, 208 repo event, 0 wiki edits in Apr 2018</title></rect><rect x="130" y="6" width="15" height="15" class="high"><title>6 emails, 183 repo event, 0 wiki edits in May 2018</title></rect><rect x="150" y="6" width="15" height="15" class="high"><title>5 emails, 143 repo event, 0 wiki edits in Jun 2018</title></rect><rect x="170" y="6" width="15" height="15" class="high"><title>3 emails, 156 repo event, 0 wiki edits in Jul 2018</title></rect><rect x="190" y="6" width="15" height="15" class="high"><title>0 emails, 197 repo event, 0 wiki edits in Aug 2018</title></rect><rect x="210" y="6" width="15" height="15" class="high"><title>2 emails, 116 repo event, 0 wiki edits in Sep 2018</title></rect><rect x="230" y="6" width="15" height="15" class="high"><title>4 emails, 210 repo event, 0 wiki edits in Oct 2018</title></rect><rect x="250" y="6" width="15" height="15" class="high"><title>5 emails, 136 repo event, 0 wiki edits in Nov 2018</title></rect><rect x="270" y="6" width="15" height="15" class="high"><title>0 emails, 141 repo event, 0 wiki edits in Dec 2018</title></rect></g>
<g transform="translate(0 80)">
  <title>Activity in 2019</title>
  <text x="2" y="20">2019</text><rect x="50" y="6" width="15" height="15" class="high"><title>0 emails, 222 repo event, 0 wiki edits in Jan 2019</title></rect><rect x="70" y="6" width="15" height="15" class="high"><title>0 emails, 178 repo event, 0 wiki edits in Feb 2019</title></rect><rect x="90" y="6" width="15" height="15" class="high"><title>1 emails, 252 repo event, 0 wiki edits in Mar 2019</title></rect><rect x="110" y="6" width="15" height="15" class="high"><title>2 emails, 142 repo event, 0 wiki edits in Apr 2019</title></rect><rect x="130" y="6" width="15" height="15" class="high"><title>1 emails, 207 repo event, 0 wiki edits in May 2019</title></rect><rect x="150" y="6" width="15" height="15" class="high"><title>3 emails, 93 repo event, 0 wiki edits in Jun 2019</title></rect><rect x="170" y="6" width="15" height="15" class="high"><title>4 emails, 97 repo event, 0 wiki edits in Jul 2019</title></rect><rect x="190" y="6" width="15" height="15" class="high"><title>2 emails, 88 repo event, 0 wiki edits in Aug 2019</title></rect><rect x="210" y="6" width="15" height="15" class="high"><title>4 emails, 165 repo event, 0 wiki edits in Sep 2019</title></rect><rect x="230" y="6" width="15" height="15" class="high"><title>4 emails, 134 repo event, 0 wiki edits in Oct 2019</title></rect><rect x="250" y="6" width="15" height="15" class="high"><title>6 emails, 122 repo event, 0 wiki edits in Nov 2019</title></rect><rect x="270" y="6" width="15" height="15" class="high"><title>0 emails, 83 repo event, 0 wiki edits in Dec 2019</title></rect></g>
<g transform="translate(0 100)">
  <title>Activity in 2020</title>
  <text x="2" y="20">2020</text><rect x="50" y="6" width="15" height="15" class="high"><title>1 emails, 80 repo event, 0 wiki edits in Jan 2020</title></rect><rect x="70" y="6" width="15" height="15" class="high"><title>1 emails, 162 repo event, 0 wiki edits in Feb 2020</title></rect><rect x="90" y="6" width="15" height="15" class="high"><title>1 emails, 237 repo event, 0 wiki edits in Mar 2020</title></rect><rect x="110" y="6" width="15" height="15" class="high"><title>0 emails, 136 repo event, 0 wiki edits in Apr 2020</title></rect><rect x="130" y="6" width="15" height="15" class="high"><title>1 emails, 164 repo event, 0 wiki edits in May 2020</title></rect><rect x="150" y="6" width="15" height="15" class="high"><title>1 emails, 197 repo event, 0 wiki edits in Jun 2020</title></rect><rect x="170" y="6" width="15" height="15" class="high"><title>0 emails, 137 repo event, 0 wiki edits in Jul 2020</title></rect><rect x="190" y="6" width="15" height="15" class="high"><title>0 emails, 135 repo event, 0 wiki edits in Aug 2020</title></rect><rect x="210" y="6" width="15" height="15" class="high"><title>0 emails, 108 repo event, 0 wiki edits in Sep 2020</title></rect><rect x="230" y="6" width="15" height="15" class="high"><title>3 emails, 101 repo event, 0 wiki edits in Oct 2020</title></rect><rect x="250" y="6" width="15" height="15" class="low"><title>0 emails, 19 repo event, 0 wiki edits in Nov 2020</title></rect></g></svg>