<svg xmlns="http://www.w3.org/2000/svg" width="360" height="200">
  <title>Activity of Web%20Platform%20Incubator%20Community%20Group</title>

<g transform="translate(0 0)">
  <title>Activity in 2015</title>
  <text x="2" y="20">2015</text><rect x="170" y="6" width="15" height="15" fill="#005a9c"><title>256 emails, 97 repository events, 0 wiki edits in Jul 2015</title></rect><rect x="190" y="6" width="15" height="15" fill="#005a9c"><title>331 emails, 41 repository events, 0 wiki edits in Aug 2015</title></rect><rect x="210" y="6" width="15" height="15" fill="#5174a8"><title>73 emails, 59 repository events, 0 wiki edits in Sep 2015</title></rect><rect x="230" y="6" width="15" height="15" fill="#005a9c"><title>165 emails, 86 repository events, 0 wiki edits in Oct 2015</title></rect><rect x="250" y="6" width="15" height="15" fill="#3667a2"><title>110 emails, 61 repository events, 0 wiki edits in Nov 2015</title></rect><rect x="270" y="6" width="15" height="15" fill="#5174a8"><title>118 emails, 31 repository events, 0 wiki edits in Dec 2015</title></rect></g>
<g transform="translate(0 20)">
  <title>Activity in 2016</title>
  <text x="2" y="20">2016</text><rect x="50" y="6" width="15" height="15" fill="#6882ae"><title>90 emails, 21 repository events, 0 wiki edits in Jan 2016</title></rect><rect x="70" y="6" width="15" height="15" fill="#5174a8"><title>61 emails, 83 repository events, 0 wiki edits in Feb 2016</title></rect><rect x="90" y="6" width="15" height="15" fill="#005a9c"><title>113 emails, 69 repository events, 0 wiki edits in Mar 2016</title></rect><rect x="110" y="6" width="15" height="15" fill="#005a9c"><title>112 emails, 76 repository events, 0 wiki edits in Apr 2016</title></rect><rect x="130" y="6" width="15" height="15" fill="#005a9c"><title>131 emails, 59 repository events, 0 wiki edits in May 2016</title></rect><rect x="150" y="6" width="15" height="15" fill="#005a9c"><title>131 emails, 58 repository events, 0 wiki edits in Jun 2016</title></rect><rect x="170" y="6" width="15" height="15" fill="#005a9c"><title>133 emails, 65 repository events, 0 wiki edits in Jul 2016</title></rect><rect x="190" y="6" width="15" height="15" fill="#005a9c"><title>143 emails, 126 repository events, 0 wiki edits in Aug 2016</title></rect><rect x="210" y="6" width="15" height="15" fill="#005a9c"><title>156 emails, 127 repository events, 0 wiki edits in Sep 2016</title></rect><rect x="230" y="6" width="15" height="15" fill="#005a9c"><title>116 emails, 97 repository events, 0 wiki edits in Oct 2016</title></rect><rect x="250" y="6" width="15" height="15" fill="#005a9c"><title>226 emails, 44 repository events, 0 wiki edits in Nov 2016</title></rect><rect x="270" y="6" width="15" height="15" fill="#005a9c"><title>151 emails, 69 repository events, 0 wiki edits in Dec 2016</title></rect></g>
<g transform="translate(0 40)">
  <title>Activity in 2017</title>
  <text x="2" y="20">2017</text><rect x="50" y="6" width="15" height="15" fill="#005a9c"><title>176 emails, 66 repository events, 0 wiki edits in Jan 2017</title></rect><rect x="70" y="6" width="15" height="15" fill="#005a9c"><title>138 emails, 70 repository events, 0 wiki edits in Feb 2017</title></rect><rect x="90" y="6" width="15" height="15" fill="#005a9c"><title>135 emails, 135 repository events, 0 wiki edits in Mar 2017</title></rect><rect x="110" y="6" width="15" height="15" fill="#005a9c"><title>67 emails, 119 repository events, 0 wiki edits in Apr 2017</title></rect><rect x="130" y="6" width="15" height="15" fill="#005a9c"><title>63 emails, 121 repository events, 0 wiki edits in May 2017</title></rect><rect x="150" y="6" width="15" height="15" fill="#005a9c"><title>100 emails, 100 repository events, 0 wiki edits in Jun 2017</title></rect><rect x="170" y="6" width="15" height="15" fill="#3667a2"><title>75 emails, 84 repository events, 0 wiki edits in Jul 2017</title></rect><rect x="190" y="6" width="15" height="15" fill="#005a9c"><title>98 emails, 108 repository events, 0 wiki edits in Aug 2017</title></rect><rect x="210" y="6" width="15" height="15" fill="#005a9c"><title>71 emails, 118 repository events, 0 wiki edits in Sep 2017</title></rect><rect x="230" y="6" width="15" height="15" fill="#005a9c"><title>59 emails, 129 repository events, 0 wiki edits in Oct 2017</title></rect><rect x="250" y="6" width="15" height="15" fill="#005a9c"><title>85 emails, 115 repository events, 0 wiki edits in Nov 2017</title></rect><rect x="270" y="6" width="15" height="15" fill="#6882ae"><title>48 emails, 59 repository events, 0 wiki edits in Dec 2017</title></rect></g>
<g transform="translate(0 60)">
  <title>Activity in 2018</title>
  <text x="2" y="20">2018</text><rect x="50" y="6" width="15" height="15" fill="#3667a2"><title>84 emails, 82 repository events, 0 wiki edits in Jan 2018</title></rect><rect x="70" y="6" width="15" height="15" fill="#005a9c"><title>98 emails, 170 repository events, 0 wiki edits in Feb 2018</title></rect><rect x="90" y="6" width="15" height="15" fill="#005a9c"><title>79 emails, 144 repository events, 0 wiki edits in Mar 2018</title></rect><rect x="110" y="6" width="15" height="15" fill="#005a9c"><title>72 emails, 168 repository events, 0 wiki edits in Apr 2018</title></rect><rect x="130" y="6" width="15" height="15" fill="#005a9c"><title>186 emails, 227 repository events, 0 wiki edits in May 2018</title></rect><rect x="150" y="6" width="15" height="15" fill="#005a9c"><title>142 emails, 296 repository events, 0 wiki edits in Jun 2018</title></rect><rect x="170" y="6" width="15" height="15" fill="#005a9c"><title>42 emails, 333 repository events, 0 wiki edits in Jul 2018</title></rect><rect x="190" y="6" width="15" height="15" fill="#005a9c"><title>72 emails, 270 repository events, 0 wiki edits in Aug 2018</title></rect><rect x="210" y="6" width="15" height="15" fill="#005a9c"><title>102 emails, 251 repository events, 0 wiki edits in Sep 2018</title></rect><rect x="230" y="6" width="15" height="15" fill="#005a9c"><title>47 emails, 287 repository events, 0 wiki edits in Oct 2018</title></rect><rect x="250" y="6" width="15" height="15" fill="#005a9c"><title>107 emails, 240 repository events, 0 wiki edits in Nov 2018</title></rect><rect x="270" y="6" width="15" height="15" fill="#005a9c"><title>41 emails, 218 repository events, 0 wiki edits in Dec 2018</title></rect></g>
<g transform="translate(0 80)">
  <title>Activity in 2019</title>
  <text x="2" y="20">2019</text><rect x="50" y="6" width="15" height="15" fill="#005a9c"><title>31 emails, 202 repository events, 0 wiki edits in Jan 2019</title></rect><rect x="70" y="6" width="15" height="15" fill="#005a9c"><title>62 emails, 179 repository events, 0 wiki edits in Feb 2019</title></rect><rect x="90" y="6" width="15" height="15" fill="#005a9c"><title>88 emails, 183 repository events, 0 wiki edits in Mar 2019</title></rect><rect x="110" y="6" width="15" height="15" fill="#005a9c"><title>142 emails, 214 repository events, 0 wiki edits in Apr 2019</title></rect><rect x="130" y="6" width="15" height="15" fill="#005a9c"><title>70 emails, 212 repository events, 0 wiki edits in May 2019</title></rect><rect x="150" y="6" width="15" height="15" fill="#005a9c"><title>130 emails, 151 repository events, 0 wiki edits in Jun 2019</title></rect><rect x="170" y="6" width="15" height="15" fill="#005a9c"><title>115 emails, 249 repository events, 0 wiki edits in Jul 2019</title></rect><rect x="190" y="6" width="15" height="15" fill="#005a9c"><title>158 emails, 318 repository events, 0 wiki edits in Aug 2019</title></rect><rect x="210" y="6" width="15" height="15" fill="#005a9c"><title>127 emails, 239 repository events, 0 wiki edits in Sep 2019</title></rect><rect x="230" y="6" width="15" height="15" fill="#005a9c"><title>114 emails, 448 repository events, 0 wiki edits in Oct 2019</title></rect><rect x="250" y="6" width="15" height="15" fill="#005a9c"><title>75 emails, 350 repository events, 0 wiki edits in Nov 2019</title></rect><rect x="270" y="6" width="15" height="15" fill="#005a9c"><title>44 emails, 287 repository events, 0 wiki edits in Dec 2019</title></rect></g>
<g transform="translate(0 100)">
  <title>Activity in 2020</title>
  <text x="2" y="20">2020</text><rect x="50" y="6" width="15" height="15" fill="#005a9c"><title>51 emails, 342 repository events, 0 wiki edits in Jan 2020</title></rect><rect x="70" y="6" width="15" height="15" fill="#005a9c"><title>79 emails, 410 repository events, 0 wiki edits in Feb 2020</title></rect><rect x="90" y="6" width="15" height="15" fill="#005a9c"><title>98 emails, 498 repository events, 0 wiki edits in Mar 2020</title></rect><rect x="110" y="6" width="15" height="15" fill="#005a9c"><title>69 emails, 319 repository events, 0 wiki edits in Apr 2020</title></rect><rect x="130" y="6" width="15" height="15" fill="#005a9c"><title>72 emails, 432 repository events, 0 wiki edits in May 2020</title></rect><rect x="150" y="6" width="15" height="15" fill="#005a9c"><title>84 emails, 427 repository events, 0 wiki edits in Jun 2020</title></rect><rect x="170" y="6" width="15" height="15" fill="#005a9c"><title>106 emails, 344 repository events, 0 wiki edits in Jul 2020</title></rect><rect x="190" y="6" width="15" height="15" fill="#005a9c"><title>75 emails, 401 repository events, 0 wiki edits in Aug 2020</title></rect><rect x="210" y="6" width="15" height="15" fill="#005a9c"><title>145 emails, 457 repository events, 0 wiki edits in Sep 2020</title></rect><rect x="230" y="6" width="15" height="15" fill="#005a9c"><title>115 emails, 371 repository events, 0 wiki edits in Oct 2020</title></rect><rect x="250" y="6" width="15" height="15" fill="#005a9c"><title>25 emails, 312 repository events, 0 wiki edits in Nov 2020</title></rect><rect x="270" y="6" width="15" height="15" fill="#005a9c"><title>30 emails, 306 repository events, 0 wiki edits in Dec 2020</title></rect></g>
<g transform="translate(0 120)">
  <title>Activity in 2021</title>
  <text x="2" y="20">2021</text><rect x="50" y="6" width="15" height="15" fill="#005a9c"><title>48 emails, 314 repository events, 0 wiki edits in Jan 2021</title></rect><rect x="70" y="6" width="15" height="15" fill="#005a9c"><title>21 emails, 517 repository events, 0 wiki edits in Feb 2021</title></rect><rect x="90" y="6" width="15" height="15" fill="#005a9c"><title>30 emails, 513 repository events, 0 wiki edits in Mar 2021</title></rect><rect x="110" y="6" width="15" height="15" fill="#005a9c"><title>27 emails, 433 repository events, 0 wiki edits in Apr 2021</title></rect><rect x="130" y="6" width="15" height="15" fill="#005a9c"><title>52 emails, 388 repository events, 0 wiki edits in May 2021</title></rect><rect x="150" y="6" width="15" height="15" fill="#005a9c"><title>53 emails, 331 repository events, 0 wiki edits in Jun 2021</title></rect><rect x="170" y="6" width="15" height="15" fill="#005a9c"><title>23 emails, 408 repository events, 0 wiki edits in Jul 2021</title></rect><rect x="190" y="6" width="15" height="15" fill="#005a9c"><title>31 emails, 516 repository events, 0 wiki edits in Aug 2021</title></rect><rect x="210" y="6" width="15" height="15" fill="#005a9c"><title>47 emails, 541 repository events, 0 wiki edits in Sep 2021</title></rect><rect x="230" y="6" width="15" height="15" fill="#005a9c"><title>51 emails, 264 repository events, 0 wiki edits in Oct 2021</title></rect><rect x="250" y="6" width="15" height="15" fill="#005a9c"><title>46 emails, 397 repository events, 0 wiki edits in Nov 2021</title></rect><rect x="270" y="6" width="15" height="15" fill="#005a9c"><title>32 emails, 310 repository events, 0 wiki edits in Dec 2021</title></rect></g>
<g transform="translate(0 140)">
  <title>Activity in 2022</title>
  <text x="2" y="20">2022</text><rect x="50" y="6" width="15" height="15" fill="#005a9c"><title>24 emails, 257 repository events, 0 wiki edits in Jan 2022</title></rect><rect x="70" y="6" width="15" height="15" fill="#005a9c"><title>25 emails, 303 repository events, 0 wiki edits in Feb 2022</title></rect><rect x="90" y="6" width="15" height="15" fill="#005a9c"><title>25 emails, 386 repository events, 0 wiki edits in Mar 2022</title></rect><rect x="110" y="6" width="15" height="15" fill="#005a9c"><title>16 emails, 296 repository events, 0 wiki edits in Apr 2022</title></rect><rect x="130" y="6" width="15" height="15" fill="#005a9c"><title>72 emails, 306 repository events, 0 wiki edits in May 2022</title></rect><rect x="150" y="6" width="15" height="15" fill="#005a9c"><title>31 emails, 439 repository events, 0 wiki edits in Jun 2022</title></rect><rect x="170" y="6" width="15" height="15" fill="#005a9c"><title>21 emails, 243 repository events, 0 wiki edits in Jul 2022</title></rect><rect x="190" y="6" width="15" height="15" fill="#005a9c"><title>29 emails, 269 repository events, 0 wiki edits in Aug 2022</title></rect><rect x="210" y="6" width="15" height="15" fill="#005a9c"><title>7 emails, 323 repository events, 0 wiki edits in Sep 2022</title></rect><rect x="230" y="6" width="15" height="15" fill="#005a9c"><title>25 emails, 408 repository events, 0 wiki edits in Oct 2022</title></rect><rect x="250" y="6" width="15" height="15" fill="#005a9c"><title>16 emails, 415 repository events, 0 wiki edits in Nov 2022</title></rect><rect x="270" y="6" width="15" height="15" fill="#005a9c"><title>82 emails, 309 repository events, 0 wiki edits in Dec 2022</title></rect></g>
<g transform="translate(0 160)">
  <title>Activity in 2023</title>
  <text x="2" y="20">2023</text><rect x="50" y="6" width="15" height="15" fill="#005a9c"><title>29 emails, 347 repository events, 0 wiki edits in Jan 2023</title></rect><rect x="70" y="6" width="15" height="15" fill="#005a9c"><title>43 emails, 746 repository events, 0 wiki edits in Feb 2023</title></rect><rect x="90" y="6" width="15" height="15" fill="#005a9c"><title>32 emails, 628 repository events, 0 wiki edits in Mar 2023</title></rect><rect x="110" y="6" width="15" height="15" fill="#005a9c"><title>31 emails, 590 repository events, 0 wiki edits in Apr 2023</title></rect><rect x="130" y="6" width="15" height="15" fill="#3667a2"><title>2 emails, 158 repository events, 0 wiki edits in May 2023</title></rect></g><text style="font-size: 10px; text-align: center" x="53" y="190">J</text><text style="font-size: 10px; text-align: center" x="73" y="190">F</text><text style="font-size: 10px; text-align: center" x="93" y="190">M</text><text style="font-size: 10px; text-align: center" x="113" y="190">A</text><text style="font-size: 10px; text-align: center" x="133" y="190">M</text><text style="font-size: 10px; text-align: center" x="153" y="190">J</text><text style="font-size: 10px; text-align: center" x="173" y="190">J</text><text style="font-size: 10px; text-align: center" x="193" y="190">A</text><text style="font-size: 10px; text-align: center" x="213" y="190">S</text><text style="font-size: 10px; text-align: center" x="233" y="190">O</text><text style="font-size: 10px; text-align: center" x="253" y="190">N</text><text style="font-size: 10px; text-align: center" x="273" y="190">D</text><text style="font-size: 10px;" x="155" y="209">Less</text><rect fill="#b9bdc6" width="10" height="10" x="180" y="200"><title>No activity in the period</title></rect><rect fill="#919fba" width="10" height="10" x="195" y="200"><title>Low activity in the period</title></rect><rect fill="#6882ae" width="10" height="10" x="210" y="200"><title>Medium activity in the period</title></rect><rect fill="#005a9c" width="10" height="10" x="225" y="200"><title>High activity in period</title></rect><text x="240" y="209" style="font-size: 10px;">More</text></svg>