<svg xmlns="http://www.w3.org/2000/svg" width="360" height="200">
  <title>Activity of Web%20Platform%20Incubator%20Community%20Group</title>

<g transform="translate(0 0)">
  <title>Activity in 2015</title>
  <text x="2" y="20">2015</text><rect x="170" y="6" width="15" height="15" fill="#005a9c"><title>256 emails, 252 repository events, 0 wiki edits in Jul 2015</title></rect><rect x="190" y="6" width="15" height="15" fill="#005a9c"><title>331 emails, 45 repository events, 0 wiki edits in Aug 2015</title></rect><rect x="210" y="6" width="15" height="15" fill="#3667a2"><title>73 emails, 92 repository events, 0 wiki edits in Sep 2015</title></rect><rect x="230" y="6" width="15" height="15" fill="#005a9c"><title>165 emails, 79 repository events, 0 wiki edits in Oct 2015</title></rect><rect x="250" y="6" width="15" height="15" fill="#3667a2"><title>110 emails, 58 repository events, 0 wiki edits in Nov 2015</title></rect><rect x="270" y="6" width="15" height="15" fill="#3667a2"><title>118 emails, 33 repository events, 0 wiki edits in Dec 2015</title></rect></g>
<g transform="translate(0 20)">
  <title>Activity in 2016</title>
  <text x="2" y="20">2016</text><rect x="50" y="6" width="15" height="15" fill="#6882ae"><title>90 emails, 29 repository events, 0 wiki edits in Jan 2016</title></rect><rect x="70" y="6" width="15" height="15" fill="#5174a8"><title>61 emails, 84 repository events, 0 wiki edits in Feb 2016</title></rect><rect x="90" y="6" width="15" height="15" fill="#005a9c"><title>113 emails, 117 repository events, 0 wiki edits in Mar 2016</title></rect><rect x="110" y="6" width="15" height="15" fill="#3667a2"><title>112 emails, 53 repository events, 0 wiki edits in Apr 2016</title></rect><rect x="130" y="6" width="15" height="15" fill="#005a9c"><title>131 emails, 51 repository events, 0 wiki edits in May 2016</title></rect><rect x="150" y="6" width="15" height="15" fill="#005a9c"><title>131 emails, 54 repository events, 0 wiki edits in Jun 2016</title></rect><rect x="170" y="6" width="15" height="15" fill="#3667a2"><title>133 emails, 42 repository events, 0 wiki edits in Jul 2016</title></rect><rect x="190" y="6" width="15" height="15" fill="#005a9c"><title>143 emails, 72 repository events, 0 wiki edits in Aug 2016</title></rect><rect x="210" y="6" width="15" height="15" fill="#005a9c"><title>156 emails, 84 repository events, 0 wiki edits in Sep 2016</title></rect><rect x="230" y="6" width="15" height="15" fill="#005a9c"><title>116 emails, 100 repository events, 0 wiki edits in Oct 2016</title></rect><rect x="250" y="6" width="15" height="15" fill="#005a9c"><title>226 emails, 42 repository events, 0 wiki edits in Nov 2016</title></rect><rect x="270" y="6" width="15" height="15" fill="#005a9c"><title>151 emails, 31 repository events, 0 wiki edits in Dec 2016</title></rect></g>
<g transform="translate(0 40)">
  <title>Activity in 2017</title>
  <text x="2" y="20">2017</text><rect x="50" y="6" width="15" height="15" fill="#005a9c"><title>176 emails, 32 repository events, 0 wiki edits in Jan 2017</title></rect><rect x="70" y="6" width="15" height="15" fill="#3667a2"><title>138 emails, 33 repository events, 0 wiki edits in Feb 2017</title></rect><rect x="90" y="6" width="15" height="15" fill="#005a9c"><title>135 emails, 97 repository events, 0 wiki edits in Mar 2017</title></rect><rect x="110" y="6" width="15" height="15" fill="#3667a2"><title>67 emails, 102 repository events, 0 wiki edits in Apr 2017</title></rect><rect x="130" y="6" width="15" height="15" fill="#6882ae"><title>63 emails, 38 repository events, 0 wiki edits in May 2017</title></rect><rect x="150" y="6" width="15" height="15" fill="#3667a2"><title>100 emails, 52 repository events, 0 wiki edits in Jun 2017</title></rect><rect x="170" y="6" width="15" height="15" fill="#5174a8"><title>75 emails, 72 repository events, 0 wiki edits in Jul 2017</title></rect><rect x="190" y="6" width="15" height="15" fill="#5174a8"><title>98 emails, 41 repository events, 0 wiki edits in Aug 2017</title></rect><rect x="210" y="6" width="15" height="15" fill="#5174a8"><title>71 emails, 64 repository events, 0 wiki edits in Sep 2017</title></rect><rect x="230" y="6" width="15" height="15" fill="#5174a8"><title>59 emails, 69 repository events, 0 wiki edits in Oct 2017</title></rect><rect x="250" y="6" width="15" height="15" fill="#005a9c"><title>85 emails, 100 repository events, 0 wiki edits in Nov 2017</title></rect><rect x="270" y="6" width="15" height="15" fill="#919fba"><title>48 emails, 15 repository events, 0 wiki edits in Dec 2017</title></rect></g>
<g transform="translate(0 60)">
  <title>Activity in 2018</title>
  <text x="2" y="20">2018</text><rect x="50" y="6" width="15" height="15" fill="#6882ae"><title>84 emails, 40 repository events, 0 wiki edits in Jan 2018</title></rect><rect x="70" y="6" width="15" height="15" fill="#005a9c"><title>98 emails, 100 repository events, 0 wiki edits in Feb 2018</title></rect><rect x="90" y="6" width="15" height="15" fill="#3667a2"><title>79 emails, 74 repository events, 0 wiki edits in Mar 2018</title></rect><rect x="110" y="6" width="15" height="15" fill="#5174a8"><title>72 emails, 77 repository events, 0 wiki edits in Apr 2018</title></rect><rect x="130" y="6" width="15" height="15" fill="#005a9c"><title>186 emails, 140 repository events, 0 wiki edits in May 2018</title></rect><rect x="150" y="6" width="15" height="15" fill="#005a9c"><title>142 emails, 94 repository events, 0 wiki edits in Jun 2018</title></rect><rect x="170" y="6" width="15" height="15" fill="#3667a2"><title>42 emails, 117 repository events, 0 wiki edits in Jul 2018</title></rect><rect x="190" y="6" width="15" height="15" fill="#3667a2"><title>72 emails, 83 repository events, 0 wiki edits in Aug 2018</title></rect><rect x="210" y="6" width="15" height="15" fill="#5174a8"><title>102 emails, 47 repository events, 0 wiki edits in Sep 2018</title></rect><rect x="230" y="6" width="15" height="15" fill="#005a9c"><title>47 emails, 166 repository events, 0 wiki edits in Oct 2018</title></rect><rect x="250" y="6" width="15" height="15" fill="#005a9c"><title>107 emails, 72 repository events, 0 wiki edits in Nov 2018</title></rect><rect x="270" y="6" width="15" height="15" fill="#5174a8"><title>41 emails, 90 repository events, 0 wiki edits in Dec 2018</title></rect></g>
<g transform="translate(0 80)">
  <title>Activity in 2019</title>
  <text x="2" y="20">2019</text><rect x="50" y="6" width="15" height="15" fill="#919fba"><title>31 emails, 44 repository events, 0 wiki edits in Jan 2019</title></rect><rect x="70" y="6" width="15" height="15" fill="#6882ae"><title>62 emails, 53 repository events, 0 wiki edits in Feb 2019</title></rect><rect x="90" y="6" width="15" height="15" fill="#5174a8"><title>88 emails, 46 repository events, 0 wiki edits in Mar 2019</title></rect><rect x="110" y="6" width="15" height="15" fill="#005a9c"><title>142 emails, 59 repository events, 0 wiki edits in Apr 2019</title></rect><rect x="130" y="6" width="15" height="15" fill="#6882ae"><title>70 emails, 31 repository events, 0 wiki edits in May 2019</title></rect><rect x="150" y="6" width="15" height="15" fill="#3667a2"><title>130 emails, 41 repository events, 0 wiki edits in Jun 2019</title></rect><rect x="170" y="6" width="15" height="15" fill="#5174a8"><title>115 emails, 33 repository events, 0 wiki edits in Jul 2019</title></rect><rect x="190" y="6" width="15" height="15" fill="#005a9c"><title>158 emails, 71 repository events, 0 wiki edits in Aug 2019</title></rect><rect x="210" y="6" width="15" height="15" fill="#005a9c"><title>127 emails, 84 repository events, 0 wiki edits in Sep 2019</title></rect><rect x="230" y="6" width="15" height="15" fill="#005a9c"><title>114 emails, 82 repository events, 0 wiki edits in Oct 2019</title></rect><rect x="250" y="6" width="15" height="15" fill="#3667a2"><title>75 emails, 76 repository events, 0 wiki edits in Nov 2019</title></rect><rect x="270" y="6" width="15" height="15" fill="#3667a2"><title>44 emails, 123 repository events, 0 wiki edits in Dec 2019</title></rect></g>
<g transform="translate(0 100)">
  <title>Activity in 2020</title>
  <text x="2" y="20">2020</text><rect x="50" y="6" width="15" height="15" fill="#6882ae"><title>51 emails, 55 repository events, 0 wiki edits in Jan 2020</title></rect><rect x="70" y="6" width="15" height="15" fill="#3667a2"><title>79 emails, 80 repository events, 0 wiki edits in Feb 2020</title></rect><rect x="90" y="6" width="15" height="15" fill="#3667a2"><title>98 emails, 65 repository events, 0 wiki edits in Mar 2020</title></rect><rect x="110" y="6" width="15" height="15" fill="#3667a2"><title>69 emails, 82 repository events, 0 wiki edits in Apr 2020</title></rect><rect x="130" y="6" width="15" height="15" fill="#3667a2"><title>72 emails, 82 repository events, 0 wiki edits in May 2020</title></rect><rect x="150" y="6" width="15" height="15" fill="#3667a2"><title>84 emails, 81 repository events, 0 wiki edits in Jun 2020</title></rect><rect x="170" y="6" width="15" height="15" fill="#5174a8"><title>106 emails, 40 repository events, 0 wiki edits in Jul 2020</title></rect><rect x="190" y="6" width="15" height="15" fill="#6882ae"><title>75 emails, 49 repository events, 0 wiki edits in Aug 2020</title></rect><rect x="210" y="6" width="15" height="15" fill="#005a9c"><title>145 emails, 63 repository events, 0 wiki edits in Sep 2020</title></rect><rect x="230" y="6" width="15" height="15" fill="#3667a2"><title>115 emails, 37 repository events, 0 wiki edits in Oct 2020</title></rect><rect x="250" y="6" width="15" height="15" fill="#a5aec0"><title>25 emails, 23 repository events, 0 wiki edits in Nov 2020</title></rect><rect x="270" y="6" width="15" height="15" fill="#a5aec0"><title>30 emails, 15 repository events, 0 wiki edits in Dec 2020</title></rect></g>
<g transform="translate(0 120)">
  <title>Activity in 2021</title>
  <text x="2" y="20">2021</text><rect x="50" y="6" width="15" height="15" fill="#7d90b5"><title>48 emails, 49 repository events, 0 wiki edits in Jan 2021</title></rect><rect x="70" y="6" width="15" height="15" fill="#5174a8"><title>21 emails, 116 repository events, 0 wiki edits in Feb 2021</title></rect><rect x="90" y="6" width="15" height="15" fill="#7d90b5"><title>30 emails, 63 repository events, 0 wiki edits in Mar 2021</title></rect><rect x="110" y="6" width="15" height="15" fill="#7d90b5"><title>27 emails, 71 repository events, 0 wiki edits in Apr 2021</title></rect><rect x="130" y="6" width="15" height="15" fill="#5174a8"><title>52 emails, 74 repository events, 0 wiki edits in May 2021</title></rect><rect x="150" y="6" width="15" height="15" fill="#6882ae"><title>53 emails, 61 repository events, 0 wiki edits in Jun 2021</title></rect><rect x="170" y="6" width="15" height="15" fill="#6882ae"><title>23 emails, 79 repository events, 0 wiki edits in Jul 2021</title></rect><rect x="190" y="6" width="15" height="15" fill="#7d90b5"><title>31 emails, 68 repository events, 0 wiki edits in Aug 2021</title></rect><rect x="210" y="6" width="15" height="15" fill="#3667a2"><title>47 emails, 108 repository events, 0 wiki edits in Sep 2021</title></rect><rect x="230" y="6" width="15" height="15" fill="#7d90b5"><title>51 emails, 39 repository events, 0 wiki edits in Oct 2021</title></rect><rect x="250" y="6" width="15" height="15" fill="#7d90b5"><title>46 emails, 45 repository events, 0 wiki edits in Nov 2021</title></rect><rect x="270" y="6" width="15" height="15" fill="#7d90b5"><title>32 emails, 54 repository events, 0 wiki edits in Dec 2021</title></rect></g>
<g transform="translate(0 140)">
  <title>Activity in 2022</title>
  <text x="2" y="20">2022</text><rect x="50" y="6" width="15" height="15" fill="#7d90b5"><title>24 emails, 73 repository events, 0 wiki edits in Jan 2022</title></rect><rect x="70" y="6" width="15" height="15" fill="#7d90b5"><title>25 emails, 64 repository events, 0 wiki edits in Feb 2022</title></rect><rect x="90" y="6" width="15" height="15" fill="#6882ae"><title>25 emails, 76 repository events, 0 wiki edits in Mar 2022</title></rect><rect x="110" y="6" width="15" height="15" fill="#7d90b5"><title>16 emails, 65 repository events, 0 wiki edits in Apr 2022</title></rect><rect x="130" y="6" width="15" height="15" fill="#7d90b5"><title>72 emails, 22 repository events, 0 wiki edits in May 2022</title></rect><rect x="150" y="6" width="15" height="15" fill="#7d90b5"><title>31 emails, 69 repository events, 0 wiki edits in Jun 2022</title></rect><rect x="170" y="6" width="15" height="15" fill="#a5aec0"><title>21 emails, 25 repository events, 0 wiki edits in Jul 2022</title></rect><rect x="190" y="6" width="15" height="15" fill="#919fba"><title>29 emails, 28 repository events, 0 wiki edits in Aug 2022</title></rect><rect x="210" y="6" width="15" height="15" fill="#919fba"><title>7 emails, 63 repository events, 0 wiki edits in Sep 2022</title></rect><rect x="230" y="6" width="15" height="15" fill="#919fba"><title>25 emails, 46 repository events, 0 wiki edits in Oct 2022</title></rect><rect x="250" y="6" width="15" height="15" fill="#7d90b5"><title>16 emails, 71 repository events, 0 wiki edits in Nov 2022</title></rect><rect x="270" y="6" width="15" height="15" fill="#3667a2"><title>81 emails, 91 repository events, 0 wiki edits in Dec 2022</title></rect></g>
<g transform="translate(0 160)">
  <title>Activity in 2023</title>
  <text x="2" y="20">2023</text><rect x="50" y="6" width="15" height="15" fill="#3667a2"><title>30 emails, 130 repository events, 0 wiki edits in Jan 2023</title></rect><rect x="70" y="6" width="15" height="15" fill="#005a9c"><title>43 emails, 162 repository events, 0 wiki edits in Feb 2023</title></rect><rect x="90" y="6" width="15" height="15" fill="#005a9c"><title>32 emails, 214 repository events, 0 wiki edits in Mar 2023</title></rect><rect x="110" y="6" width="15" height="15" fill="#7d90b5"><title>11 emails, 85 repository events, 0 wiki edits in Apr 2023</title></rect></g><text style="font-size: 10px; text-align: center" x="53" y="190">J</text><text style="font-size: 10px; text-align: center" x="73" y="190">F</text><text style="font-size: 10px; text-align: center" x="93" y="190">M</text><text style="font-size: 10px; text-align: center" x="113" y="190">A</text><text style="font-size: 10px; text-align: center" x="133" y="190">M</text><text style="font-size: 10px; text-align: center" x="153" y="190">J</text><text style="font-size: 10px; text-align: center" x="173" y="190">J</text><text style="font-size: 10px; text-align: center" x="193" y="190">A</text><text style="font-size: 10px; text-align: center" x="213" y="190">S</text><text style="font-size: 10px; text-align: center" x="233" y="190">O</text><text style="font-size: 10px; text-align: center" x="253" y="190">N</text><text style="font-size: 10px; text-align: center" x="273" y="190">D</text><text style="font-size: 10px;" x="155" y="209">Less</text><rect fill="#b9bdc6" width="10" height="10" x="180" y="200"><title>No activity in the period</title></rect><rect fill="#919fba" width="10" height="10" x="195" y="200"><title>Low activity in the period</title></rect><rect fill="#6882ae" width="10" height="10" x="210" y="200"><title>Medium activity in the period</title></rect><rect fill="#005a9c" width="10" height="10" x="225" y="200"><title>High activity in period</title></rect><text x="240" y="209" style="font-size: 10px;">More</text></svg>