<svg xmlns="http://www.w3.org/2000/svg" width="360" height="260">
  <title>Activity of Web%20Platform%20Incubator%20Community%20Group</title>

<g transform="translate(0 0)">
  <title>Activity in 2015</title>
  <text x="2" y="20">2015</text><rect x="170" y="6" width="15" height="15" fill="#005a9c"><title>7 emails, 500 repository events, 0 wiki edits in Jul 2015</title></rect><rect x="190" y="6" width="15" height="15" fill="#7d90b5"><title>14 emails, 82 repository events, 0 wiki edits in Aug 2015</title></rect><rect x="210" y="6" width="15" height="15" fill="#5174a8"><title>2 emails, 137 repository events, 0 wiki edits in Sep 2015</title></rect><rect x="230" y="6" width="15" height="15" fill="#6882ae"><title>0 emails, 121 repository events, 0 wiki edits in Oct 2015</title></rect><rect x="250" y="6" width="15" height="15" fill="#919fba"><title>1 emails, 72 repository events, 0 wiki edits in Nov 2015</title></rect><rect x="270" y="6" width="15" height="15" fill="#919fba"><title>0 emails, 53 repository events, 0 wiki edits in Dec 2015</title></rect></g>
<g transform="translate(0 20)">
  <title>Activity in 2016</title>
  <text x="2" y="20">2016</text><rect x="50" y="6" width="15" height="15" fill="#919fba"><title>7 emails, 58 repository events, 0 wiki edits in Jan 2016</title></rect><rect x="70" y="6" width="15" height="15" fill="#3667a2"><title>0 emails, 163 repository events, 0 wiki edits in Feb 2016</title></rect><rect x="90" y="6" width="15" height="15" fill="#005a9c"><title>4 emails, 233 repository events, 0 wiki edits in Mar 2016</title></rect><rect x="110" y="6" width="15" height="15" fill="#6882ae"><title>3 emails, 120 repository events, 0 wiki edits in Apr 2016</title></rect><rect x="130" y="6" width="15" height="15" fill="#6882ae"><title>0 emails, 111 repository events, 0 wiki edits in May 2016</title></rect><rect x="150" y="6" width="15" height="15" fill="#7d90b5"><title>0 emails, 94 repository events, 0 wiki edits in Jun 2016</title></rect><rect x="170" y="6" width="15" height="15" fill="#6882ae"><title>0 emails, 121 repository events, 0 wiki edits in Jul 2016</title></rect><rect x="190" y="6" width="15" height="15" fill="#005a9c"><title>1 emails, 293 repository events, 0 wiki edits in Aug 2016</title></rect><rect x="210" y="6" width="15" height="15" fill="#005a9c"><title>12 emails, 205 repository events, 0 wiki edits in Sep 2016</title></rect><rect x="230" y="6" width="15" height="15" fill="#6882ae"><title>1 emails, 123 repository events, 0 wiki edits in Oct 2016</title></rect><rect x="250" y="6" width="15" height="15" fill="#5174a8"><title>5 emails, 123 repository events, 0 wiki edits in Nov 2016</title></rect><rect x="270" y="6" width="15" height="15" fill="#6882ae"><title>0 emails, 105 repository events, 0 wiki edits in Dec 2016</title></rect></g>
<g transform="translate(0 40)">
  <title>Activity in 2017</title>
  <text x="2" y="20">2017</text><rect x="50" y="6" width="15" height="15" fill="#6882ae"><title>8 emails, 116 repository events, 0 wiki edits in Jan 2017</title></rect><rect x="70" y="6" width="15" height="15" fill="#6882ae"><title>0 emails, 102 repository events, 0 wiki edits in Feb 2017</title></rect><rect x="90" y="6" width="15" height="15" fill="#005a9c"><title>0 emails, 266 repository events, 0 wiki edits in Mar 2017</title></rect><rect x="110" y="6" width="15" height="15" fill="#005a9c"><title>0 emails, 246 repository events, 0 wiki edits in Apr 2017</title></rect><rect x="130" y="6" width="15" height="15" fill="#3667a2"><title>0 emails, 168 repository events, 0 wiki edits in May 2017</title></rect><rect x="150" y="6" width="15" height="15" fill="#005a9c"><title>0 emails, 204 repository events, 0 wiki edits in Jun 2017</title></rect><rect x="170" y="6" width="15" height="15" fill="#5174a8"><title>0 emails, 135 repository events, 0 wiki edits in Jul 2017</title></rect><rect x="190" y="6" width="15" height="15" fill="#3667a2"><title>0 emails, 171 repository events, 0 wiki edits in Aug 2017</title></rect><rect x="210" y="6" width="15" height="15" fill="#005a9c"><title>0 emails, 202 repository events, 0 wiki edits in Sep 2017</title></rect><rect x="230" y="6" width="15" height="15" fill="#005a9c"><title>0 emails, 227 repository events, 0 wiki edits in Oct 2017</title></rect><rect x="250" y="6" width="15" height="15" fill="#005a9c"><title>0 emails, 287 repository events, 0 wiki edits in Nov 2017</title></rect><rect x="270" y="6" width="15" height="15" fill="#3667a2"><title>0 emails, 151 repository events, 0 wiki edits in Dec 2017</title></rect></g>
<g transform="translate(0 60)">
  <title>Activity in 2018</title>
  <text x="2" y="20">2018</text><rect x="50" y="6" width="15" height="15" fill="#005a9c"><title>0 emails, 223 repository events, 0 wiki edits in Jan 2018</title></rect><rect x="70" y="6" width="15" height="15" fill="#005a9c"><title>0 emails, 310 repository events, 0 wiki edits in Feb 2018</title></rect><rect x="90" y="6" width="15" height="15" fill="#005a9c"><title>3 emails, 326 repository events, 0 wiki edits in Mar 2018</title></rect><rect x="110" y="6" width="15" height="15" fill="#005a9c"><title>0 emails, 296 repository events, 0 wiki edits in Apr 2018</title></rect><rect x="130" y="6" width="15" height="15" fill="#005a9c"><title>10 emails, 352 repository events, 0 wiki edits in May 2018</title></rect><rect x="150" y="6" width="15" height="15" fill="#005a9c"><title>1 emails, 424 repository events, 0 wiki edits in Jun 2018</title></rect><rect x="170" y="6" width="15" height="15" fill="#005a9c"><title>2 emails, 402 repository events, 0 wiki edits in Jul 2018</title></rect><rect x="190" y="6" width="15" height="15" fill="#005a9c"><title>0 emails, 402 repository events, 0 wiki edits in Aug 2018</title></rect><rect x="210" y="6" width="15" height="15" fill="#005a9c"><title>1 emails, 272 repository events, 0 wiki edits in Sep 2018</title></rect><rect x="230" y="6" width="15" height="15" fill="#005a9c"><title>2 emails, 307 repository events, 0 wiki edits in Oct 2018</title></rect><rect x="250" y="6" width="15" height="15" fill="#005a9c"><title>1 emails, 343 repository events, 0 wiki edits in Nov 2018</title></rect><rect x="270" y="6" width="15" height="15" fill="#005a9c"><title>0 emails, 258 repository events, 0 wiki edits in Dec 2018</title></rect></g>
<g transform="translate(0 80)">
  <title>Activity in 2019</title>
  <text x="2" y="20">2019</text><rect x="50" y="6" width="15" height="15" fill="#005a9c"><title>0 emails, 294 repository events, 0 wiki edits in Jan 2019</title></rect><rect x="70" y="6" width="15" height="15" fill="#005a9c"><title>0 emails, 250 repository events, 0 wiki edits in Feb 2019</title></rect><rect x="90" y="6" width="15" height="15" fill="#005a9c"><title>1 emails, 262 repository events, 0 wiki edits in Mar 2019</title></rect><rect x="110" y="6" width="15" height="15" fill="#005a9c"><title>1 emails, 372 repository events, 0 wiki edits in Apr 2019</title></rect><rect x="130" y="6" width="15" height="15" fill="#005a9c"><title>1 emails, 352 repository events, 0 wiki edits in May 2019</title></rect><rect x="150" y="6" width="15" height="15" fill="#005a9c"><title>2 emails, 282 repository events, 0 wiki edits in Jun 2019</title></rect><rect x="170" y="6" width="15" height="15" fill="#005a9c"><title>1 emails, 297 repository events, 0 wiki edits in Jul 2019</title></rect><rect x="190" y="6" width="15" height="15" fill="#005a9c"><title>0 emails, 424 repository events, 0 wiki edits in Aug 2019</title></rect><rect x="210" y="6" width="15" height="15" fill="#005a9c"><title>3 emails, 339 repository events, 0 wiki edits in Sep 2019</title></rect><rect x="230" y="6" width="15" height="15" fill="#005a9c"><title>10 emails, 453 repository events, 0 wiki edits in Oct 2019</title></rect><rect x="250" y="6" width="15" height="15" fill="#005a9c"><title>0 emails, 470 repository events, 0 wiki edits in Nov 2019</title></rect><rect x="270" y="6" width="15" height="15" fill="#005a9c"><title>3 emails, 359 repository events, 0 wiki edits in Dec 2019</title></rect></g>
<g transform="translate(0 100)">
  <title>Activity in 2020</title>
  <text x="2" y="20">2020</text><rect x="50" y="6" width="15" height="15" fill="#005a9c"><title>0 emails, 428 repository events, 0 wiki edits in Jan 2020</title></rect><rect x="70" y="6" width="15" height="15" fill="#005a9c"><title>0 emails, 448 repository events, 0 wiki edits in Feb 2020</title></rect><rect x="90" y="6" width="15" height="15" fill="#005a9c"><title>0 emails, 687 repository events, 0 wiki edits in Mar 2020</title></rect><rect x="110" y="6" width="15" height="15" fill="#005a9c"><title>0 emails, 491 repository events, 0 wiki edits in Apr 2020</title></rect><rect x="130" y="6" width="15" height="15" fill="#005a9c"><title>1 emails, 595 repository events, 0 wiki edits in May 2020</title></rect><rect x="150" y="6" width="15" height="15" fill="#005a9c"><title>0 emails, 542 repository events, 0 wiki edits in Jun 2020</title></rect><rect x="170" y="6" width="15" height="15" fill="#005a9c"><title>2 emails, 479 repository events, 0 wiki edits in Jul 2020</title></rect><rect x="190" y="6" width="15" height="15" fill="#005a9c"><title>1 emails, 524 repository events, 0 wiki edits in Aug 2020</title></rect><rect x="210" y="6" width="15" height="15" fill="#005a9c"><title>5 emails, 503 repository events, 0 wiki edits in Sep 2020</title></rect><rect x="230" y="6" width="15" height="15" fill="#005a9c"><title>0 emails, 495 repository events, 0 wiki edits in Oct 2020</title></rect><rect x="250" y="6" width="15" height="15" fill="#005a9c"><title>0 emails, 409 repository events, 0 wiki edits in Nov 2020</title></rect><rect x="270" y="6" width="15" height="15" fill="#005a9c"><title>0 emails, 328 repository events, 0 wiki edits in Dec 2020</title></rect></g>
<g transform="translate(0 120)">
  <title>Activity in 2021</title>
  <text x="2" y="20">2021</text><rect x="50" y="6" width="15" height="15" fill="#005a9c"><title>0 emails, 515 repository events, 0 wiki edits in Jan 2021</title></rect><rect x="70" y="6" width="15" height="15" fill="#005a9c"><title>0 emails, 734 repository events, 0 wiki edits in Feb 2021</title></rect><rect x="90" y="6" width="15" height="15" fill="#005a9c"><title>2 emails, 680 repository events, 0 wiki edits in Mar 2021</title></rect><rect x="110" y="6" width="15" height="15" fill="#005a9c"><title>0 emails, 589 repository events, 0 wiki edits in Apr 2021</title></rect><rect x="130" y="6" width="15" height="15" fill="#005a9c"><title>0 emails, 572 repository events, 0 wiki edits in May 2021</title></rect><rect x="150" y="6" width="15" height="15" fill="#005a9c"><title>0 emails, 423 repository events, 0 wiki edits in Jun 2021</title></rect><rect x="170" y="6" width="15" height="15" fill="#005a9c"><title>0 emails, 466 repository events, 0 wiki edits in Jul 2021</title></rect><rect x="190" y="6" width="15" height="15" fill="#005a9c"><title>0 emails, 592 repository events, 0 wiki edits in Aug 2021</title></rect><rect x="210" y="6" width="15" height="15" fill="#005a9c"><title>8 emails, 632 repository events, 0 wiki edits in Sep 2021</title></rect><rect x="230" y="6" width="15" height="15" fill="#005a9c"><title>0 emails, 395 repository events, 0 wiki edits in Oct 2021</title></rect><rect x="250" y="6" width="15" height="15" fill="#005a9c"><title>0 emails, 491 repository events, 0 wiki edits in Nov 2021</title></rect><rect x="270" y="6" width="15" height="15" fill="#005a9c"><title>0 emails, 392 repository events, 0 wiki edits in Dec 2021</title></rect></g>
<g transform="translate(0 140)">
  <title>Activity in 2022</title>
  <text x="2" y="20">2022</text><rect x="50" y="6" width="15" height="15" fill="#005a9c"><title>0 emails, 391 repository events, 0 wiki edits in Jan 2022</title></rect><rect x="70" y="6" width="15" height="15" fill="#005a9c"><title>1 emails, 575 repository events, 0 wiki edits in Feb 2022</title></rect><rect x="90" y="6" width="15" height="15" fill="#005a9c"><title>0 emails, 507 repository events, 0 wiki edits in Mar 2022</title></rect><rect x="110" y="6" width="15" height="15" fill="#005a9c"><title>0 emails, 412 repository events, 0 wiki edits in Apr 2022</title></rect><rect x="130" y="6" width="15" height="15" fill="#005a9c"><title>0 emails, 603 repository events, 0 wiki edits in May 2022</title></rect><rect x="150" y="6" width="15" height="15" fill="#005a9c"><title>2 emails, 626 repository events, 0 wiki edits in Jun 2022</title></rect><rect x="170" y="6" width="15" height="15" fill="#005a9c"><title>4 emails, 330 repository events, 0 wiki edits in Jul 2022</title></rect><rect x="190" y="6" width="15" height="15" fill="#005a9c"><title>4 emails, 395 repository events, 0 wiki edits in Aug 2022</title></rect><rect x="210" y="6" width="15" height="15" fill="#005a9c"><title>0 emails, 413 repository events, 0 wiki edits in Sep 2022</title></rect><rect x="230" y="6" width="15" height="15" fill="#005a9c"><title>0 emails, 507 repository events, 0 wiki edits in Oct 2022</title></rect><rect x="250" y="6" width="15" height="15" fill="#005a9c"><title>1 emails, 652 repository events, 0 wiki edits in Nov 2022</title></rect><rect x="270" y="6" width="15" height="15" fill="#005a9c"><title>0 emails, 395 repository events, 0 wiki edits in Dec 2022</title></rect></g>
<g transform="translate(0 160)">
  <title>Activity in 2023</title>
  <text x="2" y="20">2023</text><rect x="50" y="6" width="15" height="15" fill="#005a9c"><title>0 emails, 445 repository events, 0 wiki edits in Jan 2023</title></rect><rect x="70" y="6" width="15" height="15" fill="#005a9c"><title>19 emails, 715 repository events, 0 wiki edits in Feb 2023</title></rect><rect x="90" y="6" width="15" height="15" fill="#005a9c"><title>16 emails, 670 repository events, 0 wiki edits in Mar 2023</title></rect><rect x="110" y="6" width="15" height="15" fill="#005a9c"><title>0 emails, 657 repository events, 0 wiki edits in Apr 2023</title></rect><rect x="130" y="6" width="15" height="15" fill="#005a9c"><title>2 emails, 804 repository events, 0 wiki edits in May 2023</title></rect><rect x="150" y="6" width="15" height="15" fill="#005a9c"><title>1 emails, 793 repository events, 0 wiki edits in Jun 2023</title></rect><rect x="170" y="6" width="15" height="15" fill="#005a9c"><title>0 emails, 627 repository events, 0 wiki edits in Jul 2023</title></rect><rect x="190" y="6" width="15" height="15" fill="#005a9c"><title>0 emails, 627 repository events, 0 wiki edits in Aug 2023</title></rect><rect x="210" y="6" width="15" height="15" fill="#005a9c"><title>7 emails, 744 repository events, 0 wiki edits in Sep 2023</title></rect><rect x="230" y="6" width="15" height="15" fill="#005a9c"><title>0 emails, 509 repository events, 0 wiki edits in Oct 2023</title></rect><rect x="250" y="6" width="15" height="15" fill="#005a9c"><title>0 emails, 530 repository events, 0 wiki edits in Nov 2023</title></rect><rect x="270" y="6" width="15" height="15" fill="#005a9c"><title>0 emails, 405 repository events, 0 wiki edits in Dec 2023</title></rect></g>
<g transform="translate(0 180)">
  <title>Activity in 2024</title>
  <text x="2" y="20">2024</text><rect x="50" y="6" width="15" height="15" fill="#005a9c"><title>0 emails, 452 repository events, 0 wiki edits in Jan 2024</title></rect><rect x="70" y="6" width="15" height="15" fill="#005a9c"><title>0 emails, 456 repository events, 0 wiki edits in Feb 2024</title></rect><rect x="90" y="6" width="15" height="15" fill="#005a9c"><title>1 emails, 520 repository events, 0 wiki edits in Mar 2024</title></rect><rect x="110" y="6" width="15" height="15" fill="#005a9c"><title>0 emails, 557 repository events, 0 wiki edits in Apr 2024</title></rect><rect x="130" y="6" width="15" height="15" fill="#005a9c"><title>0 emails, 458 repository events, 0 wiki edits in May 2024</title></rect><rect x="150" y="6" width="15" height="15" fill="#005a9c"><title>1 emails, 411 repository events, 0 wiki edits in Jun 2024</title></rect><rect x="170" y="6" width="15" height="15" fill="#005a9c"><title>0 emails, 409 repository events, 0 wiki edits in Jul 2024</title></rect><rect x="190" y="6" width="15" height="15" fill="#005a9c"><title>1 emails, 501 repository events, 0 wiki edits in Aug 2024</title></rect><rect x="210" y="6" width="15" height="15" fill="#005a9c"><title>2 emails, 569 repository events, 0 wiki edits in Sep 2024</title></rect><rect x="230" y="6" width="15" height="15" fill="#005a9c"><title>0 emails, 382 repository events, 0 wiki edits in Oct 2024</title></rect><rect x="250" y="6" width="15" height="15" fill="#005a9c"><title>0 emails, 298 repository events, 0 wiki edits in Nov 2024</title></rect><rect x="270" y="6" width="15" height="15" fill="#005a9c"><title>0 emails, 305 repository events, 0 wiki edits in Dec 2024</title></rect></g>
<g transform="translate(0 200)">
  <title>Activity in 2025</title>
  <text x="2" y="20">2025</text><rect x="50" y="6" width="15" height="15" fill="#005a9c"><title>0 emails, 428 repository events, 0 wiki edits in Jan 2025</title></rect><rect x="70" y="6" width="15" height="15" fill="#005a9c"><title>8 emails, 385 repository events, 0 wiki edits in Feb 2025</title></rect><rect x="90" y="6" width="15" height="15" fill="#005a9c"><title>0 emails, 450 repository events, 0 wiki edits in Mar 2025</title></rect><rect x="110" y="6" width="15" height="15" fill="#005a9c"><title>0 emails, 360 repository events, 0 wiki edits in Apr 2025</title></rect><rect x="130" y="6" width="15" height="15" fill="#005a9c"><title>0 emails, 517 repository events, 0 wiki edits in May 2025</title></rect><rect x="150" y="6" width="15" height="15" fill="#005a9c"><title>0 emails, 278 repository events, 0 wiki edits in Jun 2025</title></rect><rect x="170" y="6" width="15" height="15" fill="#005a9c"><title>1 emails, 435 repository events, 0 wiki edits in Jul 2025</title></rect><rect x="190" y="6" width="15" height="15" fill="#005a9c"><title>1 emails, 261 repository events, 0 wiki edits in Aug 2025</title></rect><rect x="210" y="6" width="15" height="15" fill="#005a9c"><title>0 emails, 457 repository events, 0 wiki edits in Sep 2025</title></rect><rect x="230" y="6" width="15" height="15" fill="#005a9c"><title>1 emails, 398 repository events, 0 wiki edits in Oct 2025</title></rect><rect x="250" y="6" width="15" height="15" fill="#005a9c"><title>2 emails, 489 repository events, 0 wiki edits in Nov 2025</title></rect><rect x="270" y="6" width="15" height="15" fill="#005a9c"><title>22 emails, 256 repository events, 0 wiki edits in Dec 2025</title></rect></g>
<g transform="translate(0 220)">
  <title>Activity in 2026</title>
  <text x="2" y="20">2026</text><rect x="50" y="6" width="15" height="15" fill="#005a9c"><title>0 emails, 337 repository events, 0 wiki edits in Jan 2026</title></rect><rect x="70" y="6" width="15" height="15" fill="#005a9c"><title>0 emails, 330 repository events, 0 wiki edits in Feb 2026</title></rect></g><text style="font-size: 10px; text-align: center" x="53" y="250">J</text><text style="font-size: 10px; text-align: center" x="73" y="250">F</text><text style="font-size: 10px; text-align: center" x="93" y="250">M</text><text style="font-size: 10px; text-align: center" x="113" y="250">A</text><text style="font-size: 10px; text-align: center" x="133" y="250">M</text><text style="font-size: 10px; text-align: center" x="153" y="250">J</text><text style="font-size: 10px; text-align: center" x="173" y="250">J</text><text style="font-size: 10px; text-align: center" x="193" y="250">A</text><text style="font-size: 10px; text-align: center" x="213" y="250">S</text><text style="font-size: 10px; text-align: center" x="233" y="250">O</text><text style="font-size: 10px; text-align: center" x="253" y="250">N</text><text style="font-size: 10px; text-align: center" x="273" y="250">D</text><text style="font-size: 10px;" x="155" y="269">Less</text><rect fill="#b9bdc6" width="10" height="10" x="180" y="260"><title>No activity in the period</title></rect><rect fill="#919fba" width="10" height="10" x="195" y="260"><title>Low activity in the period</title></rect><rect fill="#6882ae" width="10" height="10" x="210" y="260"><title>Medium activity in the period</title></rect><rect fill="#005a9c" width="10" height="10" x="225" y="260"><title>High activity in period</title></rect><text x="240" y="269" style="font-size: 10px;">More</text></svg>