<svg xmlns="http://www.w3.org/2000/svg" width="360" height="200">
  <title>Activity of Web%20Platform%20Incubator%20Community%20Group</title>

<g transform="translate(0 0)">
  <title>Activity in 2015</title>
  <text x="2" y="20">2015</text><rect x="170" y="6" width="15" height="15" fill="#005a9c"><title>256 emails, 159 repository events, 0 wiki edits in Jul 2015</title></rect><rect x="190" y="6" width="15" height="15" fill="#005a9c"><title>331 emails, 59 repository events, 0 wiki edits in Aug 2015</title></rect><rect x="210" y="6" width="15" height="15" fill="#5174a8"><title>73 emails, 59 repository events, 0 wiki edits in Sep 2015</title></rect><rect x="230" y="6" width="15" height="15" fill="#005a9c"><title>165 emails, 84 repository events, 0 wiki edits in Oct 2015</title></rect><rect x="250" y="6" width="15" height="15" fill="#3667a2"><title>110 emails, 61 repository events, 0 wiki edits in Nov 2015</title></rect><rect x="270" y="6" width="15" height="15" fill="#3667a2"><title>118 emails, 41 repository events, 0 wiki edits in Dec 2015</title></rect></g>
<g transform="translate(0 20)">
  <title>Activity in 2016</title>
  <text x="2" y="20">2016</text><rect x="50" y="6" width="15" height="15" fill="#6882ae"><title>90 emails, 17 repository events, 0 wiki edits in Jan 2016</title></rect><rect x="70" y="6" width="15" height="15" fill="#5174a8"><title>61 emails, 75 repository events, 0 wiki edits in Feb 2016</title></rect><rect x="90" y="6" width="15" height="15" fill="#005a9c"><title>113 emails, 87 repository events, 0 wiki edits in Mar 2016</title></rect><rect x="110" y="6" width="15" height="15" fill="#3667a2"><title>112 emails, 48 repository events, 0 wiki edits in Apr 2016</title></rect><rect x="130" y="6" width="15" height="15" fill="#005a9c"><title>131 emails, 75 repository events, 0 wiki edits in May 2016</title></rect><rect x="150" y="6" width="15" height="15" fill="#3667a2"><title>131 emails, 40 repository events, 0 wiki edits in Jun 2016</title></rect><rect x="170" y="6" width="15" height="15" fill="#005a9c"><title>133 emails, 133 repository events, 0 wiki edits in Jul 2016</title></rect><rect x="190" y="6" width="15" height="15" fill="#005a9c"><title>143 emails, 228 repository events, 0 wiki edits in Aug 2016</title></rect><rect x="210" y="6" width="15" height="15" fill="#005a9c"><title>156 emails, 130 repository events, 0 wiki edits in Sep 2016</title></rect><rect x="230" y="6" width="15" height="15" fill="#005a9c"><title>116 emails, 115 repository events, 0 wiki edits in Oct 2016</title></rect><rect x="250" y="6" width="15" height="15" fill="#005a9c"><title>226 emails, 48 repository events, 0 wiki edits in Nov 2016</title></rect><rect x="270" y="6" width="15" height="15" fill="#005a9c"><title>151 emails, 44 repository events, 0 wiki edits in Dec 2016</title></rect></g>
<g transform="translate(0 40)">
  <title>Activity in 2017</title>
  <text x="2" y="20">2017</text><rect x="50" y="6" width="15" height="15" fill="#005a9c"><title>176 emails, 56 repository events, 0 wiki edits in Jan 2017</title></rect><rect x="70" y="6" width="15" height="15" fill="#005a9c"><title>138 emails, 60 repository events, 0 wiki edits in Feb 2017</title></rect><rect x="90" y="6" width="15" height="15" fill="#005a9c"><title>135 emails, 241 repository events, 0 wiki edits in Mar 2017</title></rect><rect x="110" y="6" width="15" height="15" fill="#005a9c"><title>67 emails, 207 repository events, 0 wiki edits in Apr 2017</title></rect><rect x="130" y="6" width="15" height="15" fill="#3667a2"><title>63 emails, 100 repository events, 0 wiki edits in May 2017</title></rect><rect x="150" y="6" width="15" height="15" fill="#005a9c"><title>100 emails, 120 repository events, 0 wiki edits in Jun 2017</title></rect><rect x="170" y="6" width="15" height="15" fill="#005a9c"><title>75 emails, 109 repository events, 0 wiki edits in Jul 2017</title></rect><rect x="190" y="6" width="15" height="15" fill="#005a9c"><title>98 emails, 126 repository events, 0 wiki edits in Aug 2017</title></rect><rect x="210" y="6" width="15" height="15" fill="#005a9c"><title>71 emails, 143 repository events, 0 wiki edits in Sep 2017</title></rect><rect x="230" y="6" width="15" height="15" fill="#005a9c"><title>59 emails, 185 repository events, 0 wiki edits in Oct 2017</title></rect><rect x="250" y="6" width="15" height="15" fill="#005a9c"><title>85 emails, 188 repository events, 0 wiki edits in Nov 2017</title></rect><rect x="270" y="6" width="15" height="15" fill="#6882ae"><title>48 emails, 77 repository events, 0 wiki edits in Dec 2017</title></rect></g>
<g transform="translate(0 60)">
  <title>Activity in 2018</title>
  <text x="2" y="20">2018</text><rect x="50" y="6" width="15" height="15" fill="#005a9c"><title>84 emails, 135 repository events, 0 wiki edits in Jan 2018</title></rect><rect x="70" y="6" width="15" height="15" fill="#005a9c"><title>98 emails, 177 repository events, 0 wiki edits in Feb 2018</title></rect><rect x="90" y="6" width="15" height="15" fill="#005a9c"><title>79 emails, 195 repository events, 0 wiki edits in Mar 2018</title></rect><rect x="110" y="6" width="15" height="15" fill="#005a9c"><title>72 emails, 199 repository events, 0 wiki edits in Apr 2018</title></rect><rect x="130" y="6" width="15" height="15" fill="#005a9c"><title>186 emails, 279 repository events, 0 wiki edits in May 2018</title></rect><rect x="150" y="6" width="15" height="15" fill="#005a9c"><title>142 emails, 263 repository events, 0 wiki edits in Jun 2018</title></rect><rect x="170" y="6" width="15" height="15" fill="#005a9c"><title>42 emails, 244 repository events, 0 wiki edits in Jul 2018</title></rect><rect x="190" y="6" width="15" height="15" fill="#005a9c"><title>72 emails, 236 repository events, 0 wiki edits in Aug 2018</title></rect><rect x="210" y="6" width="15" height="15" fill="#005a9c"><title>102 emails, 105 repository events, 0 wiki edits in Sep 2018</title></rect><rect x="230" y="6" width="15" height="15" fill="#005a9c"><title>47 emails, 228 repository events, 0 wiki edits in Oct 2018</title></rect><rect x="250" y="6" width="15" height="15" fill="#005a9c"><title>107 emails, 190 repository events, 0 wiki edits in Nov 2018</title></rect><rect x="270" y="6" width="15" height="15" fill="#005a9c"><title>41 emails, 152 repository events, 0 wiki edits in Dec 2018</title></rect></g>
<g transform="translate(0 80)">
  <title>Activity in 2019</title>
  <text x="2" y="20">2019</text><rect x="50" y="6" width="15" height="15" fill="#005a9c"><title>31 emails, 158 repository events, 0 wiki edits in Jan 2019</title></rect><rect x="70" y="6" width="15" height="15" fill="#005a9c"><title>62 emails, 152 repository events, 0 wiki edits in Feb 2019</title></rect><rect x="90" y="6" width="15" height="15" fill="#005a9c"><title>88 emails, 154 repository events, 0 wiki edits in Mar 2019</title></rect><rect x="110" y="6" width="15" height="15" fill="#005a9c"><title>142 emails, 276 repository events, 0 wiki edits in Apr 2019</title></rect><rect x="130" y="6" width="15" height="15" fill="#005a9c"><title>70 emails, 250 repository events, 0 wiki edits in May 2019</title></rect><rect x="150" y="6" width="15" height="15" fill="#005a9c"><title>130 emails, 226 repository events, 0 wiki edits in Jun 2019</title></rect><rect x="170" y="6" width="15" height="15" fill="#005a9c"><title>115 emails, 233 repository events, 0 wiki edits in Jul 2019</title></rect><rect x="190" y="6" width="15" height="15" fill="#005a9c"><title>158 emails, 265 repository events, 0 wiki edits in Aug 2019</title></rect><rect x="210" y="6" width="15" height="15" fill="#005a9c"><title>127 emails, 233 repository events, 0 wiki edits in Sep 2019</title></rect><rect x="230" y="6" width="15" height="15" fill="#005a9c"><title>114 emails, 204 repository events, 0 wiki edits in Oct 2019</title></rect><rect x="250" y="6" width="15" height="15" fill="#005a9c"><title>75 emails, 287 repository events, 0 wiki edits in Nov 2019</title></rect><rect x="270" y="6" width="15" height="15" fill="#005a9c"><title>44 emails, 283 repository events, 0 wiki edits in Dec 2019</title></rect></g>
<g transform="translate(0 100)">
  <title>Activity in 2020</title>
  <text x="2" y="20">2020</text><rect x="50" y="6" width="15" height="15" fill="#005a9c"><title>51 emails, 264 repository events, 0 wiki edits in Jan 2020</title></rect><rect x="70" y="6" width="15" height="15" fill="#005a9c"><title>79 emails, 252 repository events, 0 wiki edits in Feb 2020</title></rect><rect x="90" y="6" width="15" height="15" fill="#005a9c"><title>98 emails, 389 repository events, 0 wiki edits in Mar 2020</title></rect><rect x="110" y="6" width="15" height="15" fill="#005a9c"><title>69 emails, 314 repository events, 0 wiki edits in Apr 2020</title></rect><rect x="130" y="6" width="15" height="15" fill="#005a9c"><title>72 emails, 396 repository events, 0 wiki edits in May 2020</title></rect><rect x="150" y="6" width="15" height="15" fill="#005a9c"><title>84 emails, 344 repository events, 0 wiki edits in Jun 2020</title></rect><rect x="170" y="6" width="15" height="15" fill="#005a9c"><title>106 emails, 305 repository events, 0 wiki edits in Jul 2020</title></rect><rect x="190" y="6" width="15" height="15" fill="#005a9c"><title>75 emails, 309 repository events, 0 wiki edits in Aug 2020</title></rect><rect x="210" y="6" width="15" height="15" fill="#005a9c"><title>145 emails, 381 repository events, 0 wiki edits in Sep 2020</title></rect><rect x="230" y="6" width="15" height="15" fill="#005a9c"><title>115 emails, 254 repository events, 0 wiki edits in Oct 2020</title></rect><rect x="250" y="6" width="15" height="15" fill="#005a9c"><title>25 emails, 193 repository events, 0 wiki edits in Nov 2020</title></rect><rect x="270" y="6" width="15" height="15" fill="#005a9c"><title>30 emails, 153 repository events, 0 wiki edits in Dec 2020</title></rect></g>
<g transform="translate(0 120)">
  <title>Activity in 2021</title>
  <text x="2" y="20">2021</text><rect x="50" y="6" width="15" height="15" fill="#005a9c"><title>48 emails, 288 repository events, 0 wiki edits in Jan 2021</title></rect><rect x="70" y="6" width="15" height="15" fill="#005a9c"><title>21 emails, 449 repository events, 0 wiki edits in Feb 2021</title></rect><rect x="90" y="6" width="15" height="15" fill="#005a9c"><title>30 emails, 416 repository events, 0 wiki edits in Mar 2021</title></rect><rect x="110" y="6" width="15" height="15" fill="#005a9c"><title>27 emails, 363 repository events, 0 wiki edits in Apr 2021</title></rect><rect x="130" y="6" width="15" height="15" fill="#005a9c"><title>52 emails, 370 repository events, 0 wiki edits in May 2021</title></rect><rect x="150" y="6" width="15" height="15" fill="#005a9c"><title>53 emails, 188 repository events, 0 wiki edits in Jun 2021</title></rect><rect x="170" y="6" width="15" height="15" fill="#005a9c"><title>23 emails, 247 repository events, 0 wiki edits in Jul 2021</title></rect><rect x="190" y="6" width="15" height="15" fill="#005a9c"><title>31 emails, 412 repository events, 0 wiki edits in Aug 2021</title></rect><rect x="210" y="6" width="15" height="15" fill="#005a9c"><title>47 emails, 300 repository events, 0 wiki edits in Sep 2021</title></rect><rect x="230" y="6" width="15" height="15" fill="#005a9c"><title>51 emails, 178 repository events, 0 wiki edits in Oct 2021</title></rect><rect x="250" y="6" width="15" height="15" fill="#005a9c"><title>46 emails, 214 repository events, 0 wiki edits in Nov 2021</title></rect><rect x="270" y="6" width="15" height="15" fill="#005a9c"><title>32 emails, 219 repository events, 0 wiki edits in Dec 2021</title></rect></g>
<g transform="translate(0 140)">
  <title>Activity in 2022</title>
  <text x="2" y="20">2022</text><rect x="50" y="6" width="15" height="15" fill="#005a9c"><title>24 emails, 276 repository events, 0 wiki edits in Jan 2022</title></rect><rect x="70" y="6" width="15" height="15" fill="#005a9c"><title>25 emails, 312 repository events, 0 wiki edits in Feb 2022</title></rect><rect x="90" y="6" width="15" height="15" fill="#005a9c"><title>25 emails, 290 repository events, 0 wiki edits in Mar 2022</title></rect><rect x="110" y="6" width="15" height="15" fill="#005a9c"><title>16 emails, 248 repository events, 0 wiki edits in Apr 2022</title></rect><rect x="130" y="6" width="15" height="15" fill="#005a9c"><title>72 emails, 407 repository events, 0 wiki edits in May 2022</title></rect><rect x="150" y="6" width="15" height="15" fill="#005a9c"><title>31 emails, 362 repository events, 0 wiki edits in Jun 2022</title></rect><rect x="170" y="6" width="15" height="15" fill="#005a9c"><title>21 emails, 213 repository events, 0 wiki edits in Jul 2022</title></rect><rect x="190" y="6" width="15" height="15" fill="#005a9c"><title>29 emails, 274 repository events, 0 wiki edits in Aug 2022</title></rect><rect x="210" y="6" width="15" height="15" fill="#005a9c"><title>7 emails, 287 repository events, 0 wiki edits in Sep 2022</title></rect><rect x="230" y="6" width="15" height="15" fill="#005a9c"><title>25 emails, 298 repository events, 0 wiki edits in Oct 2022</title></rect><rect x="250" y="6" width="15" height="15" fill="#005a9c"><title>16 emails, 421 repository events, 0 wiki edits in Nov 2022</title></rect><rect x="270" y="6" width="15" height="15" fill="#005a9c"><title>82 emails, 252 repository events, 0 wiki edits in Dec 2022</title></rect></g>
<g transform="translate(0 160)">
  <title>Activity in 2023</title>
  <text x="2" y="20">2023</text><rect x="50" y="6" width="15" height="15" fill="#005a9c"><title>29 emails, 272 repository events, 0 wiki edits in Jan 2023</title></rect><rect x="70" y="6" width="15" height="15" fill="#005a9c"><title>24 emails, 249 repository events, 0 wiki edits in Feb 2023</title></rect></g><text style="font-size: 10px; text-align: center" x="53" y="190">J</text><text style="font-size: 10px; text-align: center" x="73" y="190">F</text><text style="font-size: 10px; text-align: center" x="93" y="190">M</text><text style="font-size: 10px; text-align: center" x="113" y="190">A</text><text style="font-size: 10px; text-align: center" x="133" y="190">M</text><text style="font-size: 10px; text-align: center" x="153" y="190">J</text><text style="font-size: 10px; text-align: center" x="173" y="190">J</text><text style="font-size: 10px; text-align: center" x="193" y="190">A</text><text style="font-size: 10px; text-align: center" x="213" y="190">S</text><text style="font-size: 10px; text-align: center" x="233" y="190">O</text><text style="font-size: 10px; text-align: center" x="253" y="190">N</text><text style="font-size: 10px; text-align: center" x="273" y="190">D</text><text style="font-size: 10px;" x="155" y="209">Less</text><rect fill="#b9bdc6" width="10" height="10" x="180" y="200"><title>No activity in the period</title></rect><rect fill="#919fba" width="10" height="10" x="195" y="200"><title>Low activity in the period</title></rect><rect fill="#6882ae" width="10" height="10" x="210" y="200"><title>Medium activity in the period</title></rect><rect fill="#005a9c" width="10" height="10" x="225" y="200"><title>High activity in period</title></rect><text x="240" y="209" style="font-size: 10px;">More</text></svg>