<svg xmlns="http://www.w3.org/2000/svg" width="360" height="120">
  <title>Activity of XQuery%20and%20XSLT%20Extensions%20Community%20Group</title>

<g transform="translate(0 0)">
  <title>Activity in 2020</title>
  <text x="2" y="20">2020</text><rect x="150" y="6" width="15" height="15" fill="#cccccc"><title>0 emails, 0 repository events, 0 wiki edits in Jun 2020</title></rect><rect x="170" y="6" width="15" height="15" fill="#cccccc"><title>0 emails, 0 repository events, 0 wiki edits in Jul 2020</title></rect><rect x="190" y="6" width="15" height="15" fill="#cccccc"><title>0 emails, 0 repository events, 0 wiki edits in Aug 2020</title></rect><rect x="210" y="6" width="15" height="15" fill="#cccccc"><title>0 emails, 0 repository events, 0 wiki edits in Sep 2020</title></rect><rect x="230" y="6" width="15" height="15" fill="#cccccc"><title>0 emails, 0 repository events, 0 wiki edits in Oct 2020</title></rect><rect x="250" y="6" width="15" height="15" fill="#919fba"><title>63 emails, 5 repository events, 0 wiki edits in Nov 2020</title></rect><rect x="270" y="6" width="15" height="15" fill="#005a9c"><title>202 emails, 49 repository events, 0 wiki edits in Dec 2020</title></rect></g>
<g transform="translate(0 20)">
  <title>Activity in 2021</title>
  <text x="2" y="20">2021</text><rect x="50" y="6" width="15" height="15" fill="#919fba"><title>49 emails, 14 repository events, 0 wiki edits in Jan 2021</title></rect><rect x="70" y="6" width="15" height="15" fill="#b9bdc6"><title>0 emails, 8 repository events, 0 wiki edits in Feb 2021</title></rect><rect x="90" y="6" width="15" height="15" fill="#b9bdc6"><title>0 emails, 4 repository events, 0 wiki edits in Mar 2021</title></rect><rect x="110" y="6" width="15" height="15" fill="#b9bdc6"><title>0 emails, 6 repository events, 0 wiki edits in Apr 2021</title></rect><rect x="130" y="6" width="15" height="15" fill="#b9bdc6"><title>0 emails, 7 repository events, 0 wiki edits in May 2021</title></rect><rect x="150" y="6" width="15" height="15" fill="#b9bdc6"><title>0 emails, 2 repository events, 0 wiki edits in Jun 2021</title></rect><rect x="170" y="6" width="15" height="15" fill="#b9bdc6"><title>0 emails, 4 repository events, 0 wiki edits in Jul 2021</title></rect><rect x="190" y="6" width="15" height="15" fill="#b9bdc6"><title>0 emails, 4 repository events, 0 wiki edits in Aug 2021</title></rect><rect x="210" y="6" width="15" height="15" fill="#b9bdc6"><title>0 emails, 3 repository events, 0 wiki edits in Sep 2021</title></rect><rect x="230" y="6" width="15" height="15" fill="#b9bdc6"><title>0 emails, 1 repository events, 0 wiki edits in Oct 2021</title></rect><rect x="250" y="6" width="15" height="15" fill="#b9bdc6"><title>0 emails, 7 repository events, 0 wiki edits in Nov 2021</title></rect><rect x="270" y="6" width="15" height="15" fill="#b9bdc6"><title>0 emails, 6 repository events, 0 wiki edits in Dec 2021</title></rect></g>
<g transform="translate(0 40)">
  <title>Activity in 2022</title>
  <text x="2" y="20">2022</text><rect x="50" y="6" width="15" height="15" fill="#b9bdc6"><title>0 emails, 5 repository events, 0 wiki edits in Jan 2022</title></rect><rect x="70" y="6" width="15" height="15" fill="#b9bdc6"><title>0 emails, 1 repository events, 0 wiki edits in Feb 2022</title></rect><rect x="90" y="6" width="15" height="15" fill="#b9bdc6"><title>0 emails, 1 repository events, 0 wiki edits in Mar 2022</title></rect><rect x="110" y="6" width="15" height="15" fill="#cccccc"><title>0 emails, 0 repository events, 0 wiki edits in Apr 2022</title></rect><rect x="130" y="6" width="15" height="15" fill="#b9bdc6"><title>3 emails, 4 repository events, 0 wiki edits in May 2022</title></rect><rect x="150" y="6" width="15" height="15" fill="#b9bdc6"><title>0 emails, 2 repository events, 0 wiki edits in Jun 2022</title></rect><rect x="170" y="6" width="15" height="15" fill="#b9bdc6"><title>0 emails, 2 repository events, 0 wiki edits in Jul 2022</title></rect><rect x="190" y="6" width="15" height="15" fill="#919fba"><title>12 emails, 45 repository events, 0 wiki edits in Aug 2022</title></rect><rect x="210" y="6" width="15" height="15" fill="#3667a2"><title>112 emails, 63 repository events, 0 wiki edits in Sep 2022</title></rect><rect x="230" y="6" width="15" height="15" fill="#3667a2"><title>53 emails, 104 repository events, 0 wiki edits in Oct 2022</title></rect><rect x="250" y="6" width="15" height="15" fill="#6882ae"><title>34 emails, 86 repository events, 0 wiki edits in Nov 2022</title></rect><rect x="270" y="6" width="15" height="15" fill="#919fba"><title>40 emails, 26 repository events, 0 wiki edits in Dec 2022</title></rect></g>
<g transform="translate(0 60)">
  <title>Activity in 2023</title>
  <text x="2" y="20">2023</text><rect x="50" y="6" width="15" height="15" fill="#7d90b5"><title>25 emails, 53 repository events, 0 wiki edits in Jan 2023</title></rect><rect x="70" y="6" width="15" height="15" fill="#6882ae"><title>29 emails, 79 repository events, 0 wiki edits in Feb 2023</title></rect><rect x="90" y="6" width="15" height="15" fill="#7d90b5"><title>22 emails, 54 repository events, 0 wiki edits in Mar 2023</title></rect><rect x="110" y="6" width="15" height="15" fill="#6882ae"><title>35 emails, 87 repository events, 0 wiki edits in Apr 2023</title></rect><rect x="130" y="6" width="15" height="15" fill="#5174a8"><title>21 emails, 120 repository events, 0 wiki edits in May 2023</title></rect><rect x="150" y="6" width="15" height="15" fill="#6882ae"><title>31 emails, 83 repository events, 0 wiki edits in Jun 2023</title></rect><rect x="170" y="6" width="15" height="15" fill="#6882ae"><title>21 emails, 104 repository events, 0 wiki edits in Jul 2023</title></rect><rect x="190" y="6" width="15" height="15" fill="#a5aec0"><title>5 emails, 31 repository events, 0 wiki edits in Aug 2023</title></rect><rect x="210" y="6" width="15" height="15" fill="#5174a8"><title>41 emails, 108 repository events, 0 wiki edits in Sep 2023</title></rect><rect x="230" y="6" width="15" height="15" fill="#3667a2"><title>31 emails, 125 repository events, 0 wiki edits in Oct 2023</title></rect><rect x="250" y="6" width="15" height="15" fill="#5174a8"><title>48 emails, 86 repository events, 0 wiki edits in Nov 2023</title></rect><rect x="270" y="6" width="15" height="15" fill="#7d90b5"><title>17 emails, 82 repository events, 0 wiki edits in Dec 2023</title></rect></g>
<g transform="translate(0 80)">
  <title>Activity in 2024</title>
  <text x="2" y="20">2024</text><rect x="50" y="6" width="15" height="15" fill="#5174a8"><title>24 emails, 110 repository events, 0 wiki edits in Jan 2024</title></rect><rect x="70" y="6" width="15" height="15" fill="#5174a8"><title>22 emails, 110 repository events, 0 wiki edits in Feb 2024</title></rect><rect x="90" y="6" width="15" height="15" fill="#005a9c"><title>73 emails, 184 repository events, 0 wiki edits in Mar 2024</title></rect><rect x="110" y="6" width="15" height="15" fill="#6882ae"><title>20 emails, 99 repository events, 0 wiki edits in Apr 2024</title></rect><rect x="130" y="6" width="15" height="15" fill="#5174a8"><title>36 emails, 111 repository events, 0 wiki edits in May 2024</title></rect><rect x="150" y="6" width="15" height="15" fill="#6882ae"><title>20 emails, 103 repository events, 0 wiki edits in Jun 2024</title></rect></g><text style="font-size: 10px; text-align: center" x="53" y="110">J</text><text style="font-size: 10px; text-align: center" x="73" y="110">F</text><text style="font-size: 10px; text-align: center" x="93" y="110">M</text><text style="font-size: 10px; text-align: center" x="113" y="110">A</text><text style="font-size: 10px; text-align: center" x="133" y="110">M</text><text style="font-size: 10px; text-align: center" x="153" y="110">J</text><text style="font-size: 10px; text-align: center" x="173" y="110">J</text><text style="font-size: 10px; text-align: center" x="193" y="110">A</text><text style="font-size: 10px; text-align: center" x="213" y="110">S</text><text style="font-size: 10px; text-align: center" x="233" y="110">O</text><text style="font-size: 10px; text-align: center" x="253" y="110">N</text><text style="font-size: 10px; text-align: center" x="273" y="110">D</text><text style="font-size: 10px;" x="155" y="129">Less</text><rect fill="#b9bdc6" width="10" height="10" x="180" y="120"><title>No activity in the period</title></rect><rect fill="#919fba" width="10" height="10" x="195" y="120"><title>Low activity in the period</title></rect><rect fill="#6882ae" width="10" height="10" x="210" y="120"><title>Medium activity in the period</title></rect><rect fill="#005a9c" width="10" height="10" x="225" y="120"><title>High activity in period</title></rect><text x="240" y="129" style="font-size: 10px;">More</text></svg>