<svg xmlns="http://www.w3.org/2000/svg" width="360" height="540">
  <title>Activity of Internationalization%20Interest%20Group</title>

<g transform="translate(0 0)">
  <title>Activity in 1998</title>
  <text x="2" y="20">1998</text><rect x="70" y="6" width="15" height="15" fill="#b9bdc6"><title>21 emails, 0 repository events, 0 wiki edits in Feb 1998</title></rect><rect x="90" y="6" width="15" height="15" fill="#b9bdc6"><title>21 emails, 0 repository events, 0 wiki edits in Mar 1998</title></rect><rect x="110" y="6" width="15" height="15" fill="#b9bdc6"><title>17 emails, 0 repository events, 0 wiki edits in Apr 1998</title></rect><rect x="130" y="6" width="15" height="15" fill="#b9bdc6"><title>17 emails, 0 repository events, 0 wiki edits in May 1998</title></rect><rect x="150" y="6" width="15" height="15" fill="#b9bdc6"><title>17 emails, 0 repository events, 0 wiki edits in Jun 1998</title></rect><rect x="170" y="6" width="15" height="15" fill="#b9bdc6"><title>18 emails, 0 repository events, 0 wiki edits in Jul 1998</title></rect><rect x="190" y="6" width="15" height="15" fill="#b9bdc6"><title>18 emails, 0 repository events, 0 wiki edits in Aug 1998</title></rect><rect x="210" y="6" width="15" height="15" fill="#b9bdc6"><title>18 emails, 0 repository events, 0 wiki edits in Sep 1998</title></rect><rect x="230" y="6" width="15" height="15" fill="#b9bdc6"><title>21.333333333333332 emails, 0 repository events, 0 wiki edits in Oct 1998</title></rect><rect x="250" y="6" width="15" height="15" fill="#b9bdc6"><title>21.333333333333332 emails, 0 repository events, 0 wiki edits in Nov 1998</title></rect><rect x="270" y="6" width="15" height="15" fill="#b9bdc6"><title>21.333333333333332 emails, 0 repository events, 0 wiki edits in Dec 1998</title></rect></g>
<g transform="translate(0 20)">
  <title>Activity in 1999</title>
  <text x="2" y="20">1999</text><rect x="50" y="6" width="15" height="15" fill="#b9bdc6"><title>9.666666666666666 emails, 0 repository events, 0 wiki edits in Jan 1999</title></rect><rect x="70" y="6" width="15" height="15" fill="#b9bdc6"><title>9.666666666666666 emails, 0 repository events, 0 wiki edits in Feb 1999</title></rect><rect x="90" y="6" width="15" height="15" fill="#b9bdc6"><title>9.666666666666666 emails, 0 repository events, 0 wiki edits in Mar 1999</title></rect><rect x="110" y="6" width="15" height="15" fill="#b9bdc6"><title>8.333333333333334 emails, 0 repository events, 0 wiki edits in Apr 1999</title></rect><rect x="130" y="6" width="15" height="15" fill="#b9bdc6"><title>8.333333333333334 emails, 0 repository events, 0 wiki edits in May 1999</title></rect><rect x="150" y="6" width="15" height="15" fill="#b9bdc6"><title>8.333333333333334 emails, 0 repository events, 0 wiki edits in Jun 1999</title></rect><rect x="170" y="6" width="15" height="15" fill="#b9bdc6"><title>11.333333333333334 emails, 0 repository events, 0 wiki edits in Jul 1999</title></rect><rect x="190" y="6" width="15" height="15" fill="#b9bdc6"><title>11.333333333333334 emails, 0 repository events, 0 wiki edits in Aug 1999</title></rect><rect x="210" y="6" width="15" height="15" fill="#b9bdc6"><title>11.333333333333334 emails, 0 repository events, 0 wiki edits in Sep 1999</title></rect><rect x="230" y="6" width="15" height="15" fill="#a5aec0"><title>26.333333333333332 emails, 0 repository events, 0 wiki edits in Oct 1999</title></rect><rect x="250" y="6" width="15" height="15" fill="#a5aec0"><title>26.333333333333332 emails, 0 repository events, 0 wiki edits in Nov 1999</title></rect><rect x="270" y="6" width="15" height="15" fill="#a5aec0"><title>26.333333333333332 emails, 0 repository events, 0 wiki edits in Dec 1999</title></rect></g>
<g transform="translate(0 40)">
  <title>Activity in 2000</title>
  <text x="2" y="20">2000</text><rect x="50" y="6" width="15" height="15" fill="#a5aec0"><title>44 emails, 0 repository events, 0 wiki edits in Jan 2000</title></rect><rect x="70" y="6" width="15" height="15" fill="#a5aec0"><title>44 emails, 0 repository events, 0 wiki edits in Feb 2000</title></rect><rect x="90" y="6" width="15" height="15" fill="#a5aec0"><title>44 emails, 0 repository events, 0 wiki edits in Mar 2000</title></rect><rect x="110" y="6" width="15" height="15" fill="#a5aec0"><title>35.666666666666664 emails, 0 repository events, 0 wiki edits in Apr 2000</title></rect><rect x="130" y="6" width="15" height="15" fill="#a5aec0"><title>35.666666666666664 emails, 0 repository events, 0 wiki edits in May 2000</title></rect><rect x="150" y="6" width="15" height="15" fill="#a5aec0"><title>35.666666666666664 emails, 0 repository events, 0 wiki edits in Jun 2000</title></rect><rect x="170" y="6" width="15" height="15" fill="#b9bdc6"><title>23 emails, 0 repository events, 0 wiki edits in Jul 2000</title></rect><rect x="190" y="6" width="15" height="15" fill="#b9bdc6"><title>23 emails, 0 repository events, 0 wiki edits in Aug 2000</title></rect><rect x="210" y="6" width="15" height="15" fill="#b9bdc6"><title>23 emails, 0 repository events, 0 wiki edits in Sep 2000</title></rect><rect x="230" y="6" width="15" height="15" fill="#b9bdc6"><title>19.333333333333332 emails, 0 repository events, 0 wiki edits in Oct 2000</title></rect><rect x="250" y="6" width="15" height="15" fill="#b9bdc6"><title>19.333333333333332 emails, 0 repository events, 0 wiki edits in Nov 2000</title></rect><rect x="270" y="6" width="15" height="15" fill="#b9bdc6"><title>19.333333333333332 emails, 0 repository events, 0 wiki edits in Dec 2000</title></rect></g>
<g transform="translate(0 60)">
  <title>Activity in 2001</title>
  <text x="2" y="20">2001</text><rect x="50" y="6" width="15" height="15" fill="#b9bdc6"><title>18.333333333333332 emails, 0 repository events, 0 wiki edits in Jan 2001</title></rect><rect x="70" y="6" width="15" height="15" fill="#b9bdc6"><title>18.333333333333332 emails, 0 repository events, 0 wiki edits in Feb 2001</title></rect><rect x="90" y="6" width="15" height="15" fill="#b9bdc6"><title>18.333333333333332 emails, 0 repository events, 0 wiki edits in Mar 2001</title></rect><rect x="110" y="6" width="15" height="15" fill="#a5aec0"><title>36.333333333333336 emails, 0 repository events, 0 wiki edits in Apr 2001</title></rect><rect x="130" y="6" width="15" height="15" fill="#a5aec0"><title>36.333333333333336 emails, 0 repository events, 0 wiki edits in May 2001</title></rect><rect x="150" y="6" width="15" height="15" fill="#a5aec0"><title>36.333333333333336 emails, 0 repository events, 0 wiki edits in Jun 2001</title></rect><rect x="170" y="6" width="15" height="15" fill="#7d90b5"><title>76 emails, 0 repository events, 0 wiki edits in Jul 2001</title></rect><rect x="190" y="6" width="15" height="15" fill="#7d90b5"><title>76 emails, 0 repository events, 0 wiki edits in Aug 2001</title></rect><rect x="210" y="6" width="15" height="15" fill="#7d90b5"><title>76 emails, 0 repository events, 0 wiki edits in Sep 2001</title></rect><rect x="230" y="6" width="15" height="15" fill="#7d90b5"><title>95 emails, 0 repository events, 0 wiki edits in Oct 2001</title></rect><rect x="250" y="6" width="15" height="15" fill="#7d90b5"><title>95 emails, 0 repository events, 0 wiki edits in Nov 2001</title></rect><rect x="270" y="6" width="15" height="15" fill="#7d90b5"><title>95 emails, 0 repository events, 0 wiki edits in Dec 2001</title></rect></g>
<g transform="translate(0 80)">
  <title>Activity in 2002</title>
  <text x="2" y="20">2002</text><rect x="50" y="6" width="15" height="15" fill="#a5aec0"><title>35 emails, 0 repository events, 0 wiki edits in Jan 2002</title></rect><rect x="70" y="6" width="15" height="15" fill="#a5aec0"><title>35 emails, 0 repository events, 0 wiki edits in Feb 2002</title></rect><rect x="90" y="6" width="15" height="15" fill="#a5aec0"><title>35 emails, 0 repository events, 0 wiki edits in Mar 2002</title></rect><rect x="110" y="6" width="15" height="15" fill="#a5aec0"><title>32.333333333333336 emails, 0 repository events, 0 wiki edits in Apr 2002</title></rect><rect x="130" y="6" width="15" height="15" fill="#a5aec0"><title>32.333333333333336 emails, 0 repository events, 0 wiki edits in May 2002</title></rect><rect x="150" y="6" width="15" height="15" fill="#a5aec0"><title>32.333333333333336 emails, 0 repository events, 0 wiki edits in Jun 2002</title></rect><rect x="170" y="6" width="15" height="15" fill="#a5aec0"><title>35 emails, 0 repository events, 0 wiki edits in Jul 2002</title></rect><rect x="190" y="6" width="15" height="15" fill="#a5aec0"><title>35 emails, 0 repository events, 0 wiki edits in Aug 2002</title></rect><rect x="210" y="6" width="15" height="15" fill="#a5aec0"><title>35 emails, 0 repository events, 0 wiki edits in Sep 2002</title></rect><rect x="230" y="6" width="15" height="15" fill="#a5aec0"><title>49.666666666666664 emails, 0 repository events, 0 wiki edits in Oct 2002</title></rect><rect x="250" y="6" width="15" height="15" fill="#a5aec0"><title>49.666666666666664 emails, 0 repository events, 0 wiki edits in Nov 2002</title></rect><rect x="270" y="6" width="15" height="15" fill="#a5aec0"><title>49.666666666666664 emails, 0 repository events, 0 wiki edits in Dec 2002</title></rect></g>
<g transform="translate(0 100)">
  <title>Activity in 2003</title>
  <text x="2" y="20">2003</text><rect x="50" y="6" width="15" height="15" fill="#b9bdc6"><title>18 emails, 0 repository events, 0 wiki edits in Jan 2003</title></rect><rect x="70" y="6" width="15" height="15" fill="#b9bdc6"><title>18 emails, 0 repository events, 0 wiki edits in Feb 2003</title></rect><rect x="90" y="6" width="15" height="15" fill="#b9bdc6"><title>18 emails, 0 repository events, 0 wiki edits in Mar 2003</title></rect><rect x="110" y="6" width="15" height="15" fill="#a5aec0"><title>28.333333333333332 emails, 0 repository events, 0 wiki edits in Apr 2003</title></rect><rect x="130" y="6" width="15" height="15" fill="#a5aec0"><title>28.333333333333332 emails, 0 repository events, 0 wiki edits in May 2003</title></rect><rect x="150" y="6" width="15" height="15" fill="#a5aec0"><title>28.333333333333332 emails, 0 repository events, 0 wiki edits in Jun 2003</title></rect><rect x="170" y="6" width="15" height="15" fill="#7d90b5"><title>76 emails, 0 repository events, 0 wiki edits in Jul 2003</title></rect><rect x="190" y="6" width="15" height="15" fill="#7d90b5"><title>76 emails, 0 repository events, 0 wiki edits in Aug 2003</title></rect><rect x="210" y="6" width="15" height="15" fill="#7d90b5"><title>76 emails, 0 repository events, 0 wiki edits in Sep 2003</title></rect><rect x="230" y="6" width="15" height="15" fill="#919fba"><title>59 emails, 0 repository events, 0 wiki edits in Oct 2003</title></rect><rect x="250" y="6" width="15" height="15" fill="#919fba"><title>59 emails, 0 repository events, 0 wiki edits in Nov 2003</title></rect><rect x="270" y="6" width="15" height="15" fill="#919fba"><title>59 emails, 0 repository events, 0 wiki edits in Dec 2003</title></rect></g>
<g transform="translate(0 120)">
  <title>Activity in 2004</title>
  <text x="2" y="20">2004</text><rect x="50" y="6" width="15" height="15" fill="#b9bdc6"><title>20.666666666666668 emails, 0 repository events, 0 wiki edits in Jan 2004</title></rect><rect x="70" y="6" width="15" height="15" fill="#b9bdc6"><title>20.666666666666668 emails, 0 repository events, 0 wiki edits in Feb 2004</title></rect><rect x="90" y="6" width="15" height="15" fill="#b9bdc6"><title>20.666666666666668 emails, 0 repository events, 0 wiki edits in Mar 2004</title></rect><rect x="110" y="6" width="15" height="15" fill="#a5aec0"><title>31.333333333333332 emails, 0 repository events, 0 wiki edits in Apr 2004</title></rect><rect x="130" y="6" width="15" height="15" fill="#a5aec0"><title>31.333333333333332 emails, 0 repository events, 0 wiki edits in May 2004</title></rect><rect x="150" y="6" width="15" height="15" fill="#a5aec0"><title>31.333333333333332 emails, 0 repository events, 0 wiki edits in Jun 2004</title></rect><rect x="170" y="6" width="15" height="15" fill="#a5aec0"><title>33.666666666666664 emails, 0 repository events, 0 wiki edits in Jul 2004</title></rect><rect x="190" y="6" width="15" height="15" fill="#a5aec0"><title>33.666666666666664 emails, 0 repository events, 0 wiki edits in Aug 2004</title></rect><rect x="210" y="6" width="15" height="15" fill="#a5aec0"><title>33.666666666666664 emails, 0 repository events, 0 wiki edits in Sep 2004</title></rect><rect x="230" y="6" width="15" height="15" fill="#7d90b5"><title>86.33333333333333 emails, 0 repository events, 0 wiki edits in Oct 2004</title></rect><rect x="250" y="6" width="15" height="15" fill="#7d90b5"><title>86.33333333333333 emails, 0 repository events, 0 wiki edits in Nov 2004</title></rect><rect x="270" y="6" width="15" height="15" fill="#7d90b5"><title>86.33333333333333 emails, 0 repository events, 0 wiki edits in Dec 2004</title></rect></g>
<g transform="translate(0 140)">
  <title>Activity in 2005</title>
  <text x="2" y="20">2005</text><rect x="50" y="6" width="15" height="15" fill="#919fba"><title>63 emails, 0 repository events, 0 wiki edits in Jan 2005</title></rect><rect x="70" y="6" width="15" height="15" fill="#919fba"><title>63 emails, 0 repository events, 0 wiki edits in Feb 2005</title></rect><rect x="90" y="6" width="15" height="15" fill="#919fba"><title>63 emails, 0 repository events, 0 wiki edits in Mar 2005</title></rect><rect x="110" y="6" width="15" height="15" fill="#b9bdc6"><title>18.666666666666668 emails, 0 repository events, 0 wiki edits in Apr 2005</title></rect><rect x="130" y="6" width="15" height="15" fill="#b9bdc6"><title>18.666666666666668 emails, 0 repository events, 0 wiki edits in May 2005</title></rect><rect x="150" y="6" width="15" height="15" fill="#b9bdc6"><title>18.666666666666668 emails, 0 repository events, 0 wiki edits in Jun 2005</title></rect><rect x="170" y="6" width="15" height="15" fill="#919fba"><title>64 emails, 0 repository events, 0 wiki edits in Jul 2005</title></rect><rect x="190" y="6" width="15" height="15" fill="#919fba"><title>64 emails, 0 repository events, 0 wiki edits in Aug 2005</title></rect><rect x="210" y="6" width="15" height="15" fill="#919fba"><title>64 emails, 0 repository events, 0 wiki edits in Sep 2005</title></rect><rect x="230" y="6" width="15" height="15" fill="#b9bdc6"><title>22.333333333333332 emails, 0 repository events, 0 wiki edits in Oct 2005</title></rect><rect x="250" y="6" width="15" height="15" fill="#b9bdc6"><title>22.333333333333332 emails, 0 repository events, 0 wiki edits in Nov 2005</title></rect><rect x="270" y="6" width="15" height="15" fill="#b9bdc6"><title>22.333333333333332 emails, 0 repository events, 0 wiki edits in Dec 2005</title></rect></g>
<g transform="translate(0 160)">
  <title>Activity in 2006</title>
  <text x="2" y="20">2006</text><rect x="50" y="6" width="15" height="15" fill="#a5aec0"><title>28.666666666666668 emails, 0 repository events, 0 wiki edits in Jan 2006</title></rect><rect x="70" y="6" width="15" height="15" fill="#a5aec0"><title>28.666666666666668 emails, 0 repository events, 0 wiki edits in Feb 2006</title></rect><rect x="90" y="6" width="15" height="15" fill="#a5aec0"><title>28.666666666666668 emails, 0 repository events, 0 wiki edits in Mar 2006</title></rect><rect x="110" y="6" width="15" height="15" fill="#a5aec0"><title>39.666666666666664 emails, 0 repository events, 0 wiki edits in Apr 2006</title></rect><rect x="130" y="6" width="15" height="15" fill="#a5aec0"><title>39.666666666666664 emails, 0 repository events, 0 wiki edits in May 2006</title></rect><rect x="150" y="6" width="15" height="15" fill="#a5aec0"><title>39.666666666666664 emails, 0 repository events, 0 wiki edits in Jun 2006</title></rect><rect x="170" y="6" width="15" height="15" fill="#a5aec0"><title>34.333333333333336 emails, 0 repository events, 0 wiki edits in Jul 2006</title></rect><rect x="190" y="6" width="15" height="15" fill="#a5aec0"><title>34.333333333333336 emails, 0 repository events, 0 wiki edits in Aug 2006</title></rect><rect x="210" y="6" width="15" height="15" fill="#a5aec0"><title>34.333333333333336 emails, 0 repository events, 0 wiki edits in Sep 2006</title></rect><rect x="230" y="6" width="15" height="15" fill="#919fba"><title>50.666666666666664 emails, 0 repository events, 0 wiki edits in Oct 2006</title></rect><rect x="250" y="6" width="15" height="15" fill="#919fba"><title>50.666666666666664 emails, 0 repository events, 0 wiki edits in Nov 2006</title></rect><rect x="270" y="6" width="15" height="15" fill="#919fba"><title>50.666666666666664 emails, 0 repository events, 0 wiki edits in Dec 2006</title></rect></g>
<g transform="translate(0 180)">
  <title>Activity in 2007</title>
  <text x="2" y="20">2007</text><rect x="50" y="6" width="15" height="15" fill="#7d90b5"><title>75.66666666666667 emails, 0 repository events, 0 wiki edits in Jan 2007</title></rect><rect x="70" y="6" width="15" height="15" fill="#7d90b5"><title>75.66666666666667 emails, 0 repository events, 0 wiki edits in Feb 2007</title></rect><rect x="90" y="6" width="15" height="15" fill="#7d90b5"><title>75.66666666666667 emails, 0 repository events, 0 wiki edits in Mar 2007</title></rect><rect x="110" y="6" width="15" height="15" fill="#919fba"><title>72 emails, 0 repository events, 0 wiki edits in Apr 2007</title></rect><rect x="130" y="6" width="15" height="15" fill="#919fba"><title>72 emails, 0 repository events, 0 wiki edits in May 2007</title></rect><rect x="150" y="6" width="15" height="15" fill="#919fba"><title>72 emails, 0 repository events, 0 wiki edits in Jun 2007</title></rect><rect x="170" y="6" width="15" height="15" fill="#a5aec0"><title>30.333333333333332 emails, 0 repository events, 0 wiki edits in Jul 2007</title></rect><rect x="190" y="6" width="15" height="15" fill="#a5aec0"><title>30.333333333333332 emails, 0 repository events, 0 wiki edits in Aug 2007</title></rect><rect x="210" y="6" width="15" height="15" fill="#a5aec0"><title>30.333333333333332 emails, 0 repository events, 0 wiki edits in Sep 2007</title></rect><rect x="230" y="6" width="15" height="15" fill="#a5aec0"><title>39.333333333333336 emails, 0 repository events, 0 wiki edits in Oct 2007</title></rect><rect x="250" y="6" width="15" height="15" fill="#a5aec0"><title>39.333333333333336 emails, 0 repository events, 0 wiki edits in Nov 2007</title></rect><rect x="270" y="6" width="15" height="15" fill="#a5aec0"><title>39.333333333333336 emails, 0 repository events, 0 wiki edits in Dec 2007</title></rect></g>
<g transform="translate(0 200)">
  <title>Activity in 2008</title>
  <text x="2" y="20">2008</text><rect x="50" y="6" width="15" height="15" fill="#a5aec0"><title>32.666666666666664 emails, 0 repository events, 0 wiki edits in Jan 2008</title></rect><rect x="70" y="6" width="15" height="15" fill="#a5aec0"><title>32.666666666666664 emails, 0 repository events, 0 wiki edits in Feb 2008</title></rect><rect x="90" y="6" width="15" height="15" fill="#a5aec0"><title>32.666666666666664 emails, 0 repository events, 0 wiki edits in Mar 2008</title></rect><rect x="110" y="6" width="15" height="15" fill="#919fba"><title>66.66666666666667 emails, 0 repository events, 0 wiki edits in Apr 2008</title></rect><rect x="130" y="6" width="15" height="15" fill="#919fba"><title>66.66666666666667 emails, 0 repository events, 0 wiki edits in May 2008</title></rect><rect x="150" y="6" width="15" height="15" fill="#919fba"><title>66.66666666666667 emails, 0 repository events, 0 wiki edits in Jun 2008</title></rect><rect x="170" y="6" width="15" height="15" fill="#919fba"><title>54 emails, 0 repository events, 0 wiki edits in Jul 2008</title></rect><rect x="190" y="6" width="15" height="15" fill="#919fba"><title>54 emails, 0 repository events, 0 wiki edits in Aug 2008</title></rect><rect x="210" y="6" width="15" height="15" fill="#919fba"><title>54 emails, 0 repository events, 0 wiki edits in Sep 2008</title></rect><rect x="230" y="6" width="15" height="15" fill="#b9bdc6"><title>22 emails, 0 repository events, 0 wiki edits in Oct 2008</title></rect><rect x="250" y="6" width="15" height="15" fill="#b9bdc6"><title>22 emails, 0 repository events, 0 wiki edits in Nov 2008</title></rect><rect x="270" y="6" width="15" height="15" fill="#b9bdc6"><title>22 emails, 0 repository events, 0 wiki edits in Dec 2008</title></rect></g>
<g transform="translate(0 220)">
  <title>Activity in 2009</title>
  <text x="2" y="20">2009</text><rect x="50" y="6" width="15" height="15" fill="#a5aec0"><title>30.666666666666668 emails, 0 repository events, 0 wiki edits in Jan 2009</title></rect><rect x="70" y="6" width="15" height="15" fill="#a5aec0"><title>30.666666666666668 emails, 0 repository events, 0 wiki edits in Feb 2009</title></rect><rect x="90" y="6" width="15" height="15" fill="#a5aec0"><title>30.666666666666668 emails, 0 repository events, 0 wiki edits in Mar 2009</title></rect><rect x="110" y="6" width="15" height="15" fill="#a5aec0"><title>36.666666666666664 emails, 0 repository events, 0 wiki edits in Apr 2009</title></rect><rect x="130" y="6" width="15" height="15" fill="#a5aec0"><title>36.666666666666664 emails, 0 repository events, 0 wiki edits in May 2009</title></rect><rect x="150" y="6" width="15" height="15" fill="#a5aec0"><title>36.666666666666664 emails, 0 repository events, 0 wiki edits in Jun 2009</title></rect><rect x="170" y="6" width="15" height="15" fill="#b9bdc6"><title>16.333333333333332 emails, 0 repository events, 0 wiki edits in Jul 2009</title></rect><rect x="190" y="6" width="15" height="15" fill="#b9bdc6"><title>16.333333333333332 emails, 0 repository events, 0 wiki edits in Aug 2009</title></rect><rect x="210" y="6" width="15" height="15" fill="#b9bdc6"><title>16.333333333333332 emails, 0 repository events, 0 wiki edits in Sep 2009</title></rect><rect x="230" y="6" width="15" height="15" fill="#b9bdc6"><title>24.333333333333332 emails, 0 repository events, 0 wiki edits in Oct 2009</title></rect><rect x="250" y="6" width="15" height="15" fill="#b9bdc6"><title>24.333333333333332 emails, 0 repository events, 0 wiki edits in Nov 2009</title></rect><rect x="270" y="6" width="15" height="15" fill="#b9bdc6"><title>24.333333333333332 emails, 0 repository events, 0 wiki edits in Dec 2009</title></rect></g>
<g transform="translate(0 240)">
  <title>Activity in 2010</title>
  <text x="2" y="20">2010</text><rect x="50" y="6" width="15" height="15" fill="#919fba"><title>57.666666666666664 emails, 0 repository events, 0 wiki edits in Jan 2010</title></rect><rect x="70" y="6" width="15" height="15" fill="#919fba"><title>57.666666666666664 emails, 0 repository events, 0 wiki edits in Feb 2010</title></rect><rect x="90" y="6" width="15" height="15" fill="#919fba"><title>57.666666666666664 emails, 0 repository events, 0 wiki edits in Mar 2010</title></rect><rect x="110" y="6" width="15" height="15" fill="#b9bdc6"><title>24.666666666666668 emails, 0 repository events, 0 wiki edits in Apr 2010</title></rect><rect x="130" y="6" width="15" height="15" fill="#b9bdc6"><title>24.666666666666668 emails, 0 repository events, 0 wiki edits in May 2010</title></rect><rect x="150" y="6" width="15" height="15" fill="#b9bdc6"><title>24.666666666666668 emails, 0 repository events, 0 wiki edits in Jun 2010</title></rect><rect x="170" y="6" width="15" height="15" fill="#a5aec0"><title>42.666666666666664 emails, 0 repository events, 0 wiki edits in Jul 2010</title></rect><rect x="190" y="6" width="15" height="15" fill="#a5aec0"><title>42.666666666666664 emails, 0 repository events, 0 wiki edits in Aug 2010</title></rect><rect x="210" y="6" width="15" height="15" fill="#a5aec0"><title>42.666666666666664 emails, 0 repository events, 0 wiki edits in Sep 2010</title></rect><rect x="230" y="6" width="15" height="15" fill="#a5aec0"><title>37.666666666666664 emails, 0 repository events, 0 wiki edits in Oct 2010</title></rect><rect x="250" y="6" width="15" height="15" fill="#a5aec0"><title>37.666666666666664 emails, 0 repository events, 0 wiki edits in Nov 2010</title></rect><rect x="270" y="6" width="15" height="15" fill="#a5aec0"><title>37.666666666666664 emails, 0 repository events, 0 wiki edits in Dec 2010</title></rect></g>
<g transform="translate(0 260)">
  <title>Activity in 2011</title>
  <text x="2" y="20">2011</text><rect x="50" y="6" width="15" height="15" fill="#919fba"><title>56.666666666666664 emails, 0 repository events, 0 wiki edits in Jan 2011</title></rect><rect x="70" y="6" width="15" height="15" fill="#919fba"><title>56.666666666666664 emails, 0 repository events, 0 wiki edits in Feb 2011</title></rect><rect x="90" y="6" width="15" height="15" fill="#919fba"><title>56.666666666666664 emails, 0 repository events, 0 wiki edits in Mar 2011</title></rect><rect x="110" y="6" width="15" height="15" fill="#a5aec0"><title>45.333333333333336 emails, 0 repository events, 0 wiki edits in Apr 2011</title></rect><rect x="130" y="6" width="15" height="15" fill="#a5aec0"><title>45.333333333333336 emails, 0 repository events, 0 wiki edits in May 2011</title></rect><rect x="150" y="6" width="15" height="15" fill="#a5aec0"><title>45.333333333333336 emails, 0 repository events, 0 wiki edits in Jun 2011</title></rect><rect x="170" y="6" width="15" height="15" fill="#a5aec0"><title>37.333333333333336 emails, 0 repository events, 0 wiki edits in Jul 2011</title></rect><rect x="190" y="6" width="15" height="15" fill="#a5aec0"><title>37.333333333333336 emails, 0 repository events, 0 wiki edits in Aug 2011</title></rect><rect x="210" y="6" width="15" height="15" fill="#a5aec0"><title>37.333333333333336 emails, 0 repository events, 0 wiki edits in Sep 2011</title></rect><rect x="230" y="6" width="15" height="15" fill="#b9bdc6"><title>16.666666666666668 emails, 0 repository events, 0 wiki edits in Oct 2011</title></rect><rect x="250" y="6" width="15" height="15" fill="#b9bdc6"><title>16.666666666666668 emails, 0 repository events, 0 wiki edits in Nov 2011</title></rect><rect x="270" y="6" width="15" height="15" fill="#b9bdc6"><title>16.666666666666668 emails, 0 repository events, 0 wiki edits in Dec 2011</title></rect></g>
<g transform="translate(0 280)">
  <title>Activity in 2012</title>
  <text x="2" y="20">2012</text><rect x="50" y="6" width="15" height="15" fill="#b9bdc6"><title>20.333333333333332 emails, 0 repository events, 0 wiki edits in Jan 2012</title></rect><rect x="70" y="6" width="15" height="15" fill="#b9bdc6"><title>20.333333333333332 emails, 0 repository events, 0 wiki edits in Feb 2012</title></rect><rect x="90" y="6" width="15" height="15" fill="#b9bdc6"><title>20.333333333333332 emails, 0 repository events, 0 wiki edits in Mar 2012</title></rect><rect x="110" y="6" width="15" height="15" fill="#b9bdc6"><title>15.333333333333334 emails, 0 repository events, 0 wiki edits in Apr 2012</title></rect><rect x="130" y="6" width="15" height="15" fill="#b9bdc6"><title>15.333333333333334 emails, 0 repository events, 0 wiki edits in May 2012</title></rect><rect x="150" y="6" width="15" height="15" fill="#b9bdc6"><title>15.333333333333334 emails, 0 repository events, 0 wiki edits in Jun 2012</title></rect><rect x="170" y="6" width="15" height="15" fill="#a5aec0"><title>46.333333333333336 emails, 0 repository events, 0 wiki edits in Jul 2012</title></rect><rect x="190" y="6" width="15" height="15" fill="#a5aec0"><title>46.333333333333336 emails, 0 repository events, 0 wiki edits in Aug 2012</title></rect><rect x="210" y="6" width="15" height="15" fill="#a5aec0"><title>46.333333333333336 emails, 0 repository events, 0 wiki edits in Sep 2012</title></rect><rect x="230" y="6" width="15" height="15" fill="#919fba"><title>55.666666666666664 emails, 0 repository events, 0 wiki edits in Oct 2012</title></rect><rect x="250" y="6" width="15" height="15" fill="#919fba"><title>55.666666666666664 emails, 0 repository events, 0 wiki edits in Nov 2012</title></rect><rect x="270" y="6" width="15" height="15" fill="#919fba"><title>55.666666666666664 emails, 0 repository events, 0 wiki edits in Dec 2012</title></rect></g>
<g transform="translate(0 300)">
  <title>Activity in 2013</title>
  <text x="2" y="20">2013</text><rect x="50" y="6" width="15" height="15" fill="#5174a8"><title>135 emails, 0 repository events, 0 wiki edits in Jan 2013</title></rect><rect x="70" y="6" width="15" height="15" fill="#5174a8"><title>135 emails, 0 repository events, 0 wiki edits in Feb 2013</title></rect><rect x="90" y="6" width="15" height="15" fill="#5174a8"><title>135 emails, 0 repository events, 0 wiki edits in Mar 2013</title></rect><rect x="110" y="6" width="15" height="15" fill="#a5aec0"><title>36.333333333333336 emails, 0 repository events, 0 wiki edits in Apr 2013</title></rect><rect x="130" y="6" width="15" height="15" fill="#a5aec0"><title>36.333333333333336 emails, 0 repository events, 0 wiki edits in May 2013</title></rect><rect x="150" y="6" width="15" height="15" fill="#a5aec0"><title>36.333333333333336 emails, 0 repository events, 0 wiki edits in Jun 2013</title></rect><rect x="170" y="6" width="15" height="15" fill="#919fba"><title>67 emails, 0 repository events, 0 wiki edits in Jul 2013</title></rect><rect x="190" y="6" width="15" height="15" fill="#919fba"><title>67 emails, 0 repository events, 0 wiki edits in Aug 2013</title></rect><rect x="210" y="6" width="15" height="15" fill="#919fba"><title>67 emails, 0 repository events, 0 wiki edits in Sep 2013</title></rect><rect x="230" y="6" width="15" height="15" fill="#919fba"><title>52 emails, 0 repository events, 0 wiki edits in Oct 2013</title></rect><rect x="250" y="6" width="15" height="15" fill="#919fba"><title>52 emails, 0 repository events, 0 wiki edits in Nov 2013</title></rect><rect x="270" y="6" width="15" height="15" fill="#919fba"><title>52 emails, 0 repository events, 0 wiki edits in Dec 2013</title></rect></g>
<g transform="translate(0 320)">
  <title>Activity in 2014</title>
  <text x="2" y="20">2014</text><rect x="50" y="6" width="15" height="15" fill="#5174a8"><title>149 emails, 0 repository events, 0 wiki edits in Jan 2014</title></rect><rect x="70" y="6" width="15" height="15" fill="#5174a8"><title>149 emails, 0 repository events, 0 wiki edits in Feb 2014</title></rect><rect x="90" y="6" width="15" height="15" fill="#5174a8"><title>149 emails, 0 repository events, 0 wiki edits in Mar 2014</title></rect><rect x="110" y="6" width="15" height="15" fill="#7d90b5"><title>99 emails, 0 repository events, 0 wiki edits in Apr 2014</title></rect><rect x="130" y="6" width="15" height="15" fill="#7d90b5"><title>99 emails, 0 repository events, 0 wiki edits in May 2014</title></rect><rect x="150" y="6" width="15" height="15" fill="#7d90b5"><title>99 emails, 0 repository events, 0 wiki edits in Jun 2014</title></rect><rect x="170" y="6" width="15" height="15" fill="#6882ae"><title>112.66666666666667 emails, 0 repository events, 0 wiki edits in Jul 2014</title></rect><rect x="190" y="6" width="15" height="15" fill="#6882ae"><title>112.66666666666667 emails, 0 repository events, 0 wiki edits in Aug 2014</title></rect><rect x="210" y="6" width="15" height="15" fill="#6882ae"><title>112.66666666666667 emails, 0 repository events, 0 wiki edits in Sep 2014</title></rect><rect x="230" y="6" width="15" height="15" fill="#919fba"><title>55.666666666666664 emails, 0 repository events, 0 wiki edits in Oct 2014</title></rect><rect x="250" y="6" width="15" height="15" fill="#919fba"><title>55.666666666666664 emails, 0 repository events, 0 wiki edits in Nov 2014</title></rect><rect x="270" y="6" width="15" height="15" fill="#919fba"><title>55.666666666666664 emails, 0 repository events, 0 wiki edits in Dec 2014</title></rect></g>
<g transform="translate(0 340)">
  <title>Activity in 2015</title>
  <text x="2" y="20">2015</text><rect x="50" y="6" width="15" height="15" fill="#919fba"><title>68.66666666666667 emails, 0 repository events, 0 wiki edits in Jan 2015</title></rect><rect x="70" y="6" width="15" height="15" fill="#919fba"><title>68.66666666666667 emails, 0 repository events, 0 wiki edits in Feb 2015</title></rect><rect x="90" y="6" width="15" height="15" fill="#919fba"><title>68.66666666666667 emails, 0 repository events, 0 wiki edits in Mar 2015</title></rect><rect x="110" y="6" width="15" height="15" fill="#7d90b5"><title>92 emails, 0 repository events, 0 wiki edits in Apr 2015</title></rect><rect x="130" y="6" width="15" height="15" fill="#7d90b5"><title>92 emails, 0 repository events, 0 wiki edits in May 2015</title></rect><rect x="150" y="6" width="15" height="15" fill="#7d90b5"><title>92 emails, 0 repository events, 0 wiki edits in Jun 2015</title></rect><rect x="170" y="6" width="15" height="15" fill="#919fba"><title>69.33333333333333 emails, 0 repository events, 0 wiki edits in Jul 2015</title></rect><rect x="190" y="6" width="15" height="15" fill="#919fba"><title>69.33333333333333 emails, 0 repository events, 0 wiki edits in Aug 2015</title></rect><rect x="210" y="6" width="15" height="15" fill="#919fba"><title>69.33333333333333 emails, 1 repository events, 0 wiki edits in Sep 2015</title></rect><rect x="230" y="6" width="15" height="15" fill="#919fba"><title>51.333333333333336 emails, 0 repository events, 0 wiki edits in Oct 2015</title></rect><rect x="250" y="6" width="15" height="15" fill="#919fba"><title>51.333333333333336 emails, 0 repository events, 0 wiki edits in Nov 2015</title></rect><rect x="270" y="6" width="15" height="15" fill="#919fba"><title>51.333333333333336 emails, 0 repository events, 0 wiki edits in Dec 2015</title></rect></g>
<g transform="translate(0 360)">
  <title>Activity in 2016</title>
  <text x="2" y="20">2016</text><rect x="50" y="6" width="15" height="15" fill="#a5aec0"><title>27.333333333333332 emails, 0 repository events, 0 wiki edits in Jan 2016</title></rect><rect x="70" y="6" width="15" height="15" fill="#a5aec0"><title>27.333333333333332 emails, 0 repository events, 0 wiki edits in Feb 2016</title></rect><rect x="90" y="6" width="15" height="15" fill="#a5aec0"><title>27.333333333333332 emails, 0 repository events, 0 wiki edits in Mar 2016</title></rect><rect x="110" y="6" width="15" height="15" fill="#7d90b5"><title>89.66666666666667 emails, 0 repository events, 0 wiki edits in Apr 2016</title></rect><rect x="130" y="6" width="15" height="15" fill="#7d90b5"><title>89.66666666666667 emails, 0 repository events, 0 wiki edits in May 2016</title></rect><rect x="150" y="6" width="15" height="15" fill="#7d90b5"><title>89.66666666666667 emails, 0 repository events, 0 wiki edits in Jun 2016</title></rect><rect x="170" y="6" width="15" height="15" fill="#7d90b5"><title>74 emails, 2 repository events, 0 wiki edits in Jul 2016</title></rect><rect x="190" y="6" width="15" height="15" fill="#919fba"><title>74 emails, 0 repository events, 0 wiki edits in Aug 2016</title></rect><rect x="210" y="6" width="15" height="15" fill="#919fba"><title>74 emails, 1 repository events, 0 wiki edits in Sep 2016</title></rect><rect x="230" y="6" width="15" height="15" fill="#a5aec0"><title>48.666666666666664 emails, 0 repository events, 0 wiki edits in Oct 2016</title></rect><rect x="250" y="6" width="15" height="15" fill="#919fba"><title>48.666666666666664 emails, 2 repository events, 0 wiki edits in Nov 2016</title></rect><rect x="270" y="6" width="15" height="15" fill="#919fba"><title>48.666666666666664 emails, 2 repository events, 0 wiki edits in Dec 2016</title></rect></g>
<g transform="translate(0 380)">
  <title>Activity in 2017</title>
  <text x="2" y="20">2017</text><rect x="50" y="6" width="15" height="15" fill="#a5aec0"><title>49 emails, 0 repository events, 0 wiki edits in Jan 2017</title></rect><rect x="70" y="6" width="15" height="15" fill="#919fba"><title>49 emails, 12 repository events, 0 wiki edits in Feb 2017</title></rect><rect x="90" y="6" width="15" height="15" fill="#919fba"><title>49 emails, 5 repository events, 0 wiki edits in Mar 2017</title></rect><rect x="110" y="6" width="15" height="15" fill="#919fba"><title>49.333333333333336 emails, 5 repository events, 0 wiki edits in Apr 2017</title></rect><rect x="130" y="6" width="15" height="15" fill="#a5aec0"><title>49.333333333333336 emails, 0 repository events, 0 wiki edits in May 2017</title></rect><rect x="150" y="6" width="15" height="15" fill="#a5aec0"><title>49.333333333333336 emails, 0 repository events, 0 wiki edits in Jun 2017</title></rect><rect x="170" y="6" width="15" height="15" fill="#a5aec0"><title>46 emails, 0 repository events, 0 wiki edits in Jul 2017</title></rect><rect x="190" y="6" width="15" height="15" fill="#a5aec0"><title>46 emails, 4 repository events, 0 wiki edits in Aug 2017</title></rect><rect x="210" y="6" width="15" height="15" fill="#a5aec0"><title>46 emails, 4 repository events, 0 wiki edits in Sep 2017</title></rect><rect x="230" y="6" width="15" height="15" fill="#919fba"><title>51.333333333333336 emails, 0 repository events, 0 wiki edits in Oct 2017</title></rect><rect x="250" y="6" width="15" height="15" fill="#919fba"><title>51.333333333333336 emails, 0 repository events, 0 wiki edits in Nov 2017</title></rect><rect x="270" y="6" width="15" height="15" fill="#919fba"><title>51.333333333333336 emails, 5 repository events, 0 wiki edits in Dec 2017</title></rect></g>
<g transform="translate(0 400)">
  <title>Activity in 2018</title>
  <text x="2" y="20">2018</text><rect x="50" y="6" width="15" height="15" fill="#919fba"><title>54 emails, 0 repository events, 0 wiki edits in Jan 2018</title></rect><rect x="70" y="6" width="15" height="15" fill="#919fba"><title>54 emails, 3 repository events, 0 wiki edits in Feb 2018</title></rect><rect x="90" y="6" width="15" height="15" fill="#919fba"><title>54 emails, 21 repository events, 0 wiki edits in Mar 2018</title></rect><rect x="110" y="6" width="15" height="15" fill="#919fba"><title>41 emails, 11 repository events, 0 wiki edits in Apr 2018</title></rect><rect x="130" y="6" width="15" height="15" fill="#919fba"><title>41 emails, 10 repository events, 0 wiki edits in May 2018</title></rect><rect x="150" y="6" width="15" height="15" fill="#a5aec0"><title>41 emails, 6 repository events, 0 wiki edits in Jun 2018</title></rect><rect x="170" y="6" width="15" height="15" fill="#919fba"><title>50.333333333333336 emails, 5 repository events, 0 wiki edits in Jul 2018</title></rect><rect x="190" y="6" width="15" height="15" fill="#919fba"><title>50.333333333333336 emails, 19 repository events, 0 wiki edits in Aug 2018</title></rect><rect x="210" y="6" width="15" height="15" fill="#919fba"><title>50.333333333333336 emails, 7 repository events, 0 wiki edits in Sep 2018</title></rect><rect x="230" y="6" width="15" height="15" fill="#919fba"><title>36.333333333333336 emails, 20 repository events, 0 wiki edits in Oct 2018</title></rect><rect x="250" y="6" width="15" height="15" fill="#a5aec0"><title>36.333333333333336 emails, 11 repository events, 0 wiki edits in Nov 2018</title></rect><rect x="270" y="6" width="15" height="15" fill="#a5aec0"><title>36.333333333333336 emails, 13 repository events, 0 wiki edits in Dec 2018</title></rect></g>
<g transform="translate(0 420)">
  <title>Activity in 2019</title>
  <text x="2" y="20">2019</text><rect x="50" y="6" width="15" height="15" fill="#a5aec0"><title>44 emails, 6 repository events, 0 wiki edits in Jan 2019</title></rect><rect x="70" y="6" width="15" height="15" fill="#a5aec0"><title>44 emails, 6 repository events, 0 wiki edits in Feb 2019</title></rect><rect x="90" y="6" width="15" height="15" fill="#a5aec0"><title>44 emails, 6 repository events, 0 wiki edits in Mar 2019</title></rect><rect x="110" y="6" width="15" height="15" fill="#a5aec0"><title>43.666666666666664 emails, 0 repository events, 0 wiki edits in Apr 2019</title></rect><rect x="130" y="6" width="15" height="15" fill="#7d90b5"><title>43.666666666666664 emails, 50 repository events, 0 wiki edits in May 2019</title></rect><rect x="150" y="6" width="15" height="15" fill="#7d90b5"><title>43.666666666666664 emails, 48 repository events, 0 wiki edits in Jun 2019</title></rect><rect x="170" y="6" width="15" height="15" fill="#919fba"><title>42.666666666666664 emails, 24 repository events, 0 wiki edits in Jul 2019</title></rect><rect x="190" y="6" width="15" height="15" fill="#919fba"><title>42.666666666666664 emails, 9 repository events, 0 wiki edits in Aug 2019</title></rect><rect x="210" y="6" width="15" height="15" fill="#919fba"><title>42.666666666666664 emails, 16 repository events, 0 wiki edits in Sep 2019</title></rect><rect x="230" y="6" width="15" height="15" fill="#919fba"><title>45 emails, 10 repository events, 0 wiki edits in Oct 2019</title></rect><rect x="250" y="6" width="15" height="15" fill="#919fba"><title>45 emails, 22 repository events, 0 wiki edits in Nov 2019</title></rect><rect x="270" y="6" width="15" height="15" fill="#919fba"><title>45 emails, 30 repository events, 0 wiki edits in Dec 2019</title></rect></g>
<g transform="translate(0 440)">
  <title>Activity in 2020</title>
  <text x="2" y="20">2020</text><rect x="50" y="6" width="15" height="15" fill="#919fba"><title>41 emails, 12 repository events, 0 wiki edits in Jan 2020</title></rect><rect x="70" y="6" width="15" height="15" fill="#5174a8"><title>41 emails, 93 repository events, 0 wiki edits in Feb 2020</title></rect><rect x="90" y="6" width="15" height="15" fill="#a5aec0"><title>41 emails, 5 repository events, 0 wiki edits in Mar 2020</title></rect><rect x="110" y="6" width="15" height="15" fill="#919fba"><title>52.333333333333336 emails, 18 repository events, 0 wiki edits in Apr 2020</title></rect><rect x="130" y="6" width="15" height="15" fill="#919fba"><title>52.333333333333336 emails, 6 repository events, 0 wiki edits in May 2020</title></rect><rect x="150" y="6" width="15" height="15" fill="#919fba"><title>52.333333333333336 emails, 14 repository events, 0 wiki edits in Jun 2020</title></rect><rect x="170" y="6" width="15" height="15" fill="#7d90b5"><title>52 emails, 24 repository events, 0 wiki edits in Jul 2020</title></rect><rect x="190" y="6" width="15" height="15" fill="#7d90b5"><title>52 emails, 25 repository events, 0 wiki edits in Aug 2020</title></rect><rect x="210" y="6" width="15" height="15" fill="#919fba"><title>52 emails, 8 repository events, 0 wiki edits in Sep 2020</title></rect><rect x="230" y="6" width="15" height="15" fill="#a5aec0"><title>39.333333333333336 emails, 2 repository events, 0 wiki edits in Oct 2020</title></rect><rect x="250" y="6" width="15" height="15" fill="#a5aec0"><title>39.333333333333336 emails, 3 repository events, 0 wiki edits in Nov 2020</title></rect><rect x="270" y="6" width="15" height="15" fill="#a5aec0"><title>39.333333333333336 emails, 6 repository events, 0 wiki edits in Dec 2020</title></rect></g>
<g transform="translate(0 460)">
  <title>Activity in 2021</title>
  <text x="2" y="20">2021</text><rect x="50" y="6" width="15" height="15" fill="#919fba"><title>46 emails, 11 repository events, 0 wiki edits in Jan 2021</title></rect><rect x="70" y="6" width="15" height="15" fill="#919fba"><title>46 emails, 8 repository events, 0 wiki edits in Feb 2021</title></rect><rect x="90" y="6" width="15" height="15" fill="#919fba"><title>46 emails, 10 repository events, 0 wiki edits in Mar 2021</title></rect><rect x="110" y="6" width="15" height="15" fill="#919fba"><title>49.333333333333336 emails, 12 repository events, 0 wiki edits in Apr 2021</title></rect><rect x="130" y="6" width="15" height="15" fill="#919fba"><title>49.333333333333336 emails, 12 repository events, 0 wiki edits in May 2021</title></rect><rect x="150" y="6" width="15" height="15" fill="#919fba"><title>49.333333333333336 emails, 13 repository events, 0 wiki edits in Jun 2021</title></rect><rect x="170" y="6" width="15" height="15" fill="#a5aec0"><title>41.666666666666664 emails, 7 repository events, 0 wiki edits in Jul 2021</title></rect><rect x="190" y="6" width="15" height="15" fill="#919fba"><title>41.666666666666664 emails, 9 repository events, 0 wiki edits in Aug 2021</title></rect><rect x="210" y="6" width="15" height="15" fill="#919fba"><title>41.666666666666664 emails, 15 repository events, 0 wiki edits in Sep 2021</title></rect><rect x="230" y="6" width="15" height="15" fill="#919fba"><title>46.666666666666664 emails, 9 repository events, 0 wiki edits in Oct 2021</title></rect><rect x="250" y="6" width="15" height="15" fill="#919fba"><title>46.666666666666664 emails, 12 repository events, 0 wiki edits in Nov 2021</title></rect><rect x="270" y="6" width="15" height="15" fill="#a5aec0"><title>46.666666666666664 emails, 0 repository events, 0 wiki edits in Dec 2021</title></rect></g>
<g transform="translate(0 480)">
  <title>Activity in 2022</title>
  <text x="2" y="20">2022</text><rect x="50" y="6" width="15" height="15" fill="#a5aec0"><title>40 emails, 10 repository events, 0 wiki edits in Jan 2022</title></rect><rect x="70" y="6" width="15" height="15" fill="#a5aec0"><title>40 emails, 7 repository events, 0 wiki edits in Feb 2022</title></rect><rect x="90" y="6" width="15" height="15" fill="#a5aec0"><title>40 emails, 1 repository events, 0 wiki edits in Mar 2022</title></rect><rect x="110" y="6" width="15" height="15" fill="#919fba"><title>45.333333333333336 emails, 8 repository events, 0 wiki edits in Apr 2022</title></rect><rect x="130" y="6" width="15" height="15" fill="#a5aec0"><title>45.333333333333336 emails, 0 repository events, 0 wiki edits in May 2022</title></rect><rect x="150" y="6" width="15" height="15" fill="#919fba"><title>45.333333333333336 emails, 19 repository events, 0 wiki edits in Jun 2022</title></rect><rect x="170" y="6" width="15" height="15" fill="#919fba"><title>46 emails, 5 repository events, 0 wiki edits in Jul 2022</title></rect><rect x="190" y="6" width="15" height="15" fill="#919fba"><title>46 emails, 5 repository events, 0 wiki edits in Aug 2022</title></rect><rect x="210" y="6" width="15" height="15" fill="#919fba"><title>46 emails, 9 repository events, 0 wiki edits in Sep 2022</title></rect><rect x="230" y="6" width="15" height="15" fill="#919fba"><title>39.666666666666664 emails, 18 repository events, 0 wiki edits in Oct 2022</title></rect><rect x="250" y="6" width="15" height="15" fill="#a5aec0"><title>39.666666666666664 emails, 7 repository events, 0 wiki edits in Nov 2022</title></rect><rect x="270" y="6" width="15" height="15" fill="#919fba"><title>39.666666666666664 emails, 19 repository events, 0 wiki edits in Dec 2022</title></rect></g>
<g transform="translate(0 500)">
  <title>Activity in 2023</title>
  <text x="2" y="20">2023</text><rect x="50" y="6" width="15" height="15" fill="#a5aec0"><title>41.333333333333336 emails, 7 repository events, 0 wiki edits in Jan 2023</title></rect><rect x="70" y="6" width="15" height="15" fill="#a5aec0"><title>41.333333333333336 emails, 4 repository events, 0 wiki edits in Feb 2023</title></rect><rect x="90" y="6" width="15" height="15" fill="#919fba"><title>41.333333333333336 emails, 13 repository events, 0 wiki edits in Mar 2023</title></rect><rect x="110" y="6" width="15" height="15" fill="#b9bdc6"><title>7 emails, 0 repository events, 0 wiki edits in Apr 2023</title></rect></g><text style="font-size: 10px; text-align: center" x="53" y="530">J</text><text style="font-size: 10px; text-align: center" x="73" y="530">F</text><text style="font-size: 10px; text-align: center" x="93" y="530">M</text><text style="font-size: 10px; text-align: center" x="113" y="530">A</text><text style="font-size: 10px; text-align: center" x="133" y="530">M</text><text style="font-size: 10px; text-align: center" x="153" y="530">J</text><text style="font-size: 10px; text-align: center" x="173" y="530">J</text><text style="font-size: 10px; text-align: center" x="193" y="530">A</text><text style="font-size: 10px; text-align: center" x="213" y="530">S</text><text style="font-size: 10px; text-align: center" x="233" y="530">O</text><text style="font-size: 10px; text-align: center" x="253" y="530">N</text><text style="font-size: 10px; text-align: center" x="273" y="530">D</text><text style="font-size: 10px;" x="155" y="549">Less</text><rect fill="#b9bdc6" width="10" height="10" x="180" y="540"><title>No activity in the period</title></rect><rect fill="#919fba" width="10" height="10" x="195" y="540"><title>Low activity in the period</title></rect><rect fill="#6882ae" width="10" height="10" x="210" y="540"><title>Medium activity in the period</title></rect><rect fill="#005a9c" width="10" height="10" x="225" y="540"><title>High activity in period</title></rect><text x="240" y="549" style="font-size: 10px;">More</text></svg>