<svg xmlns="http://www.w3.org/2000/svg">
  <title>Activity of Privacy%20Interest%20Group</title>
  <style type="text/css">.none { fill: #aaa;}
  .low { fill: #8ac;}
  .medium { fill: #49a;}
  .high { fill: #159;}
  </style>

<g transform="translate(0 0)">
  <title>Activity in 2012</title>
  <text x="2" y="20">2012</text><rect x="70" y="6" width="15" height="15" class="medium"><title>22.666666666666668 emails, 0 repo event, 0 wiki edits in Feb 2012</title></rect><rect x="90" y="6" width="15" height="15" class="medium"><title>22.666666666666668 emails, 0 repo event, 0 wiki edits in Mar 2012</title></rect><rect x="110" y="6" width="15" height="15" class="medium"><title>32.333333333333336 emails, 0 repo event, 0 wiki edits in Apr 2012</title></rect><rect x="130" y="6" width="15" height="15" class="medium"><title>32.333333333333336 emails, 0 repo event, 0 wiki edits in May 2012</title></rect><rect x="150" y="6" width="15" height="15" class="medium"><title>32.333333333333336 emails, 0 repo event, 0 wiki edits in Jun 2012</title></rect><rect x="170" y="6" width="15" height="15" class="medium"><title>27 emails, 0 repo event, 0 wiki edits in Jul 2012</title></rect><rect x="190" y="6" width="15" height="15" class="medium"><title>27 emails, 0 repo event, 0 wiki edits in Aug 2012</title></rect><rect x="210" y="6" width="15" height="15" class="medium"><title>27 emails, 0 repo event, 0 wiki edits in Sep 2012</title></rect><rect x="230" y="6" width="15" height="15" class="high"><title>96.66666666666667 emails, 0 repo event, 0 wiki edits in Oct 2012</title></rect><rect x="250" y="6" width="15" height="15" class="high"><title>96.66666666666667 emails, 0 repo event, 0 wiki edits in Nov 2012</title></rect><rect x="270" y="6" width="15" height="15" class="high"><title>96.66666666666667 emails, 0 repo event, 0 wiki edits in Dec 2012</title></rect></g>
<g transform="translate(0 20)">
  <title>Activity in 2013</title>
  <text x="2" y="20">2013</text><rect x="50" y="6" width="15" height="15" class="medium"><title>25.333333333333332 emails, 0 repo event, 0 wiki edits in Jan 2013</title></rect><rect x="70" y="6" width="15" height="15" class="medium"><title>25.333333333333332 emails, 0 repo event, 0 wiki edits in Feb 2013</title></rect><rect x="90" y="6" width="15" height="15" class="medium"><title>25.333333333333332 emails, 0 repo event, 0 wiki edits in Mar 2013</title></rect><rect x="110" y="6" width="15" height="15" class="medium"><title>20.666666666666668 emails, 0 repo event, 0 wiki edits in Apr 2013</title></rect><rect x="130" y="6" width="15" height="15" class="medium"><title>20.666666666666668 emails, 0 repo event, 0 wiki edits in May 2013</title></rect><rect x="150" y="6" width="15" height="15" class="medium"><title>20.666666666666668 emails, 0 repo event, 0 wiki edits in Jun 2013</title></rect><rect x="170" y="6" width="15" height="15" class="medium"><title>26.666666666666668 emails, 0 repo event, 0 wiki edits in Jul 2013</title></rect><rect x="190" y="6" width="15" height="15" class="medium"><title>26.666666666666668 emails, 0 repo event, 0 wiki edits in Aug 2013</title></rect><rect x="210" y="6" width="15" height="15" class="medium"><title>26.666666666666668 emails, 0 repo event, 0 wiki edits in Sep 2013</title></rect><rect x="230" y="6" width="15" height="15" class="low"><title>12.666666666666666 emails, 0 repo event, 0 wiki edits in Oct 2013</title></rect><rect x="250" y="6" width="15" height="15" class="low"><title>12.666666666666666 emails, 0 repo event, 0 wiki edits in Nov 2013</title></rect><rect x="270" y="6" width="15" height="15" class="low"><title>12.666666666666666 emails, 0 repo event, 0 wiki edits in Dec 2013</title></rect></g>
<g transform="translate(0 40)">
  <title>Activity in 2014</title>
  <text x="2" y="20">2014</text><rect x="50" y="6" width="15" height="15" class="low"><title>17 emails, 0 repo event, 0 wiki edits in Jan 2014</title></rect><rect x="70" y="6" width="15" height="15" class="low"><title>17 emails, 0 repo event, 0 wiki edits in Feb 2014</title></rect><rect x="90" y="6" width="15" height="15" class="low"><title>17 emails, 0 repo event, 0 wiki edits in Mar 2014</title></rect><rect x="110" y="6" width="15" height="15" class="low"><title>8.333333333333334 emails, 0 repo event, 0 wiki edits in Apr 2014</title></rect><rect x="130" y="6" width="15" height="15" class="low"><title>8.333333333333334 emails, 0 repo event, 0 wiki edits in May 2014</title></rect><rect x="150" y="6" width="15" height="15" class="low"><title>8.333333333333334 emails, 2 repo event, 0 wiki edits in Jun 2014</title></rect><rect x="170" y="6" width="15" height="15" class="low"><title>15.333333333333334 emails, 0 repo event, 0 wiki edits in Jul 2014</title></rect><rect x="190" y="6" width="15" height="15" class="low"><title>15.333333333333334 emails, 0 repo event, 0 wiki edits in Aug 2014</title></rect><rect x="210" y="6" width="15" height="15" class="low"><title>15.333333333333334 emails, 0 repo event, 0 wiki edits in Sep 2014</title></rect><rect x="230" y="6" width="15" height="15" class="medium"><title>30.666666666666668 emails, 0 repo event, 0 wiki edits in Oct 2014</title></rect><rect x="250" y="6" width="15" height="15" class="medium"><title>30.666666666666668 emails, 0 repo event, 0 wiki edits in Nov 2014</title></rect><rect x="270" y="6" width="15" height="15" class="medium"><title>30.666666666666668 emails, 0 repo event, 0 wiki edits in Dec 2014</title></rect></g>
<g transform="translate(0 60)">
  <title>Activity in 2015</title>
  <text x="2" y="20">2015</text><rect x="50" y="6" width="15" height="15" class="medium"><title>46.666666666666664 emails, 0 repo event, 0 wiki edits in Jan 2015</title></rect><rect x="70" y="6" width="15" height="15" class="medium"><title>46.666666666666664 emails, 0 repo event, 0 wiki edits in Feb 2015</title></rect><rect x="90" y="6" width="15" height="15" class="medium"><title>46.666666666666664 emails, 0 repo event, 0 wiki edits in Mar 2015</title></rect><rect x="110" y="6" width="15" height="15" class="medium"><title>32.666666666666664 emails, 0 repo event, 0 wiki edits in Apr 2015</title></rect><rect x="130" y="6" width="15" height="15" class="medium"><title>32.666666666666664 emails, 0 repo event, 0 wiki edits in May 2015</title></rect><rect x="150" y="6" width="15" height="15" class="medium"><title>32.666666666666664 emails, 0 repo event, 0 wiki edits in Jun 2015</title></rect><rect x="170" y="6" width="15" height="15" class="medium"><title>50.333333333333336 emails, 0 repo event, 0 wiki edits in Jul 2015</title></rect><rect x="190" y="6" width="15" height="15" class="medium"><title>50.333333333333336 emails, 0 repo event, 0 wiki edits in Aug 2015</title></rect><rect x="210" y="6" width="15" height="15" class="medium"><title>50.333333333333336 emails, 0 repo event, 0 wiki edits in Sep 2015</title></rect><rect x="230" y="6" width="15" height="15" class="medium"><title>52.333333333333336 emails, 7 repo event, 0 wiki edits in Oct 2015</title></rect><rect x="250" y="6" width="15" height="15" class="medium"><title>52.333333333333336 emails, 0 repo event, 0 wiki edits in Nov 2015</title></rect><rect x="270" y="6" width="15" height="15" class="medium"><title>52.333333333333336 emails, 1 repo event, 0 wiki edits in Dec 2015</title></rect></g>
<g transform="translate(0 80)">
  <title>Activity in 2016</title>
  <text x="2" y="20">2016</text><rect x="50" y="6" width="15" height="15" class="medium"><title>34.666666666666664 emails, 3 repo event, 0 wiki edits in Jan 2016</title></rect><rect x="70" y="6" width="15" height="15" class="medium"><title>34.666666666666664 emails, 0 repo event, 0 wiki edits in Feb 2016</title></rect><rect x="90" y="6" width="15" height="15" class="medium"><title>34.666666666666664 emails, 0 repo event, 0 wiki edits in Mar 2016</title></rect><rect x="110" y="6" width="15" height="15" class="medium"><title>39.333333333333336 emails, 0 repo event, 0 wiki edits in Apr 2016</title></rect><rect x="130" y="6" width="15" height="15" class="medium"><title>39.333333333333336 emails, 0 repo event, 0 wiki edits in May 2016</title></rect><rect x="150" y="6" width="15" height="15" class="medium"><title>39.333333333333336 emails, 0 repo event, 0 wiki edits in Jun 2016</title></rect><rect x="170" y="6" width="15" height="15" class="medium"><title>23.333333333333332 emails, 1 repo event, 0 wiki edits in Jul 2016</title></rect><rect x="190" y="6" width="15" height="15" class="medium"><title>23.333333333333332 emails, 4 repo event, 0 wiki edits in Aug 2016</title></rect><rect x="210" y="6" width="15" height="15" class="medium"><title>23.333333333333332 emails, 2 repo event, 0 wiki edits in Sep 2016</title></rect><rect x="230" y="6" width="15" height="15" class="medium"><title>22 emails, 0 repo event, 0 wiki edits in Oct 2016</title></rect><rect x="250" y="6" width="15" height="15" class="medium"><title>22 emails, 0 repo event, 0 wiki edits in Nov 2016</title></rect><rect x="270" y="6" width="15" height="15" class="medium"><title>22 emails, 0 repo event, 0 wiki edits in Dec 2016</title></rect></g>
<g transform="translate(0 100)">
  <title>Activity in 2017</title>
  <text x="2" y="20">2017</text><rect x="50" y="6" width="15" height="15" class="low"><title>12 emails, 0 repo event, 0 wiki edits in Jan 2017</title></rect><rect x="70" y="6" width="15" height="15" class="low"><title>12 emails, 0 repo event, 0 wiki edits in Feb 2017</title></rect><rect x="90" y="6" width="15" height="15" class="low"><title>12 emails, 0 repo event, 0 wiki edits in Mar 2017</title></rect><rect x="110" y="6" width="15" height="15" class="low"><title>10.666666666666666 emails, 0 repo event, 0 wiki edits in Apr 2017</title></rect><rect x="130" y="6" width="15" height="15" class="low"><title>10.666666666666666 emails, 2 repo event, 0 wiki edits in May 2017</title></rect><rect x="150" y="6" width="15" height="15" class="low"><title>10.666666666666666 emails, 0 repo event, 0 wiki edits in Jun 2017</title></rect><rect x="170" y="6" width="15" height="15" class="low"><title>9 emails, 0 repo event, 0 wiki edits in Jul 2017</title></rect><rect x="190" y="6" width="15" height="15" class="low"><title>9 emails, 0 repo event, 0 wiki edits in Aug 2017</title></rect><rect x="210" y="6" width="15" height="15" class="low"><title>9 emails, 0 repo event, 0 wiki edits in Sep 2017</title></rect><rect x="230" y="6" width="15" height="15" class="low"><title>7.666666666666667 emails, 0 repo event, 0 wiki edits in Oct 2017</title></rect><rect x="250" y="6" width="15" height="15" class="low"><title>7.666666666666667 emails, 1 repo event, 0 wiki edits in Nov 2017</title></rect><rect x="270" y="6" width="15" height="15" class="low"><title>7.666666666666667 emails, 0 repo event, 0 wiki edits in Dec 2017</title></rect></g>
<g transform="translate(0 120)">
  <title>Activity in 2018</title>
  <text x="2" y="20">2018</text><rect x="50" y="6" width="15" height="15" class="low"><title>10.333333333333334 emails, 0 repo event, 0 wiki edits in Jan 2018</title></rect><rect x="70" y="6" width="15" height="15" class="low"><title>10.333333333333334 emails, 0 repo event, 0 wiki edits in Feb 2018</title></rect><rect x="90" y="6" width="15" height="15" class="low"><title>10.333333333333334 emails, 0 repo event, 0 wiki edits in Mar 2018</title></rect><rect x="110" y="6" width="15" height="15" class="low"><title>16.666666666666668 emails, 2 repo event, 0 wiki edits in Apr 2018</title></rect><rect x="130" y="6" width="15" height="15" class="low"><title>16.666666666666668 emails, 0 repo event, 0 wiki edits in May 2018</title></rect><rect x="150" y="6" width="15" height="15" class="low"><title>16.666666666666668 emails, 3 repo event, 0 wiki edits in Jun 2018</title></rect><rect x="170" y="6" width="15" height="15" class="medium"><title>15 emails, 9 repo event, 0 wiki edits in Jul 2018</title></rect><rect x="190" y="6" width="15" height="15" class="medium"><title>15 emails, 10 repo event, 0 wiki edits in Aug 2018</title></rect><rect x="210" y="6" width="15" height="15" class="medium"><title>15 emails, 18 repo event, 0 wiki edits in Sep 2018</title></rect><rect x="230" y="6" width="15" height="15" class="medium"><title>16.666666666666668 emails, 57 repo event, 0 wiki edits in Oct 2018</title></rect><rect x="250" y="6" width="15" height="15" class="medium"><title>16.666666666666668 emails, 8 repo event, 0 wiki edits in Nov 2018</title></rect><rect x="270" y="6" width="15" height="15" class="medium"><title>16.666666666666668 emails, 18 repo event, 0 wiki edits in Dec 2018</title></rect></g>
<g transform="translate(0 140)">
  <title>Activity in 2019</title>
  <text x="2" y="20">2019</text><rect x="50" y="6" width="15" height="15" class="medium"><title>28.666666666666668 emails, 15 repo event, 0 wiki edits in Jan 2019</title></rect><rect x="70" y="6" width="15" height="15" class="medium"><title>28.666666666666668 emails, 32 repo event, 0 wiki edits in Feb 2019</title></rect><rect x="90" y="6" width="15" height="15" class="medium"><title>28.666666666666668 emails, 31 repo event, 0 wiki edits in Mar 2019</title></rect><rect x="110" y="6" width="15" height="15" class="high"><title>36.666666666666664 emails, 50 repo event, 0 wiki edits in Apr 2019</title></rect><rect x="130" y="6" width="15" height="15" class="medium"><title>36.666666666666664 emails, 24 repo event, 0 wiki edits in May 2019</title></rect><rect x="150" y="6" width="15" height="15" class="high"><title>36.666666666666664 emails, 48 repo event, 0 wiki edits in Jun 2019</title></rect><rect x="170" y="6" width="15" height="15" class="medium"><title>26 emails, 26 repo event, 0 wiki edits in Jul 2019</title></rect><rect x="190" y="6" width="15" height="15" class="high"><title>26 emails, 59 repo event, 0 wiki edits in Aug 2019</title></rect><rect x="210" y="6" width="15" height="15" class="medium"><title>26 emails, 42 repo event, 0 wiki edits in Sep 2019</title></rect><rect x="230" y="6" width="15" height="15" class="medium"><title>25 emails, 24 repo event, 0 wiki edits in Oct 2019</title></rect><rect x="250" y="6" width="15" height="15" class="medium"><title>25 emails, 12 repo event, 0 wiki edits in Nov 2019</title></rect><rect x="270" y="6" width="15" height="15" class="medium"><title>25 emails, 54 repo event, 0 wiki edits in Dec 2019</title></rect></g>
<g transform="translate(0 160)">
  <title>Activity in 2020</title>
  <text x="2" y="20">2020</text><rect x="50" y="6" width="15" height="15" class="medium"><title>20 emails, 45 repo event, 0 wiki edits in Jan 2020</title></rect><rect x="70" y="6" width="15" height="15" class="medium"><title>20 emails, 50 repo event, 0 wiki edits in Feb 2020</title></rect><rect x="90" y="6" width="15" height="15" class="high"><title>20 emails, 124 repo event, 0 wiki edits in Mar 2020</title></rect><rect x="110" y="6" width="15" height="15" class="medium"><title>9.666666666666666 emails, 56 repo event, 0 wiki edits in Apr 2020</title></rect><rect x="130" y="6" width="15" height="15" class="medium"><title>9.666666666666666 emails, 51 repo event, 0 wiki edits in May 2020</title></rect><rect x="150" y="6" width="15" height="15" class="medium"><title>9.666666666666666 emails, 49 repo event, 0 wiki edits in Jun 2020</title></rect><rect x="170" y="6" width="15" height="15" class="medium"><title>13.333333333333334 emails, 14 repo event, 0 wiki edits in Jul 2020</title></rect><rect x="190" y="6" width="15" height="15" class="medium"><title>13.333333333333334 emails, 30 repo event, 0 wiki edits in Aug 2020</title></rect><rect x="210" y="6" width="15" height="15" class="medium"><title>13.333333333333334 emails, 45 repo event, 0 wiki edits in Sep 2020</title></rect><rect x="230" y="6" width="15" height="15" class="medium"><title>10.333333333333334 emails, 26 repo event, 0 wiki edits in Oct 2020</title></rect></g></svg>